<svg width="24" height="24" viewBox="0 0 24 24" fill="none" xmlns="http://www.w3.org/2000/svg">
<mask id="mask0_87_1878" style="mask-type:alpha" maskUnits="userSpaceOnUse" x="0" y="0" width="24" height="24">
<rect width="24" height="24" fill="#1C1B1F"/>
</mask>
<g mask="url(#mask0_87_1878)">
<path d="M12 18C14.2333 18 16.125 17.2208 17.675 15.6625C19.225 14.1042 20 12.2167 20 10C20 9.48333 19.9583 8.9875 19.875 8.5125C19.7917 8.0375 19.6583 7.575 19.475 7.125C19.025 7.40833 18.55 7.625 18.05 7.775C17.55 7.925 17.0333 8 16.5 8C15.6 8 14.7542 7.79583 13.9625 7.3875C13.1708 6.97917 12.5167 6.4 12 5.65C11.4833 6.4 10.8292 6.97917 10.0375 7.3875C9.24585 7.79583 8.40001 8 7.50001 8C6.96668 8 6.45001 7.925 5.95001 7.775C5.45001 7.625 4.97501 7.40833 4.52501 7.125C4.34168 7.575 4.20835 8.0375 4.12501 8.5125C4.04168 8.9875 4.00001 9.48333 4.00001 10C4.00001 12.2167 4.77918 14.1042 6.33751 15.6625C7.89585 17.2208 9.78335 18 12 18ZM9.00001 12.25C9.35001 12.25 9.64585 12.1292 9.88752 11.8875C10.1292 11.6458 10.25 11.35 10.25 11C10.25 10.65 10.1292 10.3542 9.88752 10.1125C9.64585 9.87083 9.35001 9.75 9.00001 9.75C8.65001 9.75 8.35418 9.87083 8.11251 10.1125C7.87085 10.3542 7.75001 10.65 7.75001 11C7.75001 11.35 7.87085 11.6458 8.11251 11.8875C8.35418 12.1292 8.65001 12.25 9.00001 12.25ZM15 12.25C15.35 12.25 15.6458 12.1292 15.8875 11.8875C16.1292 11.6458 16.25 11.35 16.25 11C16.25 10.65 16.1292 10.3542 15.8875 10.1125C15.6458 9.87083 15.35 9.75 15 9.75C14.65 9.75 14.3542 9.87083 14.1125 10.1125C13.8708 10.3542 13.75 10.65 13.75 11C13.75 11.35 13.8708 11.6458 14.1125 11.8875C14.3542 12.1292 14.65 12.25 15 12.25ZM7.50001 6C8.46668 6 9.29168 5.65833 9.97501 4.975C10.6583 4.29167 11 3.46667 11 2.5V2.05C9.86668 2.18333 8.82502 2.54167 7.87501 3.125C6.92501 3.70833 6.13335 4.45 5.50001 5.35C5.80001 5.55 6.11668 5.70833 6.45001 5.825C6.78335 5.94167 7.13335 6 7.50001 6ZM16.5 6C16.8667 6 17.2167 5.94583 17.55 5.8375C17.8833 5.72917 18.2 5.56667 18.5 5.35C17.8667 4.45 17.0792 3.70833 16.1375 3.125C15.1958 2.54167 14.15 2.18333 13 2.05V2.5C13 3.46667 13.3417 4.29167 14.025 4.975C14.7083 5.65833 15.5333 6 16.5 6ZM2.20001 22C1.61668 22 1.12501 21.7833 0.725014 21.35C0.325014 20.9167 0.150014 20.4083 0.200014 19.825L1.10001 9.95C1.23335 8.55 1.61251 7.24167 2.23751 6.025C2.86251 4.80833 3.66251 3.75417 4.63751 2.8625C5.61251 1.97083 6.72918 1.27083 7.98751 0.7625C9.24585 0.254167 10.5833 0 12 0C13.4167 0 14.7542 0.254167 16.0125 0.7625C17.2708 1.27083 18.3875 1.97083 19.3625 2.8625C20.3375 3.75417 21.1375 4.80833 21.7625 6.025C22.3875 7.24167 22.7667 8.55 22.9 9.95L23.8 19.825C23.85 20.4083 23.675 20.9167 23.275 21.35C22.875 21.7833 22.3833 22 21.8 22H2.20001ZM12 20C9.91668 20 8.04168 19.4208 6.37501 18.2625C4.70835 17.1042 3.50001 15.6167 2.75001 13.8L2.20001 20H21.8L21.25 13.8C20.5 15.6167 19.2958 17.1042 17.6375 18.2625C15.9792 19.4208 14.1 20 12 20ZM12 20H21.8H2.20001H12Z" fill="#A1C049"/>
</g>
</svg>
