<?xml version="1.0" encoding="UTF-8" standalone="no"?>
<!DOCTYPE svg PUBLIC "-//W3C//DTD SVG 1.1//EN" "http://www.w3.org/Graphics/SVG/1.1/DTD/svg11.dtd">
<svg width="100%" height="100%" viewBox="0 0 400 400" version="1.1" xmlns="http://www.w3.org/2000/svg" xmlns:xlink="http://www.w3.org/1999/xlink" xml:space="preserve" xmlns:serif="http://www.serif.com/" style="fill-rule:evenodd;clip-rule:evenodd;stroke-linejoin:round;stroke-miterlimit:2;">
    <g transform="matrix(1.34717,0,0,1.34717,-383.922,-383.303)">
        <g>
            <g transform="matrix(0.50079,0,0,0.50079,216.612,216.15)">
                <path d="M501.82,376.9C488.24,401.18 472.21,429.17 456.89,455.78L456.57,455.78C456.57,455.78 456.61,455.74 456.61,455.7L432.96,455.74L409.27,455.7C409.27,455.7 409.31,455.74 409.31,455.78L408.99,455.78L318.43,455.94L318.03,455.94L306.39,455.98C285.31,455.98 269.99,463.01 262.77,467.19C221.36,491.11 207.11,544.25 231.03,585.66C246.46,612.43 275.28,629.05 306.27,629.05C321.39,629.05 336.31,625.02 349.5,617.4C358.07,612.47 370.54,602.79 381.31,584.75C383.09,581.75 385.33,578.2 387.22,575.04C387.22,575.04 412.46,618.07 416.8,625.29C421.69,633.42 427.06,641.08 432.94,648.15C420.23,663.55 405.31,676.34 388.96,685.77C363.81,700.3 335.19,708 306.25,708C247.15,708 192.12,676.26 162.63,625.14C116.91,546.03 144.15,444.49 223.27,398.82C233.57,392.86 252.25,383.9 277.04,379.59C286,378.01 307.91,376.91 318.42,376.91L363.62,376.91L432.94,376.79L501.79,376.91L501.82,376.9Z" style="fill:rgb(236,130,36);fill-rule:nonzero;"/>
            </g>
            <g transform="matrix(0.50079,0,0,0.50079,216.612,216.15)">
                <path d="M703.27,625.14C673.74,676.26 618.71,708 559.61,708C530.67,708 502.1,700.3 476.9,685.77C460.56,676.33 445.68,663.54 432.96,648.15C427.08,641.08 421.71,633.42 416.81,625.29C412.47,618.06 407.93,610.37 403.19,602.39C397.98,593.55 392.57,584.35 387.13,574.99C360.96,530.22 333.48,482.3 318.44,455.93L409,455.77L432.72,497.06L432.88,497.3C432.96,497.18 433,497.1 433.08,496.98C448.39,523.39 464.58,551.18 478.76,575.03C478.83,575.11 478.87,575.19 478.87,575.27C480.85,578.51 482.7,581.67 484.56,584.75C495.38,602.79 507.81,612.46 516.37,617.4C529.56,625.02 544.48,629.05 559.6,629.05C590.59,629.05 619.41,612.43 634.89,585.66C646.45,565.61 649.54,542.24 643.54,519.85C637.54,497.46 623.17,478.75 603.11,467.19C595.88,463.01 580.61,455.98 559.49,455.98L547.81,455.94C557.83,438.37 567.51,421.24 576,406C580.81,397.36 584.88,388.47 588.16,379.47C613.31,383.73 632.17,392.78 642.6,398.81C680.93,420.92 708.33,456.64 719.78,499.44C731.27,542.19 725.38,586.84 703.28,625.14L703.27,625.14Z" style="fill:rgb(89,123,189);"/>
            </g>
            <g transform="matrix(0.50079,0,0,0.50079,216.612,216.15)">
                <path d="M598.34,323.69C598.34,342.21 594.87,361.11 588.15,379.47C584.87,388.47 580.81,397.35 575.99,406C567.5,421.24 557.83,438.37 547.8,455.94L547.44,455.94C532.4,482.31 504.93,530.28 478.75,575.04C464.58,551.19 448.39,523.4 433.07,496.99C440.45,484.24 448.55,470.22 456.87,455.77C472.19,429.16 488.21,401.17 501.8,376.89C501.84,376.81 501.87,376.73 501.92,376.65C503.66,373.57 505.35,370.53 507.01,367.57C517.23,349.21 519.37,333.54 519.37,323.67C519.37,275.86 480.44,236.94 432.63,236.94C384.82,236.94 345.9,275.87 345.9,323.67C345.9,332.04 347.48,348.78 357.98,367.09L363.47,376.88L318.43,376.88C307.93,376.88 286.02,377.99 277.06,379.56C268.53,356.03 266.95,335.54 266.95,323.66C266.95,232.31 341.29,157.97 432.63,157.97C523.97,157.97 598.32,232.31 598.32,323.66" style="fill:rgb(165,200,63);fill-rule:nonzero;"/>
            </g>
        </g>
    </g>
</svg>
