<?xml version="1.0" encoding="UTF-8" standalone="no"?>
<!DOCTYPE svg PUBLIC "-//W3C//DTD SVG 1.1//EN" "http://www.w3.org/Graphics/SVG/1.1/DTD/svg11.dtd">
<svg width="100%" height="100%" viewBox="0 0 100 100" version="1.1" xmlns="http://www.w3.org/2000/svg" xmlns:xlink="http://www.w3.org/1999/xlink" xml:space="preserve" xmlns:serif="http://www.serif.com/" style="fill-rule:evenodd;clip-rule:evenodd;stroke-linejoin:round;stroke-miterlimit:2;">
    <g transform="matrix(1,0,0,1,5.445,22.68)">
        <path d="M8.786,10.798C10.335,9.259 12.875,9.261 14.421,10.804L17.243,13.626L11.608,19.261L8.786,16.439C7.243,14.893 7.241,12.353 8.78,10.804C8.64,10.948 8.78,10.804 8.78,10.804L8.786,10.798C8.786,10.798 8.823,10.761 8.786,10.798ZM9.486,11.512C9.486,11.512 9.46,11.537 9.486,11.512C8.336,12.673 8.338,14.575 9.494,15.733L11.608,17.847L15.829,13.626L13.715,11.512C12.557,10.356 10.655,10.354 9.494,11.504L9.486,11.512ZM53.747,9.02L60.42,9.02L60.42,9.52C60.42,14.046 56.756,17.71 52.23,17.71C47.704,17.71 44.04,14.046 44.04,9.52C44.04,4.994 47.704,1.33 52.23,1.33L52.73,1.33L52.73,8.623L53.506,7.846C53.702,7.651 54.018,7.651 54.214,7.846C54.409,8.042 54.409,8.358 54.214,8.554L53.747,9.02ZM51.73,7.53L51.73,2.347C47.99,2.603 45.04,5.714 45.04,9.52C45.04,13.494 48.256,16.71 52.23,16.71C56.036,16.71 59.147,13.76 59.403,10.02L55.003,10.02C54.928,10.202 54.749,10.33 54.54,10.33L53.427,10.33L54.214,11.116C54.409,11.312 54.409,11.628 54.214,11.824C54.018,12.019 53.702,12.019 53.506,11.824L52.73,11.047L52.73,12.14C52.73,12.416 52.506,12.64 52.23,12.64C51.954,12.64 51.73,12.416 51.73,12.14L51.73,11.037L50.944,11.824C50.748,12.019 50.432,12.019 50.236,11.824C50.041,11.628 50.041,11.312 50.236,11.116L51.023,10.33L49.92,10.33C49.644,10.33 49.42,10.106 49.42,9.83C49.42,9.554 49.644,9.33 49.92,9.33L51.013,9.33L50.236,8.554C50.041,8.358 50.041,8.042 50.236,7.846C50.432,7.651 50.748,7.651 50.944,7.846L51.73,8.633L51.73,7.53ZM62.266,36.02C58.371,44.959 50.655,51.842 41.181,54.62L41.112,54.64L22.598,54.64L22.529,54.62C11.899,51.503 3.482,43.218 0.202,32.658L0.001,32.01L89.11,32.01L89.11,39.02L70.06,39.02L70.06,36.02L62.266,36.02ZM61.93,33.01L1.366,33.01C4.677,42.918 12.683,50.666 22.742,53.64L40.97,53.639C50.205,50.908 57.709,44.153 61.445,35.397C61.458,35.347 61.478,35.3 61.504,35.258C61.814,34.522 62.097,33.772 62.353,33.01L61.93,33.01ZM71.06,35.52L71.06,38.02L88.11,38.02L88.11,33.01L71.06,33.01L71.06,35.52ZM70.06,33.01L63.406,33.01C63.186,33.69 62.944,34.36 62.682,35.02L70.06,35.02L70.06,33.01ZM32.324,21.333L24.124,29.534C23.928,29.729 23.612,29.729 23.416,29.534C23.221,29.338 23.221,29.022 23.416,28.826L31.617,20.626L31.615,20.624L31.626,20.612L30.103,19.089C27.647,16.628 27.647,12.584 30.103,10.123L32.331,7.896L34.559,10.124C36.138,11.707 36.701,13.944 36.249,15.994L37.976,14.266C38.172,14.071 38.488,14.071 38.684,14.266C38.879,14.462 38.879,14.778 38.684,14.974L36.956,16.701C39.001,16.256 41.23,16.821 42.809,18.396L43.665,19.25L43.662,19.25L45.036,20.624L42.808,22.851C40.347,25.306 36.304,25.306 33.843,22.851L32.324,21.333ZM33.031,20.626L34.549,22.143C36.622,24.211 40.029,24.211 42.102,22.143L43.622,20.624L42.249,19.25L42.102,19.104C40.069,17.075 36.753,17.036 34.67,18.987L33.031,20.626ZM33.851,18.383C35.919,16.31 35.919,12.903 33.851,10.83L32.331,9.31L30.811,10.829C28.742,12.903 28.742,16.31 30.811,18.383L32.331,19.903L33.851,18.383ZM20.261,5.72L19.16,5.72C18.884,5.72 18.66,5.496 18.66,5.22C18.66,4.944 18.884,4.72 19.16,4.72L20.27,4.72L19.486,3.933C19.291,3.738 19.292,3.421 19.487,3.226C19.682,3.031 19.999,3.032 20.194,3.227L20.97,4.005L20.97,2.91C20.97,2.634 21.194,2.41 21.47,2.41C21.746,2.41 21.97,2.634 21.97,2.91L21.97,4.005L22.746,3.227C22.941,3.032 23.258,3.031 23.453,3.226C23.648,3.421 23.649,3.738 23.454,3.933L22.67,4.72L23.78,4.72C24.056,4.72 24.28,4.944 24.28,5.22C24.28,5.496 24.056,5.72 23.78,5.72L22.679,5.72L23.454,6.497C23.649,6.692 23.648,7.009 23.453,7.204C23.258,7.399 22.941,7.398 22.746,7.203L21.97,6.425L21.97,7.53C21.97,7.806 21.746,8.03 21.47,8.03C21.194,8.03 20.97,7.806 20.97,7.53L20.97,6.425L20.194,7.203C19.999,7.398 19.682,7.399 19.487,7.204C19.292,7.009 19.291,6.692 19.486,6.497L20.261,5.72ZM14.75,26.12C14.75,27.848 13.328,29.27 11.6,29.27C9.872,29.27 8.45,27.848 8.45,26.12C8.45,24.392 9.872,22.97 11.6,22.97C13.328,22.97 14.75,24.392 14.75,26.12ZM9.45,26.12C9.45,27.299 10.421,28.27 11.6,28.27C12.779,28.27 13.75,27.299 13.75,26.12C13.75,24.941 12.779,23.97 11.6,23.97C10.421,23.97 9.45,24.941 9.45,26.12ZM24.63,18.54C24.63,19.544 23.804,20.37 22.8,20.37C21.796,20.37 20.97,19.544 20.97,18.54C20.97,17.536 21.796,16.71 22.8,16.71C23.804,16.71 24.63,17.536 24.63,18.54ZM23.63,18.54C23.63,18.085 23.255,17.71 22.8,17.71C22.345,17.71 21.97,18.085 21.97,18.54C21.97,18.995 22.345,19.37 22.8,19.37C23.255,19.37 23.63,18.995 23.63,18.54ZM16.8,1.83C16.8,2.834 15.974,3.66 14.97,3.66C13.966,3.66 13.14,2.834 13.14,1.83C13.14,0.826 13.966,0 14.97,0C15.974,0 16.8,0.826 16.8,1.83ZM15.8,1.83C15.8,1.375 15.425,1 14.97,1C14.515,1 14.14,1.375 14.14,1.83C14.14,2.285 14.515,2.66 14.97,2.66C15.425,2.66 15.8,2.285 15.8,1.83ZM59.44,30.11L47.21,30.11L47.21,22.96L59.44,22.96L59.44,30.11ZM58.44,23.96L48.21,23.96L48.21,29.11L58.44,29.11L58.44,23.96Z" style="fill:rgb(59,82,126);"/>
    </g>
</svg>
