<?xml version="1.0" encoding="UTF-8" standalone="no"?>
<!DOCTYPE svg PUBLIC "-//W3C//DTD SVG 1.1//EN" "http://www.w3.org/Graphics/SVG/1.1/DTD/svg11.dtd">
<svg width="100%" height="100%" viewBox="0 0 100 100" version="1.1" xmlns="http://www.w3.org/2000/svg" xmlns:xlink="http://www.w3.org/1999/xlink" xml:space="preserve" xmlns:serif="http://www.serif.com/" style="fill-rule:evenodd;clip-rule:evenodd;stroke-linejoin:round;stroke-miterlimit:2;">
    <g transform="matrix(1,0,0,1,14.5,21.225)">
        <path d="M47.174,44.409C47.695,43.879 48.018,43.154 48.018,42.359C48.018,41.581 47.708,40.834 47.155,40.282L47.154,40.281C46.625,39.743 45.891,39.42 45.08,39.42L36.988,39.42L36.838,39.231C36.137,38.346 35.319,37.557 34.404,36.893C32.257,35.314 29.599,34.38 26.73,34.38L0.5,34.38C0.224,34.38 0,34.156 0,33.88C-0,33.604 0.224,33.38 0.5,33.38L26.73,33.38C27.491,33.38 28.239,33.441 28.968,33.559C31.55,29.505 36.049,26.758 41.193,26.597C41.191,26.579 41.19,26.559 41.19,26.54L41.19,14.51L36.98,14.51C31.878,14.51 27.68,10.312 27.68,5.21L27.68,0L32.89,0C36.947,0 40.432,2.655 41.69,6.307C42.948,2.655 46.433,0 50.49,0L55.7,-0L55.7,5.21C55.7,10.312 51.502,14.51 46.4,14.51L42.19,14.51L42.19,26.54C42.19,26.56 42.189,26.579 42.187,26.599C50.087,26.863 56.424,33.165 56.784,41.014L65.973,37.769C67.668,37.169 69.548,37.849 70.47,39.405C71.566,41.251 70.886,43.639 68.983,44.642L51.603,53.812C43.833,57.912 34.72,58.679 26.374,55.935L13.5,51.7L0.5,51.7C0.224,51.7 -0,51.476 0,51.2C0,50.924 0.224,50.7 0.5,50.7L13.66,50.7L26.686,54.985C34.774,57.644 43.606,56.901 51.137,52.928L68.517,43.758C69.913,43.021 70.414,41.269 69.61,39.915C68.932,38.772 67.552,38.271 66.307,38.711L56.527,42.165C56.487,42.183 56.445,42.198 56.403,42.209L47.704,45.282C47.007,45.907 46.088,46.29 45.087,46.29L45.08,46.29L30.48,46.29C30.204,46.29 29.98,46.066 29.98,45.79C29.98,45.514 30.204,45.29 30.48,45.29L45.08,45.29L45.087,45.29C45.764,45.29 46.391,45.055 46.89,44.663C46.945,44.548 47.044,44.454 47.174,44.409ZM30.025,33.771C31.847,34.212 33.531,35.01 34.995,36.086C35.916,36.755 36.746,37.542 37.469,38.42L45.08,38.42C46.169,38.42 47.155,38.857 47.863,39.576C48.602,40.313 49.018,41.315 49.018,42.359C49.018,42.891 48.91,43.4 48.715,43.864L55.796,41.363C55.607,33.733 49.374,27.59 41.67,27.59C36.822,27.59 32.542,30.051 30.025,33.771ZM41.19,9.3C41.19,4.747 37.443,1 32.89,1L28.68,1L28.68,5.21C28.68,9.763 32.427,13.51 36.98,13.51L40.483,13.51L34.186,7.214C33.991,7.018 33.991,6.702 34.186,6.506C34.382,6.311 34.698,6.311 34.894,6.506L41.19,12.803L41.19,9.3ZM42.897,13.51L46.4,13.51C50.953,13.51 54.7,9.763 54.7,5.21L54.7,1L50.49,1C45.937,1 42.19,4.747 42.19,9.3L42.19,12.803L49.466,5.526C49.662,5.331 49.978,5.331 50.174,5.526C50.369,5.722 50.369,6.038 50.174,6.234L42.897,13.51Z" style="fill:rgb(59,82,126);"/>
    </g>
</svg>
