<?xml version="1.0" encoding="UTF-8" standalone="no"?>
<!DOCTYPE svg PUBLIC "-//W3C//DTD SVG 1.1//EN" "http://www.w3.org/Graphics/SVG/1.1/DTD/svg11.dtd">
<svg width="100%" height="100%" viewBox="0 0 150 150" version="1.1" xmlns="http://www.w3.org/2000/svg" xmlns:xlink="http://www.w3.org/1999/xlink" xml:space="preserve" xmlns:serif="http://www.serif.com/" style="fill-rule:evenodd;clip-rule:evenodd;stroke-linejoin:round;stroke-miterlimit:2;">
    <g transform="matrix(1.0599,0,0,1.0599,-1356.41,-1669.06)">
        <path d="M1341.8,1673.07L1341.8,1674.22C1341.8,1679.86 1338.49,1684.99 1333.35,1687.31L1323.49,1691.75C1321.06,1692.84 1318.85,1694.38 1316.98,1696.28L1311.22,1702.15C1310.37,1703.02 1308.97,1703.03 1308.11,1702.18C1307.24,1701.33 1307.23,1699.93 1308.08,1699.07L1313.84,1693.2C1316.09,1690.91 1318.75,1689.05 1321.68,1687.74L1331.54,1683.29C1335.11,1681.68 1337.4,1678.13 1337.4,1674.22L1337.4,1669.97L1328.92,1669.97C1325.75,1669.97 1322.7,1668.71 1320.46,1666.47C1318.22,1664.22 1316.95,1661.18 1316.95,1658.01L1316.95,1632.9C1316.95,1621.46 1322.69,1611.35 1331.45,1605.29L1324.48,1594.33C1323.9,1593.41 1324.17,1592.19 1325.09,1591.61C1326,1591.03 1327.22,1591.3 1327.8,1592.22L1334.81,1603.25C1339.5,1600.76 1344.84,1599.35 1350.51,1599.35C1355.22,1599.35 1359.71,1600.32 1363.78,1602.08L1374.53,1589.12C1375.12,1588.41 1376.13,1588.21 1376.95,1588.64C1377.77,1589.07 1378.18,1590.01 1377.93,1590.9L1375.26,1600.55L1381.67,1600.55C1382.43,1600.55 1383.13,1601 1383.45,1601.69C1383.78,1602.38 1383.67,1603.19 1383.18,1603.78L1376.54,1611.73C1381.25,1617.51 1384.07,1624.88 1384.07,1632.9L1384.07,1658.01C1384.07,1661.18 1382.81,1664.22 1380.56,1666.47C1378.32,1668.71 1375.28,1669.97 1372.11,1669.97L1363.87,1669.97L1363.62,1670.15L1363.62,1674.22C1363.62,1678.13 1365.92,1681.68 1369.48,1683.29L1379.35,1687.74C1382.27,1689.05 1384.93,1690.91 1387.18,1693.2L1392.94,1699.07C1393.8,1699.93 1393.78,1701.33 1392.92,1702.18C1392.05,1703.03 1390.65,1703.02 1389.8,1702.15L1384.04,1696.28C1382.17,1694.38 1379.97,1692.84 1377.54,1691.75L1367.68,1687.31C1362.53,1684.99 1359.22,1679.86 1359.22,1674.22L1359.22,1673.36C1354.14,1676.98 1347.33,1676.99 1342.23,1673.38L1341.8,1673.07ZM1333.56,1608.61C1325.9,1613.97 1320.89,1622.86 1320.89,1632.9L1320.89,1658.01C1320.89,1660.14 1321.73,1662.18 1323.24,1663.69C1324.75,1665.19 1326.79,1666.04 1328.92,1666.04L1331.9,1666.04L1331.8,1665.97C1327.93,1663.22 1325.63,1658.77 1325.63,1654.03L1325.63,1646.62C1325.63,1646.61 1325.63,1646.6 1325.63,1646.59C1325.63,1645.52 1326.49,1644.64 1327.56,1644.62C1327.56,1644.62 1329.85,1644.55 1331.88,1642.87C1333.32,1641.69 1334.57,1639.71 1334.94,1636.48C1335.3,1633.48 1337.01,1631.28 1339.48,1629.53C1341.56,1628.04 1344.22,1626.87 1346.85,1625.63C1348.74,1624.74 1350.62,1623.81 1352.18,1622.64C1354.19,1621.14 1355.66,1619.21 1355.66,1616.28C1355.66,1615.27 1356.41,1614.43 1357.41,1614.32C1358.4,1614.21 1359.32,1614.87 1359.54,1615.85C1359.54,1615.85 1360.33,1619.4 1362.55,1622.96C1364.64,1626.32 1368.03,1629.76 1373.42,1629.76C1374.51,1629.76 1375.39,1630.64 1375.39,1631.72L1375.39,1654.12C1375.39,1658.8 1373.15,1663.2 1369.37,1665.96L1369.26,1666.04L1372.11,1666.04C1374.24,1666.04 1376.28,1665.19 1377.78,1663.69C1379.29,1662.18 1380.14,1660.14 1380.14,1658.01L1380.14,1632.9C1380.14,1626.1 1377.84,1619.82 1373.97,1614.82L1367.62,1622.42C1367.03,1623.12 1366.03,1623.33 1365.22,1622.91C1364.4,1622.49 1363.98,1621.56 1364.21,1620.67L1366.72,1610.84L1360.68,1610.84C1359.92,1610.84 1359.23,1610.4 1358.9,1609.71C1358.58,1609.02 1358.68,1608.21 1359.17,1607.62L1361.14,1605.25C1357.84,1603.98 1354.26,1603.28 1350.51,1603.28C1345.62,1603.28 1341,1604.47 1336.92,1606.58L1339.55,1610.71C1340.14,1611.63 1339.87,1612.84 1338.95,1613.43C1338.03,1614.01 1336.82,1613.74 1336.24,1612.82L1333.56,1608.61ZM1329.57,1648.27L1329.57,1654.03C1329.57,1657.5 1331.25,1660.75 1334.08,1662.76L1344.51,1670.17C1348.26,1672.84 1353.3,1672.81 1357.02,1670.1L1367.06,1662.78C1369.82,1660.77 1371.46,1657.55 1371.46,1654.12L1371.46,1633.57C1365.57,1632.86 1361.66,1628.98 1359.21,1625.04C1358.66,1624.16 1358.19,1623.28 1357.78,1622.43C1355.74,1625.47 1352.22,1627.45 1348.52,1629.19C1346.12,1630.32 1343.66,1631.37 1341.76,1632.73C1340.23,1633.81 1339.07,1635.09 1338.85,1636.94C1338.32,1641.49 1336.41,1644.23 1334.38,1645.9C1332.7,1647.3 1330.89,1647.96 1329.57,1648.27ZM1343.34,1662.57C1342.53,1663.3 1341.29,1663.23 1340.56,1662.42C1339.84,1661.61 1339.91,1660.36 1340.72,1659.64C1340.72,1659.64 1347.53,1653.27 1359.74,1659.35C1360.71,1659.83 1361.1,1661.01 1360.62,1661.98C1360.14,1662.95 1358.96,1663.35 1357.99,1662.87C1348.58,1658.19 1343.34,1662.57 1343.34,1662.57ZM1370.79,1602L1371.7,1598.68L1364.87,1606.91L1369.25,1606.91C1369.85,1606.91 1370.43,1607.19 1370.8,1607.67C1371.17,1608.15 1371.3,1608.78 1371.15,1609.36L1370.16,1613.24L1377.47,1604.48L1372.68,1604.48C1372.07,1604.48 1371.49,1604.2 1371.12,1603.71C1370.75,1603.22 1370.62,1602.59 1370.79,1602ZM1306.05,1610.56C1305.12,1610 1304.83,1608.79 1305.39,1607.86C1305.95,1606.93 1307.16,1606.63 1308.09,1607.19L1317.65,1612.97C1318.58,1613.54 1318.88,1614.74 1318.32,1615.67C1317.76,1616.6 1316.55,1616.9 1315.62,1616.34L1306.05,1610.56ZM1392.94,1608.34C1393.87,1607.78 1395.08,1608.08 1395.64,1609.01C1396.2,1609.94 1395.91,1611.15 1394.98,1611.71L1385.41,1617.49C1384.48,1618.05 1383.27,1617.75 1382.71,1616.82C1382.15,1615.89 1382.45,1614.68 1383.38,1614.12L1392.94,1608.34ZM1348.84,1590.38C1348.84,1589.3 1349.72,1588.41 1350.81,1588.41C1351.89,1588.41 1352.78,1589.3 1352.78,1590.38L1352.78,1595.82C1352.78,1596.9 1351.89,1597.78 1350.81,1597.78C1349.72,1597.78 1348.84,1596.9 1348.84,1595.82L1348.84,1590.38Z"/>
    </g>
</svg>
