<?xml version="1.0" encoding="UTF-8" standalone="no"?>
<!DOCTYPE svg PUBLIC "-//W3C//DTD SVG 1.1//EN" "http://www.w3.org/Graphics/SVG/1.1/DTD/svg11.dtd">
<svg width="100%" height="100%" viewBox="0 0 90 90" version="1.1" xmlns="http://www.w3.org/2000/svg" xmlns:xlink="http://www.w3.org/1999/xlink" xml:space="preserve" xmlns:serif="http://www.serif.com/" style="fill-rule:evenodd;clip-rule:evenodd;stroke-linejoin:round;stroke-miterlimit:2;">
    <g transform="matrix(1,0,0,1,15.845,4.195)">
        <path d="M50.871,22.665C53.045,22.978 55.257,22.407 57.008,21.081C57.401,20.783 57.42,20.196 57.028,19.887L31.916,3.265L31.9,3.252C29.078,1.021 25.322,0.4 21.936,1.598L12.736,5.294C9.958,6.408 6.993,6.98 4,6.98L0.5,6.98C0.224,6.98 -0,6.756 0,6.48C0,6.204 0.224,5.98 0.5,5.98L4,5.98C6.865,5.98 9.704,5.432 12.364,4.366L21.583,0.662L21.593,0.659C25.298,-0.656 29.41,0.018 32.503,2.454L57.61,19.072L57.623,19.082C58.56,19.795 58.535,21.179 57.612,21.879C55.739,23.296 53.398,23.944 51.071,23.698C50.978,23.828 50.864,23.948 50.725,24.056L50.723,24.058C49.123,25.274 47.168,25.931 45.159,25.93C43.589,25.927 42.046,25.523 40.676,24.757L38.777,23.697C37.302,24.629 35.606,25.1 33.9,25.1C32.329,25.098 30.785,24.694 29.416,23.926L25.669,21.827L24.228,22.565C18.412,25.545 11.306,24.467 6.635,19.92L1.27,19.92C0.994,19.92 0.77,19.696 0.77,19.42C0.77,19.144 0.994,18.92 1.27,18.92L7.047,18.92L7.194,19.067C11.556,23.431 18.28,24.489 23.772,21.675L30.53,18.213C30.551,18.201 30.572,18.19 30.594,18.18L37.182,14.805C38.082,14.343 38.65,13.412 38.65,12.4C38.65,10.906 37.434,9.69 35.94,9.69L18.69,9.69C18.414,9.69 18.19,9.466 18.19,9.19C18.19,8.914 18.414,8.69 18.69,8.69L35.94,8.69C37.986,8.69 39.65,10.354 39.65,12.4C39.65,13.786 38.872,15.061 37.638,15.695L37.476,15.778L48.053,21.703C48.939,22.193 49.891,22.524 50.871,22.665ZM39.063,22.712L41.164,23.884C42.385,24.567 43.761,24.927 45.161,24.93C46.829,24.931 48.456,24.422 49.823,23.475C49.043,23.278 48.286,22.975 47.567,22.577L36.407,16.326L31.849,18.661L38.942,22.644C38.985,22.661 39.025,22.684 39.063,22.712ZM26.737,21.279L29.905,23.054C31.125,23.738 32.501,24.098 33.9,24.1C35.238,24.1 36.57,23.775 37.766,23.131L30.781,19.208L26.737,21.279ZM20.825,65.837L10.256,59.916C9.382,59.428 8.428,59.102 7.438,58.955C5.264,58.642 3.053,59.213 1.302,60.539C0.909,60.837 0.89,61.424 1.282,61.733L26.384,78.345L26.4,78.358C29.222,80.589 32.978,81.21 36.363,80.002L45.564,76.306C48.343,75.192 51.306,74.62 54.3,74.62L57.8,74.62C58.076,74.62 58.3,74.844 58.3,75.12C58.3,75.396 58.076,75.62 57.8,75.62L54.3,75.62C51.434,75.62 48.597,76.168 45.936,77.234L36.717,80.938L36.708,80.941C33.003,82.267 28.89,81.592 25.797,79.156L0.7,62.548L0.687,62.538C-0.25,61.825 -0.225,60.441 0.698,59.741C2.568,58.325 4.907,57.677 7.233,57.922C7.327,57.788 7.443,57.665 7.585,57.554L7.587,57.552C9.187,56.336 11.141,55.679 13.15,55.68C14.683,55.68 16.227,56.071 17.633,56.853L19.547,57.92C21.021,56.99 22.716,56.52 24.42,56.52C25.991,56.522 27.535,56.926 28.904,57.694L32.637,59.785L34.082,59.045C39.898,56.065 47.004,57.143 51.675,61.69L57.04,61.69C57.316,61.69 57.54,61.914 57.54,62.19C57.54,62.466 57.316,62.69 57.04,62.69L51.263,62.69L51.116,62.543C46.754,58.179 40.03,57.121 34.538,59.935L32.963,60.742C32.904,60.791 32.835,60.826 32.762,60.845L27.78,63.397C27.759,63.409 27.738,63.42 27.716,63.43L22.186,66.263C22.143,66.295 22.095,66.319 22.045,66.335L21.128,66.805C20.228,67.267 19.66,68.198 19.66,69.21C19.66,70.704 20.876,71.92 22.37,71.92L39.62,71.92C39.896,71.92 40.12,72.144 40.12,72.42C40.12,72.696 39.896,72.92 39.62,72.92L22.37,72.92C20.324,72.92 18.66,71.256 18.66,69.21C18.66,67.824 19.438,66.549 20.672,65.915L20.825,65.837ZM8.475,58.143C9.266,58.342 10.03,58.644 10.744,59.044L21.894,65.289L26.461,62.949L19.4,58.984C19.342,58.964 19.287,58.934 19.239,58.894L17.147,57.727C15.893,57.029 14.517,56.68 13.15,56.68C11.476,56.679 9.845,57.191 8.475,58.143ZM31.568,60.333L28.415,58.566C27.195,57.882 25.819,57.522 24.42,57.52C23.083,57.52 21.753,57.844 20.558,58.487L27.529,62.402L31.568,60.333ZM29.161,32.112C31.786,28.477 36.414,28.617 38.795,30.65C41.272,32.776 41.379,37.015 38.909,41.249C37.243,44.305 32.976,47.39 29.409,49.434L29.16,49.576L28.911,49.434C25.347,47.391 21.083,44.32 19.418,41.262C16.941,37.019 17.048,32.766 19.525,30.65C21.906,28.607 26.535,28.466 29.161,32.112ZM28.728,33.282C26.586,29.604 22.318,29.571 20.175,31.41C17.992,33.274 18.099,37.02 20.286,40.765L20.289,40.771C21.845,43.634 25.798,46.47 29.16,48.423C32.522,46.469 36.476,43.624 38.035,40.764L38.038,40.758C40.221,37.02 40.327,33.283 38.145,31.41C36.002,29.58 31.734,29.614 29.592,33.282L29.159,34.022L28.728,33.282Z" style="fill:rgb(204,53,119);"/>
    </g>
</svg>
