<?xml version="1.0" encoding="UTF-8" standalone="no"?>
<!DOCTYPE svg PUBLIC "-//W3C//DTD SVG 1.1//EN" "http://www.w3.org/Graphics/SVG/1.1/DTD/svg11.dtd">
<svg width="100%" height="100%" viewBox="0 0 100 100" version="1.1" xmlns="http://www.w3.org/2000/svg" xmlns:xlink="http://www.w3.org/1999/xlink" xml:space="preserve" xmlns:serif="http://www.serif.com/" style="fill-rule:evenodd;clip-rule:evenodd;stroke-linejoin:round;stroke-miterlimit:2;">
    <g transform="matrix(1,0,0,1,19.5,14.985)">
        <path d="M0,61.1L0,17.96C0,13.024 3.994,9.03 8.93,9.03C9.206,9.03 9.43,9.254 9.43,9.53C9.43,9.806 9.206,10.03 8.93,10.03C4.546,10.03 1,13.576 1,17.96L1,22.78L60,22.78L60,17.96C60,13.576 56.454,10.03 52.07,10.03L44.36,10.03L44.36,13.68C44.36,13.956 44.136,14.18 43.86,14.18C43.584,14.18 43.36,13.956 43.36,13.68L43.36,10.03L17.64,10.03L17.64,13.68C17.64,13.956 17.416,14.18 17.14,14.18C16.864,14.18 16.64,13.956 16.64,13.68L16.64,-0C16.64,-0.276 16.864,-0.5 17.14,-0.5C17.416,-0.5 17.64,-0.276 17.64,0L17.64,9.03L43.36,9.03L43.36,0C43.36,-0.276 43.584,-0.5 43.86,-0.5C44.136,-0.5 44.36,-0.276 44.36,0L44.36,9.03L52.07,9.03C57.006,9.03 61,13.024 61,17.96L61,61.1C61,66.036 57.006,70.03 52.07,70.03L8.93,70.03C3.994,70.03 0,66.036 0,61.1ZM60,23.78L1,23.78L1,61.1C1,65.484 4.546,69.03 8.93,69.03L52.07,69.03C56.454,69.03 60,65.484 60,61.1L60,23.78ZM9.65,34.06C9.374,34.06 9.15,33.836 9.15,33.56C9.15,33.284 9.374,33.06 9.65,33.06L12.65,33.06L12.65,39.06L6.65,39.06L6.65,33.56C6.65,33.284 6.874,33.06 7.15,33.06C7.426,33.06 7.65,33.284 7.65,33.56L7.65,38.06L11.65,38.06L11.65,34.06L9.65,34.06ZM20.07,34.06C19.794,34.06 19.57,33.836 19.57,33.56C19.57,33.284 19.794,33.06 20.07,33.06L23.07,33.06L23.07,39.06L17.07,39.06L17.07,33.56C17.07,33.284 17.294,33.06 17.57,33.06C17.846,33.06 18.07,33.284 18.07,33.56L18.07,38.06L22.07,38.06L22.07,34.06L20.07,34.06ZM30.5,34.06C30.224,34.06 30,33.836 30,33.56C30,33.284 30.224,33.06 30.5,33.06L33.5,33.06L33.5,39.06L27.5,39.06L27.5,33.56C27.5,33.284 27.724,33.06 28,33.06C28.276,33.06 28.5,33.284 28.5,33.56L28.5,38.06L32.5,38.06L32.5,34.06L30.5,34.06ZM40.93,34.06C40.654,34.06 40.43,33.836 40.43,33.56C40.43,33.284 40.654,33.06 40.93,33.06L43.93,33.06L43.93,39.06L37.93,39.06L37.93,33.56C37.93,33.284 38.154,33.06 38.43,33.06C38.706,33.06 38.93,33.284 38.93,33.56L38.93,38.06L42.93,38.06L42.93,34.06L40.93,34.06ZM51.35,34.06C51.074,34.06 50.85,33.836 50.85,33.56C50.85,33.284 51.074,33.06 51.35,33.06L54.35,33.06L54.35,39.06L48.35,39.06L48.35,33.56C48.35,33.284 48.574,33.06 48.85,33.06C49.126,33.06 49.35,33.284 49.35,33.56L49.35,38.06L53.35,38.06L53.35,34.06L51.35,34.06ZM9.65,45.18C9.374,45.18 9.15,44.956 9.15,44.68C9.15,44.404 9.374,44.18 9.65,44.18L12.65,44.18L12.65,50.18L6.65,50.18L6.65,44.68C6.65,44.404 6.874,44.18 7.15,44.18C7.426,44.18 7.65,44.404 7.65,44.68L7.65,49.18L11.65,49.18L11.65,45.18L9.65,45.18ZM20.07,45.18C19.794,45.18 19.57,44.956 19.57,44.68C19.57,44.404 19.794,44.18 20.07,44.18L23.07,44.18L23.07,50.18L17.07,50.18L17.07,44.68C17.07,44.404 17.294,44.18 17.57,44.18C17.846,44.18 18.07,44.404 18.07,44.68L18.07,49.18L22.07,49.18L22.07,45.18L20.07,45.18ZM30.5,45.18C30.224,45.18 30,44.956 30,44.68C30,44.404 30.224,44.18 30.5,44.18L33.5,44.18L33.5,50.18L27.5,50.18L27.5,44.68C27.5,44.404 27.724,44.18 28,44.18C28.276,44.18 28.5,44.404 28.5,44.68L28.5,49.18L32.5,49.18L32.5,45.18L30.5,45.18ZM40.93,45.18C40.654,45.18 40.43,44.956 40.43,44.68C40.43,44.404 40.654,44.18 40.93,44.18L43.93,44.18L43.93,50.18L37.93,50.18L37.93,44.68C37.93,44.404 38.154,44.18 38.43,44.18C38.706,44.18 38.93,44.404 38.93,44.68L38.93,49.18L42.93,49.18L42.93,45.18L40.93,45.18ZM51.35,45.18C51.074,45.18 50.85,44.956 50.85,44.68C50.85,44.404 51.074,44.18 51.35,44.18L54.35,44.18L54.35,50.18L48.35,50.18L48.35,44.68C48.35,44.404 48.574,44.18 48.85,44.18C49.126,44.18 49.35,44.404 49.35,44.68L49.35,49.18L53.35,49.18L53.35,45.18L51.35,45.18ZM9.65,56.3C9.374,56.3 9.15,56.076 9.15,55.8C9.15,55.524 9.374,55.3 9.65,55.3L12.65,55.3L12.65,61.3L6.65,61.3L6.65,55.8C6.65,55.524 6.874,55.3 7.15,55.3C7.426,55.3 7.65,55.524 7.65,55.8L7.65,60.3L11.65,60.3L11.65,56.3L9.65,56.3ZM20.07,56.3C19.794,56.3 19.57,56.076 19.57,55.8C19.57,55.524 19.794,55.3 20.07,55.3L23.07,55.3L23.07,61.3L17.07,61.3L17.07,55.8C17.07,55.524 17.294,55.3 17.57,55.3C17.846,55.3 18.07,55.524 18.07,55.8L18.07,60.3L22.07,60.3L22.07,56.3L20.07,56.3ZM30.5,56.3C30.224,56.3 30,56.076 30,55.8C30,55.524 30.224,55.3 30.5,55.3L33.5,55.3L33.5,61.3L27.5,61.3L27.5,55.8C27.5,55.524 27.724,55.3 28,55.3C28.276,55.3 28.5,55.524 28.5,55.8L28.5,60.3L32.5,60.3L32.5,56.3L30.5,56.3ZM40.93,56.3C40.654,56.3 40.43,56.076 40.43,55.8C40.43,55.524 40.654,55.3 40.93,55.3L43.93,55.3L43.93,61.3L37.93,61.3L37.93,55.8C37.93,55.524 38.154,55.3 38.43,55.3C38.706,55.3 38.93,55.524 38.93,55.8L38.93,60.3L42.93,60.3L42.93,56.3L40.93,56.3ZM51.35,56.3C51.074,56.3 50.85,56.076 50.85,55.8C50.85,55.524 51.074,55.3 51.35,55.3L54.35,55.3L54.35,61.3L48.35,61.3L48.35,55.8C48.35,55.524 48.574,55.3 48.85,55.3C49.126,55.3 49.35,55.524 49.35,55.8L49.35,60.3L53.35,60.3L53.35,56.3L51.35,56.3Z" style="fill:rgb(59,82,126);"/>
    </g>
</svg>
