<?xml version="1.0" encoding="UTF-8" standalone="no"?>
<!DOCTYPE svg PUBLIC "-//W3C//DTD SVG 1.1//EN" "http://www.w3.org/Graphics/SVG/1.1/DTD/svg11.dtd">
<svg width="100%" height="100%" viewBox="0 0 90 90" version="1.1" xmlns="http://www.w3.org/2000/svg" xmlns:xlink="http://www.w3.org/1999/xlink" xml:space="preserve" xmlns:serif="http://www.serif.com/" style="fill-rule:evenodd;clip-rule:evenodd;stroke-linejoin:round;stroke-miterlimit:2;">
    <g transform="matrix(1,0,0,1,5,5)">
        <path d="M28.398,45.804C21.994,41.891 17.72,34.835 17.72,26.78C17.72,14.475 27.695,4.5 40,4.5C52.305,4.5 62.28,14.475 62.28,26.78C62.28,34.823 58.019,41.87 51.631,45.787L54.731,63.412L56.372,72.743C56.407,72.941 56.32,73.14 56.152,73.25C55.983,73.359 55.766,73.357 55.6,73.244L49.311,68.986L44.855,75.143C44.737,75.306 44.534,75.382 44.338,75.337C44.142,75.292 43.993,75.135 43.958,74.937L42.359,65.878L40.01,52.569L37.68,65.794C37.679,65.822 37.676,65.851 37.67,65.879C37.666,65.899 37.661,65.919 37.655,65.937L36.042,75.087C36.008,75.284 35.858,75.442 35.662,75.487C35.467,75.532 35.263,75.456 35.145,75.293L30.689,69.146L24.4,73.404C24.234,73.517 24.017,73.519 23.848,73.41C23.68,73.3 23.593,73.101 23.628,72.903L28.398,45.804ZM43.427,66.175L44.737,73.6L48.785,68.007C48.943,67.788 49.247,67.735 49.47,67.886L55.183,71.754L53.837,64.1L43.427,66.175ZM26.199,64.061L24.817,71.914L30.53,68.046C30.753,67.895 31.056,67.948 31.215,68.167L35.262,73.751L36.598,66.172L26.199,64.061ZM29.245,45.146C32.401,46.998 36.076,48.06 40,48.06C51.753,48.06 61.28,38.533 61.28,26.78C61.28,15.027 51.753,5.5 40,5.5C28.247,5.5 18.72,15.027 18.72,26.78C18.72,34.574 22.91,41.389 29.16,45.096C29.189,45.112 29.218,45.128 29.245,45.146ZM57.434,34.367C57.328,34.622 57.036,34.744 56.781,34.639C56.526,34.534 56.404,34.241 56.509,33.986C56.615,33.731 56.907,33.609 57.162,33.714C57.417,33.82 57.539,34.112 57.434,34.367ZM54.94,26.78C54.94,35.031 48.251,41.72 40,41.72C31.749,41.72 25.06,35.031 25.06,26.78C25.06,18.529 31.749,11.84 40,11.84C48.251,11.84 54.94,18.529 54.94,26.78ZM53.94,26.78C53.94,19.081 47.699,12.84 40,12.84C32.301,12.84 26.06,19.081 26.06,26.78C26.06,34.479 32.301,40.72 40,40.72C47.699,40.72 53.94,34.479 53.94,26.78ZM41.291,7.852C41.565,7.877 41.769,8.12 41.744,8.395C41.719,8.669 41.476,8.873 41.201,8.848C40.927,8.823 40.723,8.58 40.748,8.305C40.773,8.031 41.016,7.827 41.291,7.852ZM46.366,44.673C46.104,44.761 45.82,44.621 45.732,44.359C45.644,44.097 45.785,43.814 46.047,43.726C46.309,43.638 46.592,43.779 46.68,44.04C46.768,44.302 46.627,44.586 46.366,44.673ZM20.98,26.78C20.98,26.504 21.204,26.28 21.48,26.28C21.756,26.28 21.98,26.504 21.98,26.78C21.98,27.056 21.756,27.28 21.48,27.28C21.204,27.28 20.98,27.056 20.98,26.78ZM57.429,19.184C57.534,19.439 57.413,19.731 57.158,19.837C56.903,19.942 56.61,19.821 56.505,19.566C56.399,19.311 56.52,19.018 56.775,18.913C57.031,18.807 57.323,18.929 57.429,19.184ZM54.798,14.716C54.971,14.932 54.936,15.247 54.721,15.419C54.505,15.592 54.19,15.557 54.018,15.341C53.845,15.126 53.88,14.811 54.095,14.638C54.311,14.466 54.626,14.501 54.798,14.716ZM27.005,12.9C27.207,12.711 27.523,12.722 27.712,12.923C27.901,13.125 27.89,13.442 27.689,13.63C27.487,13.819 27.17,13.808 26.982,13.607C26.793,13.405 26.804,13.089 27.005,12.9ZM21.68,31.913C21.606,31.647 21.762,31.371 22.027,31.297C22.293,31.222 22.569,31.378 22.644,31.643C22.718,31.909 22.562,32.185 22.297,32.26C22.031,32.334 21.755,32.178 21.68,31.913ZM46.351,8.889C46.612,8.977 46.754,9.26 46.666,9.522C46.578,9.784 46.295,9.925 46.033,9.837C45.771,9.749 45.63,9.466 45.718,9.204C45.805,8.943 46.089,8.801 46.351,8.889ZM23.746,36.664C23.602,36.428 23.677,36.121 23.913,35.977C24.148,35.833 24.456,35.908 24.6,36.144C24.744,36.38 24.669,36.687 24.433,36.831C24.197,36.975 23.89,36.9 23.746,36.664ZM31.233,9.906C31.478,9.779 31.78,9.874 31.907,10.119C32.034,10.364 31.939,10.666 31.694,10.793C31.449,10.921 31.147,10.825 31.02,10.58C30.893,10.336 30.988,10.033 31.233,9.906ZM27.017,40.681C26.815,40.493 26.804,40.176 26.993,39.974C27.181,39.773 27.498,39.762 27.7,39.95C27.901,40.139 27.912,40.455 27.724,40.657C27.535,40.859 27.219,40.869 27.017,40.681ZM31.247,43.671C31.002,43.544 30.906,43.242 31.034,42.997C31.161,42.752 31.463,42.657 31.708,42.784C31.953,42.911 32.048,43.213 31.921,43.458C31.794,43.703 31.492,43.798 31.247,43.671ZM51.008,42.371C50.781,42.527 50.469,42.469 50.313,42.242C50.156,42.014 50.214,41.703 50.442,41.546C50.669,41.39 50.981,41.448 51.137,41.675C51.293,41.903 51.235,42.214 51.008,42.371ZM50.996,11.186C51.223,11.342 51.281,11.654 51.125,11.882C50.969,12.109 50.658,12.167 50.43,12.011C50.203,11.855 50.144,11.544 50.3,11.316C50.456,11.089 50.768,11.03 50.996,11.186ZM36.113,8.167C36.384,8.111 36.649,8.285 36.705,8.555C36.761,8.825 36.587,9.09 36.317,9.146C36.046,9.203 35.782,9.029 35.725,8.759C35.669,8.488 35.843,8.223 36.113,8.167ZM54.807,38.837C54.635,39.052 54.32,39.088 54.104,38.915C53.889,38.743 53.854,38.428 54.026,38.213C54.198,37.997 54.513,37.962 54.729,38.134C54.944,38.306 54.979,38.621 54.807,38.837ZM23.738,16.919C23.881,16.684 24.189,16.609 24.425,16.752C24.66,16.895 24.735,17.203 24.592,17.439C24.449,17.675 24.141,17.75 23.905,17.606C23.669,17.463 23.594,17.155 23.738,16.919ZM36.129,45.406C35.859,45.35 35.685,45.085 35.741,44.815C35.796,44.545 36.061,44.371 36.331,44.427C36.602,44.482 36.776,44.747 36.72,45.017C36.664,45.288 36.399,45.462 36.129,45.406ZM41.307,45.716C41.032,45.741 40.788,45.538 40.764,45.263C40.739,44.988 40.942,44.745 41.216,44.72C41.491,44.695 41.735,44.898 41.76,45.173C41.784,45.448 41.581,45.691 41.307,45.716ZM58.755,29.362C58.72,29.636 58.47,29.829 58.196,29.794C57.922,29.759 57.728,29.508 57.764,29.235C57.799,28.961 58.049,28.767 58.323,28.802C58.597,28.837 58.791,29.088 58.755,29.362ZM58.754,24.188C58.789,24.462 58.596,24.713 58.322,24.748C58.048,24.783 57.797,24.59 57.762,24.316C57.727,24.042 57.92,23.791 58.194,23.756C58.468,23.721 58.719,23.914 58.754,24.188ZM21.676,21.673C21.75,21.407 22.026,21.251 22.292,21.325C22.558,21.399 22.714,21.675 22.639,21.941C22.565,22.207 22.289,22.363 22.024,22.289C21.758,22.214 21.602,21.939 21.676,21.673ZM39.485,49.054C35.807,48.971 32.349,47.996 29.319,46.338L26.373,63.076L36.772,65.187L39.485,49.054ZM40.452,49.065L43.253,65.19L53.664,63.115L50.71,46.322C47.656,47.999 44.165,48.982 40.452,49.055L40.452,49.065Z" style="fill:rgb(204,53,119);"/>
    </g>
</svg>
