<?xml version="1.0" encoding="UTF-8" standalone="no"?>
<!DOCTYPE svg PUBLIC "-//W3C//DTD SVG 1.1//EN" "http://www.w3.org/Graphics/SVG/1.1/DTD/svg11.dtd">
<svg width="100%" height="100%" viewBox="0 0 150 150" version="1.1" xmlns="http://www.w3.org/2000/svg" xmlns:xlink="http://www.w3.org/1999/xlink" xml:space="preserve" xmlns:serif="http://www.serif.com/" style="fill-rule:evenodd;clip-rule:evenodd;stroke-linejoin:round;stroke-miterlimit:2;">
    <g transform="matrix(1,0,0,1,-1276.07,-1808.25)">
        <path d="M1378.57,1845.34L1395.58,1845.34C1402.37,1845.34 1407.87,1850.85 1407.87,1857.63L1407.87,1927.66C1407.87,1934.44 1402.37,1939.95 1395.58,1939.95L1306.55,1939.95C1299.77,1939.95 1294.26,1934.44 1294.26,1927.66L1294.26,1857.63C1294.26,1850.85 1299.77,1845.34 1306.55,1845.34L1323.57,1845.34C1327.86,1834.35 1338.56,1826.55 1351.07,1826.55C1363.57,1826.55 1374.28,1834.35 1378.57,1845.34ZM1322.29,1849.51L1306.55,1849.51C1302.07,1849.51 1298.43,1853.15 1298.43,1857.63L1298.43,1927.66C1298.43,1932.14 1302.07,1935.78 1306.55,1935.78L1395.58,1935.78C1400.07,1935.78 1403.7,1932.14 1403.7,1927.66L1403.7,1857.63C1403.7,1853.15 1400.07,1849.51 1395.58,1849.51L1379.84,1849.51C1380.32,1851.61 1380.57,1853.8 1380.57,1856.05C1380.57,1872.34 1367.35,1885.56 1351.07,1885.56C1334.78,1885.56 1321.56,1872.34 1321.56,1856.05C1321.56,1853.8 1321.81,1851.61 1322.29,1849.51ZM1387.37,1853.97L1389.17,1853.97C1394.95,1853.97 1399.64,1858.66 1399.64,1864.44L1399.64,1922C1399.64,1927.78 1394.95,1932.47 1389.17,1932.47L1312.96,1932.47C1307.18,1932.47 1302.49,1927.78 1302.49,1922L1302.49,1864.44C1302.49,1858.66 1307.18,1853.97 1312.96,1853.97L1315.67,1853.97C1316.23,1853.97 1316.78,1854.2 1317.17,1854.6C1317.56,1855.01 1317.77,1855.56 1317.75,1856.12C1317.74,1856.53 1317.73,1856.94 1317.73,1857.35C1317.73,1875.99 1332.87,1891.13 1351.52,1891.13C1370.16,1891.13 1385.3,1875.99 1385.3,1857.35C1385.3,1856.94 1385.3,1856.53 1385.28,1856.12C1385.26,1855.56 1385.47,1855.01 1385.87,1854.6C1386.26,1854.2 1386.8,1853.97 1387.37,1853.97ZM1389.46,1858.14C1389.04,1878.72 1372.2,1895.3 1351.52,1895.3C1330.83,1895.3 1313.99,1878.72 1313.57,1858.13L1312.96,1858.13C1309.48,1858.13 1306.66,1860.96 1306.66,1864.44L1306.66,1922C1306.66,1925.48 1309.48,1928.3 1312.96,1928.3L1389.17,1928.3C1392.65,1928.3 1395.47,1925.48 1395.47,1922L1395.47,1864.44C1395.47,1861.06 1392.81,1858.29 1389.46,1858.14ZM1351.07,1830.71C1337.08,1830.71 1325.73,1842.07 1325.73,1856.05C1325.73,1870.04 1337.08,1881.39 1351.07,1881.39C1365.05,1881.39 1376.4,1870.04 1376.4,1856.05C1376.4,1842.07 1365.05,1830.71 1351.07,1830.71ZM1370.88,1863.9C1371.84,1864.54 1372.09,1865.83 1371.45,1866.79C1370.81,1867.74 1369.52,1868 1368.56,1867.36L1364.78,1864.82C1363.82,1864.18 1363.57,1862.89 1364.21,1861.93C1364.85,1860.98 1366.14,1860.72 1367.1,1861.36L1370.88,1863.9ZM1331.5,1845.84C1330.55,1845.19 1330.29,1843.9 1330.93,1842.94C1331.57,1841.99 1332.87,1841.73 1333.82,1842.37L1337.61,1844.91C1338.56,1845.55 1338.82,1846.85 1338.18,1847.8C1337.54,1848.76 1336.24,1849.01 1335.29,1848.37L1331.5,1845.84ZM1338.92,1838.09C1338.24,1837.17 1338.43,1835.86 1339.36,1835.18C1340.28,1834.49 1341.59,1834.68 1342.27,1835.61L1344.91,1839.18C1345.6,1840.1 1345.4,1841.41 1344.48,1842.09C1343.56,1842.78 1342.25,1842.58 1341.57,1841.66L1338.92,1838.09ZM1348.98,1834.47C1348.98,1833.32 1349.92,1832.38 1351.07,1832.38C1352.22,1832.38 1353.15,1833.32 1353.15,1834.47L1353.15,1839.02C1353.15,1840.17 1352.22,1841.11 1351.07,1841.11C1349.92,1841.11 1348.98,1840.17 1348.98,1839.02L1348.98,1834.47ZM1330,1858.13C1328.85,1858.13 1327.92,1857.2 1327.92,1856.05C1327.92,1854.9 1328.85,1853.97 1330,1853.97L1334.55,1853.97C1335.7,1853.97 1336.64,1854.9 1336.64,1856.05C1336.64,1857.2 1335.7,1858.13 1334.55,1858.13L1330,1858.13ZM1333.82,1867.36C1332.87,1868 1331.57,1867.74 1330.93,1866.79C1330.29,1865.83 1330.55,1864.54 1331.5,1863.9L1335.29,1861.36C1336.24,1860.72 1337.54,1860.98 1338.18,1861.93C1338.82,1862.89 1338.56,1864.18 1337.61,1864.82L1333.82,1867.36ZM1356.17,1853.55C1356.54,1854.3 1356.75,1855.15 1356.75,1856.05C1356.75,1859.18 1354.21,1861.73 1351.08,1861.73C1347.94,1861.73 1345.4,1859.18 1345.4,1856.05C1345.4,1852.92 1347.94,1850.37 1351.08,1850.37C1351.78,1850.37 1352.46,1850.5 1353.09,1850.74L1357.87,1845.95C1358.69,1845.14 1360.01,1845.14 1360.82,1845.95C1361.63,1846.77 1361.63,1848.09 1360.82,1848.9L1356.17,1853.55ZM1351.08,1854.54C1350.24,1854.54 1349.57,1855.22 1349.57,1856.05C1349.57,1856.88 1350.24,1857.56 1351.08,1857.56C1351.91,1857.56 1352.59,1856.88 1352.59,1856.05C1352.59,1855.22 1351.91,1854.54 1351.08,1854.54ZM1367.6,1858.13C1366.45,1858.13 1365.51,1857.2 1365.51,1856.05C1365.51,1854.9 1366.45,1853.97 1367.6,1853.97L1372.15,1853.97C1373.3,1853.97 1374.24,1854.9 1374.24,1856.05C1374.24,1857.2 1373.3,1858.13 1372.15,1858.13L1367.6,1858.13ZM1360.12,1835.61C1360.8,1834.68 1362.11,1834.49 1363.03,1835.18C1363.95,1835.86 1364.15,1837.17 1363.46,1838.09L1360.82,1841.66C1360.13,1842.58 1358.83,1842.78 1357.9,1842.09C1356.98,1841.41 1356.79,1840.1 1357.47,1839.18L1360.12,1835.61ZM1368.56,1842.37C1369.52,1841.73 1370.81,1841.99 1371.45,1842.94C1372.09,1843.9 1371.84,1845.19 1370.88,1845.84L1367.1,1848.37C1366.14,1849.01 1364.85,1848.76 1364.21,1847.8C1363.57,1846.85 1363.82,1845.55 1364.78,1844.91L1368.56,1842.37Z"/>
    </g>
</svg>
