<?xml version="1.0" encoding="UTF-8" standalone="no"?>
<!DOCTYPE svg PUBLIC "-//W3C//DTD SVG 1.1//EN" "http://www.w3.org/Graphics/SVG/1.1/DTD/svg11.dtd">
<svg width="100%" height="100%" viewBox="0 0 150 150" version="1.1" xmlns="http://www.w3.org/2000/svg" xmlns:xlink="http://www.w3.org/1999/xlink" xml:space="preserve" xmlns:serif="http://www.serif.com/" style="fill-rule:evenodd;clip-rule:evenodd;stroke-linejoin:round;stroke-miterlimit:2;">
    <g transform="matrix(1,0,0,1,-1274.57,-2025.75)">
        <path d="M1347.49,2135.36C1322.73,2133.31 1303.25,2112.55 1303.25,2087.27C1303.25,2068.29 1314.23,2051.85 1330.18,2043.97L1330.18,2043.97C1332.2,2042.98 1334.64,2043.38 1336.23,2044.98C1337.81,2046.58 1338.21,2049 1337.21,2051.01C1334.83,2055.9 1333.52,2061.39 1333.52,2067.18C1333.52,2076.46 1336.89,2084.95 1342.48,2091.5L1347.95,2088.67C1351.26,2086.96 1355.23,2087.09 1358.41,2089.03C1360.99,2090.6 1362.76,2093.17 1363.34,2096.08L1368.33,2096.08C1373.92,2096.08 1378.88,2098.83 1381.91,2103.05C1384.1,2102.39 1386.2,2101.53 1388.2,2100.49C1390.17,2099.44 1392.59,2099.75 1394.23,2101.28C1395.86,2102.8 1396.34,2105.21 1395.42,2107.25C1392.9,2112.8 1389.35,2117.79 1385.03,2121.97L1385.03,2133.9C1385.03,2139.97 1380.12,2144.91 1374.05,2144.94L1374.05,2148C1374.05,2155.34 1368.1,2161.28 1360.77,2161.28L1354.67,2161.28C1352.77,2161.28 1350.94,2160.52 1349.59,2159.18C1348.24,2157.83 1347.49,2156 1347.49,2154.09L1347.49,2135.36ZM1340.54,2095.46C1340.38,2095.36 1340.22,2095.23 1340.08,2095.08C1333.41,2087.69 1329.35,2077.91 1329.35,2067.18C1329.35,2060.73 1330.82,2054.63 1333.46,2049.19L1333.47,2049.17C1333.68,2048.75 1333.6,2048.25 1333.27,2047.92C1332.94,2047.59 1332.44,2047.5 1332.02,2047.71C1317.45,2054.91 1307.42,2069.93 1307.42,2087.27C1307.42,2110.24 1325.04,2129.14 1347.49,2131.18L1347.49,2101.13L1340.77,2095.67C1340.69,2095.61 1340.61,2095.54 1340.54,2095.46ZM1359.38,2098.16C1359.38,2095.88 1358.19,2093.77 1356.25,2092.59C1354.3,2091.41 1351.88,2091.33 1349.86,2092.37L1345.86,2094.44L1350.88,2098.53C1351.37,2098.92 1351.65,2099.51 1351.65,2100.14L1351.65,2154.09C1351.65,2154.89 1351.97,2155.66 1352.54,2156.23C1353.1,2156.8 1353.87,2157.11 1354.67,2157.11L1360.77,2157.11C1365.8,2157.11 1369.88,2153.03 1369.88,2148L1369.88,2125.69C1369.88,2124.54 1370.81,2123.61 1371.96,2123.61C1373.11,2123.61 1374.05,2124.54 1374.05,2125.69L1374.05,2140.77C1377.82,2140.74 1380.86,2137.67 1380.86,2133.9L1380.86,2112.77C1380.86,2105.85 1375.25,2100.24 1368.33,2100.24L1363.54,2100.24L1363.54,2112.27C1363.54,2113.42 1362.61,2114.36 1361.46,2114.36C1360.31,2114.36 1359.38,2113.42 1359.38,2112.27L1359.38,2098.16ZM1383.92,2106.79C1384.64,2108.65 1385.03,2110.66 1385.03,2112.77L1385.03,2115.89C1387.68,2112.78 1389.91,2109.3 1391.62,2105.53C1391.81,2105.12 1391.71,2104.63 1391.38,2104.32C1391.05,2104.01 1390.56,2103.95 1390.16,2104.17L1390.13,2104.18C1388.15,2105.21 1386.07,2106.09 1383.92,2106.79ZM1351.52,2044.38C1350.37,2044.38 1349.43,2043.45 1349.43,2042.3C1349.43,2041.15 1350.37,2040.22 1351.52,2040.22L1361.46,2040.22C1362.3,2040.22 1363.06,2040.72 1363.38,2041.5C1363.71,2042.28 1363.53,2043.18 1362.93,2043.77L1355.99,2050.72L1360.89,2050.72C1362.04,2050.72 1362.97,2051.65 1362.97,2052.8C1362.97,2053.95 1362.04,2054.89 1360.89,2054.89L1350.96,2054.89C1350.11,2054.89 1349.35,2054.38 1349.03,2053.6C1348.71,2052.82 1348.89,2051.92 1349.48,2051.33L1356.43,2044.38L1351.52,2044.38ZM1362.02,2069.26C1360.87,2069.26 1359.94,2068.33 1359.94,2067.18C1359.94,2066.03 1360.87,2065.1 1362.02,2065.1L1371.96,2065.1C1372.81,2065.1 1373.57,2065.61 1373.89,2066.38C1374.21,2067.16 1374.03,2068.06 1373.44,2068.65L1366.49,2075.6L1371.39,2075.6C1372.54,2075.6 1373.48,2076.53 1373.48,2077.68C1373.48,2078.83 1372.54,2079.77 1371.39,2079.77L1361.46,2079.77C1360.62,2079.77 1359.86,2079.26 1359.54,2078.48C1359.21,2077.7 1359.39,2076.81 1359.99,2076.21L1366.93,2069.26L1362.02,2069.26ZM1383.5,2049.63C1382.35,2049.63 1381.42,2048.7 1381.42,2047.55C1381.42,2046.4 1382.35,2045.47 1383.5,2045.47L1393.45,2045.47C1394.29,2045.47 1395.05,2045.98 1395.37,2046.75C1395.69,2047.53 1395.52,2048.43 1394.92,2049.02L1387.97,2055.97L1392.88,2055.97C1394.03,2055.97 1394.96,2056.9 1394.96,2058.05C1394.96,2059.2 1394.03,2060.14 1392.88,2060.14L1382.94,2060.14C1382.1,2060.14 1381.34,2059.63 1381.02,2058.85C1380.7,2058.07 1380.88,2057.18 1381.47,2056.58L1388.42,2049.63L1383.5,2049.63Z"/>
    </g>
</svg>
