<?xml version="1.0" encoding="UTF-8" standalone="no"?>
<!DOCTYPE svg PUBLIC "-//W3C//DTD SVG 1.1//EN" "http://www.w3.org/Graphics/SVG/1.1/DTD/svg11.dtd">
<svg width="100%" height="100%" viewBox="0 0 151 150" version="1.1" xmlns="http://www.w3.org/2000/svg" xmlns:xlink="http://www.w3.org/1999/xlink" xml:space="preserve" xmlns:serif="http://www.serif.com/" style="fill-rule:evenodd;clip-rule:evenodd;stroke-linejoin:round;stroke-miterlimit:2;">
    <path d="M150.5,75C150.5,116.394 116.894,150 75.5,150C34.106,150 0.5,116.394 0.5,75C0.5,33.606 34.106,0 75.5,0C116.894,0 150.5,33.606 150.5,75Z" style="fill:rgb(161,192,73);"/>
    <path d="M123.129,112.761L128.2,112.761C128.752,112.761 129.2,113.209 129.2,113.761C129.2,114.313 128.752,114.761 128.2,114.761L22.801,114.761C22.249,114.761 21.801,114.313 21.801,113.761C21.801,113.209 22.249,112.761 22.801,112.761L29.344,112.761C32.873,93.564 41.29,77.97 48.85,70.275C52.339,66.723 55.712,64.846 58.371,64.846C59.278,64.846 60.269,65.065 61.318,65.494C61.594,64.939 61.872,64.395 62.152,63.861C66.792,54.974 72.003,48.126 76.757,44.062C80.106,41.2 83.275,39.71 85.891,39.71C88.842,39.71 92.506,41.621 96.342,45.246C101.76,50.367 107.638,58.923 112.525,69.85C113.127,69.662 113.768,69.56 114.433,69.56C117.967,69.56 120.837,72.426 120.837,75.963C120.837,76.318 120.808,76.664 120.754,77.001C122.358,77.412 123.547,78.874 123.547,80.596C123.547,82.646 121.884,84.307 119.837,84.307L117.908,84.307C120.546,93.001 122.441,102.61 123.129,112.761ZM87.398,112.761L121.124,112.761C120.424,102.593 118.494,92.978 115.817,84.307L103.881,84.307C101.833,84.307 100.17,82.645 100.17,80.596C100.17,78.904 101.318,77.462 102.881,77.023C102.921,74.574 104.921,72.598 107.379,72.598C107.89,72.598 108.382,72.685 108.841,72.843C109.307,72.01 109.956,71.291 110.732,70.74C108.311,65.317 105.645,60.488 102.915,56.394C102.121,57.189 100.833,58.48 99.483,59.826C96.126,63.181 90.684,63.181 87.327,59.825C85.803,58.299 83.335,58.298 81.813,59.824C81.193,60.447 80.55,61.082 79.945,61.691L79.943,61.694C77.911,63.73 74.618,63.73 72.586,61.694C70.822,59.925 68.819,57.925 68.242,57.349C66.77,59.624 65.322,62.111 63.924,64.788C63.649,65.313 63.375,65.848 63.104,66.394C64.633,67.302 66.25,68.603 67.892,70.275C75.452,77.97 83.869,93.564 87.398,112.761ZM101.763,54.716C99.491,51.5 97.192,48.801 94.968,46.699C91.608,43.524 88.476,41.71 85.891,41.71C83.631,41.71 80.949,43.11 78.056,45.582C75.243,47.987 72.273,51.404 69.363,55.662C69.408,55.694 69.45,55.73 69.491,55.77C69.491,55.77 71.913,58.187 74.002,60.281C75.252,61.534 77.277,61.534 78.527,60.281C79.133,59.671 79.775,59.035 80.396,58.413C82.7,56.102 86.436,56.102 88.741,58.411C91.317,60.986 95.494,60.986 98.069,58.411C99.581,56.903 101.015,55.466 101.763,54.716ZM119.837,78.886L119.483,78.886C119.154,78.886 118.846,78.723 118.659,78.452C118.473,78.18 118.432,77.834 118.55,77.526C118.736,77.044 118.837,76.518 118.837,75.963C118.837,73.531 116.863,71.56 114.433,71.56C112.507,71.56 110.868,72.802 110.27,74.52C110.169,74.813 109.937,75.041 109.644,75.14C109.35,75.238 109.028,75.195 108.771,75.023C108.372,74.757 107.894,74.598 107.379,74.598C106,74.598 104.881,75.718 104.881,77.097C104.881,77.292 104.901,77.48 104.943,77.656C105.013,77.954 104.943,78.267 104.753,78.506C104.564,78.746 104.275,78.886 103.969,78.886L103.881,78.886C102.937,78.886 102.17,79.657 102.17,80.596C102.17,81.541 102.937,82.307 103.881,82.307L119.837,82.307C120.78,82.307 121.547,81.541 121.547,80.596C121.547,79.657 120.78,78.886 119.837,78.886ZM40.916,85.027C36.895,92.602 33.376,102.108 31.379,112.758L85.363,112.758C83.215,101.303 79.306,91.172 74.906,83.343L71.429,86.825C69.816,88.442 67.63,89.342 65.351,89.342C63.072,89.342 60.885,88.442 59.273,86.826C57.764,85.316 55.316,85.315 53.808,86.825L53.804,86.829C53.177,87.449 52.53,88.107 51.92,88.715C49.899,90.731 46.621,90.731 44.6,88.715L44.599,88.713C43.27,87.382 41.804,85.915 40.916,85.027ZM73.867,81.553C71.448,77.512 68.914,74.168 66.466,71.677C63.465,68.622 60.658,66.846 58.371,66.846C56.084,66.846 53.277,68.622 50.276,71.677C47.503,74.499 44.619,78.415 41.917,83.199C42.695,83.977 44.449,85.732 46.013,87.299C47.254,88.537 49.266,88.536 50.507,87.298C51.119,86.689 51.769,86.03 52.393,85.412C54.683,83.12 58.397,83.121 60.688,85.412C61.925,86.652 63.603,87.342 65.351,87.342C67.099,87.342 68.776,86.652 70.013,85.412L73.867,81.553ZM34.781,45.581C34.662,45.014 34.599,44.424 34.599,43.816C34.599,39.077 38.443,35.239 43.178,35.239C46.518,35.239 49.415,37.157 50.831,39.941C51.522,39.658 52.278,39.499 53.069,39.499C56.329,39.499 58.975,42.146 58.975,45.406C58.975,45.476 58.974,45.546 58.971,45.616C61.144,46.078 62.776,48.017 62.776,50.313C62.776,52.964 60.625,55.114 57.975,55.114L35.599,55.114C32.951,55.114 30.799,52.964 30.799,50.313C30.799,47.954 32.521,45.973 34.781,45.581ZM57.975,47.511L57.851,47.511C57.545,47.511 57.256,47.372 57.067,47.132C56.877,46.893 56.807,46.579 56.877,46.282C56.942,46.006 56.975,45.711 56.975,45.406C56.975,43.25 55.225,41.499 53.069,41.499C52.265,41.499 51.517,41.747 50.894,42.163C50.637,42.335 50.315,42.378 50.021,42.28C49.728,42.181 49.496,41.952 49.395,41.66C48.502,39.094 46.054,37.239 43.178,37.239C39.547,37.239 36.599,40.182 36.599,43.816C36.599,44.645 36.75,45.431 37.028,46.152C37.146,46.46 37.106,46.806 36.919,47.077C36.733,47.349 36.424,47.511 36.095,47.511L35.599,47.511C34.054,47.511 32.799,48.775 32.799,50.313C32.799,51.859 34.054,53.114 35.599,53.114L57.975,53.114C59.521,53.114 60.776,51.86 60.776,50.313C60.776,48.775 59.521,47.511 57.975,47.511Z" style="fill:white;"/>
</svg>
