<?xml version="1.0" encoding="UTF-8" standalone="no"?>
<!DOCTYPE svg PUBLIC "-//W3C//DTD SVG 1.1//EN" "http://www.w3.org/Graphics/SVG/1.1/DTD/svg11.dtd">
<svg width="100%" height="100%" viewBox="0 0 151 150" version="1.1" xmlns="http://www.w3.org/2000/svg" xmlns:xlink="http://www.w3.org/1999/xlink" xml:space="preserve" xmlns:serif="http://www.serif.com/" style="fill-rule:evenodd;clip-rule:evenodd;stroke-linejoin:round;stroke-miterlimit:2;">
    <path d="M150.5,75C150.5,116.394 116.894,150 75.5,150C34.106,150 0.5,116.394 0.5,75C0.5,33.606 34.106,0 75.5,0C116.894,0 150.5,33.606 150.5,75Z" style="fill:rgb(216,126,50);"/>
    <g transform="matrix(0.988209,0,0,1,0.332281,0)">
        <path d="M28.19,91.543C38.998,83.43 52.471,78.614 67.073,78.614C71.009,78.614 74.868,78.964 78.612,79.635C78.612,79.634 78.617,79.632 78.621,79.631C85.987,76.727 94.02,75.129 102.428,75.129C107.8,75.129 113.016,75.78 118.001,77.007L118.001,67.881L108.012,67.881C105.163,67.881 102.848,65.593 102.848,62.774C102.848,60.227 104.738,58.114 107.201,57.729C107.075,57.134 107.007,56.517 107.007,55.885C107.007,50.991 111.026,47.018 115.972,47.018C119.633,47.018 122.782,49.191 124.174,52.301C124.893,51.975 125.695,51.792 126.541,51.792C129.68,51.792 132.23,54.313 132.23,57.418C132.23,57.533 132.226,57.648 132.221,57.761C134.592,58.22 136.389,60.291 136.389,62.774C136.389,65.582 134.09,67.863 131.259,67.881L120.015,67.881L120.015,77.536C125.082,78.958 129.897,80.978 134.375,83.517C134.858,83.789 135.027,84.398 134.752,84.875C134.471,85.351 133.858,85.516 133.375,85.243C128.873,82.692 124.019,80.68 118.904,79.297C118.793,79.286 118.687,79.257 118.59,79.212C113.436,77.847 108.017,77.119 102.428,77.119C95.386,77.119 88.615,78.275 82.297,80.408C88.233,81.833 93.851,84.074 99.019,87.001C99.497,87.275 99.666,87.883 99.391,88.359C99.115,88.836 98.497,89.001 98.014,88.728C88.895,83.559 78.327,80.604 67.073,80.604C49.598,80.604 33.793,87.723 22.465,99.186C20.715,100.957 19.072,102.832 17.545,104.8C17.207,105.236 16.574,105.318 16.135,104.984C15.695,104.65 15.608,104.025 15.947,103.589C17.935,101.027 20.115,98.618 22.465,96.384L26.171,93.25L26.171,90.471L26.177,90.471L26.177,84.665C20.419,84.161 15.898,79.373 15.898,73.548C15.898,69.502 19.323,60.555 22.607,55.558C23.496,54.208 24.385,53.139 25.182,52.493C25.896,51.918 26.587,51.652 27.181,51.652C27.78,51.652 28.471,51.918 29.181,52.493C29.983,53.139 30.867,54.208 31.76,55.558C35.045,60.555 38.469,69.502 38.469,73.548C38.469,79.373 33.948,84.161 28.191,84.665L28.19,91.543ZM28.191,82.665C32.832,82.169 36.455,78.273 36.455,73.548C36.455,69.74 33.166,61.346 30.07,56.644C29.316,55.501 28.587,54.581 27.911,54.035C27.64,53.816 27.408,53.642 27.181,53.642C26.954,53.642 26.727,53.816 26.457,54.035C25.78,54.581 25.046,55.501 24.293,56.644C21.202,61.346 17.907,69.74 17.907,73.548C17.907,78.273 21.53,82.169 26.177,82.665L26.177,80.722L21.897,76.488C21.501,76.1 21.501,75.469 21.897,75.081C22.288,74.693 22.926,74.693 23.317,75.081L26.177,77.908L26.177,71.824L21.897,67.59C21.501,67.202 21.501,66.571 21.897,66.182C22.288,65.794 22.926,65.794 23.317,66.182L26.177,69.009L26.177,64.476C26.177,63.928 26.626,63.481 27.181,63.481C27.737,63.481 28.191,63.928 28.191,64.476L28.191,69.313L31.354,66.182C31.746,65.794 32.383,65.794 32.779,66.182C33.171,66.571 33.171,67.202 32.779,67.59L28.254,72.066C28.229,72.086 28.21,72.105 28.191,72.123L28.191,78.212L31.354,75.081C31.746,74.693 32.383,74.693 32.779,75.081C33.171,75.469 33.171,76.1 32.779,76.488L28.191,81.027L28.191,82.665ZM121.097,65.891L131.225,65.891L131.245,65.891C132.974,65.88 134.375,64.487 134.375,62.774C134.375,61.06 132.974,59.667 131.245,59.656L131.052,59.656C130.737,59.656 130.443,59.51 130.249,59.263C130.061,59.015 129.999,58.694 130.086,58.394C130.173,58.083 130.216,57.756 130.216,57.418C130.216,55.412 128.569,53.783 126.541,53.783C125.681,53.783 124.893,54.074 124.265,54.562C124.005,54.768 123.652,54.83 123.333,54.726C123.009,54.623 122.763,54.367 122.676,54.046C121.86,51.143 119.165,49.009 115.972,49.009C112.137,49.009 109.022,52.089 109.022,55.885C109.022,56.738 109.176,57.555 109.466,58.309C109.582,58.615 109.538,58.958 109.35,59.227C109.162,59.496 108.852,59.656 108.524,59.656L108.012,59.656C106.274,59.656 104.858,61.053 104.858,62.774C104.858,64.494 106.274,65.891 108.012,65.891L117.132,65.891L114.533,63.323C114.142,62.935 114.142,62.304 114.533,61.916C114.929,61.528 115.566,61.528 115.958,61.916L118.001,63.937L118.001,58.406C118.001,57.856 118.45,57.41 119.006,57.41C119.56,57.41 120.015,57.856 120.015,58.406L120.015,64.147L123.719,60.484C124.111,60.096 124.749,60.096 125.139,60.484C125.531,60.873 125.531,61.503 125.139,61.891L121.097,65.891ZM52.964,44.81C58.05,44.81 62.185,48.896 62.185,53.927C62.185,58.959 58.05,63.044 52.964,63.044C47.873,63.044 43.743,58.959 43.743,53.927C43.743,48.896 47.873,44.81 52.964,44.81ZM52.964,46.801C48.984,46.801 45.758,49.994 45.758,53.927C45.758,57.861 48.984,61.054 52.964,61.054C56.939,61.054 60.17,57.861 60.17,53.927C60.17,49.994 56.939,46.801 52.964,46.801Z" style="fill:white;"/>
    </g>
</svg>
