<?xml version="1.0" encoding="UTF-8" standalone="no"?>
<!DOCTYPE svg PUBLIC "-//W3C//DTD SVG 1.1//EN" "http://www.w3.org/Graphics/SVG/1.1/DTD/svg11.dtd">
<svg width="100%" height="100%" viewBox="0 0 151 150" version="1.1" xmlns="http://www.w3.org/2000/svg" xmlns:xlink="http://www.w3.org/1999/xlink" xml:space="preserve" xmlns:serif="http://www.serif.com/" style="fill-rule:evenodd;clip-rule:evenodd;stroke-linejoin:round;stroke-miterlimit:2;">
    <path d="M150.5,75C150.5,116.394 116.894,150 75.5,150C34.106,150 0.5,116.394 0.5,75C0.5,33.606 34.106,0 75.5,0C116.894,0 150.5,33.606 150.5,75Z" style="fill:rgb(88,110,176);"/>
    <path d="M55.025,100.561C42.221,99.982 31.941,88.362 31.941,74.075C31.941,64.046 39.579,47.506 46.869,38.494C48.791,36.118 50.694,34.261 52.423,33.148C53.72,32.313 54.944,31.887 56.027,31.887C57.11,31.887 58.335,32.313 59.631,33.148C61.36,34.261 63.263,36.118 65.184,38.494C70.883,45.538 76.794,57.183 79.104,66.721C81.909,62.664 86.595,60.004 91.896,60.004C99.631,60.004 106.053,65.666 107.241,73.068C113.926,74.078 119.059,79.853 119.059,86.819C119.059,94.494 112.827,100.723 105.151,100.723L90.368,100.722L90.368,116.114L114.719,116.114C115.271,116.114 115.719,116.562 115.719,117.114C115.719,117.666 115.271,118.114 114.719,118.114L37.36,118.114C36.808,118.114 36.36,117.666 36.36,117.114C36.36,116.562 36.808,116.114 37.36,116.114L55.025,116.114L55.025,100.561ZM79.707,69.643C79.971,71.218 80.113,72.707 80.113,74.075C80.113,85.273 73.796,94.834 64.9,98.722L88.368,98.722L88.368,93.858L81.81,87.301C81.42,86.911 81.42,86.277 81.81,85.887C82.2,85.496 82.834,85.496 83.224,85.887L88.368,91.03L88.368,78.703C88.368,78.151 88.816,77.703 89.368,77.703C89.92,77.703 90.368,78.151 90.368,78.703L90.368,91.033L97.785,83.614C98.175,83.224 98.809,83.224 99.199,83.614C99.59,84.004 99.59,84.638 99.199,85.028L90.368,93.862L90.368,98.722L105.151,98.722C111.723,98.722 117.059,93.39 117.059,86.819C117.059,80.621 112.313,75.523 106.261,74.963C105.787,74.919 105.41,74.548 105.359,74.075C104.625,67.291 98.873,62.004 91.896,62.004C86.538,62.004 81.902,65.123 79.707,69.643ZM57.025,98.559C68.777,97.98 78.113,87.208 78.113,74.075C78.113,64.392 70.668,48.453 63.629,39.751C61.866,37.572 60.135,35.851 58.549,34.83C57.635,34.241 56.791,33.887 56.027,33.887C55.264,33.887 54.42,34.241 53.506,34.83C51.919,35.851 50.187,37.572 48.424,39.751C41.386,48.453 33.941,64.392 33.941,74.075C33.941,87.206 43.273,97.977 55.025,98.559L55.025,89.624L47.013,81.615C46.622,81.225 46.622,80.591 47.012,80.201C47.403,79.81 48.036,79.81 48.427,80.2L55.025,86.796L55.025,71.779L47.013,63.766C46.622,63.376 46.622,62.742 47.013,62.352C47.403,61.962 48.037,61.962 48.427,62.352L55.025,68.95L55.025,56.612C55.025,56.06 55.473,55.612 56.025,55.612C56.577,55.612 57.025,56.06 57.025,56.612L57.025,70.345L62.48,64.69C62.863,64.293 63.497,64.282 63.894,64.665C64.291,65.048 64.302,65.682 63.919,66.079L57.025,73.225L57.025,88.471L64.422,81.071C64.812,80.681 65.446,80.681 65.836,81.071C66.226,81.461 66.226,82.095 65.836,82.485L57.025,91.3L57.025,98.559ZM88.368,116.114L88.368,100.722L57.025,100.722L57.025,116.114L88.368,116.114ZM108.923,51.802C103.423,51.802 98.965,47.343 98.965,41.844C98.965,36.344 103.423,31.886 108.923,31.886C114.422,31.886 118.881,36.344 118.881,41.844C118.881,47.343 114.422,51.802 108.923,51.802ZM108.923,49.802C113.318,49.802 116.881,46.239 116.881,41.844C116.881,37.449 113.318,33.886 108.923,33.886C104.527,33.886 100.965,37.449 100.965,41.844C100.965,46.239 104.527,49.802 108.923,49.802Z" style="fill:white;"/>
</svg>
