<?xml version="1.0" encoding="UTF-8" standalone="no"?>
<!DOCTYPE svg PUBLIC "-//W3C//DTD SVG 1.1//EN" "http://www.w3.org/Graphics/SVG/1.1/DTD/svg11.dtd">
<svg width="100%" height="100%" viewBox="0 0 2084 2084" version="1.1" xmlns="http://www.w3.org/2000/svg" xmlns:xlink="http://www.w3.org/1999/xlink" xml:space="preserve" xmlns:serif="http://www.serif.com/" style="fill-rule:evenodd;clip-rule:evenodd;stroke-miterlimit:10;">
    <g id="Background-Simple" serif:id="Background Simple" transform="matrix(4.16667,0,0,4.16667,0,0)">
        <g transform="matrix(1,0,0,1,453.463,115.493)">
            <path d="M0,286.958C-1.772,289.746 -3.611,292.481 -5.527,295.149C-31.04,330.673 -72.589,354.366 -112.636,364.542C-130.179,369.008 -148.127,371.116 -165.994,371.309C-283.184,372.52 -323.675,274.707 -360.748,248.793C-397.82,222.88 -454.596,178.788 -445.002,89.523C-437.719,21.652 -397.397,-42.376 -326.077,-70.133C-318.222,-73.2 -309.983,-75.825 -301.373,-77.957C-285.357,-81.925 -268.05,-84.227 -249.458,-84.571C-196.058,-85.562 -153.085,-71.555 -111.567,-38.021C-101.916,-30.226 -92.343,-21.468 -79.588,-20.203C-70.317,-19.284 -61.423,-22.397 -70.898,-31.642C-82.034,-42.508 -68.326,-62.951 -39.734,-47.755C8.019,-22.375 26.565,30.182 34.563,83.342C44.38,148.592 36.697,229.221 0,286.958" style="fill:rgb(90,228,168);fill-rule:nonzero;"/>
        </g>
        <g opacity="0.7">
            <g transform="matrix(1,0,0,1,453.463,115.493)">
                <path d="M0,286.958C-1.772,289.746 -3.611,292.481 -5.527,295.149C-31.04,330.673 -72.589,354.366 -112.636,364.542C-130.179,369.008 -148.127,371.116 -165.994,371.309C-283.184,372.52 -323.675,274.707 -360.748,248.793C-397.82,222.88 -454.596,178.788 -445.002,89.523C-437.719,21.652 -397.397,-42.376 -326.077,-70.133C-318.222,-73.2 -309.983,-75.825 -301.373,-77.957C-285.357,-81.925 -268.05,-84.227 -249.458,-84.571C-196.058,-85.562 -153.085,-71.555 -111.567,-38.021C-101.916,-30.226 -92.343,-21.468 -79.588,-20.203C-70.317,-19.284 -61.423,-22.397 -70.898,-31.642C-82.034,-42.508 -68.326,-62.951 -39.734,-47.755C8.019,-22.375 26.565,30.182 34.563,83.342C44.38,148.592 36.697,229.221 0,286.958" style="fill:white;fill-rule:nonzero;"/>
            </g>
        </g>
    </g>
    <g id="Battery" transform="matrix(4.16667,0,0,4.16667,0,0)">
        <g transform="matrix(1,0,0,1,0,-229.143)">
            <rect x="210.732" y="358.222" width="8.704" height="12.699" style="fill:white;stroke:rgb(26,46,53);stroke-width:1px;"/>
        </g>
        <g transform="matrix(-1,0,0,1,494.303,-229.142)">
            <rect x="219.436" y="348.226" width="55.431" height="32.69" style="fill:white;stroke:rgb(26,46,53);stroke-width:1px;"/>
        </g>
        <g transform="matrix(1,0,0,1,272.592,121.379)">
            <path d="M0,28.1L-21.146,28.1L0,0L0,28.1Z" style="fill:rgb(90,228,168);fill-rule:nonzero;"/>
        </g>
    </g>
    <g id="Picture" transform="matrix(4.16667,0,0,4.16667,0,0)">
        <g transform="matrix(1,0,0,1,0,-228.567)">
            <path d="M182.332,445.336L58.219,445.336L58.219,283.232L182.332,283.232L182.332,445.336ZM50.635,455.247L189.923,455.247L189.923,273.32L50.635,273.32L50.635,455.247Z" style="fill:none;fill-rule:nonzero;stroke:rgb(26,46,53);stroke-width:1px;"/>
        </g>
        <g transform="matrix(1,0,0,1,113.977,170.253)">
            <path d="M0,46.516C7.849,41.019 16.142,35.386 24.571,29.71C39.299,19.771 54.439,9.706 68.355,0" style="fill:none;fill-rule:nonzero;stroke:rgb(26,46,53);stroke-width:1px;"/>
        </g>
        <g transform="matrix(1,0,0,1,182.332,130.733)">
            <path d="M0,-15.741C-8.155,-12.397 -16.606,-8.43 -25.015,-4.241C-46.569,6.509 -67.817,18.8 -82.977,26.196C-100.058,34.541 -109.406,36.672 -102.78,23.421C-101.282,20.415 -99.172,17.313 -96.566,14.137C-88.97,4.885 -77.09,-4.959 -63.259,-14.644C-43.836,-28.243 -20.583,-41.515 0,-52.413" style="fill:none;fill-rule:nonzero;stroke:rgb(26,46,53);stroke-width:1px;"/>
        </g>
        <g transform="matrix(-0.489289,-0.872122,-0.872122,0.489289,50.4205,75.4514)">
            <path d="M-52.929,-121.558C-49.686,-100.684 -48.414,-72.629 -52.376,-36.027C-52.547,-34.456 -52.728,-32.902 -52.929,-31.362C-54.912,-15.599 -58.068,-2.228 -61.978,9.281C-64.723,17.39 -67.849,24.563 -71.184,30.995" style="fill:none;fill-rule:nonzero;stroke:rgb(26,46,53);stroke-width:1px;"/>
        </g>
        <g transform="matrix(1,0,0,1,58.2191,54.6652)">
            <path d="M0,48.067C4.463,43.879 9.189,39.585 14.19,35.196C17.313,32.453 20.288,29.826 23.105,27.325C35.755,16.079 45.44,7.132 52.857,0" style="fill:none;fill-rule:nonzero;stroke:rgb(26,46,53);stroke-width:1px;"/>
        </g>
        <g transform="matrix(1,0,0,1,58.2191,191.079)">
            <path d="M0,6.9C16.912,-6.805 34.584,-18.79 31.07,-5.76C28.559,3.534 20.225,15.055 10.951,25.69" style="fill:none;fill-rule:nonzero;stroke:rgb(26,46,53);stroke-width:1px;"/>
        </g>
        <g transform="matrix(1,0,0,1,66.9441,128.095)">
            <path d="M0,-73.429C3.133,-65.537 7.765,-55.81 14.38,-46.104C20.193,-37.569 27.536,-29.044 36.725,-21.828C41.378,-18.157 46.495,-14.833 52.129,-12.006C54.249,-10.93 56.444,-9.927 58.712,-9.01C67.775,-5.338 78.631,-2.985 90.373,-1.603C98.391,-0.654 106.831,-0.147 115.388,0" style="fill:none;fill-rule:nonzero;stroke:rgb(26,46,53);stroke-width:1px;"/>
        </g>
        <g transform="matrix(1,0,0,1,149.584,122.893)">
            <path d="M0,93.876C-1.213,91.903 -2.479,89.867 -3.798,87.757C-6.045,84.17 -8.461,80.604 -11.036,77.07C-22.082,61.877 -35.881,47.286 -50.229,34.035C-54.724,29.868 -59.282,25.848 -63.818,21.976C-68.228,18.221 -72.617,14.602 -76.932,11.152C-81.88,7.206 -86.723,3.482 -91.365,0" style="fill:none;fill-rule:nonzero;stroke:rgb(26,46,53);stroke-width:1px;"/>
        </g>
        <g transform="matrix(0,-1,-1,0,110.155,70.2658)">
            <circle cx="-8.542" cy="0" r="8.542" style="fill:none;stroke:rgb(26,46,53);stroke-width:1px;"/>
        </g>
        <g transform="matrix(0,-1,-1,0,144.857,156.397)">
            <ellipse cx="-11.568" cy="0" rx="11.567" ry="11.568" style="fill:none;stroke:rgb(26,46,53);stroke-width:1px;"/>
        </g>
        <g transform="matrix(0,-1,-1,0,72.428,104.79)">
            <ellipse cx="-2.136" cy="0" rx="2.135" ry="2.136" style="fill:none;stroke:rgb(26,46,53);stroke-width:1px;"/>
        </g>
        <g transform="matrix(0,-1,-1,0,108.731,194.48)">
            <circle cx="-4.627" cy="0" r="4.627" style="fill:none;stroke:rgb(26,46,53);stroke-width:1px;"/>
        </g>
        <g transform="matrix(0,-1,-1,0,163.542,99.4508)">
            <ellipse cx="-6.763" cy="0" rx="6.762" ry="6.763" style="fill:none;stroke:rgb(26,46,53);stroke-width:1px;"/>
        </g>
    </g>
    <g id="Character" transform="matrix(4.16667,0,0,4.16667,0,0)">
        <g transform="matrix(1,0,0,1,70.3659,368.707)">
            <path d="M0,-50.174L80.927,-50.174L67.081,0L12.168,-2.408L0,-50.174Z" style="fill:rgb(139,139,139);fill-rule:nonzero;stroke:rgb(26,46,53);stroke-width:1px;"/>
        </g>
        <g transform="matrix(1,0,0,1,126.922,277.318)">
            <path d="M0,93.898C0,93.898 47.666,-46.949 60.568,-50.892C73.47,-54.834 194.247,-53.759 207.508,-49.816C220.768,-45.874 224.71,-36.556 223.277,-17.561C221.843,1.433 214.675,61.284 214.675,61.284C214.675,61.284 202.849,132.246 183.854,140.489C164.859,148.732 -4.659,135.83 -8.96,132.604C-13.26,129.379 0,93.898 0,93.898Z" style="fill:rgb(193,193,193);fill-rule:nonzero;stroke:rgb(26,46,53);stroke-width:1px;"/>
        </g>
        <g transform="matrix(1,0,0,1,247.773,358.603)">
            <path d="M0,-176.799C0,-176.799 -6.268,-188.254 -8.213,-186.093C-10.158,-183.932 -7.565,-179.825 -7.565,-179.825C-7.565,-179.825 -20.317,-188.687 -21.398,-183.715C-22.478,-178.744 -16.426,-176.151 -16.426,-176.151C-16.426,-176.151 -25.504,-174.854 -25.072,-172.476C-24.64,-170.099 -19.668,-169.234 -19.668,-169.234C-19.668,-169.234 -21.83,-129.465 -24.207,-123.846C-26.585,-118.226 -28.098,-110.661 -28.098,-110.661C-28.098,-110.661 -45.173,-86.886 -39.985,-53.169C-34.798,-19.452 -12.752,-0.216 -5.62,-1.945C1.513,-3.674 5.403,-11.671 9.726,-5.619C14.049,0.433 23.559,11.888 36.743,-2.377C49.927,-16.642 47.118,-36.094 46.253,-44.74C45.389,-53.385 67.218,-53.385 65.489,-72.837C63.76,-92.29 44.308,-105.474 39.769,-111.094C35.23,-116.713 32.637,-134.436 30.259,-146.756C27.882,-159.076 28.746,-165.128 16.426,-172.26C4.106,-179.393 0,-176.799 0,-176.799Z" style="fill:rgb(26,46,53);fill-rule:nonzero;stroke:rgb(26,46,53);stroke-width:1px;"/>
        </g>
        <g transform="matrix(1,0,0,1,233.191,245.07)">
            <path d="M0,-13.288C0,-13.288 0.198,-6.743 -0.992,-3.769C-2.182,-0.794 -5.553,4.164 -5.553,4.164L19.832,5.751C19.832,5.751 18.642,-3.967 19.237,-7.735C19.832,-11.503 23.005,-19.039 23.005,-19.039C23.005,-19.039 7.933,-9.718 0,-13.288Z" style="fill:white;fill-rule:nonzero;stroke:rgb(26,46,53);stroke-width:1px;"/>
        </g>
        <g transform="matrix(1,0,0,1,225.511,229.57)">
            <path d="M0,-33.068C0,-33.068 1.081,-32.203 -1.297,-26.8C-3.674,-21.397 -5.62,-18.371 -3.674,-13.616C-1.729,-8.861 6.7,4.54 8.862,5.62C11.023,6.701 17.939,8.646 21.397,6.269C24.856,3.891 36.311,-2.809 36.311,-2.809C36.311,-2.809 42.579,-2.16 45.605,-3.457C48.631,-4.754 52.305,-11.238 49.711,-14.048C47.118,-16.858 40.634,-13.4 39.553,-12.751C38.472,-12.103 41.498,-15.993 40.417,-21.829C39.337,-27.665 34.798,-35.446 34.798,-35.446C34.798,-35.446 31.124,-41.714 19.885,-41.714C8.645,-41.714 1.297,-39.336 0,-33.068Z" style="fill:white;fill-rule:nonzero;stroke:rgb(26,46,53);stroke-width:1px;"/>
        </g>
        <g transform="matrix(1,0,0,1,184.013,174.888)">
            <path d="M0,12.32L34.798,23.127C34.798,23.127 40.634,26.585 44.092,26.369C47.55,26.153 73.054,18.804 73.054,18.804C73.054,18.804 82.132,25.072 83.645,25.288C85.158,25.504 84.725,22.911 83.429,21.83L82.132,20.749C82.132,20.749 74.135,10.375 71.541,7.133C68.947,3.891 66.786,3.459 64.409,4.107C62.031,4.755 39.985,14.698 39.121,15.13C38.256,15.562 -6.484,-11.023 -11.671,-12.103C-16.859,-13.184 -23.343,-14.265 -25.504,-10.374C-27.665,-6.484 0,12.32 0,12.32Z" style="fill:white;fill-rule:nonzero;stroke:rgb(26,46,53);stroke-width:1px;"/>
        </g>
        <g transform="matrix(1,0,0,1,252.96,194.341)">
            <path d="M0,-4.323C0,-4.323 3.026,-5.62 4.539,-4.971C6.052,-4.323 14.913,-1.729 16.426,-1.513C17.939,-1.297 18.804,0.864 16.859,1.08C14.913,1.297 7.349,-0.216 7.349,-0.216L4.107,-0.649" style="fill:white;fill-rule:nonzero;stroke:rgb(26,46,53);stroke-width:1px;"/>
        </g>
        <g transform="matrix(1,0,0,1,236.534,195.637)">
            <path d="M0,6.7C0,6.7 0.432,0 2.81,0C5.187,0 9.726,4.539 9.726,4.539" style="fill:white;fill-rule:nonzero;stroke:rgb(26,46,53);stroke-width:1px;"/>
        </g>
        <g transform="matrix(1,0,0,1,189.161,160.623)">
            <path d="M0,28.184L-0.865,10.169C-8.594,5.911 -15.038,2.533 -16.82,2.162C-22.007,1.081 -28.491,0 -30.652,3.891C-32.814,7.781 -5.148,26.585 -5.148,26.585L0,28.184Z" style="fill:rgb(90,228,168);fill-rule:nonzero;stroke:rgb(26,46,53);stroke-width:1px;"/>
        </g>
        <g transform="matrix(1,0,0,1,158.509,366.602)">
            <path d="M0,-202.088C-1.945,-202.304 2.81,-183.068 9.942,-168.371C17.075,-153.673 33.501,-114.12 33.501,-114.12L34.149,-104.178C34.149,-104.178 32.637,-81.7 32.637,-80.835C32.637,-79.971 13.4,-56.196 13.4,-56.196C13.4,-56.196 66.57,0.216 69.164,-0.217C71.757,-0.649 85.158,-2.81 87.319,-12.753C89.48,-22.695 86.671,-48.415 91.642,-53.386C96.613,-58.357 120.172,-98.126 119.523,-107.853C118.875,-117.579 108.716,-116.93 103.529,-116.93C98.342,-116.93 60.95,-122.334 60.95,-122.334C60.95,-122.334 58.573,-124.279 55.115,-128.385C51.657,-132.492 44.956,-135.95 44.956,-135.95L22.262,-190.417C22.262,-190.417 18.804,-197.765 13.4,-200.143" style="fill:rgb(90,228,168);fill-rule:nonzero;stroke:rgb(26,46,53);stroke-width:1px;"/>
        </g>
        <g transform="matrix(0.846497,0.532394,0.532394,-0.846497,226.317,297.606)">
            <path d="M-0.481,-1.667C1.713,-1.558 3.832,-1.546 5.782,-1.667" style="fill:none;fill-rule:nonzero;stroke:rgb(26,46,53);stroke-width:1px;"/>
        </g>
        <g transform="matrix(0.92546,0.378846,0.378846,-0.92546,201.944,284.059)">
            <path d="M-0.871,-4.426C-0.871,-4.426 11.132,-3.563 22.495,-4.426" style="fill:none;fill-rule:nonzero;stroke:rgb(26,46,53);stroke-width:1px;"/>
        </g>
        <g transform="matrix(0.891493,0.453035,0.453035,-0.891493,218.819,286.452)">
            <path d="M-1.232,-5.143C-1.232,-5.143 12.707,-3.272 21.475,-5.143" style="fill:none;fill-rule:nonzero;stroke:rgb(26,46,53);stroke-width:1px;"/>
        </g>
        <g transform="matrix(-0.258269,0.966073,0.966073,0.258269,206.664,250.662)">
            <path d="M-14.216,-10.915L8.38,-10.915" style="fill:none;fill-rule:nonzero;stroke:rgb(26,46,53);stroke-width:1px;"/>
        </g>
        <g transform="matrix(-0.015278,0.999883,0.999883,0.015278,206.411,238.992)">
            <path d="M-10.732,-10.57L10.409,-10.57" style="fill:none;fill-rule:nonzero;stroke:rgb(26,46,53);stroke-width:1px;"/>
        </g>
        <g transform="matrix(-0.0152521,0.999884,0.999884,0.0152521,198.666,223.594)">
            <path d="M-2.629,-2.59L2.55,-2.59" style="fill:none;fill-rule:nonzero;stroke:rgb(26,46,53);stroke-width:1px;"/>
        </g>
        <g transform="matrix(1,0,0,1,255.77,336.126)">
            <path d="M0,-84.293C0,-84.293 22.262,-91.858 25.288,-86.238C28.314,-80.619 29.827,-60.518 27.233,-44.308C24.64,-28.098 18.588,6.7 16.643,7.133C14.697,7.565 -33.717,-10.374 -40.417,-13.184C-47.118,-15.994 -83.429,-32.204 -84.941,-32.636C-86.454,-33.069 -79.322,-33.717 -73.919,-33.501C-68.515,-33.285 -52.089,-28.53 -47.334,-25.936C-42.579,-23.343 0.648,-19.884 0.648,-19.884C0.648,-19.884 4.971,-54.466 4.755,-68.515" style="fill:rgb(90,228,168);fill-rule:nonzero;stroke:rgb(26,46,53);stroke-width:1px;"/>
        </g>
        <g transform="matrix(1,0,0,1,238.295,317.868)">
            <path d="M0,-3.265C-12.45,-4.501 -27.194,-6.225 -29.859,-7.679C-34.614,-10.272 -51.04,-15.027 -56.444,-15.244C-61.847,-15.46 -68.98,-14.811 -67.467,-14.379C-65.954,-13.947 -29.643,2.263 -22.943,5.073C-20.586,6.061 -13.069,8.921 -4.23,12.195L0,-3.265Z" style="fill:white;fill-rule:nonzero;stroke:rgb(26,46,53);stroke-width:1px;"/>
        </g>
        <g transform="matrix(0.998541,0.0540039,0.0540039,-0.998541,256.454,315.81)">
            <path d="M-0.012,-0.433L16.006,-0.433" style="fill:none;fill-rule:nonzero;stroke:rgb(26,46,53);stroke-width:1px;"/>
        </g>
        <g transform="matrix(0.999057,-0.0434111,-0.0434111,-0.999057,260.33,314.835)">
            <path d="M-0.007,0.324L14.92,0.324" style="fill:none;fill-rule:nonzero;stroke:rgb(26,46,53);stroke-width:1px;"/>
        </g>
        <g transform="matrix(-0.11045,0.993882,0.993882,0.11045,238.109,208.309)">
            <path d="M9.968,-2.869C9.968,-2.869 1.352,-1.653 0.563,1.522C-0.224,4.696 7.939,9.518 9.968,8.873C11.996,8.23 5.05,4.196 6.364,2.166C7.677,0.138 12.093,-0.459 9.968,-2.869Z" style="fill:rgb(26,46,53);fill-rule:nonzero;stroke:rgb(26,46,53);stroke-width:1px;"/>
        </g>
        <g transform="matrix(1,0,0,1,130.267,347.512)">
            <path d="M0,-1.078C0,-1.078 15.998,13.614 29.057,16.878C42.116,20.143 62.182,20.242 64.882,18.397C67.582,16.552 42.769,7.084 24.486,-2.71C6.203,-12.505 -7.835,-21.32 -7.835,-13.484C-7.835,-5.649 0,-1.078 0,-1.078Z" style="fill:rgb(26,46,53);fill-rule:nonzero;stroke:rgb(26,46,53);stroke-width:1px;"/>
        </g>
        <g transform="matrix(1,0,0,1,227.672,289.076)">
            <path d="M0,77.309C0,77.309 3.965,78.234 7.473,68.879C8.154,67.061 12.7,58.88 -14.798,39.109C-42.295,19.339 -42.977,18.429 -63.657,11.158C-84.337,3.886 -126.833,-2.478 -133.65,-0.887C-140.468,0.704 -145.013,5.022 -140.922,12.976C-136.832,20.929 -96.608,47.518 -84.109,56.608C-71.611,65.698 -54.794,73.879 -32.523,76.833C-10.253,79.787 0,77.309 0,77.309Z" style="fill:rgb(26,46,53);fill-rule:nonzero;stroke:rgb(26,46,53);stroke-width:1px;"/>
        </g>
        <g transform="matrix(1,0,0,1,94.0223,335.164)">
            <path d="M0,-46.975C-6.818,-45.384 -11.363,-41.066 -7.272,-33.113C-4.193,-27.125 19.362,-10.578 36.153,1.115C38.497,-1.4 41.344,-4.99 43.859,-9.706C47.98,-17.432 47.561,-33.585 47.109,-41.023C27.075,-45.296 4.778,-48.09 0,-46.975" style="fill:white;fill-rule:nonzero;"/>
        </g>
        <g transform="matrix(1,0,0,1,94.0223,335.164)">
            <path d="M0,-46.975C-6.818,-45.384 -11.363,-41.066 -7.272,-33.113C-4.193,-27.125 19.362,-10.578 36.153,1.115C38.497,-1.4 41.344,-4.99 43.859,-9.706C47.98,-17.432 47.561,-33.585 47.109,-41.023C27.075,-45.296 4.778,-48.09 0,-46.975Z" style="fill:none;fill-rule:nonzero;stroke:rgb(26,46,53);stroke-width:1px;"/>
        </g>
        <g transform="matrix(0.20077,0.979638,0.979638,-0.20077,285.301,426.259)">
            <path d="M-4.249,-25.22L26.812,-25.22L29.618,-11.528L2.826,0.548L-4.249,-25.22Z" style="fill:rgb(26,46,53);fill-rule:nonzero;stroke:rgb(26,46,53);stroke-width:1px;"/>
        </g>
        <g transform="matrix(0.187002,0.98236,0.98236,-0.187002,336.354,425.048)">
            <path d="M-5.252,-26.413L28.096,-26.413L30.709,-12.683L1.592,-0.573L-5.252,-26.413Z" style="fill:rgb(26,46,53);fill-rule:nonzero;stroke:rgb(26,46,53);stroke-width:1px;"/>
        </g>
        <g transform="matrix(0.20077,0.979638,0.979638,-0.20077,130.241,426.259)">
            <path d="M-4.249,-25.22L26.812,-25.22L29.618,-11.528L2.826,0.548L-4.249,-25.22Z" style="fill:rgb(26,46,53);fill-rule:nonzero;stroke:rgb(26,46,53);stroke-width:1px;"/>
        </g>
        <g transform="matrix(0.187002,0.98236,0.98236,-0.187002,186.268,425.048)">
            <path d="M-5.252,-26.413L28.096,-26.413L30.709,-12.683L1.592,-0.573L-5.252,-26.413Z" style="fill:rgb(26,46,53);fill-rule:nonzero;stroke:rgb(26,46,53);stroke-width:1px;"/>
        </g>
        <g transform="matrix(1,0,0,1,264.316,433.494)">
            <path d="M0,-68.613L-188.986,-68.613C-188.986,-68.613 -154.503,-1.408 -148.874,-0.704C-143.244,0 3.519,-0.704 3.519,-0.704C3.519,-0.704 7.389,-2.112 8.797,-16.89C10.204,-31.668 10.556,-62.983 8.445,-65.798C6.334,-68.613 0,-68.613 0,-68.613Z" style="fill:rgb(193,193,193);fill-rule:nonzero;stroke:rgb(26,46,53);stroke-width:1px;"/>
        </g>
        <g transform="matrix(1,0,0,1,60.4822,428.535)">
            <path d="M0,-106.393C0,-106.393 9.824,-114.808 22.632,-106.943C35.44,-99.079 55.119,-8.679 55.371,-3.668C55.622,1.343 53.074,2.814 49.055,4.293C45.036,5.771 36.545,8.415 25.989,-2.013C15.433,-12.44 -0.851,-57.952 -4.893,-80.739C-8.394,-100.476 0,-106.393 0,-106.393Z" style="fill:rgb(193,193,193);fill-rule:nonzero;stroke:rgb(26,46,53);stroke-width:1px;"/>
        </g>
        <g transform="matrix(1,0,0,1,280.093,430.578)">
            <path d="M0,-110.816C0,-110.816 39.113,-113.302 62.987,-109.721C86.861,-106.14 88.95,-89.13 86.861,-76.895C84.772,-64.659 69.851,-10.048 61.495,-4.079C53.139,1.889 -10.425,2.486 -10.425,2.486L0,-110.816Z" style="fill:rgb(139,139,139);fill-rule:nonzero;stroke:rgb(26,46,53);stroke-width:1px;"/>
        </g>
        <g transform="matrix(1,0,0,1,286.082,428.269)">
            <path d="M0,-107.114C0,-107.114 -11.562,-112.297 -21.766,-102.093C-31.97,-91.889 -27.396,-5.684 -26.34,-1.11C-25.285,3.464 -22.47,4.168 -18.248,4.52C-14.025,4.872 -5.229,5.183 2.16,-6.78C9.549,-18.743 13.34,-63.698 11.309,-85.204C9.55,-103.831 0,-107.114 0,-107.114Z" style="fill:rgb(193,193,193);fill-rule:nonzero;stroke:rgb(26,46,53);stroke-width:1px;"/>
        </g>
        <g transform="matrix(1,0,0,1,83.1143,455.673)">
            <path d="M0,-152.713C0,-152.713 -22.952,-155.44 -26.816,-146.804C-30.679,-138.169 -30.452,-123.625 -25.225,-119.989C-19.998,-116.353 43.405,-66.13 53.177,-58.177C62.949,-50.223 90.9,-22.498 98.4,-15.453C105.899,-8.409 106.808,-2.273 106.808,0.227C106.808,2.727 111.807,1.818 112.944,0.454C114.08,-0.909 116.807,-11.59 114.989,-20.68C113.171,-29.77 110.898,-37.27 110.444,-40.451C109.989,-43.633 111.126,-50.223 107.717,-53.859C104.308,-57.495 99.99,-57.495 96.127,-56.131C92.264,-54.768 83.401,-53.404 83.401,-53.404C83.401,-53.404 68.63,-68.857 60.221,-80.447C51.813,-92.037 15.908,-140.214 11.363,-145.214C6.818,-150.213 0,-152.713 0,-152.713Z" style="fill:white;fill-rule:nonzero;stroke:rgb(26,46,53);stroke-width:1px;"/>
        </g>
        <g transform="matrix(1,0,0,1,198.103,421.585)">
            <path d="M0,13.408C-1.818,4.318 -4.09,-3.181 -4.545,-6.363C-4.999,-9.544 -3.863,-16.135 -7.272,-19.771C-10.681,-23.407 -14.999,-23.407 -18.862,-22.043C-20.243,-21.556 -22.263,-21.069 -24.289,-20.644C-23.023,-19.32 -17.099,-12.863 -13.862,-4.772C-10.226,4.318 -3.636,12.726 -5.454,18.18C-6.386,20.976 -8.451,24.245 -10.244,26.772C-8.501,30.16 -8.181,32.858 -8.181,34.315C-8.181,36.815 -3.182,35.906 -2.045,34.542C-0.909,33.179 1.818,22.498 0,13.408" style="fill:rgb(90,228,168);fill-rule:nonzero;"/>
        </g>
        <g transform="matrix(1,0,0,1,198.103,421.585)">
            <path d="M0,13.408C-1.818,4.318 -4.09,-3.181 -4.545,-6.363C-4.999,-9.544 -3.863,-16.135 -7.272,-19.771C-10.681,-23.407 -14.999,-23.407 -18.862,-22.043C-20.243,-21.556 -22.263,-21.069 -24.289,-20.644C-23.023,-19.32 -17.099,-12.863 -13.862,-4.772C-10.226,4.318 -3.636,12.726 -5.454,18.18C-6.386,20.976 -8.451,24.245 -10.244,26.772C-8.501,30.16 -8.181,32.858 -8.181,34.315C-8.181,36.815 -3.182,35.906 -2.045,34.542C-0.909,33.179 1.818,22.498 0,13.408Z" style="fill:none;fill-rule:nonzero;stroke:rgb(26,46,53);stroke-width:1px;"/>
        </g>
        <g transform="matrix(1,0,0,1,114.475,454.082)">
            <path d="M0,-164.075C0,-164.075 -20.453,-168.393 -27.952,-166.802C-35.451,-165.211 -38.633,-154.758 -36.133,-148.622C-33.633,-142.486 13.862,-64.994 17.953,-58.631C22.043,-52.268 35.224,-25.679 39.542,-19.771C43.859,-13.862 44.996,-6.363 44.996,-4.772C44.996,-3.181 40.451,1.136 41.814,2.727C43.178,4.318 51.131,2.5 52.722,1.136C54.313,-0.227 60.903,-7.045 61.812,-11.59C62.721,-16.135 62.267,-29.997 62.949,-36.133C63.63,-42.269 65.448,-46.359 63.857,-49.541C62.267,-52.722 57.04,-55.449 53.404,-55.449C49.768,-55.449 44.768,-55.676 44.087,-56.131C43.405,-56.585 31.815,-72.038 31.815,-72.038C31.815,-72.038 25.907,-95.673 23.407,-108.399C20.907,-121.125 7.727,-144.986 0.454,-150.894" style="fill:white;fill-rule:nonzero;stroke:rgb(26,46,53);stroke-width:1px;"/>
        </g>
        <g transform="matrix(1,0,0,1,159.471,407.476)">
            <path d="M0,41.834C0,43.425 -4.545,47.743 -3.182,49.333C-1.818,50.924 6.136,49.106 7.727,47.743C9.317,46.379 15.908,39.561 16.817,35.016C17.725,30.471 17.271,16.609 17.953,10.473C18.635,4.338 20.452,0.247 18.862,-2.934C17.271,-6.116 12.044,-8.843 8.408,-8.843C6.22,-8.843 3.544,-8.926 1.607,-9.09C2.473,-7.277 3.579,-4.965 4.772,-2.48C7.499,3.201 9.999,26.835 8.635,34.108C7.272,41.38 0,41.834 0,41.834Z" style="fill:rgb(90,228,168);fill-rule:nonzero;stroke:rgb(26,46,53);stroke-width:1px;"/>
        </g>
    </g>
    <g id="Plant" transform="matrix(4.16667,0,0,4.16667,0,0)">
        <g transform="matrix(1,0,0,1,405.521,411.2)">
            <path d="M0,-207.475C0,-207.475 0,-179.573 0.597,-176.589C1.194,-173.605 2.952,-172.378 2.952,-172.378L5.222,-0.15L10.146,0.149L7.162,-125.261L6.039,-172.378C6.039,-172.378 8.057,-172.262 8.207,-177.186C8.356,-182.11 11.042,-201.954 11.042,-201.954L9.102,-202.551C9.102,-202.551 6.118,-177.932 5.521,-177.186C4.924,-176.44 3.283,-178.678 2.984,-181.065C2.686,-183.453 2.984,-207.624 2.984,-207.624L0,-207.475Z" style="fill:rgb(167,167,167);fill-rule:nonzero;stroke:rgb(26,46,53);stroke-width:1px;stroke-linecap:round;stroke-linejoin:round;"/>
        </g>
        <g transform="matrix(1,0,0,1,411.56,204.483)">
            <path d="M0,34.339C0.211,34.258 0.454,34.165 0.708,34.069C1.306,33.637 2.078,32.507 2.168,29.531C2.317,24.607 5.003,4.762 5.003,4.762L3.063,4.165C3.063,4.165 0.079,28.785 -0.518,29.531C-1.115,30.277 -2.756,28.039 -3.054,25.651C-3.353,23.264 -3.054,-0.908 -3.054,-0.908L-6.039,-0.758C-6.039,-0.758 -6.039,27.144 -5.442,30.128C-4.845,33.112 -3.087,34.339 -3.087,34.339C-3.087,34.339 -2.361,35.247 0,34.339" style="fill:rgb(26,46,53);fill-rule:nonzero;"/>
        </g>
        <g transform="matrix(1,0,0,1,411.56,204.483)">
            <path d="M0,34.339C0.211,34.258 0.454,34.165 0.708,34.069C1.306,33.637 2.078,32.507 2.168,29.531C2.317,24.607 5.003,4.762 5.003,4.762L3.063,4.165C3.063,4.165 0.079,28.785 -0.518,29.531C-1.115,30.277 -2.756,28.039 -3.054,25.651C-3.353,23.264 -3.054,-0.908 -3.054,-0.908L-6.039,-0.758C-6.039,-0.758 -6.039,27.144 -5.442,30.128C-4.845,33.112 -3.087,34.339 -3.087,34.339C-3.087,34.339 -2.361,35.247 0,34.339Z" style="fill:none;fill-rule:nonzero;stroke:rgb(26,46,53);stroke-width:1px;stroke-linecap:round;stroke-linejoin:round;"/>
        </g>
        <g transform="matrix(1,0,0,1,410.607,199.522)">
            <path d="M0,3.73C0,3.73 5.67,-4.178 14.772,-7.908C23.873,-11.638 40.286,-14.026 40.883,-14.026C41.48,-14.026 25.515,-8.953 20.591,-6.715C15.667,-4.476 9.251,-1.045 7.311,1.044C5.371,3.133 -3.73,17.756 -3.73,17.756C-3.73,17.756 -3.432,11.787 0,3.73Z" style="fill:rgb(26,46,53);fill-rule:nonzero;stroke:rgb(26,46,53);stroke-width:1px;stroke-linecap:round;stroke-linejoin:round;"/>
        </g>
        <g transform="matrix(1,0,0,1,395.055,173.773)">
            <path d="M0,3.73C0,3.73 -5.67,-4.178 -14.772,-7.908C-23.873,-11.638 -40.286,-14.026 -40.883,-14.026C-41.48,-14.026 -25.515,-8.953 -20.591,-6.715C-15.667,-4.477 -9.251,-1.045 -7.311,1.044C-5.371,3.133 3.73,17.756 3.73,17.756C3.73,17.756 3.432,11.787 0,3.73Z" style="fill:rgb(90,228,168);fill-rule:nonzero;stroke:rgb(26,46,53);stroke-width:1px;stroke-linecap:round;stroke-linejoin:round;"/>
        </g>
        <g transform="matrix(1,0,0,1,407.588,171.087)">
            <path d="M0,28.648C0,28.648 -15.518,5.67 -19.845,3.73C-24.172,1.791 -27.604,0 -33.423,1.492C-39.242,2.984 -51.328,9.549 -53.566,10.743C-55.804,11.937 -58.788,14.026 -59.982,14.622C-61.175,15.219 -44.613,5.372 -35.362,4.178C-26.112,2.984 -24.47,7.46 -14.473,15.219C-4.476,22.978 0,28.648 0,28.648Z" style="fill:rgb(90,228,168);fill-rule:nonzero;stroke:rgb(26,46,53);stroke-width:1px;stroke-linecap:round;stroke-linejoin:round;"/>
        </g>
        <g transform="matrix(1,0,0,1,407.588,186.008)">
            <path d="M0,13.727C0,13.727 -10.295,-2.686 -17.308,-4.476C-24.321,-6.267 -32.677,-2.388 -35.512,-0.746C-38.347,0.895 -42.524,10.146 -43.42,13.727C-44.315,17.308 -44.912,19.994 -44.912,19.994C-44.912,19.994 -35.959,5.371 -32.378,3.133C-28.797,0.895 -23.277,-2.537 -21.635,-2.835C-19.994,-3.134 -3.581,6.863 0,13.727Z" style="fill:rgb(90,228,168);fill-rule:nonzero;stroke:rgb(26,46,53);stroke-width:1px;stroke-linecap:round;stroke-linejoin:round;"/>
        </g>
        <g transform="matrix(1,0,0,1,403.411,207.569)">
            <path d="M0,-16.339C0,-16.339 -19.994,-29.768 -30.438,-29.619C-40.883,-29.469 -53.864,-25.59 -57.296,-24.993C-60.728,-24.396 -64.16,13.429 -64.16,13.429C-64.16,13.429 -49.388,-20.815 -44.464,-20.666C-39.54,-20.517 -23.426,-25.142 -18.054,-23.352C-12.683,-21.561 0,-16.339 0,-16.339Z" style="fill:rgb(90,228,168);fill-rule:nonzero;stroke:rgb(26,46,53);stroke-width:1px;stroke-linecap:round;stroke-linejoin:round;"/>
        </g>
        <g transform="matrix(1,0,0,1,407.29,187.5)">
            <path d="M0,17.457C0,17.457 -6.416,5.371 -11.787,2.685C-17.159,0 -22.53,4.774 -31.035,8.057C-39.54,11.34 -45.956,13.578 -45.956,13.578C-45.956,13.578 -31.931,14.324 -26.559,12.384C-21.188,10.444 -12.683,6.714 -10.743,7.012C-8.803,7.311 0,17.457 0,17.457Z" style="fill:rgb(90,228,168);fill-rule:nonzero;stroke:rgb(26,46,53);stroke-width:1px;stroke-linecap:round;stroke-linejoin:round;"/>
        </g>
        <g transform="matrix(1,0,0,1,411.937,146.876)">
            <path d="M0,62.071C0,62.071 -5.67,31.483 -5.67,20.293C-5.67,9.102 -5.521,4.328 -5.521,4.328C-5.521,4.328 -1.79,18.95 -1.343,20.74C-0.895,22.531 -0.895,25.515 -0.895,25.515C-0.895,25.515 1.791,9.699 5.222,5.82C8.654,1.94 12.981,0 12.981,0C12.981,0 9.102,7.312 8.356,9.4C7.61,11.49 11.489,6.566 15.667,5.372C19.845,4.178 30.14,1.94 30.14,1.94C30.14,1.94 16.413,7.461 14.772,9.251C13.13,11.042 9.102,17.607 8.803,18.353C8.505,19.099 3.581,27.604 2.238,32.528C0.895,37.452 0,62.071 0,62.071Z" style="fill:rgb(26,46,53);fill-rule:nonzero;stroke:rgb(26,46,53);stroke-width:1px;stroke-linecap:round;stroke-linejoin:round;"/>
        </g>
        <g transform="matrix(1,0,0,1,415.369,193.579)">
            <path d="M0,-21.784L11.638,-29.543C11.638,-29.543 25.962,-31.781 28.35,-31.035C30.737,-30.289 34.02,-28.051 34.02,-28.051C34.02,-28.051 24.769,-28.946 20.74,-27.006C16.711,-25.067 7.908,-21.635 2.686,-14.622C-2.536,-7.609 -4.476,0.15 -5.073,2.686C-5.67,5.223 -6.864,9.997 -6.864,9.997C-6.864,9.997 -9.549,-2.984 -8.505,-8.206C-7.46,-13.428 0,-21.784 0,-21.784Z" style="fill:rgb(90,228,168);fill-rule:nonzero;stroke:rgb(26,46,53);stroke-width:1px;stroke-linecap:round;stroke-linejoin:round;"/>
        </g>
        <g transform="matrix(1,0,0,1,400.747,179.852)">
            <path d="M0,-16.413C0,-16.413 6.864,-7.162 7.908,-4.178C8.952,-1.194 10.594,-11.638 17.905,-18.054C25.216,-24.47 48.791,-28.35 48.791,-28.35C48.791,-28.35 20.143,-14.473 15.816,-8.953C11.489,-3.432 7.311,5.968 7.311,6.416L7.311,11.937L0,-16.413Z" style="fill:rgb(90,228,168);fill-rule:nonzero;stroke:rgb(26,46,53);stroke-width:1px;stroke-linecap:round;stroke-linejoin:round;"/>
        </g>
        <g transform="matrix(1,0,0,1,405.683,151.217)">
            <path d="M0,31.632C0,31.632 -9.549,15.219 -14.473,9.549C-19.397,3.879 -35.661,-8.803 -35.661,-8.803C-35.661,-8.803 -28.947,-0.448 -20.292,11.34C-11.638,23.127 2.089,40.435 2.089,40.435L0,31.632Z" style="fill:rgb(26,46,53);fill-rule:nonzero;stroke:rgb(26,46,53);stroke-width:1px;stroke-linecap:round;stroke-linejoin:round;"/>
        </g>
        <g transform="matrix(1,0,0,1,404.328,217.154)">
            <path d="M0,-2.238C0,-2.238 -15.518,-14.921 -23.724,-11.787C-31.931,-8.654 -41.331,1.343 -41.331,1.343L-43.42,12.683C-43.42,12.683 -32.378,-3.283 -27.603,-5.521C-22.829,-7.759 -16.115,-8.654 -12.832,-7.908C-9.549,-7.162 0.149,1.045 0.597,2.089C1.045,3.133 0,-2.238 0,-2.238Z" style="fill:rgb(90,228,168);fill-rule:nonzero;stroke:rgb(26,46,53);stroke-width:1px;stroke-linecap:round;stroke-linejoin:round;"/>
        </g>
        <g transform="matrix(1,0,0,1,400.299,176.42)">
            <path d="M0,0.895C0,0.895 -2.984,-1.791 -4.924,-12.534C-6.863,-23.277 -4.625,-32.975 -4.625,-32.975C-4.625,-32.975 -3.581,-26.559 -1.194,-19.099C1.194,-11.638 1.194,-8.953 4.775,2.089C8.356,13.13 8.803,32.975 8.654,33.422C8.505,33.87 0,0.895 0,0.895Z" style="fill:rgb(90,228,168);fill-rule:nonzero;stroke:rgb(26,46,53);stroke-width:1px;stroke-linecap:round;stroke-linejoin:round;"/>
        </g>
        <g transform="matrix(1,0,0,1,424.769,194.474)">
            <path d="M0,-14.025C0,-14.025 4.625,-19.993 10.594,-21.784C16.562,-23.574 22.68,-23.425 22.68,-23.425C22.68,-23.425 13.727,-25.962 7.759,-24.768C1.79,-23.574 -2.835,-16.561 -4.924,-9.996C-7.013,-3.431 -7.013,11.937 -7.013,11.937C-7.013,11.937 -3.73,-8.206 0,-14.025Z" style="fill:rgb(26,46,53);fill-rule:nonzero;stroke:rgb(26,46,53);stroke-width:1px;stroke-linecap:round;stroke-linejoin:round;"/>
        </g>
        <g transform="matrix(1,0,0,1,402.326,161.102)">
            <path d="M0,25.13C0,25.13 0.322,18.847 -4.672,11.598C-9.665,4.349 -19.814,0.322 -26.902,-2.739C-33.99,-5.8 -38.179,-7.088 -38.179,-7.088C-38.179,-7.088 -22.231,5.477 -18.042,7.249C-13.854,9.021 -10.793,11.437 -7.893,14.82C-4.994,18.203 0.161,30.607 0.161,31.413C0.161,32.218 0,25.13 0,25.13Z" style="fill:rgb(90,228,168);fill-rule:nonzero;stroke:rgb(26,46,53);stroke-width:1px;stroke-linecap:round;stroke-linejoin:round;"/>
        </g>
        <g transform="matrix(1,0,0,1,420.293,191.489)">
            <path d="M0,3.731C0,3.731 5.67,-4.177 14.772,-7.907C23.873,-11.637 40.286,-14.025 40.883,-14.025C41.48,-14.025 25.515,-8.952 20.591,-6.714C15.667,-4.476 9.251,-1.044 7.311,1.045C5.371,3.134 -3.73,17.756 -3.73,17.756C-3.73,17.756 -3.432,11.788 0,3.731Z" style="fill:rgb(90,228,168);fill-rule:nonzero;stroke:rgb(26,46,53);stroke-width:1px;stroke-linecap:round;stroke-linejoin:round;"/>
        </g>
        <g transform="matrix(1,0,0,1,407.76,188.804)">
            <path d="M0,28.648C0,28.648 15.518,5.67 19.845,3.73C24.172,1.79 27.603,0 33.423,1.492C39.242,2.984 51.327,9.549 53.566,10.743C55.804,11.937 58.788,14.026 59.982,14.622C61.175,15.219 44.613,5.371 35.362,4.178C26.111,2.984 24.47,7.46 14.473,15.219C4.476,22.978 0,28.648 0,28.648Z" style="fill:rgb(90,228,168);fill-rule:nonzero;stroke:rgb(26,46,53);stroke-width:1px;stroke-linecap:round;stroke-linejoin:round;"/>
        </g>
        <g transform="matrix(1,0,0,1,407.76,203.725)">
            <path d="M0,13.727C0,13.727 10.295,-2.686 17.308,-4.476C24.321,-6.267 32.676,-2.388 35.511,-0.746C38.346,0.895 42.524,10.146 43.419,13.727C44.315,17.308 44.911,19.994 44.911,19.994C44.911,19.994 35.959,5.371 32.378,3.133C28.797,0.895 23.276,-2.537 21.635,-2.835C19.994,-3.134 3.581,6.863 0,13.727Z" style="fill:rgb(26,46,53);fill-rule:nonzero;stroke:rgb(26,46,53);stroke-width:1px;stroke-linecap:round;stroke-linejoin:round;"/>
        </g>
        <g transform="matrix(1,0,0,1,411.937,195.518)">
            <path d="M0,13.429C0,13.429 19.994,0 30.438,0.149C40.883,0.299 53.864,4.178 57.296,4.775C60.728,5.372 64.16,4.477 64.16,4.477C64.16,4.477 49.388,8.953 44.464,9.102C39.54,9.251 23.426,4.626 18.054,6.416C12.683,8.207 0,13.429 0,13.429Z" style="fill:rgb(90,228,168);fill-rule:nonzero;stroke:rgb(26,46,53);stroke-width:1px;stroke-linecap:round;stroke-linejoin:round;"/>
        </g>
        <g transform="matrix(0.974253,0.225459,0.225459,-0.974253,413.323,201.774)">
            <path d="M4.155,-0.275C4.155,-0.275 -1.544,9.127 0.23,17.348C2.003,25.569 4.155,36.787 4.155,36.787C4.155,36.787 8.748,24.22 8.004,14.858C7.26,5.498 4.155,-0.275 4.155,-0.275Z" style="fill:rgb(90,228,168);fill-rule:nonzero;stroke:rgb(26,46,53);stroke-width:1px;stroke-linecap:round;stroke-linejoin:round;"/>
        </g>
        <g transform="matrix(1,0,0,1,408.655,183.433)">
            <path d="M0,27.156C0,27.156 0,14.175 -8.952,8.057C-17.905,1.94 -27.902,0 -31.483,1.94C-35.064,3.88 -45.807,9.848 -48.94,13.877C-52.074,17.905 -54.61,21.039 -54.61,21.039C-54.61,21.039 -38.794,10.594 -33.87,7.013C-28.946,3.432 -26.559,2.537 -24.769,2.984C-22.978,3.432 -12.683,8.207 -8.654,11.34C-4.625,14.473 0,27.156 0,27.156Z" style="fill:rgb(90,228,168);fill-rule:nonzero;stroke:rgb(26,46,53);stroke-width:1px;stroke-linecap:round;stroke-linejoin:round;"/>
        </g>
        <g transform="matrix(1,0,0,1,408.953,217.452)">
            <path d="M0,-4.774C-0.149,-5.222 0.298,-8.653 -5.819,-9.101C-11.937,-9.549 -16.562,-6.863 -17.607,-4.625C-18.651,-2.387 -17.607,3.582 -17.457,4.178C-17.308,4.775 -16.562,-3.73 -9.4,-5.371C-2.238,-7.012 0,-4.774 0,-4.774Z" style="fill:rgb(26,46,53);fill-rule:nonzero;stroke:rgb(26,46,53);stroke-width:1px;stroke-linecap:round;stroke-linejoin:round;"/>
        </g>
        <g transform="matrix(1,0,0,1,406.566,215.214)">
            <path d="M0,2.984C0,2.984 -1.94,-1.194 -5.819,-5.67C-9.698,-10.146 -18.054,-14.324 -22.083,-11.788C-26.111,-9.251 -30.737,1.343 -32.229,4.327C-33.721,7.311 -37.153,16.413 -37.451,16.86C-37.75,17.308 -28.648,8.803 -24.768,3.73C-20.889,-1.343 -18.203,-8.356 -15.965,-8.953C-13.727,-9.549 -9.102,-5.073 -9.102,-5.073L1.94,10.892L0,2.984Z" style="fill:rgb(90,228,168);fill-rule:nonzero;stroke:rgb(26,46,53);stroke-width:1px;stroke-linecap:round;stroke-linejoin:round;"/>
        </g>
        <g transform="matrix(1,0,0,1,407.163,198.951)">
            <path d="M0,8.355C0,8.355 -1.94,-0.597 -8.654,-2.985C-15.368,-5.372 -23.426,-6.267 -26.559,-4.477C-29.692,-2.686 -43.42,9.996 -43.42,9.996L-45.21,14.622C-45.21,14.622 -25.067,-0.15 -20.442,-1.642C-15.816,-3.134 -15.816,-3.134 -10.892,-0.15C-5.968,2.834 0,8.355 0,8.355Z" style="fill:rgb(90,228,168);fill-rule:nonzero;stroke:rgb(26,46,53);stroke-width:1px;stroke-linecap:round;stroke-linejoin:round;"/>
        </g>
        <g transform="matrix(1,0,0,1,405.969,209.693)">
            <path d="M0,-2.387C0,-2.387 -19.546,-14.174 -23.724,-15.667C-27.902,-17.159 -37.302,-13.428 -39.988,-9.997C-42.674,-6.565 -52.074,12.086 -52.521,13.429C-52.969,14.772 -46.254,-1.044 -36.108,-5.67C-25.962,-10.295 -19.397,-9.4 -13.429,-8.803C-7.46,-8.206 0,1.791 0,1.791L0,-2.387Z" style="fill:rgb(90,228,168);fill-rule:nonzero;stroke:rgb(26,46,53);stroke-width:1px;stroke-linecap:round;stroke-linejoin:round;"/>
        </g>
        <g transform="matrix(1,0,0,1,408.058,205.218)">
            <path d="M0,17.457C0,17.457 6.416,5.371 11.788,2.685C17.159,0 22.53,4.774 31.035,8.057C39.54,11.34 45.956,13.578 45.956,13.578C45.956,13.578 31.931,14.324 26.559,12.384C21.188,10.444 12.683,6.714 10.743,7.012C8.803,7.311 0,17.457 0,17.457Z" style="fill:rgb(90,228,168);fill-rule:nonzero;stroke:rgb(26,46,53);stroke-width:1px;stroke-linecap:round;stroke-linejoin:round;"/>
        </g>
        <g transform="matrix(1,0,0,1,408.655,130.912)">
            <path d="M0,79.677C0,79.677 3.283,70.277 5.222,58.042C7.162,45.807 3.879,23.873 0.746,17.308C-2.387,10.743 -11.638,0 -11.638,0C-11.638,0 4.775,14.324 8.356,27.753C11.937,41.181 12.534,48.343 11.041,55.655C9.549,62.966 0,79.677 0,79.677Z" style="fill:rgb(90,228,168);fill-rule:nonzero;stroke:rgb(26,46,53);stroke-width:1px;stroke-linecap:round;stroke-linejoin:round;"/>
        </g>
        <g transform="matrix(1,0,0,1,404.742,200.617)">
            <path d="M0,-8.908C0,-8.908 -1.45,-14.385 -3.061,-15.513C-4.672,-16.64 -7.894,-15.352 -7.894,-15.352C-7.894,-15.352 -2.255,-10.358 -2.255,-8.102C-2.255,-5.847 3.472,7.732 3.472,7.732L0,-8.908Z" style="fill:rgb(90,228,168);fill-rule:nonzero;stroke:rgb(26,46,53);stroke-width:1px;stroke-linecap:round;stroke-linejoin:round;"/>
        </g>
        <g transform="matrix(1,0,0,1,401.682,197.287)">
            <path d="M0,-12.183C0,-12.183 -2.416,-10.492 -4.302,-8.786C-6.189,-7.08 -15.17,1.812 -15.709,2.351C-16.247,2.89 -11.038,-8.966 -9.871,-11.211C-8.703,-13.456 -6.638,-15.073 -6.009,-14.983C-5.38,-14.893 0.171,-13.604 0,-12.183Z" style="fill:rgb(90,228,168);fill-rule:nonzero;stroke:rgb(26,46,53);stroke-width:1px;stroke-linecap:round;stroke-linejoin:round;"/>
        </g>
        <g transform="matrix(1,0,0,1,435.752,432.63)">
            <path d="M0,-186.598C0,-186.598 0,-162.148 -0.523,-159.533C-1.046,-156.918 -2.587,-155.842 -2.587,-155.842L-4.576,-0.13L-8.891,0.131L-6.276,-114.555L-5.292,-155.842C-5.292,-155.842 -7.06,-155.741 -7.191,-160.056C-7.322,-164.37 -9.676,-181.76 -9.676,-181.76L-7.976,-182.283C-7.976,-182.283 -5.361,-160.709 -4.838,-160.056C-4.315,-159.402 -2.876,-161.363 -2.615,-163.455C-2.353,-165.547 -2.615,-186.729 -2.615,-186.729L0,-186.598Z" style="fill:rgb(167,167,167);fill-rule:nonzero;stroke:rgb(26,46,53);stroke-width:1px;stroke-linecap:round;stroke-linejoin:round;"/>
        </g>
        <g transform="matrix(1,0,0,1,430.46,246.697)">
            <path d="M0,30.091C-0.185,30.02 -0.398,29.939 -0.621,29.854C-1.144,29.475 -1.821,28.485 -1.9,25.878C-2.03,21.563 -4.384,4.173 -4.384,4.173L-2.684,3.65C-2.684,3.65 -0.069,25.224 0.454,25.878C0.977,26.531 2.415,24.57 2.677,22.478C2.938,20.386 2.677,-0.795 2.677,-0.795L5.292,-0.665C5.292,-0.665 5.292,23.786 4.769,26.401C4.246,29.016 2.705,30.091 2.705,30.091C2.705,30.091 2.069,30.886 0,30.091" style="fill:rgb(26,46,53);fill-rule:nonzero;"/>
        </g>
        <g transform="matrix(1,0,0,1,430.46,246.697)">
            <path d="M0,30.091C-0.185,30.02 -0.398,29.939 -0.621,29.854C-1.144,29.475 -1.821,28.485 -1.9,25.878C-2.03,21.563 -4.384,4.173 -4.384,4.173L-2.684,3.65C-2.684,3.65 -0.069,25.224 0.454,25.878C0.977,26.531 2.415,24.57 2.677,22.478C2.938,20.386 2.677,-0.795 2.677,-0.795L5.292,-0.665C5.292,-0.665 5.292,23.786 4.769,26.401C4.246,29.016 2.705,30.091 2.705,30.091C2.705,30.091 2.069,30.886 0,30.091Z" style="fill:none;fill-rule:nonzero;stroke:rgb(26,46,53);stroke-width:1px;stroke-linecap:round;stroke-linejoin:round;"/>
        </g>
        <g transform="matrix(1,0,0,1,431.295,242.349)">
            <path d="M0,3.268C0,3.268 -4.969,-3.662 -12.944,-6.93C-20.92,-10.199 -35.303,-12.291 -35.826,-12.291C-36.349,-12.291 -22.358,-7.846 -18.044,-5.884C-13.729,-3.923 -8.107,-0.916 -6.407,0.915C-4.707,2.745 3.269,15.559 3.269,15.559C3.269,15.559 3.007,10.329 0,3.268Z" style="fill:rgb(26,46,53);fill-rule:nonzero;stroke:rgb(26,46,53);stroke-width:1px;stroke-linecap:round;stroke-linejoin:round;"/>
        </g>
        <g transform="matrix(1,0,0,1,444.924,219.784)">
            <path d="M0,3.269C0,3.269 4.969,-3.661 12.944,-6.93C20.92,-10.198 35.303,-12.29 35.826,-12.29C36.349,-12.29 22.358,-7.845 18.044,-5.884C13.729,-3.922 8.107,-0.915 6.407,0.915C4.707,2.746 -3.269,15.559 -3.269,15.559C-3.269,15.559 -3.007,10.33 0,3.269Z" style="fill:rgb(90,228,168);fill-rule:nonzero;stroke:rgb(26,46,53);stroke-width:1px;stroke-linecap:round;stroke-linejoin:round;"/>
        </g>
        <g transform="matrix(1,0,0,1,433.941,217.431)">
            <path d="M0,25.104C0,25.104 13.598,4.968 17.39,3.269C21.182,1.569 24.189,0 29.288,1.307C34.387,2.615 44.978,8.368 46.939,9.414C48.901,10.46 51.516,12.29 52.562,12.813C53.608,13.336 39.094,4.707 30.988,3.661C22.881,2.615 21.443,6.537 12.683,13.336C3.923,20.135 0,25.104 0,25.104Z" style="fill:rgb(90,228,168);fill-rule:nonzero;stroke:rgb(26,46,53);stroke-width:1px;stroke-linecap:round;stroke-linejoin:round;"/>
        </g>
        <g transform="matrix(1,0,0,1,433.941,230.505)">
            <path d="M0,12.03C0,12.03 9.022,-2.353 15.167,-3.922C21.312,-5.491 28.634,-2.091 31.119,-0.653C33.603,0.785 37.264,8.892 38.048,12.03C38.833,15.168 39.356,17.521 39.356,17.521C39.356,17.521 31.511,4.708 28.373,2.747C25.235,0.785 20.397,-2.222 18.959,-2.483C17.521,-2.745 3.138,6.015 0,12.03Z" style="fill:rgb(90,228,168);fill-rule:nonzero;stroke:rgb(26,46,53);stroke-width:1px;stroke-linecap:round;stroke-linejoin:round;"/>
        </g>
        <g transform="matrix(1,0,0,1,437.602,223.315)">
            <path d="M0,11.767C0,11.767 17.521,0 26.673,0.13C35.826,0.261 47.201,3.66 50.208,4.184C53.215,4.707 56.223,3.922 56.223,3.922C56.223,3.922 43.278,7.845 38.964,7.975C34.649,8.106 20.528,4.053 15.821,5.622C11.114,7.191 0,11.767 0,11.767Z" style="fill:rgb(90,228,168);fill-rule:nonzero;stroke:rgb(26,46,53);stroke-width:1px;stroke-linecap:round;stroke-linejoin:round;"/>
        </g>
        <g transform="matrix(1,0,0,1,434.202,231.813)">
            <path d="M0,15.298C0,15.298 5.622,4.707 10.329,2.354C15.036,0 19.743,4.184 27.196,7.061C34.649,9.937 40.271,11.898 40.271,11.898C40.271,11.898 27.98,12.552 23.273,10.853C18.566,9.153 11.114,5.884 9.414,6.146C7.714,6.407 0,15.298 0,15.298Z" style="fill:rgb(90,228,168);fill-rule:nonzero;stroke:rgb(26,46,53);stroke-width:1px;stroke-linecap:round;stroke-linejoin:round;"/>
        </g>
        <g transform="matrix(1,0,0,1,430.13,196.216)">
            <path d="M0,54.392C0,54.392 4.969,27.588 4.969,17.782C4.969,7.976 4.838,3.792 4.838,3.792C4.838,3.792 1.569,16.605 1.177,18.174C0.784,19.743 0.784,22.358 0.784,22.358C0.784,22.358 -1.569,8.499 -4.576,5.099C-7.583,1.7 -11.375,0 -11.375,0C-11.375,0 -7.976,6.407 -7.322,8.237C-6.668,10.068 -10.068,5.753 -13.729,4.707C-17.39,3.661 -26.412,1.7 -26.412,1.7C-26.412,1.7 -14.383,6.537 -12.944,8.106C-11.506,9.675 -7.976,15.428 -7.714,16.082C-7.453,16.736 -3.138,24.189 -1.961,28.504C-0.785,32.818 0,54.392 0,54.392Z" style="fill:rgb(26,46,53);fill-rule:nonzero;stroke:rgb(26,46,53);stroke-width:1px;stroke-linecap:round;stroke-linejoin:round;"/>
        </g>
        <g transform="matrix(1,0,0,1,427.123,237.141)">
            <path d="M0,-19.09L-10.199,-25.889C-10.199,-25.889 -22.751,-27.85 -24.843,-27.197C-26.935,-26.543 -29.811,-24.581 -29.811,-24.581C-29.811,-24.581 -21.704,-25.366 -18.174,-23.666C-14.644,-21.967 -6.93,-18.959 -2.354,-12.814C2.223,-6.669 3.922,0.13 4.445,2.353C4.969,4.576 6.014,8.76 6.014,8.76C6.014,8.76 8.368,-2.616 7.453,-7.192C6.538,-11.768 0,-19.09 0,-19.09Z" style="fill:rgb(90,228,168);fill-rule:nonzero;stroke:rgb(26,46,53);stroke-width:1px;stroke-linecap:round;stroke-linejoin:round;"/>
        </g>
        <g transform="matrix(1,0,0,1,439.936,225.111)">
            <path d="M0,-14.382C0,-14.382 -6.015,-6.276 -6.93,-3.661C-7.845,-1.046 -9.283,-10.198 -15.69,-15.82C-22.097,-21.443 -42.755,-24.842 -42.755,-24.842C-42.755,-24.842 -17.651,-12.682 -13.86,-7.844C-10.068,-3.007 -6.407,5.23 -6.407,5.623L-6.407,10.46L0,-14.382Z" style="fill:rgb(90,228,168);fill-rule:nonzero;stroke:rgb(26,46,53);stroke-width:1px;stroke-linecap:round;stroke-linejoin:round;"/>
        </g>
        <g transform="matrix(1,0,0,1,435.61,200.02)">
            <path d="M0,27.719C0,27.719 8.368,13.336 12.683,8.368C16.998,3.399 31.249,-7.714 31.249,-7.714C31.249,-7.714 25.366,-0.392 17.782,9.937C10.199,20.266 -1.83,35.433 -1.83,35.433L0,27.719Z" style="fill:rgb(26,46,53);fill-rule:nonzero;stroke:rgb(26,46,53);stroke-width:1px;stroke-linecap:round;stroke-linejoin:round;"/>
        </g>
        <g transform="matrix(1,0,0,1,436.798,257.799)">
            <path d="M0,-1.961C0,-1.961 13.598,-13.075 20.789,-10.329C27.981,-7.583 36.218,1.177 36.218,1.177L38.048,11.114C38.048,11.114 28.373,-2.876 24.189,-4.838C20.005,-6.799 14.121,-7.583 11.245,-6.93C8.368,-6.276 -0.131,0.915 -0.523,1.831C-0.915,2.746 0,-1.961 0,-1.961Z" style="fill:rgb(90,228,168);fill-rule:nonzero;stroke:rgb(26,46,53);stroke-width:1px;stroke-linecap:round;stroke-linejoin:round;"/>
        </g>
        <g transform="matrix(1,0,0,1,440.328,222.105)">
            <path d="M0,0.784C0,0.784 2.615,-1.57 4.315,-10.984C6.014,-20.398 4.053,-28.896 4.053,-28.896C4.053,-28.896 3.138,-23.274 1.046,-16.737C-1.046,-10.199 -1.046,-7.846 -4.184,1.83C-7.322,11.505 -7.714,28.895 -7.583,29.288C-7.453,29.68 0,0.784 0,0.784Z" style="fill:rgb(90,228,168);fill-rule:nonzero;stroke:rgb(26,46,53);stroke-width:1px;stroke-linecap:round;stroke-linejoin:round;"/>
        </g>
        <g transform="matrix(1,0,0,1,418.885,237.926)">
            <path d="M0,-12.291C0,-12.291 -4.053,-17.521 -9.283,-19.09C-14.513,-20.659 -19.874,-20.528 -19.874,-20.528C-19.874,-20.528 -12.029,-22.751 -6.799,-21.705C-1.569,-20.659 2.484,-14.514 4.315,-8.761C6.145,-3.008 6.145,10.46 6.145,10.46C6.145,10.46 3.269,-7.192 0,-12.291Z" style="fill:rgb(26,46,53);fill-rule:nonzero;stroke:rgb(26,46,53);stroke-width:1px;stroke-linecap:round;stroke-linejoin:round;"/>
        </g>
        <g transform="matrix(1,0,0,1,438.552,208.681)">
            <path d="M0,22.022C0,22.022 -0.282,16.517 4.094,10.164C8.47,3.812 17.363,0.283 23.574,-2.399C29.786,-5.082 33.456,-6.211 33.456,-6.211C33.456,-6.211 19.481,4.8 15.81,6.353C12.14,7.906 9.458,10.023 6.917,12.987C4.376,15.952 -0.141,26.822 -0.141,27.527C-0.141,28.233 0,22.022 0,22.022Z" style="fill:rgb(90,228,168);fill-rule:nonzero;stroke:rgb(26,46,53);stroke-width:1px;stroke-linecap:round;stroke-linejoin:round;"/>
        </g>
        <g transform="matrix(1,0,0,1,422.808,235.31)">
            <path d="M0,3.269C0,3.269 -4.968,-3.661 -12.944,-6.93C-20.92,-10.198 -35.302,-12.29 -35.826,-12.29C-36.348,-12.29 -22.358,-7.845 -18.043,-5.884C-13.729,-3.922 -8.106,-0.915 -6.407,0.915C-4.707,2.746 3.269,15.559 3.269,15.559C3.269,15.559 3.007,10.33 0,3.269Z" style="fill:rgb(90,228,168);fill-rule:nonzero;stroke:rgb(26,46,53);stroke-width:1px;stroke-linecap:round;stroke-linejoin:round;"/>
        </g>
        <g transform="matrix(1,0,0,1,433.791,232.957)">
            <path d="M0,25.104C0,25.104 -13.598,4.969 -17.39,3.269C-21.182,1.569 -24.189,0 -29.288,1.308C-34.387,2.615 -44.978,8.368 -46.939,9.414C-48.901,10.46 -51.516,12.29 -52.562,12.814C-53.608,13.336 -39.094,4.707 -30.988,3.661C-22.881,2.615 -21.443,6.537 -12.683,13.336C-3.923,20.135 0,25.104 0,25.104Z" style="fill:rgb(90,228,168);fill-rule:nonzero;stroke:rgb(26,46,53);stroke-width:1px;stroke-linecap:round;stroke-linejoin:round;"/>
        </g>
        <g transform="matrix(1,0,0,1,433.791,246.033)">
            <path d="M0,12.028C0,12.028 -9.022,-2.354 -15.167,-3.923C-21.312,-5.492 -28.634,-2.093 -31.118,-0.655C-33.603,0.783 -37.264,8.89 -38.048,12.028C-38.833,15.166 -39.356,17.52 -39.356,17.52C-39.356,17.52 -31.511,4.706 -28.373,2.745C-25.235,0.783 -20.397,-2.224 -18.959,-2.485C-17.521,-2.747 -3.138,6.014 0,12.028Z" style="fill:rgb(26,46,53);fill-rule:nonzero;stroke:rgb(26,46,53);stroke-width:1px;stroke-linecap:round;stroke-linejoin:round;"/>
        </g>
        <g transform="matrix(1,0,0,1,430.13,238.841)">
            <path d="M0,11.767C0,11.767 -17.521,0 -26.673,0.13C-35.826,0.261 -47.201,3.66 -50.208,4.184C-53.215,4.707 -56.223,3.922 -56.223,3.922C-56.223,3.922 -43.278,7.844 -38.964,7.975C-34.649,8.106 -20.528,4.053 -15.821,5.622C-11.114,7.191 0,11.767 0,11.767Z" style="fill:rgb(90,228,168);fill-rule:nonzero;stroke:rgb(26,46,53);stroke-width:1px;stroke-linecap:round;stroke-linejoin:round;"/>
        </g>
        <g transform="matrix(0.974255,-0.225451,-0.225451,-0.974255,428.915,244.322)">
            <path d="M-3.641,-0.241C-3.641,-0.241 1.352,7.998 -0.202,15.202C-1.755,22.406 -3.641,32.236 -3.641,32.236C-3.641,32.236 -7.665,21.224 -7.014,13.021C-6.362,4.818 -3.641,-0.241 -3.641,-0.241Z" style="fill:rgb(90,228,168);fill-rule:nonzero;stroke:rgb(26,46,53);stroke-width:1px;stroke-linecap:round;stroke-linejoin:round;"/>
        </g>
        <g transform="matrix(1,0,0,1,433.006,228.249)">
            <path d="M0,23.797C0,23.797 0,12.422 7.845,7.061C15.69,1.7 24.45,0 27.588,1.7C30.726,3.4 40.14,8.63 42.886,12.16C45.632,15.69 47.855,18.436 47.855,18.436C47.855,18.436 33.995,9.284 29.68,6.146C25.366,3.008 23.273,2.223 21.704,2.615C20.136,3.008 11.114,7.192 7.584,9.937C4.053,12.683 0,23.797 0,23.797Z" style="fill:rgb(90,228,168);fill-rule:nonzero;stroke:rgb(26,46,53);stroke-width:1px;stroke-linecap:round;stroke-linejoin:round;"/>
        </g>
        <g transform="matrix(1,0,0,1,432.745,258.061)">
            <path d="M0,-4.184C0.131,-4.576 -0.262,-7.584 5.099,-7.976C10.46,-8.368 14.513,-6.015 15.428,-4.053C16.344,-2.092 15.428,3.138 15.298,3.661C15.167,4.184 14.513,-3.269 8.237,-4.707C1.961,-6.145 0,-4.184 0,-4.184Z" style="fill:rgb(26,46,53);fill-rule:nonzero;stroke:rgb(26,46,53);stroke-width:1px;stroke-linecap:round;stroke-linejoin:round;"/>
        </g>
        <g transform="matrix(1,0,0,1,434.837,256.1)">
            <path d="M0,2.615C0,2.615 1.7,-1.046 5.099,-4.968C8.499,-8.891 15.821,-12.552 19.351,-10.329C22.881,-8.106 26.935,1.177 28.242,3.792C29.55,6.407 32.557,14.383 32.818,14.775C33.08,15.167 25.104,7.714 21.705,3.269C18.305,-1.177 15.952,-7.322 13.99,-7.845C12.029,-8.368 7.976,-4.445 7.976,-4.445L-1.7,9.545L0,2.615Z" style="fill:rgb(90,228,168);fill-rule:nonzero;stroke:rgb(26,46,53);stroke-width:1px;stroke-linecap:round;stroke-linejoin:round;"/>
        </g>
        <g transform="matrix(1,0,0,1,434.314,241.848)">
            <path d="M0,7.322C0,7.322 1.7,-0.523 7.583,-2.615C13.467,-4.707 20.528,-5.492 23.273,-3.922C26.019,-2.354 38.048,8.76 38.048,8.76L39.617,12.814C39.617,12.814 21.966,-0.131 17.913,-1.438C13.859,-2.746 13.859,-2.746 9.545,-0.131C5.23,2.484 0,7.322 0,7.322Z" style="fill:rgb(90,228,168);fill-rule:nonzero;stroke:rgb(26,46,53);stroke-width:1px;stroke-linecap:round;stroke-linejoin:round;"/>
        </g>
        <g transform="matrix(1,0,0,1,435.36,251.262)">
            <path d="M0,-2.092C0,-2.092 17.128,-12.421 20.789,-13.729C24.45,-15.036 32.688,-11.768 35.041,-8.76C37.395,-5.753 45.632,10.591 46.024,11.767C46.417,12.944 40.533,-0.915 31.642,-4.969C22.751,-9.022 16.998,-8.237 11.768,-7.714C6.538,-7.191 0,1.569 0,1.569L0,-2.092Z" style="fill:rgb(90,228,168);fill-rule:nonzero;stroke:rgb(26,46,53);stroke-width:1px;stroke-linecap:round;stroke-linejoin:round;"/>
        </g>
        <g transform="matrix(1,0,0,1,433.529,247.339)">
            <path d="M0,15.298C0,15.298 -5.622,4.707 -10.329,2.354C-15.036,0 -19.743,4.184 -27.196,7.061C-34.649,9.937 -40.271,11.898 -40.271,11.898C-40.271,11.898 -27.981,12.552 -23.273,10.853C-18.567,9.153 -11.114,5.884 -9.414,6.146C-7.714,6.407 0,15.298 0,15.298Z" style="fill:rgb(90,228,168);fill-rule:nonzero;stroke:rgb(26,46,53);stroke-width:1px;stroke-linecap:round;stroke-linejoin:round;"/>
        </g>
        <g transform="matrix(1,0,0,1,433.006,182.225)">
            <path d="M0,69.821C0,69.821 -2.876,61.584 -4.576,50.862C-6.276,40.141 -3.4,20.92 -0.654,15.167C2.092,9.414 10.199,0 10.199,0C10.199,0 -4.184,12.552 -7.322,24.32C-10.46,36.087 -10.983,42.363 -9.676,48.77C-8.368,55.177 0,69.821 0,69.821Z" style="fill:rgb(90,228,168);fill-rule:nonzero;stroke:rgb(26,46,53);stroke-width:1px;stroke-linecap:round;stroke-linejoin:round;"/>
        </g>
        <g transform="matrix(1,0,0,1,436.435,243.307)">
            <path d="M0,-7.805C0,-7.805 1.271,-12.605 2.682,-13.593C4.094,-14.581 6.917,-13.452 6.917,-13.452C6.917,-13.452 1.976,-9.076 1.976,-7.099C1.976,-5.123 -3.043,6.776 -3.043,6.776L0,-7.805Z" style="fill:rgb(90,228,168);fill-rule:nonzero;stroke:rgb(26,46,53);stroke-width:1px;stroke-linecap:round;stroke-linejoin:round;"/>
        </g>
        <g transform="matrix(1,0,0,1,439.117,240.39)">
            <path d="M0,-10.675C0,-10.675 2.117,-9.194 3.77,-7.698C5.423,-6.203 13.293,1.589 13.765,2.061C14.238,2.533 9.673,-7.856 8.65,-9.823C7.627,-11.791 5.816,-13.208 5.266,-13.129C4.715,-13.05 -0.15,-11.92 0,-10.675Z" style="fill:rgb(90,228,168);fill-rule:nonzero;stroke:rgb(26,46,53);stroke-width:1px;stroke-linecap:round;stroke-linejoin:round;"/>
        </g>
        <g transform="matrix(1,0,0,1,435.113,308.224)">
            <path d="M0,-9.276C0,-9.276 12.043,-13.67 19.366,-16.111C26.689,-18.552 32.222,-12.531 32.222,-12.531C32.222,-12.531 23.109,-11.229 19.854,-11.066C16.599,-10.903 11.717,-10.741 8.788,-9.602C5.859,-8.462 14.647,-8.625 17.576,-5.696C20.505,-2.767 26.689,4.719 27.666,6.998C28.642,9.276 17.739,-3.743 10.09,-5.696C2.441,-7.649 -3.58,-3.58 -3.58,-3.58L0,-9.276Z" style="fill:rgb(26,46,53);fill-rule:nonzero;stroke:rgb(26,46,53);stroke-width:1px;stroke-linecap:round;stroke-linejoin:round;"/>
        </g>
        <g transform="matrix(1,0,0,1,423.233,412.367)">
            <path d="M0,-95.517C0,-95.517 1.139,-90.147 0,-75.174C-1.139,-60.202 -2.278,-0.163 -2.278,-0.163L1.627,0.325C1.627,0.325 3.58,-80.382 3.58,-83.149C3.58,-85.915 3.743,-95.842 3.743,-95.842L0,-95.517Z" style="fill:rgb(167,167,167);fill-rule:nonzero;stroke:rgb(26,46,53);stroke-width:1px;stroke-linecap:round;stroke-linejoin:round;"/>
        </g>
        <g transform="matrix(1,0,0,1,426.325,289.672)">
            <path d="M0,11.392C-0.303,10.73 -4.882,0.977 -7.323,-0.651C-9.764,-2.278 -15.948,-4.557 -18.715,-4.557C-21.482,-4.557 -28.642,-3.743 -28.642,-3.743C-28.642,-3.743 -15.948,-0.814 -12.368,1.953C-8.788,4.72 -2.604,11.066 -2.441,12.206C-2.278,13.345 -0.976,15.949 -0.976,15.949C-0.976,15.949 1.79,15.298 0,11.392" style="fill:rgb(90,228,168);fill-rule:nonzero;"/>
        </g>
        <g transform="matrix(1,0,0,1,426.325,289.672)">
            <path d="M0,11.392C-0.303,10.73 -4.882,0.977 -7.323,-0.651C-9.764,-2.278 -15.948,-4.557 -18.715,-4.557C-21.482,-4.557 -28.642,-3.743 -28.642,-3.743C-28.642,-3.743 -15.948,-0.814 -12.368,1.953C-8.788,4.72 -2.604,11.066 -2.441,12.206C-2.278,13.345 -0.976,15.949 -0.976,15.949C-0.976,15.949 1.79,15.298 0,11.392Z" style="fill:none;fill-rule:nonzero;stroke:rgb(26,46,53);stroke-width:1px;stroke-linecap:round;stroke-linejoin:round;"/>
        </g>
        <g transform="matrix(1,0,0,1,422.745,334.426)">
            <path d="M0,-27.015C0,-27.015 -9.764,-28.154 -13.345,-25.55C-16.925,-22.947 -23.272,-15.623 -23.272,-11.717C-23.272,-7.812 -22.946,1.139 -22.946,0.325C-22.946,-0.488 -21.156,-13.182 -17.088,-17.088C-13.019,-20.994 -11.229,-23.272 -5.859,-23.923L-0.488,-24.574L5.045,-21.645L0,-27.015Z" style="fill:rgb(26,46,53);fill-rule:nonzero;stroke:rgb(26,46,53);stroke-width:1px;stroke-linecap:round;stroke-linejoin:round;"/>
        </g>
        <g transform="matrix(1,0,0,1,430.22,313.996)">
            <path d="M0,-8.951C0,-8.951 1.953,-10.578 8.951,-11.555C15.948,-12.531 17.901,-13.182 22.295,-12.368C26.689,-11.555 31.409,-9.765 31.409,-9.765C31.409,-9.765 17.413,-10.09 16.111,-10.09C14.809,-10.09 24.574,-3.743 26.364,-1.79C28.154,0.163 29.781,4.231 29.781,4.231C29.781,4.231 15.786,-5.859 13.345,-6.998C10.904,-8.137 9.927,-8.788 9.927,-8.788C9.927,-8.788 6.021,-9.439 4.394,-8.951C2.767,-8.463 1.465,-7.975 0.976,-7.812C0.488,-7.649 -1.302,-7.161 -1.302,-7.161L0,-8.951Z" style="fill:rgb(90,228,168);fill-rule:nonzero;stroke:rgb(26,46,53);stroke-width:1px;stroke-linecap:round;stroke-linejoin:round;"/>
        </g>
        <g transform="matrix(1,0,0,1,428.115,276.164)">
            <path d="M0,23.598C0,23.598 0.814,14.159 5.371,9.928C9.927,5.697 25.55,-2.44 25.55,-2.44L35.152,-7.16C35.152,-7.16 32.385,-0.976 26.527,1.465C20.668,3.906 18.715,2.116 15.949,5.046C13.182,7.975 8.788,13.996 7.974,16.763C7.161,19.529 1.79,27.178 1.465,28.968C1.139,30.758 0,23.598 0,23.598Z" style="fill:rgb(90,228,168);fill-rule:nonzero;stroke:rgb(26,46,53);stroke-width:1px;stroke-linecap:round;stroke-linejoin:round;"/>
        </g>
        <g transform="matrix(1,0,0,1,428.766,266.075)">
            <path d="M0,36.291C0,36.291 0.977,21.644 -0.651,17.901C-2.278,14.158 -7.323,5.533 -8.462,3.58C-9.602,1.627 -11.066,0 -11.066,0C-11.066,0 -6.998,12.857 -5.858,19.529C-4.719,26.201 -4.557,28.317 -4.231,31.083C-3.906,33.85 -3.58,36.291 -3.58,36.291L0,36.291Z" style="fill:rgb(90,228,168);fill-rule:nonzero;stroke:rgb(26,46,53);stroke-width:1px;stroke-linecap:round;stroke-linejoin:round;"/>
        </g>
        <g transform="matrix(1,0,0,1,426.651,301.389)">
            <path d="M0,6.347C0,6.347 2.115,0.488 5.37,-4.719C8.625,-9.927 13.345,-11.066 14.158,-11.066L17.739,-11.066C17.739,-11.066 11.392,-7.974 10.578,-5.045C9.764,-2.116 7.974,3.906 6.672,5.208C5.37,6.51 2.115,13.345 1.302,14.972C0.488,16.6 -1.628,17.413 -1.628,17.413C-1.628,17.413 -4.557,13.019 0,6.347Z" style="fill:rgb(90,228,168);fill-rule:nonzero;stroke:rgb(26,46,53);stroke-width:1px;stroke-linecap:round;stroke-linejoin:round;"/>
        </g>
        <g transform="matrix(1,0,0,1,429.255,319.941)">
            <path d="M0,-11.717L-4.231,-1.139L-2.929,0C-2.929,0 -0.977,-2.278 0.488,-4.394C1.953,-6.509 3.092,-8.137 3.092,-9.113C3.092,-10.089 0,-11.717 0,-11.717Z" style="fill:rgb(90,228,168);fill-rule:nonzero;stroke:rgb(26,46,53);stroke-width:1px;stroke-linecap:round;stroke-linejoin:round;"/>
        </g>
        <g transform="matrix(1,0,0,1,427.567,293.715)">
            <path d="M0,23.434C0,23.434 -6.184,9.927 -8.137,6.997C-10.09,4.068 -12.206,1.627 -16.437,0.488C-20.668,-0.652 -27.828,-2.767 -34.175,-1.628C-40.522,-0.489 -51.426,0.976 -51.426,0.976C-51.426,0.976 -43.614,4.556 -34.175,3.905C-24.736,3.254 -16.437,3.743 -16.437,3.743C-16.437,3.743 -14.484,4.556 -13.019,9.276C-11.555,13.995 -8.462,18.226 -6.509,20.017C-4.557,21.807 -1.302,26.201 -1.302,26.201L0,23.434Z" style="fill:rgb(90,228,168);fill-rule:nonzero;stroke:rgb(26,46,53);stroke-width:1px;stroke-linecap:round;stroke-linejoin:round;"/>
        </g>
        <g transform="matrix(1,0,0,1,428.766,322.383)">
            <path d="M0,-20.017C0,-20.017 -6.835,-22.784 -8.462,-20.343C-10.09,-17.901 -12.694,-5.208 -12.694,-5.208C-12.694,-5.208 -13.996,1.465 -14.321,2.116C-14.646,2.767 -5.696,-4.068 -3.58,-9.927C-1.465,-15.786 0,-20.017 0,-20.017Z" style="fill:rgb(90,228,168);fill-rule:nonzero;stroke:rgb(26,46,53);stroke-width:1px;stroke-linecap:round;stroke-linejoin:round;"/>
        </g>
        <g transform="matrix(1,0,0,1,435.276,321.732)">
            <path d="M0,-15.135C0,-15.135 -6.021,-14.972 -6.021,-13.508C-6.021,-12.043 -5.208,-9.439 -5.533,-6.184C-5.859,-2.929 -6.184,0 -6.184,0C-6.184,0 0.326,-2.767 0.651,-6.51C0.976,-10.253 0,-15.135 0,-15.135Z" style="fill:rgb(90,228,168);fill-rule:nonzero;stroke:rgb(26,46,53);stroke-width:1px;stroke-linecap:round;stroke-linejoin:round;"/>
        </g>
        <g transform="matrix(1,0,0,1,438.176,325.788)">
            <path d="M0,-19.203C0,-19.203 6.184,-14.972 8.3,-11.066C10.415,-7.16 12.043,0.977 12.043,0.977C12.043,0.977 7.811,-7.16 4.557,-11.554C1.302,-15.948 -3.58,-19.529 -4.557,-18.389C-5.533,-17.25 -2.278,-20.18 0,-19.203Z" style="fill:rgb(26,46,53);fill-rule:nonzero;stroke:rgb(26,46,53);stroke-width:1px;stroke-linecap:round;stroke-linejoin:round;"/>
        </g>
        <g transform="matrix(-1,0,0,1,402.042,409.321)">
            <path d="M-33.544,45.836L-0,45.836L7.188,0L-40.732,0L-33.544,45.836Z" style="fill:rgb(26,46,53);fill-rule:nonzero;stroke:rgb(26,46,53);stroke-width:1px;stroke-linecap:round;stroke-linejoin:round;"/>
        </g>
        <g transform="matrix(-1,0,0,1,397.3,453.421)">
            <path d="M-41.985,4.167L0,4.167L2.099,0L-44.084,0L-41.985,4.167Z" style="fill:rgb(26,46,53);fill-rule:nonzero;stroke:rgb(26,46,53);stroke-width:1px;stroke-linecap:round;stroke-linejoin:round;"/>
        </g>
    </g>
    <g id="Floor" transform="matrix(4.16667,0,0,4.16667,0,0)">
        <g transform="matrix(-1,0,0,1,14.4255,457.588)">
            <path d="M-23.503,0L0,0" style="fill:none;fill-rule:nonzero;stroke:rgb(26,46,53);stroke-width:1px;"/>
        </g>
        <g transform="matrix(-1,0,0,1,47.5407,457.588)">
            <path d="M-427.387,0L0,0" style="fill:none;fill-rule:nonzero;stroke:rgb(26,46,53);stroke-width:1px;"/>
        </g>
    </g>
</svg>
