<?xml version="1.0" encoding="UTF-8" standalone="no"?>
<!DOCTYPE svg PUBLIC "-//W3C//DTD SVG 1.1//EN" "http://www.w3.org/Graphics/SVG/1.1/DTD/svg11.dtd">
<svg width="100%" height="100%" viewBox="0 0 2084 2084" version="1.1" xmlns="http://www.w3.org/2000/svg" xmlns:xlink="http://www.w3.org/1999/xlink" xml:space="preserve" xmlns:serif="http://www.serif.com/" style="fill-rule:evenodd;clip-rule:evenodd;stroke-linejoin:round;stroke-miterlimit:2;">
    <g id="BACKGROUND">
    </g>
    <g id="OBJECTS" transform="matrix(4.16667,0,0,4.16667,0,0)">
        <g transform="matrix(1,0,0,1,393.595,401.324)">
            <path d="M0,-42.868C-0.103,-43.162 -0.201,-43.458 -0.311,-43.75C-7.223,-62.093 -26.261,-74.764 -45.769,-74.128C-46.484,-74.523 -47.359,-74.74 -48.397,-74.701C-66.438,-74.017 -82.993,-62.62 -89.486,-45.93C-96.625,-45.772 -103.779,-43.245 -109.938,-37.972C-114.142,-34.374 -117.041,-30.094 -118.795,-25.497C-120.86,-26.433 -123.145,-26.941 -125.539,-26.869C-127.322,-26.816 -128.625,-26.03 -129.457,-24.917C-136.103,-22.778 -141.501,-17.197 -141.605,-9.8C-141.725,-1.265 -132.815,6.434 -124.44,5.973C-122.109,5.844 -119.942,5.079 -118.012,3.888C-110.246,20.316 -86.063,26.139 -70.309,18.419C-67.922,17.249 -65.797,15.813 -63.919,14.173C-50.36,20.051 -34.44,19.573 -21.608,12.502C-4.775,31.896 28.436,24.088 34.723,-1.222C40.36,-23.918 21.245,-43.605 0,-42.868" style="fill:white;fill-rule:nonzero;"/>
        </g>
        <g transform="matrix(1,0,0,1,212.289,147.891)">
            <path d="M0,-42.868C-0.103,-43.162 -0.201,-43.458 -0.311,-43.75C-7.223,-62.093 -26.261,-74.764 -45.769,-74.128C-46.484,-74.523 -47.359,-74.74 -48.397,-74.701C-66.438,-74.017 -82.993,-62.62 -89.486,-45.931C-96.625,-45.772 -103.779,-43.245 -109.938,-37.972C-114.142,-34.374 -117.041,-30.094 -118.795,-25.497C-120.86,-26.433 -123.145,-26.941 -125.539,-26.869C-127.322,-26.816 -128.625,-26.03 -129.457,-24.917C-136.103,-22.778 -141.501,-17.197 -141.605,-9.8C-141.724,-1.265 -132.815,6.434 -124.44,5.973C-122.109,5.844 -119.942,5.079 -118.012,3.888C-110.246,20.316 -86.063,26.139 -70.309,18.419C-67.923,17.249 -65.797,15.813 -63.919,14.173C-50.36,20.051 -34.44,19.573 -21.608,12.502C-4.775,31.896 28.436,24.088 34.723,-1.222C40.36,-23.918 21.245,-43.605 0,-42.868" style="fill:white;fill-rule:nonzero;"/>
        </g>
        <g transform="matrix(1,0,0,1,394.353,268.335)">
            <path d="M0,-32.112L-0.766,-62.336L8.753,-35.101L21.348,-59.437L16.651,-34.674L44.83,-42.359L22.415,-24.854L51.662,-22.719L25.831,-13.753L48.246,-3.079L22.629,-3.079L25.831,25.1L13.663,-0.944L8.539,30.224L4.697,-0.944L-10.674,26.381L-3.416,-6.495L-29.033,2.045L-6.404,-14.607L-34.156,-24L-7.685,-24L-24.763,-43.64L0,-32.112Z" style="fill:rgb(203,53,119);fill-rule:nonzero;"/>
        </g>
        <g transform="matrix(1,0,0,1,162.94,423.832)">
            <path d="M0,-32.112L-0.766,-62.336L8.753,-35.101L21.348,-59.437L16.651,-34.674L44.83,-42.359L22.415,-24.854L51.662,-22.719L25.831,-13.753L48.246,-3.079L22.629,-3.079L25.831,25.1L13.663,-0.944L8.539,30.224L4.697,-0.944L-10.674,26.381L-3.416,-6.495L-29.033,2.045L-6.404,-14.607L-34.156,-24L-7.685,-24L-24.763,-43.64L0,-32.112Z" style="fill:rgb(203,53,119);fill-rule:nonzero;"/>
        </g>
        <g transform="matrix(1,0,0,1,361.312,113.696)">
            <path d="M0,-32.112L-0.766,-62.336L8.753,-35.101L21.348,-59.437L16.651,-34.674L44.83,-42.359L22.415,-24.854L51.662,-22.719L25.831,-13.753L48.246,-3.079L22.629,-3.079L25.831,25.1L13.663,-0.944L8.539,30.224L4.697,-0.944L-10.674,26.381L-3.416,-6.495L-29.033,2.045L-6.404,-14.607L-34.156,-24L-7.685,-24L-24.763,-43.64L0,-32.112Z" style="fill:rgb(203,53,119);fill-rule:nonzero;"/>
        </g>
        <g transform="matrix(1,0,0,1,83.3231,268.061)">
            <path d="M0,-32.112L-0.766,-62.336L8.753,-35.101L21.348,-59.437L16.651,-34.674L44.83,-42.359L22.415,-24.854L51.662,-22.719L25.831,-13.753L48.246,-3.079L22.629,-3.079L25.831,25.1L13.663,-0.944L8.539,30.224L4.697,-0.944L-10.674,26.381L-3.416,-6.495L-29.033,2.044L-6.404,-14.607L-34.156,-24L-7.685,-24L-24.763,-43.64L0,-32.112Z" style="fill:rgb(203,53,119);fill-rule:nonzero;"/>
        </g>
        <g transform="matrix(1,0,0,1,395.299,174.665)">
            <path d="M0,-11.537L2.884,-28.319L6.031,-11.537L23.599,-8.391L7.08,-4.719L3.671,16.782L0,-3.933L-19.928,-8.915L0,-11.537Z" style="fill:rgb(203,53,119);fill-rule:nonzero;"/>
        </g>
        <g transform="matrix(1,0,0,1,146.362,326.298)">
            <path d="M0,-11.538L2.884,-28.319L6.031,-11.538L23.599,-8.391L7.08,-4.72L3.671,16.781L0,-3.934L-19.928,-8.916L0,-11.538Z" style="fill:rgb(203,53,119);fill-rule:nonzero;"/>
        </g>
        <g transform="matrix(1,0,0,1,90.5597,335.031)">
            <path d="M0,-9.529L2.382,-23.39L4.981,-9.529L19.492,-6.93L5.848,-3.898L3.032,13.861L0,-3.248L-16.46,-7.363L0,-9.529Z" style="fill:rgb(203,53,119);fill-rule:nonzero;"/>
        </g>
        <g transform="matrix(1,0,0,1,435.334,188.938)">
            <path d="M0,-7.578L1.894,-18.599L3.961,-7.578L15.499,-5.512L4.65,-3.101L2.411,11.021L0,-2.584L-13.088,-5.856L0,-7.578Z" style="fill:rgb(203,53,119);fill-rule:nonzero;"/>
        </g>
        <g transform="matrix(1,0,0,1,417.693,334.056)">
            <path d="M0,-7.578L1.894,-18.599L3.961,-7.578L15.499,-5.512L4.65,-3.1L2.411,11.021L0,-2.584L-13.088,-5.856L0,-7.578Z" style="fill:rgb(203,53,119);fill-rule:nonzero;"/>
        </g>
        <g transform="matrix(1,0,0,1,119.794,360.709)">
            <path d="M0,-5.64L1.41,-13.844L2.948,-5.64L11.537,-4.102L3.461,-2.307L1.795,8.204L0,-1.922L-9.742,-4.358L0,-5.64Z" style="fill:rgb(203,53,119);fill-rule:nonzero;"/>
        </g>
        <g transform="matrix(1,0,0,1,140.352,148.537)">
            <path d="M0,118.963L-45.616,97.822C-45.616,97.822 12.093,33.015 37.218,2.574C62.342,-27.867 90.333,-58.68 104.799,-64.276C119.266,-69.872 174.677,-62.021 174.677,-62.021L264.911,87.943C264.911,87.943 254.704,107.977 232.72,118.963C210.736,129.949 186.711,132.304 174.776,143.296C162.842,154.288 139.879,180.983 111.71,167.243C83.542,153.503 68.624,188.835 36.432,173.524C4.241,158.214 -9.932,141.333 -5.79,133.089C-1.647,124.845 0,118.963 0,118.963" style="fill:rgb(228,139,190);fill-rule:nonzero;"/>
        </g>
        <g transform="matrix(1,0,0,1,238.606,302.242)">
            <path d="M0,-122.648L-0.787,-134.326L13.555,-152.166L17.652,-144.775L0,-122.648ZM127.98,-117.881C116.719,-136.679 96.49,-130.587 96.49,-130.587L123.116,-155.895L107.576,-175.779L76.248,-152.085C91.872,-173.506 81.343,-194.828 81.343,-194.828C84.684,-215.381 74.779,-220.366 68.503,-221.935C62.226,-223.504 48.319,-224.832 48.319,-224.832L37.695,-220.728C9.086,-216.55 3.142,-206.525 3.142,-206.525C3.142,-206.525 -34.287,-149.044 -33.492,-141.358C-32.697,-133.671 -27.663,-69.266 -27.663,-69.266L-1.336,-74.531L-44.229,80.628C-36.961,102.184 -14.357,99.928 -14.357,99.928L49.544,-49.063L77.082,-62.191L66.053,20.725C81.092,35.763 92.12,30.249 92.12,30.249C92.12,30.249 139.241,-99.083 127.98,-117.881" style="fill:rgb(127,87,187);fill-rule:nonzero;"/>
        </g>
        <g transform="matrix(1,0,0,1,346.183,120.112)">
            <path d="M0,6.35L15.54,26.234L19.717,21.89C19.717,21.89 30.862,13.702 34.897,9.859C38.933,6.016 42.944,4.379 38.933,-4.411C34.923,-13.2 30.746,-19.248 25.566,-19.566C20.386,-19.884 12.321,-12.109 12.321,-12.109C12.321,-12.109 1.17,-12.532 0.836,1.671L0,6.35Z" style="fill:rgb(247,249,244);fill-rule:nonzero;"/>
        </g>
        <g transform="matrix(1,0,0,1,210.943,267.086)">
            <path d="M0,-34.11L26.327,-39.375C26.327,-39.375 31.028,-25.552 33.473,-19.206C35.917,-12.86 37.986,-6.096 33.473,-4.871C28.96,-3.646 24.407,-19.206 24.407,-19.206L21.173,-18.151L16.548,-4.871L24.407,4.356L22.566,5.265L2.991,5.265L-5.829,-6.467L-0.752,-19.206L0,-34.11Z" style="fill:rgb(247,249,244);fill-rule:nonzero;"/>
        </g>
        <g transform="matrix(1,0,0,1,237.611,227.532)">
            <path d="M0,-49.373C0.008,-42.939 -0.032,-36.504 -0.12,-30.07C-0.209,-23.658 -0.345,-17.245 -0.53,-10.834C-0.634,-7.222 -0.754,-3.61 -0.888,0.002C-0.919,0.81 0.338,0.809 0.368,0.002C0.607,-6.428 0.799,-12.86 0.942,-19.292C1.084,-25.704 1.178,-32.117 1.224,-38.531C1.25,-42.145 1.261,-45.759 1.256,-49.373C1.255,-50.181 -0.001,-50.183 0,-49.373" style="fill:rgb(48,31,70);fill-rule:nonzero;"/>
        </g>
        <g transform="matrix(1,0,0,1,276.301,98.1737)">
            <path d="M0,-16.66C0,-16.66 4.168,-13.374 10.763,-17.83L10.205,-20.441L18.364,-19.891C18.364,-19.891 21.925,-6.913 14.907,3.781C14.907,3.781 5.725,1.729 -0.322,-5.098C-0.322,-5.098 0.426,-7.358 -0.131,-10.255C-0.688,-13.151 -0.871,-15.156 0,-16.66" style="fill:rgb(177,56,128);fill-rule:nonzero;"/>
        </g>
        <g transform="matrix(1,0,0,1,344.049,308.462)">
            <path d="M0,-76.744C-0.932,-81.438 -2.142,-86.075 -3.611,-90.63C-3.823,-91.286 -4.857,-91.195 -4.845,-90.463C-4.742,-83.786 -5.354,-77.108 -6.7,-70.567C-7.03,-68.966 -7.381,-67.361 -7.823,-65.787C-8.171,-64.545 -8.685,-63.098 -9.936,-62.506C-10.42,-62.277 -11.012,-62.167 -11.533,-62.331C-12.133,-62.52 -12.45,-63.036 -12.615,-63.614C-13.007,-64.993 -12.963,-66.584 -12.89,-68.004C-12.714,-71.397 -11.702,-74.718 -9.983,-77.646C-9.565,-78.36 -10.6,-78.918 -11.068,-78.28C-14.61,-73.455 -18.47,-67.909 -17.818,-61.605C-17.497,-58.514 -16.085,-55.241 -16.922,-52.131C-17.654,-49.412 -20.154,-47.746 -22.092,-45.911C-24.192,-43.923 -25.716,-41.417 -26.448,-38.612C-27.236,-35.593 -26.944,-32.625 -26.118,-29.651C-25.68,-28.074 -25.169,-26.511 -24.904,-24.893C-24.654,-23.367 -24.708,-21.808 -25.036,-20.299C-25.695,-17.264 -27.26,-14.526 -28.83,-11.883C-30.391,-9.257 -31.98,-6.663 -32.974,-3.757C-33.913,-1.01 -34.363,2.079 -33.445,4.894C-33.222,5.579 -32.921,6.237 -32.557,6.858C-32.355,7.203 -31.988,7.223 -31.718,7.07C-28.583,9.831 -25.176,12.277 -21.552,14.357C-21.231,14.542 -20.9,14.404 -20.693,14.132C-19.15,12.111 -18.489,9.628 -17.839,7.214C-17.508,5.986 -17.174,4.755 -16.705,3.572C-16.221,2.352 -15.54,1.231 -14.763,0.177C-13.18,-1.969 -11.239,-3.841 -9.838,-6.125C-8.442,-8.4 -7.607,-10.992 -7.338,-13.644C-7.055,-16.429 -7.541,-19.119 -8.397,-21.763C-9.235,-24.348 -10.284,-26.943 -10.18,-29.708C-10.136,-30.896 -9.877,-32.099 -9.278,-33.136C-8.62,-34.274 -7.581,-34.99 -6.5,-35.689C-4.628,-36.897 -3.082,-38.313 -2.097,-40.346C-0.063,-44.546 -0.55,-49.954 -3.83,-53.393C-4.282,-53.867 -5.012,-53.37 -4.88,-52.782C-4.529,-51.218 -4.009,-48.935 -5.622,-47.878C-6.12,-47.552 -6.811,-47.365 -7.331,-47.749C-7.954,-48.211 -8.057,-49.136 -8.044,-49.853C-7.992,-52.85 -5.184,-55.126 -3.335,-57.162C-2.243,-58.364 -1.242,-59.641 -0.552,-61.12C0.177,-62.683 0.594,-64.346 0.799,-66.055C1.226,-69.622 0.695,-73.246 0,-76.744" style="fill:rgb(247,249,244);fill-rule:nonzero;"/>
        </g>
        <g transform="matrix(1,0,0,1,335.846,309.209)">
            <path d="M0,-43.252C-0.739,-42.806 -1.52,-42.426 -2.36,-42.216C-3.05,-42.044 -3.806,-41.988 -4.381,-42.374C-5.105,-42.861 -5.162,-43.829 -5.115,-44.64C-5.048,-45.803 -4.876,-46.966 -4.749,-48.124C-4.684,-48.727 -4.618,-49.33 -4.552,-49.933C-4.448,-50.303 -4.369,-50.682 -4.321,-51.074C-4.269,-51.499 -4.259,-51.925 -4.287,-52.352C-4.342,-53.171 -5.456,-53.148 -5.543,-52.352C-5.62,-51.65 -5.697,-50.949 -5.773,-50.247C-6.018,-49.391 -6.43,-48.58 -6.946,-47.802C-7.936,-46.304 -9.191,-45.004 -10.352,-43.642C-11.572,-42.21 -12.717,-40.709 -13.425,-38.953C-14.211,-37.007 -14.359,-34.863 -14.209,-32.788C-13.898,-28.483 -12.402,-24.268 -12.709,-19.919C-13.023,-15.449 -15.894,-11.884 -18.384,-8.372C-20.529,-5.347 -22.634,-1.731 -22.668,2.067C-22.861,2.245 -22.961,2.528 -22.805,2.827C-22.744,2.943 -22.68,3.058 -22.616,3.173C-22.583,3.5 -22.536,3.828 -22.468,4.158C-22.358,4.694 -22.193,5.216 -21.981,5.721C-21.85,6.033 -21.565,6.257 -21.208,6.159C-21.047,6.115 -20.894,5.981 -20.808,5.819C-19.526,7.357 -17.974,8.67 -16.236,9.674C-15.812,9.919 -15.309,9.604 -15.291,9.132C-15.14,5.115 -14.982,0.86 -12.986,-2.742C-11.089,-6.165 -7.887,-8.622 -5.874,-11.968C-3.795,-15.425 -3.07,-19.631 -3.79,-23.591C-4.156,-25.607 -4.984,-27.494 -5.556,-29.453C-6.072,-31.22 -6.425,-33.208 -5.542,-34.923C-4.154,-37.62 -0.835,-38.7 0.516,-41.45C0.687,-41.8 0.827,-42.165 0.923,-42.543C1.055,-43.064 0.479,-43.541 0,-43.252" style="fill:rgb(246,194,229);fill-rule:nonzero;"/>
        </g>
        <g transform="matrix(1,0,0,1,237.54,381.45)">
            <path d="M0,-74.677C-0.582,-79.427 -1.445,-84.141 -2.573,-88.792C-2.735,-89.462 -3.773,-89.448 -3.816,-88.717C-4.207,-82.051 -5.312,-75.436 -7.139,-69.013C-7.587,-67.441 -8.056,-65.867 -8.613,-64.329C-9.052,-63.117 -9.672,-61.712 -10.963,-61.214C-11.463,-61.021 -12.062,-60.956 -12.569,-61.158C-13.153,-61.391 -13.431,-61.929 -13.552,-62.517C-13.842,-63.922 -13.68,-65.506 -13.502,-66.915C-13.075,-70.287 -11.82,-73.523 -9.889,-76.316C-9.419,-76.997 -10.41,-77.63 -10.924,-77.029C-14.813,-72.48 -19.074,-67.234 -18.89,-60.9C-18.8,-57.794 -17.634,-54.425 -18.699,-51.385C-19.63,-48.728 -22.247,-47.251 -24.315,-45.565C-26.557,-43.738 -28.262,-41.352 -29.2,-38.609C-30.21,-35.656 -30.138,-32.675 -29.534,-29.648C-29.214,-28.043 -28.82,-26.447 -28.676,-24.813C-28.54,-23.273 -28.71,-21.723 -29.148,-20.241C-30.03,-17.264 -31.794,-14.65 -33.556,-12.13C-35.306,-9.627 -37.083,-7.158 -38.289,-4.333C-39.429,-1.663 -40.107,1.384 -39.4,4.259C-39.229,4.959 -38.977,5.638 -38.66,6.284C-38.485,6.643 -38.12,6.689 -37.839,6.557C-34.917,9.543 -31.701,12.234 -28.241,14.578C-27.934,14.785 -27.594,14.672 -27.367,14.416C-25.679,12.516 -24.836,10.088 -24.009,7.729C-23.588,6.529 -23.164,5.326 -22.608,4.18C-22.035,3 -21.274,1.932 -20.421,0.939C-18.682,-1.084 -16.608,-2.807 -15.042,-4.98C-13.481,-7.147 -12.457,-9.669 -11.992,-12.294C-11.503,-15.05 -11.788,-17.769 -12.447,-20.469C-13.09,-23.109 -13.944,-25.774 -13.636,-28.525C-13.504,-29.706 -13.157,-30.887 -12.482,-31.876C-11.742,-32.962 -10.654,-33.6 -9.523,-34.216C-7.567,-35.282 -5.92,-36.58 -4.788,-38.534C-2.448,-42.572 -2.533,-48.002 -5.549,-51.674C-5.965,-52.18 -6.73,-51.739 -6.642,-51.142C-6.407,-49.557 -6.058,-47.242 -7.745,-46.307C-8.265,-46.019 -8.969,-45.883 -9.458,-46.305C-10.046,-46.811 -10.08,-47.742 -10.014,-48.456C-9.74,-51.44 -6.771,-53.502 -4.776,-55.396C-3.598,-56.514 -2.505,-57.713 -1.708,-59.137C-0.865,-60.642 -0.326,-62.269 0.005,-63.958C0.695,-67.483 0.434,-71.137 0,-74.677" style="fill:rgb(247,249,244);fill-rule:nonzero;"/>
        </g>
        <g transform="matrix(1,0,0,1,226.822,381.891)">
            <path d="M0,-41.581C-0.77,-41.191 -1.577,-40.87 -2.43,-40.723C-3.131,-40.602 -3.889,-40.602 -4.434,-41.03C-5.12,-41.569 -5.105,-42.539 -4.998,-43.344C-4.845,-44.499 -4.588,-45.646 -4.376,-46.791C-4.265,-47.388 -4.155,-47.985 -4.044,-48.581C-3.914,-48.942 -3.807,-49.314 -3.73,-49.702C-3.646,-50.122 -3.604,-50.546 -3.601,-50.974C-3.595,-51.795 -4.708,-51.854 -4.854,-51.067C-4.982,-50.373 -5.111,-49.678 -5.24,-48.984C-5.546,-48.149 -6.018,-47.371 -6.59,-46.632C-7.688,-45.213 -9.036,-44.009 -10.294,-42.737C-11.617,-41.399 -12.87,-39.987 -13.707,-38.288C-14.634,-36.406 -14.941,-34.279 -14.945,-32.199C-14.954,-27.882 -13.774,-23.568 -14.402,-19.253C-15.047,-14.819 -18.173,-11.477 -20.917,-8.158C-23.28,-5.301 -25.647,-1.851 -25.962,1.934C-26.169,2.098 -26.289,2.372 -26.155,2.682C-26.103,2.803 -26.048,2.922 -25.993,3.041C-25.984,3.37 -25.961,3.701 -25.918,4.034C-25.848,4.577 -25.722,5.11 -25.548,5.629C-25.44,5.95 -25.174,6.195 -24.81,6.123C-24.646,6.091 -24.484,5.969 -24.385,5.814C-23.221,7.443 -21.771,8.867 -20.112,9.997C-19.707,10.273 -19.182,9.996 -19.129,9.526C-18.681,5.531 -18.208,1.3 -15.951,-2.144C-13.806,-5.417 -10.43,-7.63 -8.175,-10.818C-5.846,-14.111 -4.812,-18.252 -5.236,-22.255C-5.452,-24.293 -6.138,-26.235 -6.563,-28.231C-6.947,-30.032 -7.151,-32.04 -6.144,-33.685C-4.56,-36.272 -1.17,-37.103 0.381,-39.746C0.578,-40.082 0.744,-40.436 0.868,-40.805C1.038,-41.315 0.499,-41.834 0,-41.581" style="fill:rgb(246,194,229);fill-rule:nonzero;"/>
        </g>
        <g transform="matrix(1,0,0,1,306.616,386.601)">
            <path d="M0,-78.348L-6.28,-49.768C-6.28,-49.768 -6.34,-45.013 -3.14,-40.258L0,-47.549C0,-47.549 -3.427,-35.82 3.547,-26.31C10.521,-16.8 26.118,-3.804 28.939,-1.902C31.76,0 33.662,-1.585 32.711,-6.657C31.76,-11.728 25.103,-38.039 25.103,-38.039L28.939,-67.765C28.939,-67.765 15.473,-63.499 0,-78.348" style="fill:rgb(228,139,190);fill-rule:nonzero;"/>
        </g>
        <g transform="matrix(1,0,0,1,196.372,467.753)">
            <path d="M0,-92.102L-9.204,-59.596L-6.034,-53.573C-6.034,-53.573 -6.974,-46.282 -4.602,-39.308C-2.23,-32.334 4.497,-19.02 8.742,-11.412C12.986,-3.804 18.743,0 20.303,-14.265C21.862,-28.53 23.24,-48.367 23.24,-48.367L31.631,-74.339C31.631,-74.339 7.619,-71.67 0,-92.102" style="fill:rgb(228,139,190);fill-rule:nonzero;"/>
        </g>
        <g transform="matrix(1,0,0,1,315.004,169.292)">
            <path d="M0,-18.173C0.003,-18.177 0.006,-18.181 0.009,-18.185C0.006,-18.181 0.003,-18.177 0,-18.173M-0.46,-17.543C-0.332,-17.717 -0.193,-17.908 -0.043,-18.114C-0.14,-17.981 -0.289,-17.777 -0.46,-17.543M-0.964,-16.852C-0.836,-17.027 -0.69,-17.227 -0.526,-17.453C-0.666,-17.261 -0.817,-17.054 -0.964,-16.852M-1.243,-16.47C-1.195,-16.535 -1.144,-16.606 -1.088,-16.682C-1.141,-16.609 -1.193,-16.538 -1.243,-16.47M-1.653,-15.907C-1.616,-15.959 -1.565,-16.028 -1.501,-16.116C-1.562,-16.033 -1.613,-15.962 -1.653,-15.907M-1.687,-15.862L-1.686,-15.862L-1.687,-15.862M-1.738,-15.791C-1.734,-15.797 -1.729,-15.804 -1.722,-15.813C-1.729,-15.804 -1.734,-15.797 -1.738,-15.791M0.046,-18.235C0.052,-18.244 0.058,-18.252 0.064,-18.261C0.06,-18.254 0.053,-18.246 0.046,-18.235M-12.592,-7.519C-33.305,-11.482 -56.195,-34.03 -56.195,-34.03L-62.843,-19.216L-58.746,-11.826L-63.375,-6.023C-53.579,9.882 -41.323,15.857 -41.323,15.857L-38.612,15.073C-38.546,14.787 -38.371,14.517 -38.053,14.318C-34.459,12.078 -30.114,11.263 -26.041,10.332C-23.831,9.827 -21.619,9.31 -19.367,9.031C-18.505,8.925 -17.621,8.819 -16.743,8.754L-12.938,7.654L0.075,-18.276C4.175,-23.894 7.029,-34.03 7.029,-34.03L-12.592,-7.519Z" style="fill:rgb(246,194,229);fill-rule:nonzero;"/>
        </g>
        <g transform="matrix(1,0,0,1,210.943,177.553)">
            <path d="M0,55.423L-2.375,25.294L2.991,0L25.779,29.13L27.036,49.982L0,55.423Z" style="fill:rgb(246,194,229);fill-rule:nonzero;"/>
        </g>
        <g transform="matrix(1,0,0,1,346.183,160.205)">
            <path d="M0,-33.743L-16.784,-21.049L-22.923,0L0.96,0L15.54,-13.859L0,-33.743Z" style="fill:rgb(246,194,229);fill-rule:nonzero;"/>
        </g>
        <g transform="matrix(1,0,0,1,271.205,151.051)">
            <path d="M0,-35.294C-2.291,-35.429 -4.579,-35.313 -6.849,-34.979C-7.185,-34.929 -7.37,-34.505 -7.288,-34.206C-7.189,-33.846 -6.852,-33.718 -6.515,-33.767C-6.2,-33.814 -5.884,-33.854 -5.568,-33.89C-7.534,-29.726 -9.454,-25.54 -11.325,-21.332C-13.265,-16.967 -15.153,-12.58 -16.991,-8.171C-18.022,-5.699 -19.036,-3.221 -20.034,-0.736C-20.16,-0.421 -19.896,-0.046 -19.595,0.037C-19.237,0.135 -18.949,-0.086 -18.822,-0.402C-17.068,-4.771 -15.263,-9.121 -13.406,-13.448C-11.544,-17.788 -9.632,-22.106 -7.669,-26.401C-6.565,-28.818 -5.444,-31.228 -4.308,-33.63C-4.25,-33.753 -4.227,-33.886 -4.237,-34.014C-2.828,-34.114 -1.411,-34.121 0,-34.038C0.808,-33.99 0.805,-35.247 0,-35.294" style="fill:rgb(48,31,70);fill-rule:nonzero;"/>
        </g>
        <g transform="matrix(1,0,0,1,318.87,91.4194)">
            <path d="M0,12.124C-1.911,7.869 -4.043,3.715 -6.384,-0.319C-6.789,-1.018 -7.875,-0.386 -7.469,0.315C-5.127,4.349 -2.996,8.503 -1.085,12.758C-0.946,13.068 -0.496,13.142 -0.225,12.983C0.093,12.797 0.139,12.435 0,12.124" style="fill:rgb(48,31,70);fill-rule:nonzero;"/>
        </g>
        <g transform="matrix(1,0,0,1,335.535,167.133)">
            <path d="M0,3.749C-0.096,3.398 -0.438,3.248 -0.773,3.31C-4.968,4.085 -9.163,4.859 -13.357,5.633C-17.532,6.404 -21.706,7.174 -25.881,7.945C-28.142,8.362 -30.404,8.78 -32.666,9.197C-29.504,2.641 -26.342,-3.915 -23.18,-10.471C-22.272,-12.353 -21.364,-14.235 -20.456,-16.117C-20.309,-16.422 -20.373,-16.795 -20.682,-16.976C-20.957,-17.137 -21.393,-17.058 -21.541,-16.751C-24.773,-10.051 -28.004,-3.351 -31.236,3.349C-32.143,5.231 -33.051,7.113 -33.959,8.995C-34.036,9.155 -34.054,9.332 -34.011,9.492C-38.218,9.966 -42.391,10.728 -46.488,11.796C-50.823,12.926 -55.065,14.392 -59.182,16.16C-61.485,17.149 -63.744,18.238 -65.955,19.42C-66.668,19.802 -66.034,20.886 -65.321,20.505C-61.449,18.434 -57.427,16.655 -53.287,15.193C-49.151,13.732 -44.906,12.579 -40.599,11.75C-38.174,11.283 -35.73,10.921 -33.273,10.664C-33.106,10.647 -32.95,10.581 -32.835,10.476C-32.771,10.479 -32.706,10.478 -32.641,10.466C-28.446,9.691 -24.251,8.917 -20.056,8.143C-15.882,7.372 -11.707,6.602 -7.533,5.831C-5.168,5.395 -2.803,4.958 -0.439,4.522C-0.105,4.46 0.084,4.056 0,3.749" style="fill:rgb(48,31,70);fill-rule:nonzero;"/>
        </g>
        <g transform="matrix(1,0,0,1,238.584,248.934)">
            <path d="M0,-2.11C-0.086,-2.423 -0.45,-2.658 -0.773,-2.549C-2.525,-1.957 -4.277,-1.365 -6.029,-0.773C-6.35,-0.664 -6.561,-0.34 -6.467,0C-6.381,0.313 -6.018,0.548 -5.695,0.439C-3.943,-0.153 -2.191,-0.745 -0.439,-1.337C-0.117,-1.446 0.094,-1.77 0,-2.11" style="fill:rgb(48,31,70);fill-rule:nonzero;"/>
        </g>
        <g transform="matrix(1,0,0,1,228.7,255.438)">
            <path d="M0,14.931C-2.768,12.169 -5.381,9.255 -7.827,6.204C-6.896,4.048 -5.863,1.939 -4.728,-0.117C-4.337,-0.825 -5.421,-1.46 -5.812,-0.751C-6.981,1.365 -8.043,3.537 -8.995,5.759C-9.056,5.901 -9.078,6.053 -9.057,6.194C-9.132,6.413 -9.065,6.656 -8.911,6.85C-6.409,9.989 -3.73,12.984 -0.888,15.819C-0.315,16.391 0.573,15.503 0,14.931" style="fill:rgb(48,31,70);fill-rule:nonzero;"/>
        </g>
        <g transform="matrix(1,0,0,1,222.372,254.894)">
            <path d="M0,16.374C-2.509,13.704 -4.882,10.905 -7.096,7.985C-7.112,7.963 -7.131,7.943 -7.149,7.923C-5.867,5.192 -4.497,2.503 -3.037,-0.137C-2.645,-0.845 -3.729,-1.479 -4.121,-0.771C-5.63,1.957 -7.046,4.737 -8.364,7.562C-8.484,7.819 -8.461,8.118 -8.27,8.316C-8.272,8.424 -8.248,8.53 -8.18,8.619C-5.902,11.625 -3.472,14.513 -0.888,17.262C-0.333,17.853 0.553,16.963 0,16.374" style="fill:rgb(48,31,70);fill-rule:nonzero;"/>
        </g>
        <g transform="matrix(1,0,0,1,216.496,253.33)">
            <path d="M0,17.75C-2.392,14.855 -4.738,11.923 -7.035,8.951C-7.024,8.935 -7.011,8.92 -7.002,8.902C-5.521,5.808 -4.026,2.701 -2.037,-0.107C-1.841,-0.383 -1.988,-0.805 -2.262,-0.966C-2.577,-1.15 -2.925,-1.018 -3.122,-0.741C-5.111,2.067 -6.606,5.174 -8.087,8.268C-8.161,8.423 -8.181,8.594 -8.144,8.749C-8.306,8.949 -8.374,9.257 -8.212,9.467C-5.82,12.564 -3.38,15.622 -0.888,18.638C-0.672,18.9 -0.224,18.862 0,18.638C0.259,18.379 0.217,18.012 0,17.75" style="fill:rgb(48,31,70);fill-rule:nonzero;"/>
        </g>
        <g transform="matrix(1,0,0,1,381.003,111.085)">
            <path d="M0,12.877C-0.401,12.047 -0.801,11.216 -1.202,10.386C-1.345,10.089 -1.792,9.987 -2.061,10.161C-2.366,10.357 -2.439,10.703 -2.286,11.02C-2.219,11.159 -2.152,11.299 -2.085,11.438C-2.13,11.453 -2.174,11.473 -2.214,11.503C-4.066,12.892 -6,14.173 -8.005,15.331C-8.506,15.62 -9.012,15.902 -9.521,16.177C-9.989,16.428 -10.484,16.767 -11,16.905C-11.468,17.031 -11.65,16.539 -11.868,16.204C-12.11,15.833 -12.352,15.462 -12.593,15.091C-12.444,14.949 -12.298,14.804 -12.158,14.654C-11.894,14.373 -11.96,14.025 -12.159,13.8C-11.961,13.623 -11.861,13.338 -12.025,13.038L-12.736,11.739C-12.706,11.726 -12.676,11.713 -12.647,11.693C-9.301,9.387 -5.891,7.175 -2.421,5.059C-1.732,4.638 -2.362,3.551 -3.055,3.974C-6.525,6.09 -9.935,8.303 -13.281,10.609C-13.3,10.621 -13.315,10.636 -13.332,10.65L-15.576,6.552C-15.547,6.538 -15.518,6.526 -15.489,6.508C-12.293,4.481 -9.097,2.453 -5.901,0.426C-5.22,-0.006 -5.849,-1.093 -6.535,-0.659C-9.731,1.369 -12.927,3.396 -16.123,5.423C-16.142,5.435 -16.156,5.449 -16.172,5.462L-17.078,3.808C-17.513,3.014 -17.933,2.205 -18.371,1.408C-15.342,-0.353 -12.367,-2.207 -9.454,-4.154C-8.785,-4.601 -9.413,-5.689 -10.088,-5.238C-12.999,-3.294 -15.97,-1.441 -18.997,0.318C-19.132,0.094 -19.264,-0.132 -19.406,-0.352C-20.167,-1.531 -21.142,-2.607 -22.499,-3.082C-24.025,-3.615 -25.766,-3.208 -26.966,-2.157C-27.222,-1.933 -27.195,-1.497 -26.966,-1.268C-26.713,-1.015 -26.334,-1.044 -26.078,-1.268C-25.201,-2.036 -23.926,-2.253 -22.833,-1.87C-21.712,-1.478 -20.935,-0.446 -20.336,0.527C-19.554,1.796 -18.878,3.135 -18.163,4.442C-17.371,5.889 -16.578,7.335 -15.786,8.782C-14.894,10.412 -14.002,12.042 -13.11,13.672C-13.09,13.707 -13.068,13.737 -13.046,13.766C-14.219,15.019 -15.698,15.959 -17.346,16.451C-17.443,16.48 -17.541,16.509 -17.639,16.533C-17.684,16.545 -17.82,16.556 -17.795,16.566C-17.853,16.544 -18.073,16.241 -18.156,16.143C-18.474,15.768 -18.785,15.387 -19.088,15C-19.674,14.254 -20.227,13.482 -20.753,12.693C-21.288,11.891 -21.79,11.069 -22.264,10.231C-22.093,9.995 -22.135,9.63 -22.339,9.427C-22.592,9.173 -22.971,9.202 -23.227,9.427C-24.626,10.653 -26.446,11.352 -28.303,11.398C-29.111,11.417 -29.113,12.674 -28.303,12.654C-26.492,12.609 -24.743,12.035 -23.258,11.025C-22.285,12.724 -21.187,14.347 -19.977,15.888C-19.65,16.305 -19.314,16.715 -18.971,17.118C-18.583,17.572 -18.18,17.886 -17.55,17.792C-16.601,17.649 -15.631,17.191 -14.801,16.727C-14.368,16.485 -13.953,16.211 -13.557,15.911C-13.399,16.153 -13.241,16.395 -13.084,16.637C-12.838,17.015 -12.608,17.455 -12.271,17.761C-11.384,18.566 -10.349,18.031 -9.45,17.56C-7.706,16.647 -6.01,15.644 -4.369,14.557C-3.42,13.928 -2.491,13.27 -1.58,12.587C-1.567,12.578 -1.557,12.567 -1.545,12.557C-1.391,12.875 -1.238,13.193 -1.085,13.511C-0.941,13.808 -0.495,13.91 -0.225,13.736C0.079,13.54 0.153,13.194 0,12.877" style="fill:rgb(48,31,70);fill-rule:nonzero;"/>
        </g>
        <g transform="matrix(1,0,0,1,324.733,240.014)">
            <path d="M0,-33.308C-0.359,-33.407 -0.645,-33.185 -0.773,-32.869C-2.407,-28.845 -3.862,-24.749 -5.13,-20.594C-6.398,-16.44 -7.479,-12.23 -8.37,-7.979C-8.872,-5.583 -9.312,-3.174 -9.693,-0.756C-9.746,-0.421 -9.607,-0.08 -9.254,0.017C-8.956,0.099 -8.535,-0.085 -8.482,-0.422C-7.806,-4.712 -6.94,-8.972 -5.884,-13.185C-4.828,-17.398 -3.582,-21.564 -2.153,-25.665C-1.347,-27.976 -0.482,-30.267 0.439,-32.535C0.566,-32.85 0.3,-33.226 0,-33.308" style="fill:rgb(48,31,70);fill-rule:nonzero;"/>
        </g>
        <g transform="matrix(1,0,0,1,288.15,252.048)">
            <path d="M0,-0.125C-5.367,0.534 -10.777,0.836 -16.184,0.778C-21.553,0.72 -26.923,0.313 -32.238,-0.459C-35.253,-0.897 -38.251,-1.449 -41.224,-2.111C-42.012,-2.286 -42.348,-1.076 -41.558,-0.9C-36.226,0.288 -30.814,1.118 -25.371,1.588C-19.984,2.053 -14.566,2.161 -9.165,1.908C-6.101,1.765 -3.044,1.505 0,1.131C0.337,1.09 0.628,0.872 0.628,0.503C0.628,0.196 0.339,-0.167 0,-0.125" style="fill:rgb(48,31,70);fill-rule:nonzero;"/>
        </g>
        <g transform="matrix(1,0,0,1,207.942,289.527)">
            <path d="M0,-70.604C-2.54,-66.084 -5.104,-61.579 -7.694,-57.088C-10.273,-52.616 -12.877,-48.158 -15.506,-43.715C-18.134,-39.273 -20.788,-34.845 -23.465,-30.431C-26.155,-25.999 -28.869,-21.582 -31.609,-17.18C-34.323,-12.819 -37.061,-8.473 -39.823,-4.142C-39.872,-5.051 -40.145,-5.933 -40.573,-6.758C-41.167,-7.904 -42.031,-8.905 -42.913,-9.838C-43.747,-10.718 -44.641,-11.54 -45.584,-12.302C-47.511,-13.862 -49.614,-15.184 -51.82,-16.311C-56.278,-18.589 -61.074,-20.119 -65.865,-21.526C-66.439,-21.694 -67.014,-21.861 -67.589,-22.028C-68.367,-22.253 -68.7,-21.041 -67.923,-20.816C-63.196,-19.449 -58.441,-18.049 -53.969,-15.966C-51.753,-14.933 -49.608,-13.733 -47.626,-12.297C-46.665,-11.6 -45.748,-10.842 -44.884,-10.028C-43.997,-9.193 -43.123,-8.302 -42.404,-7.316C-41.709,-6.361 -41.103,-5.249 -41.062,-4.042C-41.029,-3.042 -41.342,-1.952 -42.168,-1.322C-43.132,-0.585 -44.533,-0.593 -45.688,-0.626C-46.923,-0.661 -48.141,-0.859 -49.336,-1.165C-54.367,-2.45 -58.777,-5.393 -63.741,-6.874C-66.102,-7.579 -69.059,-7.978 -71.218,-6.483C-72.847,-5.355 -73.89,-3.016 -73.121,-1.09C-72.932,-0.616 -72.657,-0.195 -72.282,0.155C-71.691,0.706 -70.801,-0.181 -71.394,-0.733C-72.018,-1.316 -72.217,-2.151 -72.071,-2.955C-71.906,-3.869 -71.441,-4.722 -70.706,-5.308C-69.834,-6.003 -68.609,-6.239 -67.506,-6.239C-66.233,-6.24 -64.986,-5.95 -63.777,-5.572C-58.824,-4.025 -54.396,-1.074 -49.325,0.132C-48.085,0.427 -46.81,0.611 -45.534,0.634C-44.236,0.658 -42.792,0.579 -41.669,-0.146C-41.124,-0.498 -40.699,-0.98 -40.392,-1.533C-40.182,-1.513 -39.963,-1.591 -39.817,-1.819C-37.023,-6.186 -34.253,-10.569 -31.508,-14.967C-28.775,-19.346 -26.066,-23.741 -23.382,-28.15C-20.698,-32.56 -18.038,-36.984 -15.403,-41.423C-12.757,-45.881 -10.136,-50.354 -7.54,-54.842C-4.955,-59.31 -2.396,-63.793 0.139,-68.29C0.455,-68.85 0.77,-69.41 1.085,-69.97C1.481,-70.676 0.396,-71.31 0,-70.604" style="fill:rgb(48,31,70);fill-rule:nonzero;"/>
        </g>
        <g transform="matrix(1,0,0,1,291.851,127.154)">
            <path d="M0,-9.932C-0.487,-13.142 1.72,-16.138 4.929,-16.626C8.139,-17.113 11.135,-14.906 11.623,-11.697C12.11,-8.487 9.903,-5.49 6.694,-5.003C3.484,-4.516 0.487,-6.722 0,-9.932M8.967,-2.63C12.728,-4.075 15.114,-7.983 14.484,-12.131C13.757,-16.921 9.285,-20.215 4.495,-19.487C-0.295,-18.76 -3.589,-14.287 -2.862,-9.497C-2.196,-5.116 1.604,-1.988 5.914,-2.044L6.517,1.929L1.234,2.731L1.701,5.802L6.983,5L7.785,10.283L10.856,9.817L10.054,4.534L15.337,3.732L14.871,0.661L9.588,1.463L8.967,-2.63Z" style="fill:rgb(247,249,244);fill-rule:nonzero;"/>
        </g>
        <g transform="matrix(-0.880351,0.474324,0.474324,0.880351,311.834,101.408)">
            <path d="M4.146,-28.502C4.146,-28.502 7.518,-14.677 18.418,-9.302L4.146,2.686C4.146,2.686 -1.187,-18.661 0.825,-26.076L4.146,-28.502Z" style="fill:rgb(247,249,244);fill-rule:nonzero;"/>
        </g>
        <g transform="matrix(-0.994337,0.106277,0.106277,0.994337,290.3,118.668)">
            <path d="M11.52,-26.97C11.52,-26.97 5.797,-19.246 -2.679,-16.522L11.52,-0.464C11.52,-0.464 14.481,-11.442 14.376,-21.622L11.52,-26.97Z" style="fill:rgb(247,249,244);fill-rule:nonzero;"/>
        </g>
        <g transform="matrix(1,0,0,1,192.659,414.453)">
            <path d="M0,-13.354C-0.297,-13.436 -0.722,-13.253 -0.773,-12.915C-1.387,-8.868 -2.001,-4.82 -2.615,-0.773C-2.665,-0.438 -2.53,-0.097 -2.176,0C-1.879,0.082 -1.454,-0.101 -1.403,-0.439C-0.789,-4.486 -0.175,-8.534 0.439,-12.581C0.49,-12.916 0.354,-13.257 0,-13.354" style="fill:rgb(48,31,70);fill-rule:nonzero;"/>
        </g>
        <g transform="matrix(1,0,0,1,296.415,96.1001)">
            <path d="M0,-12.01C-0.183,-13.983 -0.52,-15.939 -0.969,-17.868C-1.153,-18.655 -2.364,-18.322 -2.181,-17.534C-0.745,-11.372 -0.481,-4.649 -3.177,1.223C-3.711,2.384 -4.352,3.499 -5.101,4.535C-6.129,3.794 -7.106,2.981 -8.028,2.11C-7.846,2.081 -7.676,1.985 -7.597,1.815C-5.73,-2.188 -5.294,-6.779 -6.354,-11.067C-6.658,-12.294 -7.093,-13.484 -7.632,-14.627C-7.777,-14.934 -8.217,-15.013 -8.492,-14.852C-8.806,-14.669 -8.862,-14.301 -8.717,-13.993C-6.981,-10.315 -6.59,-6.031 -7.546,-2.085C-7.818,-0.962 -8.194,0.134 -8.682,1.181C-8.716,1.253 -8.737,1.329 -8.748,1.406C-11.436,-1.315 -13.599,-4.565 -15.038,-8.1C-15.641,-9.582 -16.121,-11.111 -16.474,-12.671C-16.653,-13.459 -17.864,-13.126 -17.686,-12.337C-16.384,-6.597 -13.348,-1.269 -9.114,2.816C-8.449,3.458 -7.751,4.065 -7.029,4.642C-10.485,3.414 -13.731,1.591 -16.562,-0.742C-17.536,-1.545 -18.46,-2.406 -19.334,-3.317C-19.894,-3.902 -20.782,-3.013 -20.222,-2.429C-17.03,0.901 -13.15,3.519 -8.888,5.275C-7.831,5.711 -6.75,6.085 -5.652,6.406C-5.566,6.454 -5.467,6.483 -5.366,6.49C-5.331,6.5 -5.297,6.511 -5.262,6.521C-4.816,6.645 -4.519,6.304 -4.49,5.947C-4.429,5.9 -4.376,5.843 -4.338,5.778C-4.284,5.685 -4.26,5.588 -4.256,5.493C-0.557,0.506 0.566,-5.898 0,-12.01" style="fill:rgb(48,31,70);fill-rule:nonzero;"/>
        </g>
        <g transform="matrix(1,0,0,1,174.342,179.766)">
            <path d="M0,-17.664C-0.225,-17.89 -0.667,-17.923 -0.888,-17.664C-4.535,-13.394 -8.103,-9.055 -11.587,-4.65C-12.571,-3.405 -13.549,-2.155 -14.52,-0.9C-14.727,-0.632 -14.781,-0.272 -14.52,-0.011C-14.304,0.205 -13.84,0.259 -13.632,-0.011C-10.195,-4.453 -6.675,-8.83 -3.073,-13.139C-2.055,-14.357 -1.031,-15.569 0,-16.776C0.22,-17.034 0.253,-17.411 0,-17.664" style="fill:rgb(48,31,70);fill-rule:nonzero;"/>
        </g>
        <g transform="matrix(1,0,0,1,193.046,157.621)">
            <path d="M0,-15.914C-0.226,-16.14 -0.666,-16.172 -0.888,-15.914C-4.254,-12.001 -7.703,-8.16 -11.235,-4.396C-12.237,-3.33 -13.245,-2.269 -14.259,-1.215C-14.82,-0.632 -13.932,0.258 -13.371,-0.327C-9.793,-4.046 -6.295,-7.843 -2.882,-11.715C-1.914,-12.813 -0.954,-13.916 0,-15.026C0.221,-15.283 0.253,-15.661 0,-15.914" style="fill:rgb(48,31,70);fill-rule:nonzero;"/>
        </g>
        <g transform="matrix(1,0,0,1,185.679,284.488)">
            <path d="M0,-18.68C-2.694,-13.987 -5.388,-9.295 -8.082,-4.602C-8.842,-3.279 -9.601,-1.957 -10.36,-0.634C-10.764,0.068 -9.678,0.702 -9.276,0C-6.581,-4.693 -3.887,-9.385 -1.193,-14.078C-0.434,-15.401 0.325,-16.723 1.085,-18.046C1.488,-18.748 0.403,-19.382 0,-18.68" style="fill:rgb(48,31,70);fill-rule:nonzero;"/>
        </g>
        <g transform="matrix(-0.922583,-0.3858,-0.3858,0.922583,188.937,259.401)">
            <path d="M-1.896,-9.448C-1.48,-6.228 -1.066,-3.007 -0.65,0.214C-0.547,1.017 -1.792,1.183 -1.896,0.38C-2.31,-2.841 -2.726,-6.061 -3.142,-9.282C-3.245,-10.085 -2,-10.251 -1.896,-9.448" style="fill:rgb(48,31,70);fill-rule:nonzero;"/>
        </g>
        <g transform="matrix(1,0,0,1,179.51,309.092)">
            <path d="M0,8.098C-3.761,6.061 -7.366,3.724 -10.739,1.093C-11.698,0.345 -12.639,-0.426 -13.563,-1.217C-13.82,-1.437 -14.198,-1.47 -14.451,-1.217C-14.677,-0.991 -14.71,-0.55 -14.451,-0.328C-11.135,2.513 -7.589,5.086 -3.85,7.344C-2.793,7.982 -1.72,8.594 -0.634,9.183C0.077,9.568 0.712,8.483 0,8.098" style="fill:rgb(48,31,70);fill-rule:nonzero;"/>
        </g>
        <g transform="matrix(1,0,0,1,193.956,320.031)">
            <path d="M0,0.937C-3.389,1.244 -6.811,0.514 -9.766,-1.179C-10.468,-1.582 -11.102,-0.497 -10.4,-0.094C-7.267,1.701 -3.599,2.519 0,2.193C0.338,2.163 0.628,1.926 0.628,1.565C0.628,1.249 0.34,0.906 0,0.937" style="fill:rgb(48,31,70);fill-rule:nonzero;"/>
        </g>
        <g transform="matrix(0.212777,-0.977101,-0.977101,-0.212777,185.311,311.175)">
            <path d="M-3.732,-2.963C-3.605,-0.503 -3.207,1.929 -2.537,4.299C-2.317,5.077 -3.512,5.467 -3.732,4.688C-4.43,2.217 -4.854,-0.33 -4.986,-2.895C-5.028,-3.703 -3.774,-3.771 -3.732,-2.963" style="fill:rgb(48,31,70);fill-rule:nonzero;"/>
        </g>
        <g transform="matrix(1,0,0,1,389.58,202.824)">
            <path d="M0,15.635C-2.645,11.417 -5.29,7.199 -7.936,2.982L-10.203,-0.634C-10.632,-1.317 -11.719,-0.687 -11.288,-0C-8.643,4.218 -5.997,8.436 -3.352,12.654C-2.596,13.859 -1.84,15.064 -1.085,16.269C-0.656,16.952 0.431,16.323 0,15.635" style="fill:rgb(48,31,70);fill-rule:nonzero;"/>
        </g>
        <g transform="matrix(1,0,0,1,393.667,218.289)">
            <path d="M0,14.14C-2.466,10.306 -4.932,6.471 -7.398,2.637C-8.1,1.546 -8.801,0.456 -9.502,-0.635C-9.938,-1.312 -11.026,-0.683 -10.587,-0.001C-8.121,3.834 -5.655,7.668 -3.189,11.503L-1.085,14.774C-0.649,15.452 0.439,14.823 0,14.14" style="fill:rgb(48,31,70);fill-rule:nonzero;"/>
        </g>
        <g transform="matrix(1,0,0,1,299.137,306.896)">
            <path d="M0,-9.611C-0.323,-9.8 -0.653,-9.657 -0.859,-9.386C-3.346,-6.118 -6.493,-3.366 -10.04,-1.303C-10.739,-0.897 -10.107,0.189 -9.406,-0.219C-5.662,-2.396 -2.396,-5.307 0.225,-8.752C0.431,-9.022 0.268,-9.455 0,-9.611" style="fill:rgb(48,31,70);fill-rule:nonzero;"/>
        </g>
        <g transform="matrix(1,0,0,1,276.301,42.6427)">
            <path d="M0,38.871C0,38.871 5.115,41.879 10.763,37.701L8.604,27.601C8.604,27.601 21.925,21.973 16.411,8.867C16.411,8.867 13.28,-3.008 -1.074,-0.239C-1.074,-0.239 -4.513,2.765 -4.865,6.029C-5.216,9.292 -6.897,10.42 -5.455,13.567C-4.013,16.713 -0.539,20.449 -1.063,23.071C-1.587,25.693 -1.915,26.807 -1.915,26.807L0,38.871Z" style="fill:rgb(247,249,244);fill-rule:nonzero;"/>
        </g>
        <g transform="matrix(1,0,0,1,296.057,90.248)">
            <path d="M0,-43.538C1.229,-42.26 2.211,-40.74 2.866,-39.088C3.63,-37.163 3.979,-35.101 3.961,-33.034C3.942,-30.9 3.512,-28.834 2.827,-26.818C2.527,-25.939 2.224,-25.018 2.041,-24.089C1.664,-24.689 1.432,-25.39 1.459,-26.53C1.538,-29.897 2.254,-38.221 0,-43.538M-44.919,-35.219C-47.514,-33.52 -51.636,-31.96 -53.864,-26.614C-54.01,-26.262 -54.143,-25.927 -54.266,-25.607C-54.321,-26.215 -54.341,-26.824 -54.281,-27.436C-54.201,-28.249 -53.979,-29.061 -53.669,-29.816C-53.054,-31.307 -52.009,-32.674 -50.705,-33.627C-50.015,-34.13 -49.259,-34.537 -48.449,-34.807C-47.467,-35.134 -46.445,-35.314 -45.457,-35.615C-44.947,-35.771 -44.458,-35.971 -43.995,-36.213C-44.237,-35.81 -44.533,-35.472 -44.919,-35.219M5.302,-18.426C4.651,-20.704 3.828,-21.863 3.11,-22.733C3.156,-23.99 3.627,-25.28 4.019,-26.429C4.728,-28.51 5.176,-30.659 5.215,-32.864C5.287,-36.897 3.999,-40.882 1.337,-43.939C0.339,-45.085 -0.846,-46.079 -2.162,-46.844C-6.584,-51.72 -16.713,-56.776 -28.782,-50.305C-28.782,-50.305 -34.592,-50.452 -39.159,-46.442C-42.08,-43.877 -42.559,-40.699 -43.204,-38.296C-43.773,-37.74 -44.457,-37.301 -45.217,-37.019C-46.187,-36.66 -47.208,-36.475 -48.201,-36.196C-49.103,-35.942 -49.977,-35.587 -50.775,-35.092C-53.746,-33.247 -55.714,-29.775 -55.572,-26.256C-55.532,-25.264 -55.347,-24.286 -55.26,-23.299C-55.249,-23.175 -55.239,-23.049 -55.231,-22.923C-55.987,-20.812 -56.607,-19.6 -59.025,-18.391C-59.464,-18.288 -59.899,-18.209 -60.302,-18.141C-62.452,-17.776 -64.655,-17.699 -66.75,-17.047C-68.581,-16.478 -70.277,-15.559 -71.777,-14.369C-74.939,-11.858 -76.928,-8.089 -77.354,-4.087C-77.407,-3.592 -77.432,-3.094 -77.434,-2.595C-77.438,-1.787 -76.182,-1.786 -76.178,-2.595C-76.159,-6.519 -74.467,-10.317 -71.539,-12.932C-70.179,-14.146 -68.567,-15.099 -66.844,-15.695C-66.485,-15.819 -66.123,-15.92 -65.758,-16.013C-69.802,-14.527 -73.542,-11.693 -75.043,-0.597C-75.043,-0.597 -64.471,6.418 -57.189,7.392L-48.751,0.548L-53.415,8.366C-53.415,8.366 -36.072,11.679 -31.591,12.263C-27.109,12.848 -25.786,13.238 -25.786,13.238C-25.786,13.238 -19.418,6.418 -19.756,-0.597C-20.094,-7.612 -19.756,-8.734 -19.756,-8.734L-21.291,-20.459C-21.291,-20.459 -19.824,-22.363 -20.533,-24.727C-21.241,-27.091 -24.116,-31.018 -24.778,-33.178C-25.439,-35.338 -25.91,-36.329 -25.294,-38.739C-24.677,-41.149 -21.262,-47.435 -21.262,-47.435C-21.262,-47.435 -12.58,-48.182 -9.396,-46.427C-6.212,-44.672 6.313,-29.603 -11.153,-20.004L-9.552,-12.516C-9.552,-12.516 -1.716,-12.274 4.196,-11.219C4.196,-11.219 6.806,-13.162 5.302,-18.426" style="fill:rgb(246,194,229);fill-rule:nonzero;"/>
        </g>
        <g transform="matrix(1,0,0,1,287.311,63.2929)">
            <path d="M0,-3.763C-0.261,-4.166 -0.735,-4.385 -1.21,-4.372C-1.738,-4.358 -2.172,-4.094 -2.57,-3.771C-2.959,-3.456 -3.328,-3.113 -3.705,-2.784C-3.744,-2.749 -3.775,-2.707 -3.802,-2.663C-3.809,-2.658 -3.817,-2.656 -3.824,-2.651C-4.067,-2.495 -4.178,-2.223 -4.113,-1.941C-3.941,-1.189 -3.507,-0.474 -2.902,0.008C-2.516,0.316 -2.079,0.578 -1.572,0.601C-1.116,0.622 -0.668,0.405 -0.376,0.059C0.227,-0.655 0.173,-1.652 0.226,-2.533C0.252,-2.953 0.237,-3.398 0,-3.763" style="fill:rgb(177,56,128);fill-rule:nonzero;"/>
        </g>
        <g transform="matrix(1,0,0,1,280.106,59.4077)">
            <path d="M0,-1.197C-0.13,-1.761 -0.498,-2.274 -0.99,-2.576C-1.483,-2.879 -2.116,-2.942 -2.667,-2.779C-2.988,-2.684 -3.293,-2.512 -3.539,-2.279C-3.766,-2.124 -3.958,-1.912 -4.084,-1.662C-4.335,-1.164 -4.382,-0.575 -4.207,-0.044C-4.037,0.474 -3.702,0.933 -3.232,1.219C-3.194,1.243 -3.153,1.262 -3.112,1.283C-3.035,1.338 -2.956,1.389 -2.871,1.432C-2.252,1.745 -1.571,1.635 -1.058,1.189C-0.744,1.006 -0.472,0.751 -0.268,0.446C0.053,-0.034 0.128,-0.641 0,-1.197" style="fill:rgb(177,56,128);fill-rule:nonzero;"/>
        </g>
        <g transform="matrix(0.503871,0.863779,0.863779,-0.503871,278.093,58.7396)">
            <path d="M0.006,-0.003C0.007,-0.003 0.007,-0 0.007,0.001C0.007,0.004 0.006,0.007 0.006,0.01C0.005,0.01 0.004,0.008 0.004,0.007C0.004,0.003 0.005,0.001 0.006,-0.003" style="fill:rgb(177,56,128);fill-rule:nonzero;"/>
        </g>
        <g transform="matrix(1,0,0,1,292.311,55.431)">
            <path d="M0,-1.547C-0.179,-2.051 -0.495,-2.491 -0.95,-2.78C-1.41,-3.071 -2.004,-3.15 -2.524,-2.985C-3.052,-2.818 -3.543,-2.44 -3.787,-1.935C-3.898,-1.705 -3.959,-1.465 -3.976,-1.224C-4.213,-0.711 -4.218,-0.15 -3.981,0.37C-3.745,0.885 -3.244,1.261 -2.713,1.429C-2.165,1.603 -1.559,1.514 -1.064,1.232C-0.113,0.689 0.37,-0.507 0,-1.547" style="fill:rgb(177,56,128);fill-rule:nonzero;"/>
        </g>
        <g transform="matrix(1,0,0,1,284.905,75.56)">
            <path d="M0,-5.316C0,-5.316 -3.388,-3.626 -10.183,-6.188L-10.36,-5.109L-9.354,0.225C-9.354,0.225 -4.294,0.872 0.288,-3.961L0,-5.316Z" style="fill:rgb(48,31,70);fill-rule:nonzero;"/>
        </g>
        <g transform="matrix(1,0,0,1,278.752,54.4439)">
            <path d="M0,-0.546C-0.006,-0.565 -0.014,-0.582 -0.021,-0.6C-0.043,-0.738 -0.088,-0.872 -0.152,-0.994C-0.243,-1.167 -0.408,-1.333 -0.586,-1.416C-0.746,-1.491 -0.843,-1.516 -1.022,-1.533C-1.133,-1.543 -1.247,-1.524 -1.354,-1.499C-1.396,-1.489 -1.437,-1.473 -1.477,-1.458C-1.522,-1.469 -1.567,-1.475 -1.613,-1.473C-1.78,-1.465 -1.936,-1.408 -2.057,-1.289C-2.41,-0.94 -2.542,-0.375 -2.388,0.096C-2.35,0.211 -2.302,0.333 -2.232,0.433C-2.125,0.586 -2.028,0.684 -1.878,0.793C-1.778,0.865 -1.658,0.918 -1.54,0.949C-1.42,0.98 -1.287,0.997 -1.163,0.983C-1.077,0.974 -0.982,0.965 -0.898,0.94C-0.814,0.916 -0.732,0.878 -0.653,0.841C-0.538,0.788 -0.432,0.705 -0.34,0.621C-0.313,0.597 -0.289,0.571 -0.266,0.543C-0.211,0.476 -0.152,0.406 -0.109,0.329C-0.015,0.161 0.022,0.011 0.041,-0.177C0.044,-0.212 0.046,-0.246 0.043,-0.281C0.035,-0.368 0.028,-0.462 0,-0.546" style="fill:rgb(48,31,70);fill-rule:nonzero;"/>
        </g>
        <g transform="matrix(1,0,0,1,289.099,50.7219)">
            <path d="M0,-0.597C-0.049,-0.809 -0.172,-1.042 -0.338,-1.186C-0.471,-1.302 -0.592,-1.378 -0.763,-1.431C-0.841,-1.455 -0.928,-1.463 -1.008,-1.469C-1.095,-1.477 -1.185,-1.463 -1.269,-1.443C-1.337,-1.428 -1.401,-1.401 -1.463,-1.37C-1.54,-1.359 -1.614,-1.337 -1.678,-1.293C-1.821,-1.194 -1.946,-1.083 -2.032,-0.928C-2.121,-0.767 -2.151,-0.626 -2.169,-0.445C-2.193,-0.206 -2.114,0.049 -2.001,0.257C-1.892,0.458 -1.707,0.654 -1.498,0.753C-1.34,0.827 -1.179,0.88 -1.001,0.873C-0.819,0.865 -0.672,0.824 -0.512,0.741C-0.262,0.613 -0.097,0.365 -0.012,0.105C0.061,-0.117 0.053,-0.372 0,-0.597" style="fill:rgb(48,31,70);fill-rule:nonzero;"/>
        </g>
        <g transform="matrix(1,0,0,1,286.906,54.774)">
            <path d="M0,0.454C-0.297,-0.302 -0.937,-0.937 -1.74,-1.134C-1.905,-1.174 -2.087,-1.16 -2.248,-1.209C-2.396,-1.253 -2.366,-1.283 -2.43,-1.458C-2.594,-1.906 -2.756,-2.355 -2.92,-2.803C-3.036,-3.122 -3.346,-3.337 -3.692,-3.242C-4,-3.158 -4.248,-2.79 -4.131,-2.469C-3.986,-2.073 -3.842,-1.676 -3.698,-1.279C-3.559,-0.898 -3.44,-0.496 -3.108,-0.237C-2.792,0.01 -2.44,-0.01 -2.073,0.078C-1.83,0.136 -1.624,0.269 -1.45,0.451C-0.697,1.241 -1.303,2.496 -2.335,2.518C-3.142,2.535 -3.145,3.791 -2.335,3.774C-0.693,3.74 0.623,2.04 0,0.454" style="fill:rgb(48,31,70);fill-rule:nonzero;"/>
        </g>
        <g transform="matrix(1,0,0,1,286.907,61.4971)">
            <path d="M0,-1.807C-0.406,-1.104 -1.169,-0.622 -1.955,-0.596C-2.746,-0.569 -3.556,-0.963 -4.007,-1.635C-4.196,-1.916 -4.561,-2.039 -4.866,-1.86C-5.145,-1.697 -5.282,-1.284 -5.092,-1.001C-4.4,0.03 -3.211,0.701 -1.955,0.66C-0.706,0.619 0.462,-0.094 1.085,-1.173C1.49,-1.874 0.405,-2.508 0,-1.807" style="fill:rgb(48,31,70);fill-rule:nonzero;"/>
        </g>
        <g transform="matrix(1,0,0,1,296.099,92.9049)">
            <path d="M0,-45.618C-3.628,-50.322 -10.054,-50.331 -15.445,-50.664C-17.198,-50.772 -18.952,-50.88 -20.706,-50.988L-20.718,-50.988C-16.455,-51.747 -12.062,-52.252 -7.863,-50.961C-6.62,-50.579 -5.443,-50.036 -4.355,-49.322C-3.677,-48.877 -3.047,-49.964 -3.721,-50.406C-8.131,-53.3 -13.621,-53.32 -18.659,-52.592C-20.103,-52.384 -21.538,-52.116 -22.971,-51.843C-24.873,-52.429 -26.835,-52.801 -28.824,-52.962C-28.996,-52.976 -29.155,-52.895 -29.27,-52.771C-33.267,-51.791 -36.747,-48.843 -38.426,-45.094C-38.883,-44.074 -39.212,-43.016 -39.399,-41.914C-39.6,-40.726 -39.677,-39.52 -39.887,-38.334C-40.087,-37.208 -40.407,-36.071 -41.115,-35.15C-41.747,-34.328 -42.61,-33.718 -43.464,-33.149C-44.367,-32.546 -45.295,-31.968 -46.107,-31.243C-47,-30.444 -47.657,-29.458 -48.063,-28.332C-48.972,-25.816 -48.527,-23.117 -48.303,-20.528C-48.192,-19.244 -48.139,-17.941 -48.349,-16.663C-48.528,-15.572 -48.845,-14.494 -49.296,-13.484C-50.218,-11.416 -51.601,-9.589 -53.254,-8.05C-56.982,-4.58 -61.944,-2.837 -66.797,-1.617C-67.424,-1.46 -68.053,-1.31 -68.683,-1.166C-69.471,-0.985 -69.138,0.226 -68.349,0.045C-63.333,-1.105 -58.179,-2.626 -54.02,-5.78C-50.335,-8.575 -47.445,-12.654 -47.005,-17.353C-46.748,-20.097 -47.506,-22.813 -47.335,-25.557C-47.263,-26.714 -47.013,-27.889 -46.43,-28.902C-45.908,-29.807 -45.121,-30.497 -44.276,-31.094C-42.48,-32.363 -40.432,-33.421 -39.442,-35.497C-38.389,-37.705 -38.565,-40.193 -37.996,-42.524C-37.007,-46.568 -33.805,-50.001 -29.853,-51.303C-29.396,-51.454 -28.93,-51.572 -28.459,-51.668C-27.108,-51.538 -25.771,-51.302 -24.459,-50.96C-28.248,-48.517 -30.806,-44.412 -31.277,-39.92C-31.534,-37.471 -31.161,-34.937 -30.22,-32.663C-29.738,-31.496 -29.081,-30.462 -28.424,-29.39C-27.869,-28.485 -27.258,-27.406 -27.577,-26.311C-27.818,-25.484 -28.549,-24.911 -29.248,-24.444C-30.102,-23.874 -31.014,-23.383 -31.784,-22.695C-33.322,-21.322 -34.064,-19.29 -34.177,-17.269C-34.297,-15.13 -33.714,-13.023 -32.675,-11.165C-32.052,-10.049 -31.304,-8.977 -30.895,-7.756C-30.534,-6.678 -30.436,-5.545 -30.544,-4.416C-31.004,0.416 -35.002,3.751 -39.081,5.755C-39.606,6.013 -40.139,6.254 -40.677,6.484C-40.989,6.617 -41.058,7.077 -40.902,7.343C-40.714,7.666 -40.356,7.702 -40.043,7.569C-35.674,5.702 -31.405,2.781 -29.816,-1.914C-29.04,-4.207 -29.038,-6.708 -30.017,-8.938C-30.547,-10.144 -31.318,-11.221 -31.909,-12.395C-32.35,-13.269 -32.643,-14.214 -32.809,-15.177C-33.127,-17.027 -32.903,-19.057 -31.879,-20.66C-31.365,-21.466 -30.651,-22.054 -29.856,-22.568C-29.019,-23.109 -28.126,-23.601 -27.408,-24.303C-26.643,-25.051 -26.159,-26.069 -26.24,-27.155C-26.335,-28.42 -27.015,-29.522 -27.68,-30.566C-28.331,-31.589 -28.908,-32.633 -29.308,-33.781C-29.704,-34.916 -29.963,-36.102 -30.056,-37.301C-30.41,-41.888 -28.398,-46.412 -24.757,-49.23C-24.34,-49.553 -23.9,-49.846 -23.448,-50.118C-23.264,-50.228 -23.179,-50.387 -23.159,-50.552C-23.13,-50.551 -23.101,-50.553 -23.071,-50.555C-22.75,-50.453 -22.429,-50.347 -22.112,-50.232C-24.691,-46.623 -26.966,-42.193 -26.268,-37.634C-25.935,-35.453 -24.757,-33.636 -23.587,-31.817C-22.49,-30.111 -21.453,-28.314 -21.578,-26.214C-21.696,-24.25 -22.746,-22.51 -24.326,-21.372C-25.833,-20.286 -27.613,-19.486 -28.721,-17.935C-30.113,-15.988 -29.552,-13.496 -28.473,-11.548C-27.897,-10.51 -27.181,-9.559 -26.572,-8.541C-25.992,-7.572 -25.566,-6.56 -25.383,-5.441C-24.659,-1.022 -27.57,2.976 -31.074,5.31C-31.522,5.608 -31.983,5.886 -32.453,6.149C-33.159,6.542 -32.526,7.628 -31.819,7.233C-27.9,5.048 -24.585,1.498 -24.089,-3.124C-23.967,-4.26 -24.044,-5.428 -24.332,-6.535C-24.626,-7.667 -25.178,-8.705 -25.804,-9.686C-26.44,-10.683 -27.148,-11.642 -27.661,-12.711C-28.122,-13.672 -28.468,-14.833 -28.251,-15.904C-27.881,-17.735 -26.15,-18.687 -24.701,-19.612C-23.887,-20.131 -23.067,-20.677 -22.398,-21.378C-21.66,-22.151 -21.108,-23.081 -20.748,-24.085C-19.997,-26.184 -20.298,-28.369 -21.267,-30.338C-22.2,-32.236 -23.625,-33.862 -24.455,-35.815C-26.268,-40.082 -24.22,-44.768 -21.867,-48.373C-21.556,-48.848 -21.233,-49.315 -20.9,-49.775C-20.841,-49.753 -20.778,-49.736 -20.706,-49.732C-17.728,-49.548 -14.747,-49.391 -11.771,-49.175C-9.16,-48.986 -6.473,-48.647 -4.12,-47.423C-2.965,-46.822 -1.885,-46.022 -1.085,-44.984C-0.878,-44.716 -0.545,-44.572 -0.225,-44.759C0.039,-44.913 0.208,-45.348 0,-45.618" style="fill:rgb(48,31,70);fill-rule:nonzero;"/>
        </g>
        <g transform="matrix(1,0,0,1,296.814,69.834)">
            <path d="M0,2.581C-0.787,0.876 -2.103,-0.509 -2.972,-2.167C-3.445,-3.068 -3.758,-4.04 -3.71,-5.066C-3.672,-5.874 -4.928,-5.872 -4.966,-5.066C-5.081,-2.629 -3.542,-0.649 -2.242,1.254C-1.118,2.897 0.139,5.169 -1.021,7.125C-1.435,7.822 -0.349,8.455 0.063,7.76C1.012,6.159 0.749,4.202 0,2.581" style="fill:rgb(48,31,70);fill-rule:nonzero;"/>
        </g>
    </g>
</svg>
