<?xml version="1.0" encoding="UTF-8" standalone="no"?>
<!DOCTYPE svg PUBLIC "-//W3C//DTD SVG 1.1//EN" "http://www.w3.org/Graphics/SVG/1.1/DTD/svg11.dtd">
<svg width="100%" height="100%" viewBox="0 0 2084 2084" version="1.1" xmlns="http://www.w3.org/2000/svg" xmlns:xlink="http://www.w3.org/1999/xlink" xml:space="preserve" xmlns:serif="http://www.serif.com/" style="fill-rule:evenodd;clip-rule:evenodd;stroke-linecap:round;stroke-linejoin:round;stroke-miterlimit:10;">
    <g id="BACKGROUND">
    </g>
    <g id="OBJECTS" transform="matrix(4.16667,0,0,4.16667,0,0)">
        <g transform="matrix(1,0,0,1,258.563,49.9464)">
            <path d="M0,0.479C-4.764,-3.836 -6.464,-10.619 -6.464,-10.637C-6.464,-10.637 -8.178,-2.486 -12.9,0.507C-12.9,0.507 -8.487,3.696 -6.576,11.116L-6.576,11.098C-5.34,4.747 0,0.479 0,0.479" style="fill:white;fill-rule:nonzero;"/>
        </g>
        <g transform="matrix(1,0,0,1,420.552,106)">
            <path d="M0,0.479C-4.764,-3.835 -6.464,-10.619 -6.464,-10.637C-6.464,-10.637 -8.178,-2.486 -12.9,0.507C-12.9,0.507 -8.487,3.696 -6.576,11.116L-6.576,11.098C-5.34,4.747 0,0.479 0,0.479" style="fill:white;fill-rule:nonzero;"/>
        </g>
        <g transform="matrix(1,0,0,1,464.218,164.093)">
            <path d="M0,0.479C-4.764,-3.836 -6.464,-10.619 -6.464,-10.637C-6.464,-10.637 -8.178,-2.486 -12.9,0.507C-12.9,0.507 -8.487,3.696 -6.576,11.116L-6.576,11.098C-5.34,4.747 0,0.479 0,0.479" style="fill:white;fill-rule:nonzero;"/>
        </g>
        <g transform="matrix(1,0,0,1,182.395,66.1114)">
            <path d="M0,0.478C-4.764,-3.836 -6.464,-10.62 -6.464,-10.637C-6.464,-10.637 -8.178,-2.487 -12.9,0.506C-12.9,0.506 -8.487,3.695 -6.576,11.115L-6.576,11.097C-5.34,4.746 0,0.478 0,0.478" style="fill:white;fill-rule:nonzero;"/>
        </g>
        <g transform="matrix(1,0,0,1,427.002,230.839)">
            <path d="M0,0.479C-4.764,-3.835 -6.464,-10.619 -6.464,-10.637C-6.464,-10.637 -8.178,-2.486 -12.9,0.507C-12.9,0.507 -8.487,3.696 -6.576,11.116L-6.576,11.098C-5.34,4.747 0,0.479 0,0.479" style="fill:white;fill-rule:nonzero;"/>
        </g>
        <g transform="matrix(1,0,0,1,63.1265,168.468)">
            <path d="M0,0.479C-4.764,-3.835 -6.464,-10.619 -6.464,-10.637C-6.464,-10.637 -8.178,-2.486 -12.9,0.507C-12.9,0.507 -8.487,3.696 -6.576,11.116L-6.576,11.098C-5.34,4.747 0,0.479 0,0.479" style="fill:white;fill-rule:nonzero;"/>
        </g>
        <g transform="matrix(1,0,0,1,458.884,372.443)">
            <path d="M0,-55.245C0.018,-55.135 0,-55.007 -0.018,-54.897C-0.055,-54.365 -0.183,-53.852 -0.385,-53.358C-0.733,-52.478 -1.338,-51.672 -2.18,-51.067C-9.07,-46.083 -21.567,-37.068 -35.364,-27.338C-59.35,-10.407 -87.238,8.722 -96.235,12.717C-107.449,17.701 -128.558,29.336 -141.402,36.537C-148.549,40.55 -156.648,42.566 -164.857,42.383L-170.317,42.254L-222.576,41.063L-307.56,39.121L-307.688,39.121L-318.169,38.883C-339.646,22.931 -336.617,-42.692 -318.609,-51.324C-296.493,-54.952 -262.851,-59.973 -226.698,-63.546C-225.104,-63.692 -223.51,-63.857 -221.898,-64.004C-218.929,-64.279 -215.942,-64.553 -212.937,-64.81C-212.827,-64.828 -212.699,-64.828 -212.571,-64.847C-210.299,-65.048 -208.008,-65.231 -205.718,-65.415L-181.861,-65.726L-178.984,-65.763L-134.604,-66.349C-134.604,-66.349 -114.577,-78.259 -92.79,-87.128C-91.801,-87.549 -90.811,-87.934 -89.803,-88.319C-84.251,-90.499 -78.645,-92.423 -73.257,-93.871C-70.216,-94.696 -67.266,-95.355 -64.425,-95.813C-63.051,-96.033 -61.787,-96.235 -60.614,-96.418L-60.596,-96.418C-58.58,-96.748 -56.839,-97.004 -55.264,-97.206C-50.994,-97.737 -47.953,-97.811 -44.306,-97.371C-34.1,-96.143 -32.817,-87.384 -37.032,-84.361C-37.068,-84.324 -37.105,-84.288 -37.142,-84.269L-37.142,-83.958C-37.142,-83.958 -35.328,-84.892 -32.378,-85.607C-32.286,-85.644 -32.194,-85.662 -32.103,-85.68C-31.242,-85.882 -30.289,-86.065 -29.244,-86.212C-29.208,-86.212 -29.171,-86.212 -29.134,-86.23C-24.645,-86.78 -18.745,-86.432 -12.68,-82.969C-12.662,-82.987 -12.643,-82.969 -12.625,-82.95C-12.332,-82.767 -12.039,-82.602 -11.745,-82.419C-8.649,-80.495 -8.429,-76.061 -11.269,-73.77L-18.965,-67.613L-26.99,-61.2C-26.99,-61.2 -26.624,-61.347 -25.946,-61.585C-23.697,-62.335 -18.06,-63.859 -11.629,-62.949C-10.969,-62.863 -10.319,-62.761 -9.693,-62.629C-9.015,-62.483 -8.319,-62.318 -7.623,-62.08C-7.293,-61.988 -6.963,-61.878 -6.651,-61.768C-5.277,-61.31 -3.903,-60.687 -2.547,-59.899C-1.673,-59.4 -1.033,-58.67 -0.61,-57.871C-0.609,-57.869 -0.606,-57.867 -0.605,-57.865C-0.586,-57.847 -0.568,-57.829 -0.568,-57.81C-0.147,-57.004 0.055,-56.125 0,-55.245" style="fill:white;fill-rule:nonzero;"/>
        </g>
        <g transform="matrix(-0.704531,-0.709673,-0.709673,0.704531,425.154,302.235)">
            <path d="M-10.542,-22.494C-4.709,-15.026 -3.959,-3.965 -8.731,4.222C-9.978,3.772 -10.254,2.329 -10.542,1.035C-11.939,-5.228 -12.646,-11.645 -12.646,-18.062C-12.646,-19.823 -12.001,-21.507 -10.542,-22.494" style="fill:rgb(255,229,210);fill-rule:nonzero;"/>
        </g>
        <g transform="matrix(-0.615715,-0.787969,-0.787969,0.615715,436.803,323.175)">
            <path d="M-10.368,-20.819C-7.239,-17.257 -5.462,-12.538 -5.461,-7.798C-5.461,-3.057 -7.239,1.662 -10.368,5.224C-10.469,3.519 -10.737,1.734 -10.839,0.029C-11.253,-6.902 -11.593,-13.984 -10.368,-20.819" style="fill:rgb(255,229,210);fill-rule:nonzero;"/>
        </g>
        <g transform="matrix(0.235253,0.971934,0.971934,-0.235253,415.038,293.806)">
            <path d="M30.369,-22.909C30.369,-22.909 20.945,3.119 20.776,15.675C20.637,25.885 24.965,34.378 30.369,37.141C31.648,37.796 33.12,37.628 34.196,36.847C34.196,36.847 42.031,28.085 44.8,14.392" style="fill:none;fill-rule:nonzero;stroke:rgb(84,7,53);stroke-width:1px;"/>
        </g>
        <g transform="matrix(0.294557,0.955634,0.955634,-0.294557,369.383,263.69)">
            <path d="M52.297,-31.492C52.297,-31.492 38.258,28.317 38.771,44.804C39.235,59.727 44.485,66.758 52.297,67.307C53.793,67.413 55.177,66.484 55.779,65.11L63.938,46.512" style="fill:none;fill-rule:nonzero;stroke:rgb(84,7,53);stroke-width:1px;"/>
        </g>
        <g transform="matrix(0.0643917,0.997925,0.997925,-0.0643917,259.424,311.511)">
            <path d="M-2.242,-24.384L18.226,-24.384C22.203,-24.384 24.854,-20.279 23.216,-16.655L16.494,-1.778L-2.242,-24.384Z" style="fill:rgb(84,7,53);fill-rule:nonzero;"/>
        </g>
        <g transform="matrix(-0.0643917,0.997925,0.997925,0.0643917,381.218,335.114)">
            <path d="M-26.008,-2.392L-5.54,-2.392C-1.563,-2.392 1.088,-6.497 -0.55,-10.121L-7.272,-24.998L-26.008,-2.392Z" style="fill:rgb(84,7,53);fill-rule:nonzero;"/>
        </g>
        <g transform="matrix(0.0861711,-0.99628,-0.99628,-0.0861711,331.786,156.452)">
            <path d="M-16.04,17.487L19.065,17.487" style="fill:none;fill-rule:nonzero;stroke:rgb(240,91,59);stroke-width:1.9px;stroke-linecap:butt;stroke-linejoin:miter;"/>
        </g>
        <g transform="matrix(-0.996279,-0.0861917,-0.0861917,0.996279,304.585,126.984)">
            <rect x="-25.822" y="1.115" width="26.406" height="12.426" style="fill:rgb(255,179,77);"/>
        </g>
        <g transform="matrix(1,0,0,1,228.144,79.5775)">
            <path d="M0,63.144C10.326,57.754 16.623,46.981 21.321,36.324C26.02,25.666 29.823,14.323 37.353,5.436C50.396,-9.959 72.513,-15.011 92.556,-12.691C102.103,-11.585 111.727,-8.906 119.367,-3.075C126.963,2.721 132.061,11.21 135.912,19.954C139.763,28.698 142.549,37.89 146.58,46.552C152.113,58.445 159.982,69.245 169.607,78.155" style="fill:none;fill-rule:nonzero;stroke:rgb(240,91,59);stroke-width:1.91px;stroke-linecap:butt;stroke-linejoin:miter;"/>
        </g>
        <g transform="matrix(1,0,0,1,252.675,160.173)">
            <path d="M0,21.792L-4.764,25.497L-11.645,16.627L-14.51,12.94L-24.567,-0.019L-19.803,-3.705L-10.33,8.505L-6.187,13.816L0,21.792Z" style="fill:rgb(255,179,77);fill-rule:nonzero;"/>
        </g>
        <g transform="matrix(-0.888987,0.457933,0.457933,0.888987,238.054,173.534)">
            <path d="M-7.289,4.267L-1.15,4.267L-0.291,-0.323L-6.038,-2.352L-7.289,4.267Z" style="fill:rgb(84,7,53);fill-rule:nonzero;"/>
        </g>
        <g transform="matrix(1,0,0,1,212.643,118.068)">
            <path d="M0,78.096L60.56,32.041C60.56,32.041 35.534,0 3.835,25.005C-24.361,47.247 0,78.096 0,78.096" style="fill:rgb(255,179,77);fill-rule:nonzero;"/>
        </g>
        <g transform="matrix(1,0,0,1,390.492,190.233)">
            <path d="M0,-21.099L-12.082,-6.443L-20.533,3.833L-25.205,0L-14.984,-12.411L-4.672,-24.932L0,-21.099Z" style="fill:rgb(255,179,77);fill-rule:nonzero;"/>
        </g>
        <g transform="matrix(-0.636095,0.771611,0.771611,0.636095,382.41,183.769)">
            <path d="M-16.433,-3.073L2.561,-3.073L-0.198,-9.108L-16.419,-9.116L-16.433,-3.073Z" style="fill:rgb(84,7,53);fill-rule:nonzero;"/>
        </g>
        <g transform="matrix(1,0,0,1,351.831,175.626)">
            <path d="M0,-25.665L53.69,28.242C53.69,28.242 82.123,-0.818 53.13,-28.915C27.34,-53.907 0,-25.665 0,-25.665" style="fill:rgb(255,179,77);fill-rule:nonzero;"/>
        </g>
        <g transform="matrix(1,0,0,1,215.995,130.271)">
            <path d="M0,16.231L-3.708,9.033C-4.592,7.317 -3.988,5.21 -2.329,4.223L3.021,1.042C4.775,0 7.043,0.597 8.056,2.369L12.426,10.018L0,16.231Z" style="fill:rgb(255,179,77);fill-rule:nonzero;"/>
        </g>
        <g transform="matrix(1,0,0,1,397.471,146.221)">
            <path d="M0,-2.465L5.629,-8.286C6.97,-9.673 9.16,-9.777 10.626,-8.522L15.355,-4.475C16.905,-3.148 17.067,-0.808 15.713,0.72L9.87,7.312L0,-2.465Z" style="fill:rgb(255,179,77);fill-rule:nonzero;"/>
        </g>
        <g transform="matrix(-0.0633769,-0.99799,-0.99799,0.0633769,294.332,158.051)">
            <path d="M-93.82,-99.967C-145.739,-99.967 -187.828,-57.877 -187.829,-5.958C-187.829,45.961 -145.739,88.05 -93.82,88.051C-41.9,88.05 0.189,45.961 0.189,-5.958C0.188,-57.878 -41.901,-99.967 -93.82,-99.967" style="fill:rgb(240,91,59);fill-rule:nonzero;"/>
        </g>
        <g transform="matrix(1,0,0,1,387.003,258.85)">
            <path d="M0,-15.569C2.895,30.012 -31.706,69.306 -77.307,72.201C-102.006,73.77 -124.842,64.333 -141.054,48.105C-152.107,35.017 -159.209,18.411 -160.377,0.018C-163.272,-45.563 -128.672,-84.876 -83.091,-87.771C-58.393,-89.339 -35.556,-79.902 -19.346,-63.694C-8.273,-50.607 -1.169,-33.982 0,-15.569" style="fill:rgb(255,229,210);fill-rule:nonzero;"/>
        </g>
        <g transform="matrix(1,0,0,1,304.389,180.269)">
            <path d="M0,16.384C-0.523,16.268 -0.927,15.815 -0.955,15.255L-1.652,1.274C-1.684,0.603 -1.168,0.03 -0.495,-0.003C0.183,-0.032 0.749,0.484 0.782,1.153L1.48,15.134C1.512,15.805 0.996,16.378 0.323,16.411C0.212,16.416 0.102,16.406 0,16.384" style="fill:rgb(84,7,53);fill-rule:nonzero;"/>
        </g>
        <g transform="matrix(1,0,0,1,310.625,305.478)">
            <path d="M0,16.381C-0.523,16.266 -0.927,15.812 -0.955,15.252L-1.65,1.272C-1.682,0.599 -1.166,0.027 -0.493,-0.006C0.188,-0.032 0.752,0.482 0.784,1.151L1.48,15.131C1.512,15.803 0.996,16.375 0.323,16.409C0.212,16.413 0.102,16.404 0,16.381" style="fill:rgb(84,7,53);fill-rule:nonzero;"/>
        </g>
        <g transform="matrix(1,0,0,1,335.828,190.068)">
            <path d="M0,14.465C-0.125,14.437 -0.249,14.389 -0.365,14.32C-0.942,13.973 -1.127,13.224 -0.781,12.648L6.426,0.648C6.77,0.072 7.519,-0.109 8.097,0.23C8.674,0.577 8.859,1.326 8.513,1.902L1.306,13.902C1.031,14.363 0.497,14.574 0,14.465" style="fill:rgb(84,7,53);fill-rule:nonzero;"/>
        </g>
        <g transform="matrix(1,0,0,1,271.282,297.534)">
            <path d="M0,14.465C-0.126,14.437 -0.249,14.389 -0.365,14.32C-0.942,13.973 -1.127,13.225 -0.781,12.648L6.426,0.648C6.77,0.072 7.521,-0.11 8.097,0.231C8.673,0.577 8.859,1.326 8.513,1.903L1.306,13.903C1.031,14.364 0.497,14.575 0,14.465" style="fill:rgb(84,7,53);fill-rule:nonzero;"/>
        </g>
        <g transform="matrix(1,0,0,1,355.618,215.428)">
            <path d="M0,9.414C-0.325,9.342 -0.622,9.138 -0.798,8.825C-1.13,8.239 -0.924,7.495 -0.337,7.164L11.845,0.268C12.43,-0.062 13.175,0.14 13.506,0.729C13.837,1.315 13.631,2.059 13.044,2.39L0.862,9.285C0.589,9.438 0.283,9.476 0,9.414" style="fill:rgb(84,7,53);fill-rule:nonzero;"/>
        </g>
        <g transform="matrix(1,0,0,1,246.516,277.172)">
            <path d="M0,9.413C-0.326,9.341 -0.621,9.136 -0.798,8.822C-1.13,8.238 -0.924,7.494 -0.337,7.162L11.845,0.269C12.43,-0.062 13.172,0.141 13.505,0.73C13.837,1.315 13.631,2.059 13.044,2.39L0.862,9.284C0.589,9.437 0.283,9.475 0,9.413" style="fill:rgb(84,7,53);fill-rule:nonzero;"/>
        </g>
        <g transform="matrix(1,0,0,1,362.77,246.4)">
            <path d="M0,3.095C-0.523,2.98 -0.927,2.526 -0.955,1.966C-0.987,1.295 -0.47,0.721 0.202,0.688L14.185,-0.008C14.865,-0.032 15.43,0.479 15.462,1.149C15.494,1.82 14.978,2.394 14.306,2.427L0.323,3.122C0.212,3.127 0.102,3.118 0,3.095" style="fill:rgb(84,7,53);fill-rule:nonzero;"/>
        </g>
        <g transform="matrix(1,0,0,1,237.566,252.633)">
            <path d="M0,3.1C-0.523,2.985 -0.927,2.531 -0.955,1.971C-0.987,1.3 -0.471,0.726 0.202,0.693L14.182,-0.003C14.861,-0.032 15.427,0.483 15.46,1.154C15.492,1.825 14.976,2.398 14.303,2.431L0.323,3.127C0.212,3.132 0.102,3.122 0,3.1" style="fill:rgb(84,7,53);fill-rule:nonzero;"/>
        </g>
        <g transform="matrix(1,0,0,1,368.641,275.998)">
            <path d="M0,9.058C-0.105,9.035 -0.211,8.997 -0.311,8.943L-12.662,2.356C-13.255,2.04 -13.48,1.302 -13.164,0.707C-12.848,0.115 -12.115,-0.115 -11.515,0.206L0.836,6.794C1.429,7.109 1.654,7.847 1.337,8.442C1.075,8.935 0.521,9.173 0,9.058" style="fill:rgb(84,7,53);fill-rule:nonzero;"/>
        </g>
        <g transform="matrix(1,0,0,1,258.027,217.005)">
            <path d="M0,9.058C-0.105,9.035 -0.211,8.997 -0.311,8.943L-12.662,2.355C-13.255,2.04 -13.48,1.302 -13.164,0.707C-12.848,0.115 -12.113,-0.115 -11.516,0.206L0.836,6.793C1.429,7.109 1.654,7.847 1.337,8.442C1.075,8.934 0.521,9.173 0,9.058" style="fill:rgb(84,7,53);fill-rule:nonzero;"/>
        </g>
        <g transform="matrix(1,0,0,1,343.681,297.173)">
            <path d="M0,14.434C-0.311,14.365 -0.596,14.176 -0.775,13.883L-8.112,1.962C-8.466,1.39 -8.285,0.639 -7.713,0.286C-7.138,-0.065 -6.388,0.114 -6.036,0.685L1.3,12.605C1.654,13.178 1.474,13.929 0.901,14.282C0.622,14.454 0.297,14.499 0,14.434" style="fill:rgb(84,7,53);fill-rule:nonzero;"/>
        </g>
        <g transform="matrix(1,0,0,1,277.974,190.411)">
            <path d="M0,14.436C-0.311,14.367 -0.596,14.178 -0.775,13.885L-8.114,1.963C-8.468,1.39 -8.287,0.639 -7.715,0.286C-7.143,-0.065 -6.39,0.113 -6.039,0.686L1.3,12.607C1.654,13.18 1.474,13.931 0.901,14.284C0.622,14.456 0.297,14.501 0,14.436" style="fill:rgb(84,7,53);fill-rule:nonzero;"/>
        </g>
        <g transform="matrix(-0.787564,0.616233,0.616233,0.787564,321.619,256.114)">
            <path d="M3.55,-10.297C0.369,-10.298 -2.21,-7.718 -2.21,-4.536C-2.21,-1.355 0.368,1.225 3.55,1.225C6.732,1.224 9.31,-1.355 9.311,-4.536C9.31,-7.718 6.732,-10.297 3.55,-10.297" style="fill:rgb(84,7,53);fill-rule:nonzero;"/>
        </g>
        <g transform="matrix(1,0,0,1,315.874,288.752)">
            <path d="M0,-34.295C0,-34.295 7.535,-14.854 -11.937,0C-11.937,0 -16.74,-18.892 0,-34.295" style="fill:rgb(84,7,53);fill-rule:nonzero;"/>
        </g>
        <g transform="matrix(1,0,0,1,316,215.313)">
            <path d="M0,38.968C0,38.968 -23.807,31.521 -34.97,0C-34.97,0 -11.368,8.756 0,38.968" style="fill:rgb(84,7,53);fill-rule:nonzero;"/>
        </g>
        <g transform="matrix(1,0,0,1,409.118,401.358)">
            <path d="M0,-60.834C-0.146,-60.614 -0.33,-60.394 -0.513,-60.174C-0.751,-59.918 -0.989,-59.68 -1.264,-59.441C-1.557,-59.166 -1.887,-58.91 -2.235,-58.653C-27.65,-40.587 -93.028,5.772 -99.808,9.547C-103.253,11.471 -110.344,12.753 -120.55,13.34C-133.377,14.091 -151.15,13.743 -172.809,12.148C-175.851,11.929 -178.947,11.69 -182.135,11.416C-203.776,9.565 -233.331,9.656 -257.793,10.206L-257.922,10.206C-261.531,10.298 -265.049,10.389 -268.384,10.481C-268.384,10.316 -268.384,10.133 -268.403,9.968C-268.421,-6.322 -268.604,-30.692 -268.751,-57.517C-245.993,-62.3 -214.073,-68.365 -191.499,-69.996C-184.811,-70.472 -178.343,-70.124 -172.186,-69.226C-170.317,-68.951 -168.448,-68.621 -166.634,-68.237C-166.579,-68.237 -166.524,-68.218 -166.469,-68.2C-164.563,-67.815 -162.694,-67.357 -160.862,-66.862C-155.511,-65.451 -150.509,-63.711 -145.965,-61.842C-134.11,-57.004 -125.278,-51.471 -121.063,-49.345C-119.744,-48.667 -118.883,-48.337 -118.516,-48.466C-117.362,-48.85 -111.444,-48.442 -102.612,-52.216C-102.545,-52.25 -88.636,-56.109 -74.776,-61.807C-65.874,-65.467 -57.856,-71.216 -50.683,-72.799C-49.235,-73.111 -47.806,-73.404 -46.395,-73.642C-46.01,-73.697 -45.625,-73.77 -45.241,-73.825C-43.518,-74.1 -41.814,-74.302 -40.128,-74.448C-35.309,-74.906 -30.71,-74.925 -26.404,-74.65C-21.677,-74.338 -17.297,-73.66 -13.358,-72.781C-10.096,-72.066 -7.146,-71.205 -4.544,-70.326C-4.086,-70.161 -3.628,-69.996 -3.188,-69.831C-3.115,-69.813 -3.042,-69.776 -2.968,-69.757C-2.858,-69.721 -2.767,-69.684 -2.657,-69.611C1.557,-67.907 2.327,-64.041 0,-60.834" style="fill:white;fill-rule:nonzero;"/>
        </g>
        <g transform="matrix(1,0,0,1,377.355,339.367)">
            <path d="M0,21.724C0.024,14.486 4.745,7.748 11.054,4.199C17.363,0.65 25.003,0 32.14,1.205C21.7,8.118 10.682,15.192 0,21.724" style="fill:rgb(255,229,210);fill-rule:nonzero;"/>
        </g>
        <g transform="matrix(1,0,0,1,221.828,390.742)">
            <path d="M0,-62.341C0,-62.341 50.214,-53.296 68.616,-36.766C68.616,-36.766 89.72,-43.801 114.151,-51.737C121.524,-54.131 129.088,-60.92 136.607,-62.185C159.997,-66.121 175.602,-62.678 185.411,-58.697C189.511,-57.033 190.017,-51.43 186.311,-49.012C173.785,-40.842 149.624,-25.109 136.607,-16.805C118.518,-5.265 103.236,3.78 103.236,3.78" style="fill:none;fill-rule:nonzero;stroke:rgb(84,7,53);stroke-width:1px;"/>
        </g>
        <g transform="matrix(1,0,0,1,109.805,77.8558)">
            <path d="M0,107.747C-26.45,85.648 -4.39,80.474 4.615,88.894C13.62,97.314 28.694,96.506 23.74,87.959C18.785,79.411 -13.35,84.716 -24.144,73.209C-34.938,61.703 -32.97,49.776 -19.88,52.657C-6.791,55.537 2.603,66.27 10.376,62.715C18.149,59.161 -9.482,49.801 -22.334,46.783C-35.185,43.765 -50.48,31.06 -46.237,18.133C-41.994,5.205 -23.138,15.845 -17.196,24.455C-11.253,33.064 -0.088,38.646 0.659,32.82C1.406,26.995 -18.424,18.505 -23.268,5.77C-28.113,-6.965 -14.046,-22.098 0.237,-7.855C14.52,6.387 18.845,28.623 20.286,36.034C21.728,43.446 26.628,43.144 26.962,36.606C27.296,30.068 19.097,8.81 30.332,3.566C41.566,-1.678 57.277,17.764 46.875,36.483C36.472,55.201 47.298,55.27 48.333,52.132C49.369,48.994 50.691,20.63 65.494,25.372C80.297,30.114 70.046,51.283 61.051,60.938C52.056,70.593 58.046,76.002 60.72,73.501C63.394,70.999 65.979,43.172 80.72,48.902C95.461,54.631 77.655,114.755 77.655,114.755C77.655,114.755 26.45,129.845 0,107.747" style="fill:rgb(179,184,138);fill-rule:nonzero;"/>
        </g>
        <g transform="matrix(1,0,0,1,188.632,94.1169)">
            <path d="M0,98.617C0.168,98.188 -0.021,97.696 -0.443,97.494C-13.41,91.281 -45.713,60.119 -50.654,44.917C-55.595,29.717 -73.109,0.167 -73.285,-0.13C-73.535,-0.551 -74.08,-0.69 -74.502,-0.439C-74.924,-0.19 -75.063,0.355 -74.812,0.778C-74.636,1.073 -57.223,30.454 -52.344,45.466C-47.297,60.993 -14.405,92.774 -1.211,99.095C-0.769,99.307 -0.239,99.12 -0.027,98.678C-0.017,98.658 -0.008,98.638 0,98.617" style="fill:rgb(56,10,5);fill-rule:nonzero;"/>
        </g>
        <g transform="matrix(1,0,0,1,140.126,123.321)">
            <path d="M0,21.541C0.112,21.254 0.072,20.916 -0.136,20.659L-16.985,-0.234C-17.293,-0.615 -17.853,-0.675 -18.234,-0.367C-18.616,-0.058 -18.676,0.5 -18.368,0.882L-1.518,21.774C-1.21,22.156 -0.651,22.216 -0.269,21.908C-0.144,21.808 -0.054,21.68 0,21.541" style="fill:rgb(56,10,5);fill-rule:nonzero;"/>
        </g>
        <g transform="matrix(1,0,0,1,154.381,130.935)">
            <path d="M0,32.363C0.09,32.134 0.084,31.869 -0.038,31.633C-10.016,12.247 -7.34,0.617 -7.311,0.502C-7.194,0.027 -7.485,-0.454 -7.96,-0.572C-8.435,-0.69 -8.911,-0.405 -9.035,0.074C-9.158,0.568 -11.936,12.398 -1.617,32.445C-1.392,32.881 -0.857,33.053 -0.421,32.829C-0.22,32.726 -0.076,32.557 0,32.363" style="fill:rgb(56,10,5);fill-rule:nonzero;"/>
        </g>
        <g transform="matrix(1,0,0,1,151.44,153.594)">
            <path d="M0,6.868C0.152,6.479 0.012,6.024 -0.355,5.793C-10.672,-0.69 -24.066,-0.144 -24.632,-0.118C-25.121,-0.096 -25.501,0.319 -25.477,0.81C-25.455,1.3 -25.039,1.679 -24.549,1.657C-24.416,1.65 -11.137,1.117 -1.299,7.298C-0.885,7.558 -0.337,7.433 -0.075,7.018C-0.045,6.97 -0.02,6.919 0,6.868" style="fill:rgb(56,10,5);fill-rule:nonzero;"/>
        </g>
        <g transform="matrix(1,0,0,1,174.684,152.022)">
            <path d="M0,30.638C0.128,30.31 0.054,29.923 -0.219,29.667C-6.372,23.889 -13.071,0.326 -13.137,0.088C-13.271,-0.384 -13.761,-0.659 -14.233,-0.526C-14.705,-0.393 -14.979,0.097 -14.847,0.57C-14.568,1.559 -7.946,24.848 -1.435,30.961C-1.077,31.297 -0.515,31.28 -0.179,30.922C-0.099,30.837 -0.04,30.74 0,30.638" style="fill:rgb(56,10,5);fill-rule:nonzero;"/>
        </g>
        <g transform="matrix(1,0,0,1,176.577,177.904)">
            <path d="M0,6.901C0.156,6.502 0.005,6.039 -0.375,5.814C-11.978,-1.05 -28.714,5.827 -29.421,6.123C-29.873,6.313 -30.087,6.833 -29.897,7.286C-29.708,7.738 -29.187,7.951 -28.735,7.762C-28.57,7.693 -12.109,0.935 -1.28,7.342C-0.857,7.592 -0.313,7.453 -0.063,7.031C-0.038,6.989 -0.017,6.945 0,6.901" style="fill:rgb(56,10,5);fill-rule:nonzero;"/>
        </g>
        <g transform="matrix(0.328252,0.94459,0.94459,-0.328252,234.886,152.17)">
            <path d="M-40.229,-56.569C-0.565,-62.944 40.371,-65.479 79.545,-56.569" style="fill:none;fill-rule:nonzero;stroke:rgb(255,179,77);stroke-width:0.81px;"/>
        </g>
        <g transform="matrix(1,0,0,1,157.231,100.251)">
            <path d="M0,8.889C5.621,8.81 5.405,0.025 0.043,-0.027C-5.68,-0.083 -5.947,8.972 0,8.889" style="fill:white;fill-rule:nonzero;"/>
        </g>
        <g transform="matrix(1,0,0,1,169.534,111.118)">
            <path d="M0,8.889C5.621,8.81 5.405,0.025 0.043,-0.027C-5.68,-0.083 -5.947,8.972 0,8.889" style="fill:white;fill-rule:nonzero;"/>
        </g>
        <g transform="matrix(1,0,0,1,173.353,119.993)">
            <path d="M0,8.889C5.621,8.81 5.405,0.025 0.043,-0.027C-5.68,-0.083 -5.947,8.972 0,8.889" style="fill:white;fill-rule:nonzero;"/>
        </g>
        <g transform="matrix(1,0,0,1,174.867,130.167)">
            <path d="M0,8.889C5.621,8.81 5.405,0.025 0.043,-0.027C-5.68,-0.083 -5.947,8.972 0,8.889" style="fill:white;fill-rule:nonzero;"/>
        </g>
        <g transform="matrix(1,0,0,1,166.531,102.107)">
            <path d="M0,8.889C5.621,8.81 5.405,0.025 0.044,-0.027C-5.68,-0.083 -5.947,8.972 0,8.889" style="fill:white;fill-rule:nonzero;"/>
        </g>
        <g transform="matrix(1,0,0,1,156.437,118.708)">
            <path d="M0,8.889C5.621,8.81 5.405,0.025 0.043,-0.027C-5.68,-0.083 -5.947,8.972 0,8.889" style="fill:white;fill-rule:nonzero;"/>
        </g>
        <g transform="matrix(1,0,0,1,157.097,127.519)">
            <path d="M0,8.889C5.621,8.81 5.405,0.025 0.043,-0.027C-5.68,-0.083 -5.947,8.972 0,8.889" style="fill:white;fill-rule:nonzero;"/>
        </g>
        <g transform="matrix(1,0,0,1,162.355,136.061)">
            <path d="M0,8.889C5.621,8.81 5.405,0.025 0.043,-0.027C-5.68,-0.083 -5.947,8.972 0,8.889" style="fill:white;fill-rule:nonzero;"/>
        </g>
        <g transform="matrix(1,0,0,1,152.562,109.086)">
            <path d="M0,8.889C5.621,8.81 5.405,0.025 0.043,-0.027C-5.68,-0.083 -5.947,8.972 0,8.889" style="fill:white;fill-rule:nonzero;"/>
        </g>
        <g transform="matrix(1,0,0,1,160.76,110.274)">
            <path d="M0,8.889C5.621,8.81 5.405,0.025 0.043,-0.027C-5.68,-0.083 -5.947,8.972 0,8.889" style="fill:white;fill-rule:nonzero;"/>
        </g>
        <g transform="matrix(1,0,0,1,164.191,117.977)">
            <path d="M0,8.889C5.621,8.81 5.405,0.025 0.043,-0.027C-5.68,-0.083 -5.947,8.972 0,8.889" style="fill:white;fill-rule:nonzero;"/>
        </g>
        <g transform="matrix(1,0,0,1,166.441,127.457)">
            <path d="M0,8.889C5.621,8.81 5.405,0.025 0.043,-0.027C-5.68,-0.083 -5.947,8.972 0,8.889" style="fill:white;fill-rule:nonzero;"/>
        </g>
        <g transform="matrix(1,0,0,1,170.487,139.356)">
            <path d="M0,8.889C5.621,8.81 5.405,0.025 0.043,-0.027C-5.68,-0.083 -5.947,8.972 0,8.889" style="fill:white;fill-rule:nonzero;"/>
        </g>
        <g transform="matrix(0.0939137,-0.99558,-0.99558,-0.0939137,234.125,190.822)">
            <path d="M-36.369,35.496C-11.724,42.326 14.777,42.326 39.424,35.496" style="fill:none;fill-rule:nonzero;stroke:rgb(255,179,77);stroke-width:0.81px;"/>
        </g>
        <g transform="matrix(1,0,0,1,202.379,131.464)">
            <path d="M0,7.779C4.852,10.617 9.209,2.985 4.646,0.168C-0.225,-2.838 -5.134,4.777 0,7.779" style="fill:white;fill-rule:nonzero;"/>
        </g>
        <g transform="matrix(1,0,0,1,207.295,147.126)">
            <path d="M0,7.779C4.852,10.617 9.209,2.985 4.646,0.168C-0.225,-2.838 -5.134,4.776 0,7.779" style="fill:white;fill-rule:nonzero;"/>
        </g>
        <g transform="matrix(1,0,0,1,205.977,156.698)">
            <path d="M0,7.779C4.853,10.617 9.209,2.985 4.646,0.168C-0.225,-2.838 -5.134,4.776 0,7.779" style="fill:white;fill-rule:nonzero;"/>
        </g>
        <g transform="matrix(1,0,0,1,202.014,166.19)">
            <path d="M0,7.779C4.852,10.617 9.209,2.985 4.646,0.168C-0.225,-2.838 -5.134,4.777 0,7.779" style="fill:white;fill-rule:nonzero;"/>
        </g>
        <g transform="matrix(1,0,0,1,209.382,137.86)">
            <path d="M0,7.779C4.852,10.617 9.209,2.985 4.646,0.168C-0.225,-2.838 -5.134,4.776 0,7.779" style="fill:white;fill-rule:nonzero;"/>
        </g>
        <g transform="matrix(1,0,0,1,192.159,146.854)">
            <path d="M0,7.779C4.852,10.617 9.209,2.985 4.646,0.168C-0.225,-2.838 -5.134,4.777 0,7.779" style="fill:white;fill-rule:nonzero;"/>
        </g>
        <g transform="matrix(1,0,0,1,188.17,154.738)">
            <path d="M0,7.779C4.852,10.617 9.209,2.985 4.646,0.168C-0.225,-2.838 -5.134,4.777 0,7.779" style="fill:white;fill-rule:nonzero;"/>
        </g>
        <g transform="matrix(1,0,0,1,188.257,164.768)">
            <path d="M0,7.779C4.852,10.617 9.209,2.985 4.646,0.169C-0.225,-2.838 -5.134,4.777 0,7.779" style="fill:white;fill-rule:nonzero;"/>
        </g>
        <g transform="matrix(1,0,0,1,193.815,136.614)">
            <path d="M0,7.779C4.852,10.617 9.209,2.985 4.646,0.168C-0.225,-2.838 -5.134,4.777 0,7.779" style="fill:white;fill-rule:nonzero;"/>
        </g>
        <g transform="matrix(1,0,0,1,200.22,141.869)">
            <path d="M0,7.779C4.853,10.617 9.209,2.985 4.646,0.168C-0.225,-2.838 -5.134,4.777 0,7.779" style="fill:white;fill-rule:nonzero;"/>
        </g>
        <g transform="matrix(1,0,0,1,199.176,150.236)">
            <path d="M0,7.779C4.852,10.617 9.209,2.985 4.646,0.168C-0.225,-2.838 -5.134,4.777 0,7.779" style="fill:white;fill-rule:nonzero;"/>
        </g>
        <g transform="matrix(1,0,0,1,196.202,159.515)">
            <path d="M0,7.779C4.852,10.617 9.209,2.985 4.646,0.168C-0.225,-2.838 -5.134,4.776 0,7.779" style="fill:white;fill-rule:nonzero;"/>
        </g>
        <g transform="matrix(1,0,0,1,193.515,171.792)">
            <path d="M0,7.779C4.853,10.617 9.209,2.985 4.646,0.168C-0.225,-2.838 -5.134,4.777 0,7.779" style="fill:white;fill-rule:nonzero;"/>
        </g>
        <g transform="matrix(1,0,0,1,100.812,436.689)">
            <path d="M0,-89.303C-16.474,-60.808 5.009,-63.403 10.323,-73.908C15.637,-84.414 29.422,-88.634 27.782,-79.343C26.142,-70.051 -4.419,-64.268 -10.325,-50.408C-16.232,-36.547 -10.554,-26.496 0.241,-33.373C11.035,-40.25 15.939,-52.957 24.077,-52.319C32.214,-51.681 10.503,-34.223 -0.033,-27.3C-10.57,-20.378 -20.12,-3.967 -12.074,6.236C-4.028,16.439 9.394,0.711 11.899,-8.96C14.404,-18.631 22.588,-27.299 25.169,-22.32C27.749,-17.34 12.749,-3.221 12.581,9.789C12.414,22.8 29.994,31.758 38.132,14.3C46.271,-3.159 42.856,-24.52 41.717,-31.641C40.579,-38.761 45.073,-40.097 47.517,-34.343C49.961,-28.589 49.58,-6.833 61.377,-5.815C73.173,-4.798 80.886,-27.388 65.417,-40.764C49.947,-54.14 59.633,-57.753 61.591,-55.278C63.55,-52.803 74.039,-27.798 85.76,-36.907C97.481,-46.015 81.343,-61.638 70.109,-67.347C58.874,-73.056 62.473,-79.872 65.691,-78.506C68.91,-77.139 80.356,-53.03 91.697,-63.004C103.038,-72.978 67.348,-121.061 67.348,-121.061C67.348,-121.061 16.474,-117.799 0,-89.303" style="fill:rgb(179,184,138);fill-rule:nonzero;"/>
        </g>
        <g transform="matrix(1,0,0,1,169.17,428.125)">
            <path d="M0,-112.992C0.291,-112.662 0.283,-112.159 -0.029,-111.839C-9.621,-102.014 -28.371,-63.469 -27.816,-48.215C-27.261,-32.962 -33.276,-0.714 -33.337,-0.39C-33.423,0.07 -33.866,0.373 -34.327,0.287C-34.787,0.201 -35.09,-0.242 -35.003,-0.704C-34.943,-1.025 -28.963,-33.089 -29.512,-48.152C-30.078,-63.734 -11.003,-103.027 -1.243,-113.023C-0.916,-113.359 -0.379,-113.365 -0.044,-113.038C-0.029,-113.023 -0.014,-113.008 0,-112.992" style="fill:rgb(56,10,5);fill-rule:nonzero;"/>
        </g>
        <g transform="matrix(1,0,0,1,141.369,399.368)">
            <path d="M0,-25.389C0.195,-25.168 0.27,-24.853 0.168,-24.554L-8.091,-0.289C-8.242,0.155 -8.724,0.392 -9.167,0.241C-9.611,0.089 -9.849,-0.392 -9.697,-0.835L-1.438,-25.1C-1.287,-25.544 -0.805,-25.781 -0.362,-25.63C-0.217,-25.581 -0.094,-25.496 0,-25.389" style="fill:rgb(56,10,5);fill-rule:nonzero;"/>
        </g>
        <g transform="matrix(1,0,0,1,148.106,384.841)">
            <path d="M0,-32.073C0.156,-31.897 0.238,-31.657 0.206,-31.406C-2.385,-10.746 3.831,-1.194 3.894,-1.1C4.155,-0.712 4.052,-0.185 3.664,0.077C3.277,0.338 2.757,0.239 2.488,-0.15C2.216,-0.552 -4.156,-10.252 -1.477,-31.617C-1.419,-32.081 -0.995,-32.411 -0.53,-32.353C-0.316,-32.326 -0.132,-32.222 0,-32.073" style="fill:rgb(56,10,5);fill-rule:nonzero;"/>
        </g>
        <g transform="matrix(1,0,0,1,146.399,370.367)">
            <path d="M0,-14.09C0.264,-13.791 0.288,-13.337 0.034,-13.009C-7.092,-3.811 -19.284,0.093 -19.8,0.255C-20.246,0.396 -20.723,0.149 -20.863,-0.3C-21.003,-0.747 -20.755,-1.223 -20.308,-1.363C-20.187,-1.401 -8.102,-5.279 -1.306,-14.049C-1.02,-14.419 -0.487,-14.486 -0.117,-14.2C-0.074,-14.166 -0.035,-14.129 0,-14.09" style="fill:rgb(56,10,5);fill-rule:nonzero;"/>
        </g>
        <g transform="matrix(1,0,0,1,159.965,360.991)">
            <path d="M0,-32.248C0.223,-31.996 0.283,-31.624 0.122,-31.305C-3.501,-24.105 -1.78,-0.774 -1.761,-0.54C-1.726,-0.072 -2.076,0.335 -2.544,0.37C-3.01,0.406 -3.417,0.056 -3.453,-0.411C-3.527,-1.389 -5.227,-24.449 -1.393,-32.067C-1.182,-32.486 -0.673,-32.654 -0.254,-32.444C-0.154,-32.394 -0.069,-32.327 0,-32.248" style="fill:rgb(56,10,5);fill-rule:nonzero;"/>
        </g>
        <g transform="matrix(1,0,0,1,160.959,336.866)">
            <path d="M0,-10.668C0.271,-10.362 0.287,-9.896 0.02,-9.57C-8.134,0.392 -25.401,-0.286 -26.132,-0.32C-26.599,-0.342 -26.961,-0.738 -26.939,-1.206C-26.918,-1.674 -26.522,-2.036 -26.054,-2.014C-25.883,-2.007 -8.903,-1.346 -1.293,-10.644C-0.996,-11.007 -0.461,-11.06 -0.099,-10.764C-0.063,-10.734 -0.03,-10.702 0,-10.668" style="fill:rgb(56,10,5);fill-rule:nonzero;"/>
        </g>
        <g transform="matrix(0.262378,-0.964965,-0.964965,-0.262378,98.9011,216.613)">
            <path d="M-40.3,-12.564C-43.95,-8.25 -45.332,-2.34 -44.978,3.301C-44.625,8.94 -42.679,14.365 -40.3,19.489C-34.245,32.537 -25.23,44.201 -14.13,53.348C-9.035,27.928 -18.933,2.12 -40.3,-12.564" style="fill:rgb(157,216,242);fill-rule:nonzero;"/>
        </g>
        <g transform="matrix(0.750267,0.661135,0.661135,-0.750267,82.937,215.786)">
            <path d="M-9.123,-24.151C15.042,-20.439 39.774,-20.439 63.938,-24.151" style="fill:none;fill-rule:nonzero;stroke:rgb(79,31,55);stroke-width:1px;"/>
        </g>
        <g transform="matrix(-0.9432,-0.332224,-0.332224,0.9432,51.0692,403.585)">
            <path d="M-34.423,-59.359C-38.073,-55.046 -39.455,-49.135 -39.102,-43.495C-38.749,-37.856 -36.803,-32.431 -34.423,-27.306C-28.369,-14.258 -19.354,-2.595 -8.254,6.553C-3.159,-18.868 -13.056,-44.676 -34.423,-59.359" style="fill:rgb(157,216,242);fill-rule:nonzero;"/>
        </g>
        <g transform="matrix(0.714222,-0.699919,-0.699919,-0.714222,94.8216,407.946)">
            <path d="M-10.44,25.569C13.725,29.281 38.456,29.281 62.622,25.569" style="fill:none;fill-rule:nonzero;stroke:rgb(79,31,55);stroke-width:1px;"/>
        </g>
        <g transform="matrix(-0.558639,-0.829411,-0.829411,0.558639,46.6548,253.673)">
            <path d="M-49.58,-37.036C-53.229,-32.722 -54.611,-26.811 -54.259,-21.172C-53.905,-15.533 -51.958,-10.108 -49.58,-4.983C-43.524,8.065 -34.509,19.728 -23.408,28.875C-18.314,3.455 -28.212,-22.353 -49.58,-37.036" style="fill:rgb(157,216,242);fill-rule:nonzero;"/>
        </g>
        <g transform="matrix(0.990783,-0.135461,-0.135461,-0.990783,56.3383,289.257)">
            <path d="M-0.364,4.95C23.801,8.663 48.532,8.663 72.697,4.95" style="fill:none;fill-rule:nonzero;stroke:rgb(79,31,55);stroke-width:1px;"/>
        </g>
        <g transform="matrix(1,0,0,1,101.786,360.416)">
            <path d="M0,-16.253C-2.645,-15.054 -5.206,-13.071 -7.822,-11.61C-11.049,-9.688 -14.449,-8.145 -17.994,-6.719C-25.054,-3.603 -32.375,-0.463 -40.291,0.764C-43.539,1.236 -46.726,1.043 -50.146,1.136C-44.815,-3.378 -39.566,-8.678 -33.118,-11.332C-29.952,-12.588 -26.299,-12.97 -22.933,-13.587C-19.569,-14.203 -16.35,-14.937 -12.956,-15.291C-7.999,-15.812 -3.213,-16.709 1.717,-17.489" style="fill:rgb(157,216,242);fill-rule:nonzero;"/>
        </g>
        <g transform="matrix(1,0,0,1,53.1342,343.481)">
            <path d="M0,17.504C0.517,17.499 1.028,17.498 1.537,17.497C3.858,17.491 6.05,17.487 8.283,17.163C15.827,15.993 22.78,13.101 30.438,9.72C34.603,8.045 37.718,6.548 40.553,4.86C41.596,4.277 42.643,3.603 43.655,2.952C45.078,2.036 46.546,1.091 48.035,0.372C47.576,0.448 47.119,0.524 46.661,0.6C43.113,1.187 39.445,1.794 35.751,2.183C33.264,2.442 30.91,2.9 28.42,3.385C27.558,3.552 26.692,3.721 25.816,3.881C25.045,4.023 24.259,4.151 23.467,4.281C20.841,4.712 18.123,5.158 15.733,6.107C10.588,8.224 6.158,12.11 1.873,15.868C1.247,16.417 0.624,16.964 0,17.504M50.71,-0.975C50.81,-0.893 50.883,-0.776 50.905,-0.639C50.951,-0.343 50.749,-0.066 50.454,-0.018C49.948,0.061 49.444,0.142 48.941,0.224C49.027,0.28 49.1,0.358 49.145,0.458C49.268,0.731 49.147,1.051 48.875,1.175C47.323,1.879 45.756,2.887 44.24,3.863C43.215,4.523 42.154,5.206 41.093,5.798C38.221,7.509 35.061,9.029 30.86,10.719C23.146,14.123 16.124,17.044 8.443,18.234C6.13,18.57 3.9,18.575 1.539,18.581C0.549,18.583 -0.455,18.584 -1.48,18.613C-1.708,18.618 -1.918,18.478 -2.001,18.264C-2.083,18.049 -2.02,17.806 -1.844,17.658C-0.843,16.81 0.155,15.935 1.159,15.054C5.51,11.238 10.01,7.291 15.327,5.103C17.832,4.109 20.609,3.653 23.292,3.212C24.077,3.083 24.856,2.956 25.62,2.815C26.493,2.656 27.355,2.488 28.213,2.321C30.617,1.854 33.103,1.37 35.639,1.106C39.3,0.721 42.952,0.115 46.484,-0.469C47.745,-0.677 49.01,-0.888 50.284,-1.09C50.443,-1.114 50.595,-1.068 50.71,-0.975" style="fill:rgb(157,216,242);fill-rule:nonzero;"/>
        </g>
        <g transform="matrix(1,0,0,1,90.8836,355.763)">
            <path d="M0,-7.282C0.094,-7.206 0.163,-7.098 0.189,-6.971C0.25,-6.678 0.062,-6.392 -0.231,-6.331C-2.328,-5.896 -4.429,-5.506 -6.538,-5.114C-9.58,-4.547 -12.725,-3.963 -15.854,-3.244C-17.763,-2.783 -19.704,-2.179 -21.582,-1.594C-23.472,-1.005 -25.427,-0.397 -27.371,0.072C-27.663,0.144 -27.955,-0.037 -28.025,-0.327C-28.096,-0.618 -27.916,-0.911 -27.626,-0.981C-25.715,-1.442 -23.777,-2.045 -21.904,-2.628C-20.01,-3.218 -18.051,-3.828 -16.103,-4.298C-12.946,-5.024 -9.789,-5.611 -6.736,-6.179C-4.634,-6.57 -2.54,-6.959 -0.451,-7.391C-0.285,-7.426 -0.122,-7.381 0,-7.282" style="fill:rgb(56,10,5);fill-rule:nonzero;"/>
        </g>
        <g transform="matrix(1,0,0,1,194.216,224.969)">
            <path d="M0,43.334C0.046,43.561 -0.071,43.796 -0.29,43.891C-0.544,44.001 -0.838,43.885 -0.949,43.633C-10.389,21.94 -31.602,12.243 -45.64,5.825C-50.113,3.781 -53.975,2.016 -56.425,0.311C-56.652,0.154 -56.707,-0.158 -56.549,-0.385C-56.391,-0.611 -56.08,-0.667 -55.853,-0.509C-53.477,1.143 -49.653,2.891 -45.224,4.916C-31.048,11.396 -9.626,21.189 -0.031,43.233C-0.017,43.267 -0.007,43.301 0,43.334" style="fill:rgb(56,10,5);fill-rule:nonzero;"/>
        </g>
        <g transform="matrix(1,0,0,1,92.2102,165.919)">
            <path d="M0,45.863C-15.821,37.97 -21.743,17.06 5.459,27.827C2.565,19.442 11.232,18.325 11.232,18.325C3.406,3.439 11.758,-6.212 20.185,7.538C22.153,-1.359 30.33,0.984 32.823,11.773C35.318,22.564 41.093,40.895 36.289,45.039C31.484,49.185 11.652,52.075 0,45.863" style="fill:rgb(190,125,255);fill-rule:nonzero;"/>
        </g>
        <g transform="matrix(1,0,0,1,122.159,221.339)">
            <path d="M0,-0.615C3.693,2.44 12.583,10.913 17.653,5.165C22.723,-0.583 10.854,-9.797 8.115,-10.662C5.377,-11.528 0,-0.615 0,-0.615" style="fill:rgb(179,184,138);fill-rule:nonzero;"/>
        </g>
        <g transform="matrix(1,0,0,1,118.967,204.062)">
            <path d="M0,9.214C0.017,9.3 0.013,9.392 -0.019,9.48C-0.111,9.74 -0.398,9.877 -0.657,9.784C-1.872,9.351 -3.097,8.629 -4.281,7.93C-4.621,7.729 -4.955,7.532 -5.28,7.348C-7.551,6.033 -9.955,4.969 -12.279,3.94C-13.939,3.211 -15.81,2.525 -18.172,1.778L-18.762,1.652C-20.087,1.368 -21.735,1.013 -22.6,0.278C-22.81,0.1 -22.836,-0.216 -22.657,-0.427C-22.479,-0.637 -22.163,-0.663 -21.953,-0.484C-21.28,0.088 -19.767,0.413 -18.552,0.674L-17.91,0.814C-15.473,1.583 -13.571,2.281 -11.882,3.022C-9.526,4.065 -7.097,5.14 -4.783,6.48C-4.457,6.665 -4.118,6.865 -3.773,7.068C-2.629,7.744 -1.447,8.441 -0.323,8.842C-0.151,8.903 -0.033,9.048 0,9.214" style="fill:rgb(56,10,5);fill-rule:nonzero;"/>
        </g>
        <g transform="matrix(1,0,0,1,128.304,183.718)">
            <path d="M0,23.653C0.048,23.891 -0.084,24.135 -0.319,24.22C-0.579,24.316 -0.866,24.181 -0.96,23.922C-1.46,22.55 -1.919,21.139 -2.364,19.775C-3.355,16.736 -4.379,13.594 -5.9,10.727C-6.469,9.587 -7.138,8.478 -7.786,7.405C-8.441,6.318 -9.118,5.195 -9.699,4.035C-9.814,3.796 -9.931,3.532 -10.055,3.251C-10.52,2.197 -11.158,0.755 -11.926,0.35C-12.17,0.221 -12.262,-0.083 -12.134,-0.326C-12.005,-0.57 -11.703,-0.663 -11.458,-0.535C-10.384,0.033 -9.694,1.594 -9.14,2.847C-9.021,3.117 -8.909,3.371 -8.801,3.596C-8.242,4.713 -7.575,5.819 -6.93,6.888C-6.273,7.978 -5.593,9.104 -5.011,10.269C-3.455,13.201 -2.418,16.386 -1.414,19.465C-0.971,20.821 -0.515,22.225 -0.021,23.58C-0.012,23.604 -0.005,23.628 0,23.653" style="fill:rgb(56,10,5);fill-rule:nonzero;"/>
        </g>
        <g transform="matrix(1,0,0,1,115.144,183.047)">
            <path d="M0,-0.135C0.178,-0.287 0.356,-0.44 0.533,-0.593C0.708,-0.581 0.882,-0.569 1.055,-0.558C1.16,-0.536 1.316,-0.398 1.366,-0.304C1.395,-0.249 1.394,0.027 1.408,-0.184C1.398,-0.031 1.355,0.047 1.249,0.115C1.317,0.07 1.391,0.034 1.465,0C1.257,0.097 1.477,0.041 1.201,0.044C0.841,0.046 0.559,-0.275 0.473,-0.592C0.411,-0.826 0.471,-0.824 0.46,-0.693C0.445,-0.506 0.523,-0.942 0.47,-0.749C0.455,-0.695 0.434,-0.643 0.413,-0.591C0.337,-0.394 0.526,-0.797 0.427,-0.609C0.383,-0.528 0.146,-0.232 0.372,-0.488C0.342,-0.453 0.306,-0.423 0.27,-0.393C0.437,-0.529 0.595,-0.565 0.807,-0.567C0.993,-0.475 1.18,-0.384 1.367,-0.291C1.466,-0.127 1.491,-0.093 1.44,-0.19C1.576,0.081 1.464,-0.163 1.449,-0.277C1.378,-0.819 0.779,-1.162 0.271,-1.06C-0.291,-0.947 -0.583,-0.423 -0.512,0.117C-0.366,1.225 0.831,1.901 1.703,1.007C2.282,0.412 2.656,-0.502 2.325,-1.305C2.107,-1.832 1.449,-2.036 0.935,-1.917C0.288,-1.767 -0.303,-1.297 -0.519,-0.665C-0.74,-0.017 -0.489,0.731 0.035,1.149C0.754,1.72 1.566,1.217 1.892,0.514C2.122,0.019 1.746,-0.593 1.271,-0.756C0.715,-0.947 0.229,-0.628 0,-0.135" style="fill:rgb(56,10,5);fill-rule:nonzero;"/>
        </g>
        <g transform="matrix(1,0,0,1,123.537,184.174)">
            <path d="M0,38.673C-19.339,35.935 -20.462,48.514 -37.834,39.047C-55.206,29.582 -42.028,24.107 -31.436,25.284C-20.843,26.462 -5.414,30.255 -5.107,28.906C-5.255,26.328 -29.565,12.5 -29.868,2.404C-30.172,-7.693 -7.303,-4.563 3.234,20.816C5.105,24.421 5.595,20.964 2.369,12.109C-0.858,3.258 -2.367,-9.51 3.592,-9.675C9.548,-9.841 14.487,10.879 10.388,27.658C9.592,32.467 4.176,39.263 0,38.673" style="fill:rgb(211,169,255);fill-rule:nonzero;"/>
        </g>
        <g transform="matrix(1,0,0,1,95.086,203.947)">
            <path d="M0,-0.64C0.317,-1.06 0.645,-1.123 0.984,-0.829C1.304,-0.548 1.081,-0.05 0.762,0.021C0.36,0.113 -0.043,-0.563 0.324,-0.823C0.48,-0.9 0.636,-0.978 0.792,-1.055C1.08,-1.069 1.275,-0.946 1.378,-0.686C1.236,-1.212 0.763,-1.582 0.201,-1.469C-0.307,-1.367 -0.726,-0.819 -0.582,-0.292C-0.25,0.929 1.147,1.401 1.976,0.327C2.729,-0.65 1.772,-1.893 0.721,-1.962C-0.45,-2.041 -1.165,-0.803 -0.711,0.212C-0.203,1.353 1.56,1.165 1.892,0.009C2.248,-1.229 0.356,-1.879 0,-0.64" style="fill:rgb(56,10,5);fill-rule:nonzero;"/>
        </g>
        <g transform="matrix(1,0,0,1,186.555,258.779)">
            <path d="M0,-38.917C-1.8,-39.447 -3.703,-39.369 -5.449,-38.68C-7.007,-38.065 -8.759,-37.86 -10.441,-37.973C-13.234,-38.162 -15.909,-39.118 -18.565,-40.002C-21.221,-40.886 -23.96,-41.715 -26.758,-41.633C-30.353,-41.528 -33.79,-39.896 -36.53,-37.565C-39.269,-35.234 -41.367,-32.237 -43.139,-29.108C-43.958,-27.663 -44.727,-26.137 -44.891,-24.485C-45.079,-22.587 -44.451,-20.702 -44.41,-18.795C-44.337,-15.397 -46.061,-11.7 -44.308,-8.789C-42.662,-6.058 -38.841,-5.627 -36.486,-3.477C-34.594,-1.75 -33.585,1.124 -31.137,1.88C-28.165,2.798 -25.119,-0.071 -22.059,0.489C-20.626,0.752 -19.407,1.743 -17.975,2.01C-16.161,2.347 -14.34,1.467 -12.842,0.391C-9.997,-1.65 -7.79,-4.437 -5.622,-7.186C-3.959,-9.295 -2.261,-11.47 -1.478,-14.039C0.121,-19.281 -2.366,-25.196 1.07,-30.143C1.478,-30.73 2.04,-31.189 2.63,-31.593C3.673,-32.31 4.173,-33.387 4.32,-34.644C4.369,-35.064 4.342,-35.493 4.237,-35.903C3.625,-38.303 1.882,-38.473 0.287,-38.841C0.197,-38.862 0.101,-38.887 0,-38.917" style="fill:rgb(255,205,117);fill-rule:nonzero;"/>
        </g>
        <g transform="matrix(1,0,0,1,187.752,264.956)">
            <path d="M0,-40.844C-0.481,-39.03 -0.353,-37.13 0.383,-35.403C1.04,-33.863 1.292,-32.116 1.224,-30.432C1.111,-27.635 0.227,-24.935 -0.586,-22.256C-1.398,-19.577 -2.153,-16.818 -1.996,-14.023C-1.795,-10.432 -0.072,-7.039 2.332,-4.364C4.735,-1.688 7.788,0.329 10.964,2.017C12.43,2.796 13.976,3.525 15.632,3.644C17.535,3.78 19.402,3.102 21.307,3.01C24.701,2.846 28.444,4.471 31.306,2.64C33.992,0.921 34.32,-2.91 36.407,-5.322C38.083,-7.259 40.928,-8.345 41.619,-10.812C42.456,-13.808 39.506,-16.777 39.984,-19.851C40.208,-21.29 41.167,-22.535 41.395,-23.974C41.683,-25.796 40.755,-27.592 39.639,-29.062C37.522,-31.85 34.676,-33.982 31.87,-36.075C29.717,-37.681 27.498,-39.32 24.909,-40.035C19.626,-41.492 13.78,-38.847 8.742,-42.149C8.144,-42.541 7.671,-43.091 7.25,-43.669C6.506,-44.693 5.416,-45.164 4.156,-45.277C3.734,-45.315 3.306,-45.276 2.9,-45.16C0.516,-44.484 0.394,-42.737 0.068,-41.133C0.05,-41.042 0.027,-40.945 0,-40.844" style="fill:rgb(255,205,117);fill-rule:nonzero;"/>
        </g>
        <g transform="matrix(1,0,0,1,191.969,181.142)">
            <path d="M0,41.659C1.826,42.092 3.722,41.912 5.428,41.13C6.951,40.432 8.69,40.133 10.375,40.156C13.174,40.194 15.897,41.006 18.597,41.746C21.296,42.486 24.075,43.167 26.865,42.935C30.449,42.637 33.795,40.823 36.405,38.349C39.015,35.874 40.949,32.769 42.551,29.549C43.291,28.062 43.977,26.497 44.052,24.839C44.138,22.933 43.409,21.085 43.266,19.182C43.011,15.794 44.535,12.009 42.627,9.197C40.837,6.558 36.998,6.333 34.532,4.312C32.55,2.689 31.388,-0.127 28.903,-0.75C25.886,-1.508 22.998,1.521 19.912,1.125C18.467,0.94 17.197,0.016 15.753,-0.174C13.923,-0.413 12.153,0.563 10.714,1.718C7.983,3.909 5.928,6.811 3.911,9.672C2.364,11.867 0.785,14.13 0.14,16.737C-1.174,22.057 1.627,27.83 -1.54,32.955C-1.915,33.563 -2.452,34.051 -3.019,34.487C-4.023,35.259 -4.464,36.36 -4.543,37.624C-4.57,38.046 -4.519,38.473 -4.393,38.876C-3.653,41.24 -1.903,41.316 -0.291,41.599C-0.2,41.615 -0.103,41.635 0,41.659" style="fill:rgb(255,205,117);fill-rule:nonzero;"/>
        </g>
        <g transform="matrix(1,0,0,1,190.962,176.433)">
            <path d="M0,42.328C0.568,40.539 0.529,38.635 -0.124,36.876C-0.707,35.305 -0.875,33.549 -0.727,31.87C-0.481,29.081 0.53,26.426 1.469,23.789C2.408,21.152 3.294,18.432 3.27,15.632C3.239,12.036 1.679,8.565 -0.595,5.778C-2.868,2.991 -5.821,0.831 -8.913,-1.006C-10.341,-1.854 -11.85,-2.655 -13.499,-2.853C-15.393,-3.08 -17.29,-2.49 -19.198,-2.489C-22.596,-2.487 -26.257,-4.288 -29.203,-2.595C-31.968,-1.006 -32.478,2.805 -34.676,5.115C-36.442,6.971 -39.337,7.92 -40.143,10.351C-41.123,13.304 -38.317,16.409 -38.941,19.457C-39.233,20.885 -40.25,22.082 -40.546,23.509C-40.921,25.315 -40.078,27.154 -39.034,28.674C-37.052,31.561 -34.311,33.825 -31.607,36.05C-29.533,37.756 -27.395,39.499 -24.842,40.335C-19.634,42.042 -13.67,39.678 -8.794,43.216C-8.216,43.636 -7.769,44.207 -7.376,44.806C-6.682,45.864 -5.616,46.385 -4.361,46.559C-3.943,46.616 -3.513,46.598 -3.101,46.501C-0.689,45.94 -0.483,44.2 -0.082,42.614C-0.059,42.524 -0.032,42.428 0,42.328" style="fill:rgb(255,205,117);fill-rule:nonzero;"/>
        </g>
        <g transform="matrix(-0.799626,0.600498,0.600498,0.799626,193.348,222.184)">
            <path d="M2.026,-6.074C0.162,-6.074 -1.348,-4.563 -1.349,-2.699C-1.348,-0.835 0.163,0.676 2.026,0.675C3.891,0.676 5.401,-0.835 5.401,-2.699C5.401,-4.563 3.89,-6.074 2.026,-6.074" style="fill:rgb(90,25,53);fill-rule:nonzero;"/>
        </g>
        <g transform="matrix(1,0,0,1,173.771,283.885)">
            <path d="M0,-27.575C0.263,-31.431 0.56,-35.412 2.347,-38.839C5.84,-45.537 14.576,-48.363 21.902,-46.521C29.229,-44.678 35.119,-39.03 39.01,-32.555C41.164,-28.969 42.846,-24.887 42.508,-20.718C42.097,-15.642 38.799,-11.301 35.395,-7.512C30.308,-1.849 24.672,3.32 18.597,7.906C15.377,10.337 3.342,20.788 -0.988,19.071C-6.771,16.778 -0.457,-20.885 0,-27.575" style="fill:rgb(255,174,188);fill-rule:nonzero;"/>
        </g>
        <g transform="matrix(1,0,0,1,163.51,288.147)">
            <path d="M0,-26.019C-1.363,-30.089 -3.728,-34.675 -8.186,-37.019C-13.311,-39.713 -18.74,-38.113 -22.074,-35.432C-25.408,-32.751 -27.71,-29.07 -31.853,-27.242C-34.75,-25.964 -38.348,-25.691 -41.433,-24.662C-44.519,-23.633 -47.225,-21.494 -46.873,-18.287C-46.482,-14.723 -42.594,-11.357 -38.929,-8.738C-31.971,-3.765 -24.482,0.542 -16.743,4.061C-12.63,5.931 3.483,13.694 6.925,11.936C9.5,10.62 4.683,-2.498 4.172,-5.692C3.092,-12.432 2.294,-19.168 0,-26.019" style="fill:rgb(255,174,188);fill-rule:nonzero;"/>
        </g>
        <g transform="matrix(1,0,0,1,157.414,318.002)">
            <path d="M0,30.185C0.028,34.033 0.549,37.988 2.401,41.137C4.252,44.287 7.678,46.445 11.063,45.657C13.065,45.191 14.813,43.799 16.67,42.792C20.104,40.928 23.931,40.377 27.533,39.021C31.135,37.664 34.797,35.127 36.058,31.1C37.326,27.052 35.831,22.765 34.322,18.962C32.116,13.404 20.965,-16.26 13.662,-12.879C10.152,-11.254 6.441,1.812 5.107,5.335C2.107,13.26 -0.062,21.647 0,30.185" style="fill:rgb(255,174,188);fill-rule:nonzero;"/>
        </g>
        <g transform="matrix(1,0,0,1,117.504,337.127)">
            <path d="M0,-31.951C-4.217,-30.078 -8.317,-27.611 -10.894,-24.067C-13.471,-20.523 -14.203,-15.723 -11.716,-12.377C-10.245,-10.398 -7.878,-9.143 -5.88,-7.584C-2.186,-4.699 0.252,-0.755 3.468,2.556C6.685,5.867 11.229,8.68 16.261,8.138C21.319,7.594 25.317,3.897 28.777,0.416C33.832,-4.671 61.112,-31.137 53.897,-37.549C50.43,-40.631 34.284,-38.455 29.771,-38.234C19.621,-37.739 9.36,-36.108 0,-31.951" style="fill:rgb(255,174,188);fill-rule:nonzero;"/>
        </g>
        <g transform="matrix(1,0,0,1,227.835,331.822)">
            <path d="M0,-29.45C4.057,-27.994 8.717,-25.186 8.831,-20.349C8.967,-14.623 2.649,-11.389 1.198,-5.898C0.632,-3.756 0.851,-1.376 0.015,0.65C-0.979,3.056 -3.318,4.465 -5.64,4.771C-7.962,5.077 -10.294,4.451 -12.544,3.742C-20.801,1.14 -28.771,-2.702 -36.077,-7.786C-40.023,-10.532 -55.634,-21.074 -54.882,-27.316C-54.021,-34.47 -34.178,-34.254 -29.766,-34.337C-19.696,-34.527 -9.598,-32.895 0,-29.45" style="fill:rgb(255,174,188);fill-rule:nonzero;"/>
        </g>
        <g transform="matrix(1,0,0,1,161.988,304.576)">
            <path d="M0,-1.704C-0.206,-0.222 0.465,1.273 1.455,2.395C2.445,3.516 3.731,4.328 4.998,5.123C6.352,5.973 7.705,6.823 9.059,7.673C10.688,8.695 12.723,9.743 14.426,8.849C15.109,8.491 15.609,7.865 16.043,7.227C18.481,3.638 19.382,-0.959 18.479,-5.203C17.152,-11.447 13.362,-8.946 9.353,-7.353C6.14,-6.075 0.613,-6.118 0,-1.704" style="fill:rgb(56,10,5);fill-rule:nonzero;"/>
        </g>
        <g transform="matrix(0.343626,-0.939107,-0.939107,-0.343626,185.448,302.615)">
            <path d="M-7.61,10.888C-0.147,13.359 8.114,13.358 15.578,10.888" style="fill:none;fill-rule:nonzero;stroke:rgb(255,186,87);stroke-width:0.5px;"/>
        </g>
        <g transform="matrix(0.464658,0.88549,0.88549,-0.464658,173.703,288.748)">
            <path d="M-5.625,-9.305C1.234,-11.05 8.531,-11.05 15.39,-9.305" style="fill:none;fill-rule:nonzero;stroke:rgb(255,186,87);stroke-width:0.5px;"/>
        </g>
        <g transform="matrix(1,0,0,1,173.121,296.193)">
            <path d="M0,11.107C-0.113,10.892 0.015,10.634 0.143,10.428C2.85,6.056 6.73,2.419 11.267,0" style="fill:none;fill-rule:nonzero;stroke:rgb(255,186,87);stroke-width:0.5px;"/>
        </g>
        <g transform="matrix(-0.569423,-0.822044,-0.822044,0.569423,160.407,286.468)">
            <path d="M-1.903,-3.632C-3.18,-3.631 -4.217,-2.596 -4.216,-1.318C-4.216,-0.04 -3.18,0.995 -1.903,0.996C-0.625,0.996 0.411,-0.04 0.41,-1.318C0.411,-2.596 -0.625,-3.631 -1.903,-3.632" style="fill:rgb(255,172,55);fill-rule:nonzero;"/>
        </g>
        <g transform="matrix(-0.569423,-0.822044,-0.822044,0.569423,178.118,283.327)">
            <path d="M-1.903,-3.632C-3.18,-3.631 -4.217,-2.596 -4.216,-1.318C-4.216,-0.04 -3.181,0.996 -1.903,0.996C-0.625,0.996 0.411,-0.04 0.41,-1.318C0.411,-2.596 -0.625,-3.631 -1.903,-3.632" style="fill:rgb(255,172,55);fill-rule:nonzero;"/>
        </g>
        <g transform="matrix(-0.569423,-0.822044,-0.822044,0.569423,182.606,295.217)">
            <path d="M-1.901,-3.631C-3.179,-3.631 -4.215,-2.595 -4.215,-1.318C-4.215,-0.039 -3.18,0.997 -1.901,0.997C-0.624,0.996 0.413,-0.039 0.412,-1.317C0.412,-2.595 -0.624,-3.63 -1.901,-3.631" style="fill:rgb(255,172,55);fill-rule:nonzero;"/>
        </g>
        <g transform="matrix(1,0,0,1,96.8207,342.652)">
            <path d="M0,-3.931C-6.753,-8.633 -14.431,-13.168 -22.626,-12.413C-25.684,-12.131 -29.151,-10.562 -29.634,-7.529C-30.008,-5.183 -28.406,-2.982 -26.642,-1.391C-24.391,0.64 -21.721,2.202 -18.848,3.169C-16.341,4.014 -13.707,4.403 -11.09,4.788C-8.597,5.155 9.37,9.237 10.317,7.368C11.595,4.845 1.517,-2.875 0,-3.931" style="fill:rgb(255,201,212);fill-rule:nonzero;"/>
        </g>
        <g transform="matrix(1,0,0,1,107.109,325.103)">
            <path d="M0,8.818C-1.686,0.763 -4.16,-7.803 -10.639,-12.877C-13.058,-14.771 -16.656,-16.008 -19.089,-14.133C-20.971,-12.683 -21.315,-9.982 -21.124,-7.614C-20.88,-4.593 -20.009,-1.624 -18.583,1.05C-17.338,3.385 -15.689,5.475 -14.05,7.551C-12.488,9.529 -2.219,24.826 -0.247,24.116C2.414,23.158 0.379,10.627 0,8.818" style="fill:rgb(255,201,212);fill-rule:nonzero;"/>
        </g>
        <g transform="matrix(1,0,0,1,118.618,321.335)">
            <path d="M0,19.337C5.668,13.371 11.309,6.465 11.799,-1.749C11.983,-4.815 10.954,-8.479 8.029,-9.415C5.766,-10.138 3.349,-8.886 1.509,-7.383C-0.837,-5.464 -2.785,-3.06 -4.174,-0.367C-5.387,1.985 -6.169,4.529 -6.945,7.059C-7.685,9.468 -14.432,26.612 -12.726,27.831C-10.425,29.475 -1.273,20.677 0,19.337" style="fill:rgb(255,201,212);fill-rule:nonzero;"/>
        </g>
        <g transform="matrix(1,0,0,1,113.676,363.7)">
            <path d="M0,-2.267C4.191,4.815 9.292,12.128 17.06,14.845C19.959,15.858 23.765,15.87 25.464,13.312C26.779,11.333 26.235,8.665 25.291,6.485C24.087,3.704 22.306,1.173 20.094,-0.899C18.164,-2.709 15.93,-4.156 13.709,-5.594C11.593,-6.963 -3.056,-18.137 -4.694,-16.829C-6.904,-15.065 -0.941,-3.857 0,-2.267" style="fill:rgb(255,201,212);fill-rule:nonzero;"/>
        </g>
        <g transform="matrix(1,0,0,1,90.2462,373.86)">
            <path d="M0,-19.825C-6.522,-14.806 -13.162,-8.855 -14.916,-0.815C-15.57,2.186 -15.121,5.965 -12.375,7.341C-10.251,8.406 -7.67,7.542 -5.62,6.341C-3.005,4.808 -0.709,2.733 1.08,0.287C2.641,-1.848 3.807,-4.242 4.965,-6.621C6.067,-8.887 15.382,-24.783 13.885,-26.251C11.866,-28.231 1.464,-20.952 0,-19.825" style="fill:rgb(255,201,212);fill-rule:nonzero;"/>
        </g>
        <g transform="matrix(1,0,0,1,101.028,375.114)">
            <path d="M0,-14.907C-1.323,-6.785 -2.096,2.098 2.125,9.163C3.7,11.799 6.613,14.248 9.557,13.374C11.835,12.697 13.128,10.301 13.801,8.023C14.659,5.116 14.915,2.033 14.546,-0.976C14.224,-3.602 13.438,-6.145 12.654,-8.672C11.908,-11.079 7.829,-29.046 5.733,-29.093C2.906,-29.155 0.297,-16.731 0,-14.907" style="fill:rgb(255,201,212);fill-rule:nonzero;"/>
        </g>
        <g transform="matrix(1,0,0,1,120.536,337.962)">
            <path d="M0,14.506C8.179,15.42 17.089,15.746 23.933,11.176C26.487,9.47 28.786,6.438 27.766,3.541C26.976,1.3 24.518,0.13 22.208,-0.428C19.262,-1.14 16.17,-1.24 13.184,-0.721C10.577,-0.268 8.076,0.646 5.592,1.555C3.225,2.421 -14.514,7.397 -14.455,9.492C-14.376,12.319 -1.837,14.3 0,14.506" style="fill:rgb(255,201,212);fill-rule:nonzero;"/>
        </g>
        <g transform="matrix(0.10715,-0.994243,-0.994243,-0.10715,108.249,341.719)">
            <path d="M-6.236,-5.6C-9.699,-5.6 -12.507,-2.791 -12.508,0.672C-12.508,4.135 -9.699,6.943 -6.236,6.944C-2.772,6.944 0.036,4.136 0.037,0.673C0.036,-2.791 -2.772,-5.599 -6.236,-5.6" style="fill:rgb(255,234,233);fill-rule:nonzero;"/>
        </g>
        <g transform="matrix(1,0,0,1,106.748,238.179)">
            <path d="M-8.857,33.864C-11.565,44.566 -16.364,60.353 -20.325,56.572C-26.205,50.959 -10.014,23.859 -10.014,23.859L-7.718,24.441C-7.514,23.009 -7.378,22.171 -7.378,22.171L-4.794,22.316C-4.881,21.883 -4.924,21.646 -4.924,21.646L-1.998,20.173C-1.998,20.173 -1.685,20.461 -1.135,20.982C-1.59,20.438 -1.838,20.128 -1.838,20.128L0.026,17.467L-0.177,16.201C-0.177,16.201 0.072,16.133 0.531,16.014L0,14.288C0,14.288 26.251,-3.245 32.152,2.346C35.173,5.207 26.94,9.118 18.182,12.254C27.832,10.686 37.928,10.062 39.202,13.978C41.715,21.703 31.443,22.869 26.237,22.202C23.256,21.82 15.174,20.821 8.81,20.037C19.954,23.673 37.198,30.635 32.338,37.678C27.129,45.227 17.095,38.89 9.24,31.812C16.333,40.021 23.081,50.1 16.877,53.281C7.437,58.122 1.102,43.541 -2.204,32.589C-0.853,38.467 0.694,45.185 1.314,47.826C2.514,52.935 2.414,63.273 -5.53,61.569C-10.543,60.493 -9.965,45.087 -8.857,33.864Z" style="fill:white;"/>
        </g>
        <g transform="matrix(1,0,0,1,109.667,270.252)">
            <path d="M0,-20.506C1.194,-20.776 2.661,-20.869 3.423,-19.911C4.181,-18.958 3.77,-17.556 3.236,-16.463C0.884,-11.648 -3.152,-7.901 -7.148,-4.331C-8.241,-3.354 -9.373,-2.36 -10.748,-1.853C-16.759,0.363 -15.647,-7.605 -13.255,-10.777C-9.671,-15.529 -5.338,-19.3 0,-20.506" style="fill:rgb(255,172,55);fill-rule:nonzero;"/>
        </g>
        <g transform="matrix(1,0,0,1,374.389,134.647)">
            <path d="M0,5.003C-0.761,4.622 -1.356,4.023 -1.681,3.293C-2.035,2.498 -2.027,1.636 -1.658,0.866C-1.404,0.337 -0.855,-0.181 -0.193,-0.168C-0.15,-0.25 -0.066,-0.306 0.032,-0.31C0.156,-0.314 0.318,-0.195 0.349,-0.075C0.388,0.077 0.312,0.24 0.168,0.312C0.048,0.373 -0.074,0.364 -0.154,0.359C-0.618,0.333 -1.001,0.71 -1.184,1.093C-1.486,1.722 -1.492,2.427 -1.201,3.079C-0.846,3.878 -0.101,4.495 0.843,4.772C0.986,4.816 1.062,4.959 1.02,5.097C0.98,5.237 0.834,5.317 0.695,5.276C0.451,5.205 0.219,5.113 0,5.003" style="fill:rgb(90,25,53);fill-rule:nonzero;"/>
        </g>
        <g transform="matrix(1,0,0,1,371.394,134.198)">
            <path d="M0,6.115C-0.012,6.109 -0.023,6.102 -0.034,6.095C-1.29,5.207 -1.697,3.663 -1.025,2.342C-0.373,1.061 1.274,0.079 2.981,-0.046C3.125,-0.057 3.251,0.052 3.262,0.197C3.272,0.341 3.163,0.467 3.019,0.478C1.486,0.59 0.016,1.455 -0.557,2.58C-1.108,3.663 -0.768,4.932 0.269,5.666C0.387,5.749 0.415,5.913 0.332,6.032C0.256,6.139 0.115,6.172 0,6.115" style="fill:rgb(90,25,53);fill-rule:nonzero;"/>
        </g>
        <g transform="matrix(1,0,0,1,337.666,115.832)">
            <path d="M0,-19.77C-0.032,-16.692 0.575,-13.645 1.353,-10.676C1.632,-9.628 1.932,-8.584 2.254,-7.552C3.21,-4.534 4.409,-1.6 5.991,1.132C10.185,8.382 16.974,13.956 24.607,17.402C32.24,20.847 40.691,22.253 49.066,22.274C49.686,22.277 50.315,22.266 50.938,22.248C57.062,22.096 63.263,21.057 68.565,18.015C76.053,13.715 80.782,5.965 83.676,-1.958C84.741,-4.886 86.837,-9.448 83.184,-11.183C79.79,-12.782 74.996,-12.311 71.344,-13.51C66.136,-15.217 61.292,-17.91 56.764,-20.955C49.01,-26.177 41.964,-32.445 33.86,-37.102C31.311,-38.566 28.637,-39.869 25.777,-40.559C19.613,-42.047 12.814,-40.416 7.905,-36.397C3.003,-32.384 0.07,-26.108 0,-19.77" style="fill:rgb(211,169,255);fill-rule:nonzero;"/>
        </g>
        <g transform="matrix(1,0,0,1,409.722,111.868)">
            <path d="M0,-6.797C-0.041,-6.386 0.085,-5.899 0.46,-5.311C0.584,-5.113 0.746,-4.925 0.944,-4.753C1.077,-4.625 1.232,-4.508 1.402,-4.396C1.676,-4.202 1.994,-4.03 2.342,-3.869C4.921,-2.663 9.079,-2.165 10.957,-1.641C15.019,-0.506 19.094,0.574 23.184,1.592C24.863,2.008 26.563,2.42 28.273,2.749C28.452,2.784 28.638,2.82 28.825,2.849C31.822,3.393 34.852,3.651 37.862,3.238C38.227,3.189 38.609,3.121 38.885,2.872C39.184,2.611 39.289,2.2 39.376,1.815C40.022,-1.148 40.187,-4.224 39.873,-7.244C39.793,-8.001 39.661,-8.792 39.188,-9.384C38.333,-10.444 36.739,-10.448 35.374,-10.355C34.287,-10.279 33.199,-10.203 32.109,-10.112C31.889,-10.103 31.662,-10.088 31.441,-10.064C25.286,-9.598 19.141,-9.032 13.006,-8.373C10.641,-8.116 8.434,-8.292 6.173,-8.438L6.167,-8.439C6.138,-8.436 6.117,-8.438 6.089,-8.441C5.907,-8.449 5.732,-8.462 5.549,-8.47C5.473,-8.479 5.389,-8.482 5.304,-8.484C4.892,-8.512 4.477,-8.526 4.049,-8.541L4.042,-8.542C3.88,-8.547 3.712,-8.552 3.543,-8.558C2.362,-8.585 0.767,-8.279 0.211,-7.386C0.091,-7.209 0.018,-7.013 0,-6.797" style="fill:rgb(211,169,255);fill-rule:nonzero;"/>
        </g>
        <g transform="matrix(1,0,0,1,366.165,90.5542)">
            <path d="M0,9.481C1.601,13.365 4.757,16.388 8.095,18.932C12.081,21.969 16.594,24.539 21.556,25.216C26.428,25.882 31.372,24.681 35.998,23.005C38.834,21.978 41.637,20.75 44.076,18.965C44.717,18.49 45.327,17.984 45.898,17.445C47.18,16.263 48.296,14.928 49.256,13.483C49.256,13.483 49.263,13.484 49.264,13.477C49.401,13.274 49.53,13.078 49.646,12.873C49.766,12.69 49.88,12.498 49.994,12.307C49.995,12.3 50.003,12.294 50.004,12.287C50.171,12.004 50.325,11.719 50.479,11.427C51.059,10.332 51.553,9.191 51.96,8.019C52.034,7.809 52.109,7.592 52.169,7.381C52.331,6.899 52.466,6.415 52.587,5.928C53.386,2.736 53.573,-0.584 53.233,-3.861C53.214,-4.061 53.196,-4.26 53.17,-4.461C52.951,-6.256 52.583,-8.035 52.082,-9.765C51.717,-11.035 51.216,-12.349 50.46,-13.411C50.357,-13.558 50.247,-13.698 50.135,-13.83C49.635,-14.432 49.037,-14.926 48.307,-15.252C45.742,-16.401 42.822,-14.961 40.344,-13.617C32.232,-9.235 23.709,-5.607 14.923,-2.799C10.549,-1.404 6.078,-0.5 1.683,0.766C-2.403,1.934 -1.465,5.938 0,9.481" style="fill:rgb(211,169,255);fill-rule:nonzero;"/>
        </g>
        <g transform="matrix(1,0,0,1,339.92,138.108)">
            <path d="M0,-29.828C0.956,-26.81 2.154,-23.876 3.736,-21.144C7.93,-13.894 14.72,-8.32 22.353,-4.874C29.985,-1.429 38.437,-0.024 46.811,-0.002C47.432,0 48.06,-0.01 48.683,-0.029C44.34,-7.331 39.796,-14.728 33.196,-20.055C26.384,-25.554 16.795,-28.497 8.684,-25.187C6.476,-27.52 3.881,-28.715 0.8,-29.614C0.534,-29.695 0.274,-29.76 0,-29.828" style="fill:white;fill-rule:nonzero;"/>
        </g>
        <g transform="matrix(1,0,0,1,338.149,91.2772)">
            <path d="M0,8.596C0.809,8.07 1.632,7.532 2.247,6.788C2.861,6.044 3.247,5.047 3.034,4.105C2.924,3.622 2.668,3.187 2.416,2.761C1.784,1.693 1.097,0.573 -0.004,0L-9.634,1.26L0,8.596Z" style="fill:rgb(90,25,53);fill-rule:nonzero;"/>
        </g>
        <g transform="matrix(1,0,0,1,375.458,86.5275)">
            <path d="M0,2.807C-0.071,2.771 -0.125,2.703 -0.14,2.619C-0.167,2.476 -0.072,2.34 0.071,2.314L2.775,1.823C3.566,1.679 4.385,1.531 5.163,1.307C6.282,0.987 7.373,0.498 8.427,0.025C8.56,-0.034 8.715,0.026 8.774,0.158C8.834,0.29 8.774,0.445 8.642,0.505C7.571,0.985 6.463,1.481 5.308,1.812C4.504,2.043 3.673,2.194 2.868,2.34L0.164,2.83C0.107,2.841 0.049,2.832 0,2.807" style="fill:rgb(90,25,53);fill-rule:nonzero;"/>
        </g>
        <g transform="matrix(-0.117016,0.99313,0.99313,0.117016,352.196,89.9743)">
            <path d="M2.308,-2.597C3.592,-2.597 4.632,-1.557 4.633,-0.273C4.633,1.011 3.592,2.051 2.308,2.052C1.025,2.052 -0.016,1.011 -0.016,-0.273C-0.016,-1.556 1.024,-2.597 2.308,-2.597" style="fill:rgb(90,25,53);fill-rule:nonzero;"/>
        </g>
        <g transform="matrix(1,0,0,1,390.556,103.531)">
            <path d="M0,6.832C4.347,7.345 8.775,7.211 13.122,6.408C19.052,5.311 23.243,3.012 25.579,-0.425C25.66,-0.545 25.629,-0.708 25.509,-0.79C25.389,-0.871 25.225,-0.84 25.145,-0.72C22.89,2.597 18.813,4.821 13.027,5.891C3.23,7.703 -6.979,6.065 -15.717,1.281C-15.844,1.212 -16.004,1.258 -16.074,1.385C-16.143,1.512 -16.097,1.672 -15.969,1.741C-11.003,4.46 -5.567,6.176 0,6.832" style="fill:rgb(90,25,53);fill-rule:nonzero;"/>
        </g>
        <g transform="matrix(1,0,0,1,373.162,76.9598)">
            <path d="M0,14.451C0.014,14.572 0.108,14.668 0.227,14.682C0.247,14.685 0.268,14.687 0.283,14.682C9.894,13.671 16.749,12.526 23.955,10.738C28.836,9.53 33.728,7.391 38.489,4.392C40.5,3.127 42.168,1.715 43.463,0.183C43.36,0.037 43.25,-0.103 43.139,-0.236C41.866,1.285 40.213,2.691 38.21,3.95C33.495,6.92 28.655,9.036 23.825,10.229C16.647,12.013 9.815,13.147 0.232,14.161C0.089,14.172 -0.017,14.301 0,14.451" style="fill:rgb(90,25,53);fill-rule:nonzero;"/>
        </g>
        <g transform="matrix(1,0,0,1,372.906,88.3707)">
            <path d="M0,6.169C-0.031,6.313 0.066,6.452 0.211,6.476C1.818,6.778 3.404,7.022 4.976,7.207C15.485,8.446 25.413,7.078 37.278,2.856C39.964,1.904 43.407,0.511 46.493,-1.677C46.474,-1.877 46.455,-2.077 46.43,-2.277C43.329,-0.027 39.819,1.4 37.103,2.363C23.553,7.183 12.552,8.262 0.307,5.958C0.169,5.935 0.023,6.031 0,6.169" style="fill:rgb(90,25,53);fill-rule:nonzero;"/>
        </g>
        <g transform="matrix(1,0,0,1,372.756,101.524)">
            <path d="M0,-3.737C-0.037,-3.6 0.044,-3.457 0.188,-3.419C4.492,-2.241 8.898,-1.391 13.335,-0.867C22.606,0.225 32.052,-0.106 41.204,-1.89C42.611,-2.169 44.024,-2.489 45.369,-2.951C45.443,-3.161 45.518,-3.377 45.578,-3.589C44.147,-3.052 42.617,-2.697 41.102,-2.403C27.649,0.214 13.544,-0.307 0.325,-3.924C0.189,-3.962 0.038,-3.881 0,-3.737" style="fill:rgb(90,25,53);fill-rule:nonzero;"/>
        </g>
        <g transform="matrix(1,0,0,1,371.983,107.016)">
            <path d="M0,-5.604C4.98,-3.042 10.596,-1.393 16.57,-0.689C22.899,0.057 29.634,-0.249 36.45,-1.659C36.869,-1.744 37.297,-1.842 37.739,-1.945C39.442,-2.336 41.274,-2.861 43.043,-3.632C43.17,-3.688 43.296,-3.743 43.423,-3.799C43.676,-3.917 43.923,-4.036 44.171,-4.169C44.177,-4.161 44.178,-4.168 44.186,-4.175C44.354,-4.458 44.507,-4.743 44.661,-5.035C43.737,-4.495 42.769,-4.059 41.788,-3.688L41.781,-3.689C40.496,-3.199 39.19,-2.831 37.949,-2.533C37.398,-2.401 36.862,-2.281 36.341,-2.173C23.202,0.537 10.383,-0.847 0.239,-6.076C0.113,-6.141 -0.049,-6.089 -0.113,-5.963C-0.178,-5.829 -0.126,-5.675 0,-5.604" style="fill:rgb(90,25,53);fill-rule:nonzero;"/>
        </g>
        <g transform="matrix(1,0,0,1,442.184,108.859)">
            <path d="M0,-1.244C0.258,-1.34 0.629,-1.438 0.977,-1.397C1.144,-1.377 1.314,-1.322 1.456,-1.213C1.638,-1.079 1.736,-0.778 1.671,-0.525C1.652,-0.422 1.59,-0.253 1.41,-0.224C1.237,-0.189 1.021,-0.277 0.744,-0.501C0.468,-0.723 0.222,-0.971 0,-1.244M-4.189,5.758C-4.01,5.793 -3.824,5.829 -3.637,5.859C-3.808,4.682 -3.729,3.528 -3.401,2.487C-2.901,0.932 -1.84,-0.354 -0.498,-1.028C-0.236,-0.679 0.073,-0.368 0.415,-0.095C0.672,0.112 1.064,0.376 1.504,0.294C1.843,0.229 2.099,-0.03 2.185,-0.401C2.297,-0.868 2.124,-1.374 1.767,-1.635C1.274,-2.003 0.551,-2.025 -0.263,-1.705C-0.285,-1.701 -0.307,-1.689 -0.322,-1.684C-1.1,-2.861 -1.406,-4.329 -1.069,-5.629C-0.935,-6.17 -0.686,-6.67 -0.353,-7.103C-0.573,-7.094 -0.8,-7.078 -1.021,-7.055C-1.272,-6.662 -1.458,-6.225 -1.575,-5.766C-1.94,-4.343 -1.628,-2.748 -0.807,-1.459C-2.234,-0.717 -3.37,0.665 -3.898,2.33C-4.234,3.391 -4.33,4.564 -4.189,5.758" style="fill:rgb(90,25,53);fill-rule:nonzero;"/>
        </g>
        <g transform="matrix(1,0,0,1,389.033,137.693)">
            <path d="M0,5.004C-0.76,4.623 -1.355,4.024 -1.681,3.294C-2.035,2.499 -2.027,1.637 -1.658,0.867C-1.404,0.337 -0.855,-0.181 -0.192,-0.168C-0.149,-0.248 -0.066,-0.305 0.032,-0.308C0.155,-0.314 0.318,-0.194 0.349,-0.075C0.388,0.077 0.313,0.24 0.168,0.313C0.051,0.373 -0.07,0.365 -0.151,0.36C-0.618,0.334 -1.001,0.711 -1.184,1.094C-1.486,1.723 -1.492,2.428 -1.201,3.081C-0.845,3.879 -0.099,4.495 0.843,4.772C0.988,4.818 1.062,4.96 1.021,5.098C0.98,5.238 0.834,5.318 0.695,5.276C0.452,5.205 0.219,5.113 0,5.004" style="fill:rgb(90,25,53);fill-rule:nonzero;"/>
        </g>
        <g transform="matrix(1,0,0,1,386.039,137.244)">
            <path d="M0,6.116C-0.012,6.11 -0.023,6.103 -0.034,6.096C-1.29,5.208 -1.697,3.665 -1.025,2.343C-0.374,1.062 1.273,0.08 2.98,-0.045C3.124,-0.057 3.25,0.051 3.261,0.198C3.272,0.342 3.163,0.468 3.018,0.478C1.486,0.591 0.015,1.456 -0.557,2.581C-1.108,3.664 -0.768,4.934 0.269,5.667C0.388,5.75 0.416,5.914 0.332,6.033C0.256,6.14 0.115,6.173 0,6.116" style="fill:rgb(90,25,53);fill-rule:nonzero;"/>
        </g>
    </g>
</svg>
