<?xml version="1.0" encoding="UTF-8" standalone="no"?>
<!DOCTYPE svg PUBLIC "-//W3C//DTD SVG 1.1//EN" "http://www.w3.org/Graphics/SVG/1.1/DTD/svg11.dtd">
<svg width="100%" height="100%" viewBox="0 0 1200 1200" version="1.1" xmlns="http://www.w3.org/2000/svg" xmlns:xlink="http://www.w3.org/1999/xlink" xml:space="preserve" xmlns:serif="http://www.serif.com/" style="fill-rule:evenodd;clip-rule:evenodd;stroke-miterlimit:10;">
    <g transform="matrix(3.92898,0,0,3.92898,-10.1276,-1433.17)">
        <g>
            <g transform="matrix(0.632708,0,0,0.632708,19.7056,190.066)">
                <path d="M219.436,358.657L219.436,370.486C219.436,370.726 219.241,370.921 219.001,370.921L211.167,370.921C210.927,370.921 210.732,370.726 210.732,370.486L210.732,358.657C210.732,358.417 210.927,358.222 211.167,358.222L219.001,358.222C219.241,358.222 219.436,358.417 219.436,358.657Z" style="fill:white;stroke:rgb(26,46,53);stroke-width:1px;"/>
            </g>
            <g transform="matrix(-0.632708,0,0,0.632708,332.455,190.068)">
                <path d="M274.867,349.861L274.867,379.281C274.867,380.184 274.135,380.916 273.232,380.916L221.071,380.916C220.168,380.916 219.436,380.184 219.436,379.281L219.436,349.861C219.436,348.958 220.168,348.226 221.071,348.226L273.232,348.226C274.135,348.226 274.867,348.958 274.867,349.861Z" style="fill:white;stroke:rgb(26,46,53);stroke-width:1px;"/>
            </g>
            <g transform="matrix(0.632708,0,0,0.632708,192.176,411.844)">
                <path d="M0,28.1L-21.146,28.1L0,0L0,28.1Z" style="fill:rgb(203,53,119);fill-rule:nonzero;"/>
            </g>
            <g transform="matrix(0.632708,0,0,0.632708,64.2266,568.33)">
                <path d="M0,-50.174L80.927,-50.174L67.081,0L12.168,-2.408L0,-50.174Z" style="fill:rgb(139,139,139);fill-rule:nonzero;stroke:rgb(26,46,53);stroke-width:1px;"/>
            </g>
            <g transform="matrix(0.632708,0,0,0.632708,100.01,510.508)">
                <path d="M0,93.898C0,93.898 47.666,-46.949 60.568,-50.892C73.47,-54.834 194.247,-53.759 207.508,-49.816C220.768,-45.874 224.71,-36.556 223.277,-17.561C221.843,1.433 214.675,61.284 214.675,61.284C214.675,61.284 202.849,132.246 183.854,140.489C164.859,148.732 -4.659,135.83 -8.96,132.604C-13.26,129.379 0,93.898 0,93.898Z" style="fill:rgb(246,194,229);fill-rule:nonzero;"/>
            </g>
            <g transform="matrix(0.632708,0,0,0.632708,176.473,561.937)">
                <path d="M0,-176.799C0,-176.799 -6.268,-188.254 -8.213,-186.093C-10.158,-183.932 -7.565,-179.825 -7.565,-179.825C-7.565,-179.825 -20.317,-188.687 -21.398,-183.715C-22.478,-178.744 -16.426,-176.151 -16.426,-176.151C-16.426,-176.151 -25.504,-174.854 -25.072,-172.476C-24.64,-170.099 -19.668,-169.234 -19.668,-169.234C-19.668,-169.234 -21.83,-129.465 -24.207,-123.846C-26.585,-118.226 -28.098,-110.661 -28.098,-110.661C-28.098,-110.661 -45.173,-86.886 -39.985,-53.169C-34.798,-19.452 -12.752,-0.216 -5.62,-1.945C1.513,-3.674 5.403,-11.671 9.726,-5.619C14.049,0.433 23.559,11.888 36.743,-2.377C49.927,-16.642 47.118,-36.094 46.253,-44.74C45.389,-53.385 67.218,-53.385 65.489,-72.837C63.76,-92.29 44.308,-105.474 39.769,-111.094C35.23,-116.713 32.637,-134.436 30.259,-146.756C27.882,-159.076 28.746,-165.128 16.426,-172.26C4.106,-179.393 0,-176.799 0,-176.799Z" style="fill:rgb(26,46,53);fill-rule:nonzero;stroke:rgb(26,46,53);stroke-width:1px;"/>
            </g>
            <g transform="matrix(0.632708,0,0,0.632708,167.247,490.105)">
                <path d="M0,-13.288C0,-13.288 0.198,-6.743 -0.992,-3.769C-2.182,-0.794 -5.553,4.164 -5.553,4.164L19.832,5.751C19.832,5.751 18.642,-3.967 19.237,-7.735C19.832,-11.503 23.005,-19.039 23.005,-19.039C23.005,-19.039 7.933,-9.718 0,-13.288Z" style="fill:white;fill-rule:nonzero;stroke:rgb(26,46,53);stroke-width:1px;"/>
            </g>
            <g transform="matrix(0.632708,0,0,0.632708,162.388,480.297)">
                <path d="M0,-33.068C0,-33.068 1.081,-32.203 -1.297,-26.8C-3.674,-21.397 -5.62,-18.371 -3.674,-13.616C-1.729,-8.861 6.7,4.54 8.862,5.62C11.023,6.701 17.939,8.646 21.397,6.269C24.856,3.891 36.311,-2.809 36.311,-2.809C36.311,-2.809 42.579,-2.16 45.605,-3.457C48.631,-4.754 52.305,-11.238 49.711,-14.048C47.118,-16.858 40.634,-13.4 39.553,-12.751C38.472,-12.103 41.498,-15.993 40.417,-21.829C39.337,-27.665 34.798,-35.446 34.798,-35.446C34.798,-35.446 31.124,-41.714 19.885,-41.714C8.645,-41.714 1.297,-39.336 0,-33.068Z" style="fill:white;fill-rule:nonzero;stroke:rgb(26,46,53);stroke-width:1px;"/>
            </g>
            <g transform="matrix(0.632708,0,0,0.632708,136.132,445.7)">
                <path d="M0,12.32L34.798,23.127C34.798,23.127 40.634,26.585 44.092,26.369C47.55,26.153 73.054,18.804 73.054,18.804C73.054,18.804 82.132,25.072 83.645,25.288C85.158,25.504 84.725,22.911 83.429,21.83L82.132,20.749C82.132,20.749 74.135,10.375 71.541,7.133C68.947,3.891 66.786,3.459 64.409,4.107C62.031,4.755 39.985,14.698 39.121,15.13C38.256,15.562 -6.484,-11.023 -11.671,-12.103C-16.859,-13.184 -23.343,-14.265 -25.504,-10.374C-27.665,-6.484 0,12.32 0,12.32Z" style="fill:white;fill-rule:nonzero;stroke:rgb(26,46,53);stroke-width:1px;"/>
            </g>
            <g transform="matrix(0.632708,0,0,0.632708,179.755,458.008)">
                <path d="M0,-4.323C0,-4.323 3.026,-5.62 4.539,-4.971C6.052,-4.323 14.913,-1.729 16.426,-1.513C17.939,-1.297 18.804,0.864 16.859,1.08C14.913,1.297 7.349,-0.216 7.349,-0.216L4.107,-0.649" style="fill:white;fill-rule:nonzero;stroke:rgb(26,46,53);stroke-width:1px;"/>
            </g>
            <g transform="matrix(0.632708,0,0,0.632708,169.362,458.828)">
                <path d="M0,6.7C0,6.7 0.432,0 2.81,0C5.187,0 9.726,4.539 9.726,4.539" style="fill:white;fill-rule:nonzero;stroke:rgb(26,46,53);stroke-width:1px;"/>
            </g>
            <g transform="matrix(0.632708,0,0,0.632708,139.389,436.674)">
                <path d="M0,28.184L-0.865,10.169C-8.594,5.911 -15.038,2.533 -16.82,2.162C-22.007,1.081 -28.491,0 -30.652,3.891C-32.814,7.781 -5.148,26.585 -5.148,26.585L0,28.184Z" style="fill:rgb(203,53,119);fill-rule:nonzero;stroke:rgb(26,46,53);stroke-width:1px;"/>
            </g>
            <g transform="matrix(0.632708,0,0,0.632708,119.995,566.998)">
                <path d="M0,-202.088C-1.945,-202.304 2.81,-183.068 9.942,-168.371C17.075,-153.673 33.501,-114.12 33.501,-114.12L34.149,-104.178C34.149,-104.178 32.637,-81.7 32.637,-80.835C32.637,-79.971 13.4,-56.196 13.4,-56.196C13.4,-56.196 66.57,0.216 69.164,-0.217C71.757,-0.649 85.158,-2.81 87.319,-12.753C89.48,-22.695 86.671,-48.415 91.642,-53.386C96.613,-58.357 120.172,-98.126 119.523,-107.853C118.875,-117.579 108.716,-116.93 103.529,-116.93C98.342,-116.93 60.95,-122.334 60.95,-122.334C60.95,-122.334 58.573,-124.279 55.115,-128.385C51.657,-132.492 44.956,-135.95 44.956,-135.95L22.262,-190.417C22.262,-190.417 18.804,-197.765 13.4,-200.143" style="fill:rgb(203,53,119);fill-rule:nonzero;"/>
            </g>
            <g transform="matrix(0.535585,0.33685,0.33685,-0.535585,162.898,523.344)">
                <path d="M-0.481,-1.667C1.713,-1.558 3.832,-1.546 5.782,-1.667" style="fill:none;fill-rule:nonzero;stroke:rgb(26,46,53);stroke-width:1px;"/>
            </g>
            <g transform="matrix(0.585545,0.239699,0.239699,-0.585545,147.477,514.773)">
                <path d="M-0.871,-4.426C-0.871,-4.426 11.132,-3.563 22.495,-4.426" style="fill:none;fill-rule:nonzero;stroke:rgb(26,46,53);stroke-width:1px;"/>
            </g>
            <g transform="matrix(0.564053,0.286639,0.286639,-0.564053,158.154,516.288)">
                <path d="M-1.232,-5.143C-1.232,-5.143 12.707,-3.272 21.475,-5.143" style="fill:none;fill-rule:nonzero;stroke:rgb(26,46,53);stroke-width:1px;"/>
            </g>
            <g transform="matrix(-0.00966653,0.632633,0.632633,0.00966653,150.303,486.259)">
                <path d="M-10.732,-10.57L10.409,-10.57" style="fill:none;fill-rule:nonzero;stroke:rgb(26,46,53);stroke-width:1px;"/>
            </g>
            <g transform="matrix(-0.00965014,0.632633,0.632633,0.00965014,145.403,476.516)">
                <path d="M-2.629,-2.59L2.55,-2.59" style="fill:none;fill-rule:nonzero;stroke:rgb(26,46,53);stroke-width:1px;"/>
            </g>
            <g transform="matrix(0.632708,0,0,0.632708,181.533,547.716)">
                <path d="M0,-84.293C0,-84.293 22.262,-91.858 25.288,-86.238C28.314,-80.619 29.827,-60.518 27.233,-44.308C24.64,-28.098 18.588,6.7 16.643,7.133C14.697,7.565 -33.717,-10.374 -40.417,-13.184C-47.118,-15.994 -83.429,-32.204 -84.941,-32.636C-86.454,-33.069 -79.322,-33.717 -73.919,-33.501C-68.515,-33.285 -52.089,-28.53 -47.334,-25.936C-42.579,-23.343 0.648,-19.884 0.648,-19.884C0.648,-19.884 4.971,-54.466 4.755,-68.515" style="fill:rgb(203,53,119);fill-rule:nonzero;stroke:rgb(26,46,53);stroke-width:1px;"/>
            </g>
            <g transform="matrix(0.632708,0,0,0.632708,170.477,536.164)">
                <path d="M0,-3.265C-12.45,-4.501 -27.194,-6.225 -29.859,-7.679C-34.614,-10.272 -51.04,-15.027 -56.444,-15.244C-61.847,-15.46 -68.98,-14.811 -67.467,-14.379C-65.954,-13.947 -29.643,2.263 -22.943,5.073C-20.586,6.061 -13.069,8.921 -4.23,12.195L0,-3.265Z" style="fill:white;fill-rule:nonzero;stroke:rgb(26,46,53);stroke-width:1px;"/>
            </g>
            <g transform="matrix(0.631784,0.0341686,0.0341686,-0.631784,181.965,534.862)">
                <path d="M-0.012,-0.433L16.006,-0.433" style="fill:none;fill-rule:nonzero;stroke:rgb(26,46,53);stroke-width:1px;"/>
            </g>
            <g transform="matrix(0.632111,-0.0274664,-0.0274664,-0.632111,184.418,534.246)">
                <path d="M-0.007,0.324L14.92,0.324" style="fill:none;fill-rule:nonzero;stroke:rgb(26,46,53);stroke-width:1px;"/>
            </g>
            <g transform="matrix(-0.0698826,0.628836,0.628836,0.0698826,170.359,466.846)">
                <path d="M9.968,-2.869C9.968,-2.869 1.352,-1.653 0.563,1.522C-0.224,4.696 7.939,9.518 9.968,8.873C11.996,8.23 5.05,4.196 6.364,2.166C7.677,0.138 12.093,-0.459 9.968,-2.869Z" style="fill:rgb(26,46,53);fill-rule:nonzero;stroke:rgb(26,46,53);stroke-width:1px;"/>
            </g>
            <g transform="matrix(0.632708,0,0,0.632708,102.127,554.92)">
                <path d="M0,-1.078C0,-1.078 15.998,13.614 29.057,16.878C42.116,20.143 62.182,20.242 64.882,18.397C67.582,16.552 42.769,7.084 24.486,-2.71C6.203,-12.505 -7.835,-21.32 -7.835,-13.484C-7.835,-5.649 0,-1.078 0,-1.078Z" style="fill:rgb(26,46,53);fill-rule:nonzero;stroke:rgb(26,46,53);stroke-width:1px;"/>
            </g>
            <g transform="matrix(0.632708,0,0,0.632708,163.756,517.947)">
                <path d="M0,77.309C0,77.309 3.965,78.234 7.473,68.879C8.154,67.061 12.7,58.88 -14.798,39.109C-42.295,19.339 -42.977,18.429 -63.657,11.158C-84.337,3.886 -126.833,-2.478 -133.65,-0.887C-140.468,0.704 -145.013,5.022 -140.922,12.976C-136.832,20.929 -96.608,47.518 -84.109,56.608C-71.611,65.698 -54.794,73.879 -32.523,76.833C-10.253,79.787 0,77.309 0,77.309Z" style="fill:rgb(26,46,53);fill-rule:nonzero;stroke:rgb(26,46,53);stroke-width:1px;"/>
            </g>
            <g transform="matrix(0.632708,0,0,0.632708,79.1942,547.108)">
                <path d="M0,-46.975C-6.818,-45.384 -11.363,-41.066 -7.272,-33.113C-4.193,-27.125 19.362,-10.578 36.153,1.115C38.497,-1.4 41.344,-4.99 43.859,-9.706C47.98,-17.432 47.561,-33.585 47.109,-41.023C27.075,-45.296 4.778,-48.09 0,-46.975" style="fill:white;fill-rule:nonzero;"/>
            </g>
            <g transform="matrix(0.632708,0,0,0.632708,79.1942,547.108)">
                <path d="M0,-46.975C-6.818,-45.384 -11.363,-41.066 -7.272,-33.113C-4.193,-27.125 19.362,-10.578 36.153,1.115C38.497,-1.4 41.344,-4.99 43.859,-9.706C47.98,-17.432 47.561,-33.585 47.109,-41.023C27.075,-45.296 4.778,-48.09 0,-46.975Z" style="fill:none;fill-rule:nonzero;stroke:rgb(26,46,53);stroke-width:1px;"/>
            </g>
            <g transform="matrix(0.127029,0.619825,0.619825,-0.127029,200.218,604.744)">
                <path d="M-4.249,-25.22L26.812,-25.22L29.618,-11.528L2.826,0.548L-4.249,-25.22Z" style="fill:rgb(49,31,70);fill-rule:nonzero;stroke:rgb(26,46,53);stroke-width:1px;"/>
            </g>
            <g transform="matrix(0.118317,0.621545,0.621545,-0.118317,232.52,603.978)">
                <path d="M-5.252,-26.413L28.096,-26.413L30.709,-12.683L1.592,-0.573L-5.252,-26.413Z" style="fill:rgb(49,31,70);fill-rule:nonzero;stroke:rgb(26,46,53);stroke-width:1px;"/>
            </g>
            <g transform="matrix(0.127029,0.619825,0.619825,-0.127029,102.11,604.744)">
                <path d="M-4.249,-25.22L26.812,-25.22L29.618,-11.528L2.826,0.548L-4.249,-25.22Z" style="fill:rgb(49,31,70);fill-rule:nonzero;stroke:rgb(26,46,53);stroke-width:1px;"/>
            </g>
            <g transform="matrix(0.118317,0.621545,0.621545,-0.118317,137.559,603.978)">
                <path d="M-5.252,-26.413L28.096,-26.413L30.709,-12.683L1.592,-0.573L-5.252,-26.413Z" style="fill:rgb(49,31,70);fill-rule:nonzero;stroke:rgb(26,46,53);stroke-width:1px;"/>
            </g>
            <g transform="matrix(0.632708,0,0,0.632708,186.94,609.322)">
                <path d="M0,-68.613L-188.986,-68.613C-188.986,-68.613 -154.503,-1.408 -148.874,-0.704C-143.244,0 3.519,-0.704 3.519,-0.704C3.519,-0.704 7.389,-2.112 8.797,-16.89C10.204,-31.668 10.556,-62.983 8.445,-65.798C6.334,-68.613 0,-68.613 0,-68.613Z" style="fill:rgb(227,139,190);fill-rule:nonzero;stroke:rgb(26,46,53);stroke-width:1px;"/>
            </g>
            <g transform="matrix(0.632708,0,0,0.632708,57.9731,606.185)">
                <path d="M0,-106.393C0,-106.393 9.824,-114.808 22.632,-106.943C35.44,-99.079 55.119,-8.679 55.371,-3.668C55.622,1.343 53.074,2.814 49.055,4.293C45.036,5.771 36.545,8.415 25.989,-2.013C15.433,-12.44 -0.851,-57.952 -4.893,-80.739C-8.394,-100.476 0,-106.393 0,-106.393Z" style="fill:rgb(246,194,229);fill-rule:nonzero;stroke:rgb(26,46,53);stroke-width:1px;"/>
            </g>
            <g transform="matrix(0.632708,0,0,0.632708,196.923,607.477)">
                <path d="M0,-110.816C0,-110.816 39.113,-113.302 62.987,-109.721C86.861,-106.14 88.95,-89.13 86.861,-76.895C84.772,-64.659 69.851,-10.048 61.495,-4.079C53.139,1.889 -10.425,2.486 -10.425,2.486L0,-110.816Z" style="fill:rgb(227,139,190);fill-rule:nonzero;"/>
            </g>
            <g transform="matrix(0.632708,0,0,0.632708,200.712,606.016)">
                <path d="M0,-107.114C0,-107.114 -11.562,-112.297 -21.766,-102.093C-31.97,-91.889 -27.396,-5.684 -26.34,-1.11C-25.285,3.464 -22.47,4.168 -18.248,4.52C-14.025,4.872 -5.229,5.183 2.16,-6.78C9.549,-18.743 13.34,-63.698 11.309,-85.204C9.55,-103.831 0,-107.114 0,-107.114Z" style="fill:rgb(246,194,229);fill-rule:nonzero;stroke:rgb(26,46,53);stroke-width:1px;"/>
            </g>
            <g transform="matrix(0.632708,0,0,0.632708,72.2926,623.354)">
                <path d="M0,-152.713C0,-152.713 -22.952,-155.44 -26.816,-146.804C-30.679,-138.169 -30.452,-123.625 -25.225,-119.989C-19.998,-116.353 43.405,-66.13 53.177,-58.177C62.949,-50.223 90.9,-22.498 98.4,-15.453C105.899,-8.409 106.808,-2.273 106.808,0.227C106.808,2.727 111.807,1.818 112.944,0.454C114.08,-0.909 116.807,-11.59 114.989,-20.68C113.171,-29.77 110.898,-37.27 110.444,-40.451C109.989,-43.633 111.126,-50.223 107.717,-53.859C104.308,-57.495 99.99,-57.495 96.127,-56.131C92.264,-54.768 83.401,-53.404 83.401,-53.404C83.401,-53.404 68.63,-68.857 60.221,-80.447C51.813,-92.037 15.908,-140.214 11.363,-145.214C6.818,-150.213 0,-152.713 0,-152.713Z" style="fill:white;fill-rule:nonzero;stroke:rgb(26,46,53);stroke-width:1px;"/>
            </g>
            <g transform="matrix(0.632708,0,0,0.632708,145.047,601.787)">
                <path d="M0,13.408C-1.818,4.318 -4.09,-3.181 -4.545,-6.363C-4.999,-9.544 -3.863,-16.135 -7.272,-19.771C-10.681,-23.407 -14.999,-23.407 -18.862,-22.043C-20.243,-21.556 -22.263,-21.069 -24.289,-20.644C-23.023,-19.32 -17.099,-12.863 -13.862,-4.772C-10.226,4.318 -3.636,12.726 -5.454,18.18C-6.386,20.976 -8.451,24.245 -10.244,26.772C-8.501,30.16 -8.181,32.858 -8.181,34.315C-8.181,36.815 -3.182,35.906 -2.045,34.542C-0.909,33.179 1.818,22.498 0,13.408" style="fill:rgb(127,87,187);fill-rule:nonzero;"/>
            </g>
            <g transform="matrix(0.632708,0,0,0.632708,145.047,601.787)">
                <path d="M0,13.408C-1.818,4.318 -4.09,-3.181 -4.545,-6.363C-4.999,-9.544 -3.863,-16.135 -7.272,-19.771C-10.681,-23.407 -14.999,-23.407 -18.862,-22.043C-20.243,-21.556 -22.263,-21.069 -24.289,-20.644C-23.023,-19.32 -17.099,-12.863 -13.862,-4.772C-10.226,4.318 -3.636,12.726 -5.454,18.18C-6.386,20.976 -8.451,24.245 -10.244,26.772C-8.501,30.16 -8.181,32.858 -8.181,34.315C-8.181,36.815 -3.182,35.906 -2.045,34.542C-0.909,33.179 1.818,22.498 0,13.408Z" style="fill:none;fill-rule:nonzero;stroke:rgb(26,46,53);stroke-width:1px;"/>
            </g>
            <g transform="matrix(0.632708,0,0,0.632708,92.1347,622.348)">
                <path d="M0,-164.075C0,-164.075 -20.453,-168.393 -27.952,-166.802C-35.451,-165.211 -38.633,-154.758 -36.133,-148.622C-33.633,-142.486 13.862,-64.994 17.953,-58.631C22.043,-52.268 35.224,-25.679 39.542,-19.771C43.859,-13.862 44.996,-6.363 44.996,-4.772C44.996,-3.181 40.451,1.136 41.814,2.727C43.178,4.318 51.131,2.5 52.722,1.136C54.313,-0.227 60.903,-7.045 61.812,-11.59C62.721,-16.135 62.267,-29.997 62.949,-36.133C63.63,-42.269 65.448,-46.359 63.857,-49.541C62.267,-52.722 57.04,-55.449 53.404,-55.449C49.768,-55.449 44.768,-55.676 44.087,-56.131C43.405,-56.585 31.815,-72.038 31.815,-72.038C31.815,-72.038 25.907,-95.673 23.407,-108.399C20.907,-121.125 7.727,-144.986 0.454,-150.894" style="fill:white;fill-rule:nonzero;stroke:rgb(26,46,53);stroke-width:1px;"/>
            </g>
            <g transform="matrix(0.632708,0,0,0.632708,120.604,592.86)">
                <path d="M0,41.834C0,43.425 -4.545,47.743 -3.182,49.333C-1.818,50.924 6.136,49.106 7.727,47.743C9.317,46.379 15.908,39.561 16.817,35.016C17.725,30.471 17.271,16.609 17.953,10.473C18.635,4.338 20.452,0.247 18.862,-2.934C17.271,-6.116 12.044,-8.843 8.408,-8.843C6.22,-8.843 3.544,-8.926 1.607,-9.09C2.473,-7.277 3.579,-4.965 4.772,-2.48C7.499,3.201 9.999,26.835 8.635,34.108C7.272,41.38 0,41.834 0,41.834Z" style="fill:rgb(127,87,187);fill-rule:nonzero;stroke:rgb(26,46,53);stroke-width:1px;"/>
            </g>
            <g transform="matrix(-0.470995,0,0,0.632708,55.6296,624.566)">
                <path d="M-427.387,0L0,0" style="fill:none;fill-rule:nonzero;stroke:rgb(26,46,53);stroke-width:1.13px;"/>
            </g>
        </g>
    </g>
</svg>
