<?xml version="1.0" encoding="UTF-8" standalone="no"?>
<!DOCTYPE svg PUBLIC "-//W3C//DTD SVG 1.1//EN" "http://www.w3.org/Graphics/SVG/1.1/DTD/svg11.dtd">
<svg width="100%" height="100%" viewBox="0 0 1031 1552" version="1.1" xmlns="http://www.w3.org/2000/svg" xmlns:xlink="http://www.w3.org/1999/xlink" xml:space="preserve" xmlns:serif="http://www.serif.com/" style="fill-rule:evenodd;clip-rule:evenodd;stroke-linejoin:round;stroke-miterlimit:2;">
    <g transform="matrix(1,0,0,1,-1443.84,-244.96)">
        <path d="M2399.85,1796.68L1518.17,1796.68C1477.12,1796.68 1443.84,1763.4 1443.84,1722.35L1443.84,457.646C1443.84,416.597 1477.12,383.321 1518.17,383.321L2399.85,383.321C2440.89,383.321 2474.17,416.597 2474.17,457.646L2474.17,1722.35C2474.17,1763.4 2440.89,1796.68 2399.85,1796.68Z" style="fill:rgb(169,186,230);fill-rule:nonzero;"/>
    </g>
    <g transform="matrix(1,0,0,1,-1443.84,-244.96)">
        <rect x="1536.96" y="440.28" width="848.04" height="1231.88" style="fill:rgb(246,245,245);fill-rule:nonzero;"/>
    </g>
    <g transform="matrix(1,0,0,1,-1443.84,-244.96)">
        <path d="M2385,440.287C2385.26,920.653 2400.77,1500 2346.81,1628.27C2109.15,1651.43 1830.86,1658.86 1536.95,1660.24L1648.67,444L2385,440.287Z" style="fill:rgb(228,228,228);fill-rule:nonzero;"/>
    </g>
    <g transform="matrix(1,0,0,1,-1443.84,-244.96)">
        <path d="M2308.83,1589.45C1938.39,1648.74 1690.8,1651.87 1490,1636.96C1516.03,1359.95 1526.46,899.777 1536.95,440.343L1983.34,441.333L2387.34,468C2393.22,944.848 2393.87,1385.32 2308.83,1589.45Z" style="fill:white;fill-rule:nonzero;"/>
    </g>
    <g transform="matrix(1,0,0,1,-1443.84,-244.96)">
        <path d="M2176.34,632.34L1730.22,621.84L1731.82,553.888L2177.94,564.387L2176.34,632.34Z" style="fill:rgb(228,139,190);fill-rule:nonzero;"/>
    </g>
    <g transform="matrix(1,0,0,1,-1443.84,-244.96)">
        <path d="M2263.94,730.675L1861.54,721.204L1860.81,752.308L2263.21,761.778L2263.94,730.675Z" style="fill:rgb(228,139,190);fill-rule:nonzero;"/>
    </g>
    <g transform="matrix(1,0,0,1,-1443.84,-244.96)">
        <path d="M2133.46,795.459L1859.95,789.022L1859.21,820.125L2132.73,826.563L2133.46,795.459Z" style="fill:rgb(211,223,255);fill-rule:nonzero;"/>
    </g>
    <g transform="matrix(1,0,0,1,-1443.84,-244.96)">
        <path d="M1732.5,815.313L1637.24,813.071L1639.48,717.809L1734.75,720.05L1732.5,815.313Z" style="fill:white;fill-rule:nonzero;"/>
    </g>
    <g transform="matrix(1,0,0,1,-1443.84,-244.96)">
        <path d="M1732.5,815.313L1732.58,812.313L1640.31,810.142L1642.41,720.878L1731.68,722.979L1729.51,815.242L1732.5,815.313L1732.58,812.313L1732.5,815.313L1735.5,815.383L1737.82,717.122L1636.56,714.739L1634.17,815.999L1735.43,818.382L1735.5,815.383L1732.5,815.313Z" style="fill:rgb(112,140,213);fill-rule:nonzero;"/>
    </g>
    <g transform="matrix(1,0,0,1,-1443.84,-244.96)">
        <path d="M1655.01,742.875C1657.95,754.134 1663.38,801.299 1687,788.11C1692.45,785.069 1697.06,777.029 1701.14,772.403C1708.46,764.088 1715.78,755.772 1723.11,747.457C1737.76,730.826 1752.41,714.194 1767.05,697.563C1770.81,693.301 1754.23,682.611 1749.52,687.961C1736.5,702.745 1723.48,717.528 1710.46,732.312C1703.95,739.703 1697.44,747.095 1690.92,754.486C1686.41,759.617 1675.96,776.161 1669.25,777.629C1672.9,778.806 1676.55,779.983 1680.19,781.161C1682.77,783.275 1677.98,768.291 1677.88,767.884C1676.06,760.928 1674.24,753.971 1672.42,747.015C1670.92,741.268 1652.79,734.359 1655.01,742.875Z" style="fill:rgb(203,53,119);fill-rule:nonzero;"/>
    </g>
    <g transform="matrix(1,0,0,1,-1443.84,-244.96)">
        <path d="M2188.83,902.194L1857.47,894.395L1856.74,925.499L2188.1,933.297L2188.83,902.194Z" style="fill:rgb(228,139,190);fill-rule:nonzero;"/>
    </g>
    <g transform="matrix(1,0,0,1,-1443.84,-244.96)">
        <path d="M2258.27,971.683L1855.87,962.213L1855.14,993.316L2257.54,1002.79L2258.27,971.683Z" style="fill:rgb(211,223,255);fill-rule:nonzero;"/>
    </g>
    <g transform="matrix(1,0,0,1,-1443.84,-244.96)">
        <path d="M1728.43,988.503L1633.17,986.262L1635.41,891L1730.67,893.241L1728.43,988.503Z" style="fill:white;fill-rule:nonzero;"/>
    </g>
    <g transform="matrix(1,0,0,1,-1443.84,-244.96)">
        <path d="M1728.43,988.503L1728.5,985.504L1636.24,983.333L1638.34,894.069L1727.6,896.17L1725.43,988.433L1728.43,988.503L1728.5,985.504L1728.43,988.503L1731.43,988.574L1733.74,890.313L1632.48,887.93L1630.1,989.19L1731.36,991.573L1731.43,988.574L1728.43,988.503Z" style="fill:rgb(112,140,213);fill-rule:nonzero;"/>
    </g>
    <g transform="matrix(1,0,0,1,-1443.84,-244.96)">
        <path d="M1650.87,918.752C1653.81,930.012 1659.24,977.177 1682.86,963.989C1688.31,960.947 1692.92,952.907 1697,948.282C1704.32,939.966 1711.65,931.65 1718.97,923.335C1733.62,906.704 1748.27,890.072 1762.92,873.441C1766.67,869.179 1750.09,858.489 1745.38,863.84C1732.36,878.623 1719.34,893.406 1706.32,908.189C1699.81,915.581 1693.3,922.973 1686.79,930.364C1682.27,935.495 1671.82,952.039 1665.12,953.507C1668.76,954.684 1672.41,955.862 1676.05,957.039C1678.63,959.153 1673.84,944.169 1673.74,943.762C1671.92,936.806 1670.1,929.85 1668.29,922.893C1666.78,917.146 1648.65,910.237 1650.87,918.752Z" style="fill:rgb(203,53,119);fill-rule:nonzero;"/>
    </g>
    <g transform="matrix(1,0,0,1,-1443.84,-244.96)">
        <path d="M2255.79,1077.06L1853.39,1067.59L1852.66,1098.69L2255.06,1108.16L2255.79,1077.06Z" style="fill:rgb(228,139,190);fill-rule:nonzero;"/>
    </g>
    <g transform="matrix(1,0,0,1,-1443.84,-244.96)">
        <path d="M2031.75,1139.64L1851.79,1135.4L1851.06,1166.51L2031.02,1170.74L2031.75,1139.64Z" style="fill:rgb(211,223,255);fill-rule:nonzero;"/>
    </g>
    <g transform="matrix(1,0,0,1,-1443.84,-244.96)">
        <path d="M1724.35,1161.69L1629.09,1159.45L1631.33,1064.19L1726.59,1066.43L1724.35,1161.69Z" style="fill:white;fill-rule:nonzero;"/>
    </g>
    <g transform="matrix(1,0,0,1,-1443.84,-244.96)">
        <path d="M1724.35,1161.69L1724.42,1158.7L1632.16,1156.52L1634.26,1067.26L1723.52,1069.36L1721.35,1161.62L1724.35,1161.69L1724.42,1158.7L1724.35,1161.69L1727.35,1161.76L1729.66,1063.5L1628.4,1061.12L1626.02,1162.38L1727.28,1164.76L1727.35,1161.76L1724.35,1161.69Z" style="fill:rgb(112,140,213);fill-rule:nonzero;"/>
    </g>
    <g transform="matrix(1,0,0,1,-1443.84,-244.96)">
        <path d="M1648.09,1093.17C1651.03,1104.43 1656.46,1151.6 1680.08,1138.41C1685.53,1135.37 1690.14,1127.33 1694.21,1122.7C1701.54,1114.39 1708.86,1106.07 1716.19,1097.76C1730.83,1081.13 1745.48,1064.49 1760.13,1047.86C1763.88,1043.6 1747.31,1032.91 1742.6,1038.26C1729.58,1053.04 1716.55,1067.83 1703.53,1082.61C1697.02,1090 1690.51,1097.39 1684,1104.79C1679.48,1109.92 1669.04,1126.46 1662.33,1127.93C1665.98,1129.11 1669.62,1130.28 1673.27,1131.46C1675.84,1133.57 1671.06,1118.59 1670.95,1118.18C1669.14,1111.23 1667.32,1104.27 1665.5,1097.31C1664,1091.57 1645.86,1084.66 1648.09,1093.17Z" style="fill:rgb(203,53,119);fill-rule:nonzero;"/>
    </g>
    <g transform="matrix(1,0,0,1,-1443.84,-244.96)">
        <path d="M2251.71,1250.25L1849.32,1240.78L1848.58,1271.88L2250.98,1281.35L2251.71,1250.25Z" style="fill:rgb(228,139,190);fill-rule:nonzero;"/>
    </g>
    <g transform="matrix(1,0,0,1,-1443.84,-244.96)">
        <path d="M2165.6,1316.08L1847.72,1308.59L1846.99,1339.7L2164.87,1347.18L2165.6,1316.08Z" style="fill:rgb(211,223,255);fill-rule:nonzero;"/>
    </g>
    <g transform="matrix(1,0,0,1,-1443.84,-244.96)">
        <path d="M1720.28,1334.89L1625.01,1332.64L1627.26,1237.38L1722.52,1239.62L1720.28,1334.89Z" style="fill:white;fill-rule:nonzero;"/>
    </g>
    <g transform="matrix(1,0,0,1,-1443.84,-244.96)">
        <path d="M1720.28,1334.89L1720.35,1331.89L1628.08,1329.71L1630.19,1240.45L1719.45,1242.55L1717.28,1334.82L1720.28,1334.89L1720.35,1331.89L1720.28,1334.89L1723.28,1334.96L1725.59,1236.69L1624.33,1234.31L1621.94,1335.57L1723.21,1337.96L1723.28,1334.96L1720.28,1334.89Z" style="fill:rgb(112,140,213);fill-rule:nonzero;"/>
    </g>
    <g transform="matrix(1,0,0,1,-1443.84,-244.96)">
        <path d="M1644.04,1265.23C1646.98,1276.49 1652.41,1323.65 1676.03,1310.46C1681.48,1307.42 1686.09,1299.38 1690.16,1294.76C1697.49,1286.44 1704.81,1278.13 1712.14,1269.81C1726.79,1253.18 1741.43,1236.55 1756.08,1219.92C1759.84,1215.66 1743.26,1204.96 1738.55,1210.32C1725.53,1225.1 1712.5,1239.88 1699.48,1254.67C1692.97,1262.06 1686.46,1269.45 1679.95,1276.84C1675.43,1281.97 1664.99,1298.52 1658.28,1299.98C1661.93,1301.16 1665.57,1302.34 1669.22,1303.51C1671.79,1305.63 1667.01,1290.65 1666.9,1290.24C1665.09,1283.28 1663.27,1276.33 1661.45,1269.37C1659.95,1263.62 1641.81,1256.71 1644.04,1265.23Z" style="fill:rgb(203,53,119);fill-rule:nonzero;"/>
    </g>
    <g transform="matrix(1,0,0,1,-1443.84,-244.96)">
        <path d="M2004.78,1416.41L1845.27,1412.66L1844.54,1443.76L2004.05,1447.52L2004.78,1416.41Z" style="fill:rgb(228,139,190);fill-rule:nonzero;"/>
    </g>
    <g transform="matrix(1,0,0,1,-1443.84,-244.96)">
        <path d="M2246.07,1489.95L1843.67,1480.48L1842.94,1511.58C1998.63,1515.23 2196.85,1522.53 2237.3,1516.32C2243.44,1509.34 2246.75,1500.77 2246.07,1489.95Z" style="fill:rgb(211,223,255);fill-rule:nonzero;"/>
    </g>
    <g transform="matrix(1,0,0,1,-1443.84,-244.96)">
        <path d="M1717.56,1506.8L1622.3,1504.56L1624.54,1409.29L1719.81,1411.54L1717.56,1506.8Z" style="fill:white;fill-rule:nonzero;"/>
    </g>
    <g transform="matrix(1,0,0,1,-1443.84,-244.96)">
        <path d="M1717.56,1506.8L1717.63,1503.8L1625.37,1501.63L1627.47,1412.36L1716.74,1414.46L1714.56,1506.73L1717.56,1506.8L1717.63,1503.8L1717.56,1506.8L1720.56,1506.87L1722.88,1408.61L1621.62,1406.22L1619.23,1507.48L1720.49,1509.87L1720.56,1506.87L1717.56,1506.8Z" style="fill:rgb(112,140,213);fill-rule:nonzero;"/>
    </g>
    <g transform="matrix(1,0,0,1,-1443.84,-244.96)">
        <path d="M1640.03,1435.78C1642.97,1447.04 1648.4,1494.2 1672.02,1481.01C1677.46,1477.97 1682.08,1469.93 1686.15,1465.31C1693.47,1456.99 1700.8,1448.67 1708.12,1440.36C1722.77,1423.73 1737.42,1407.1 1752.07,1390.47C1755.82,1386.2 1739.25,1375.51 1734.53,1380.86C1721.51,1395.65 1708.49,1410.43 1695.47,1425.21C1688.96,1432.61 1682.45,1440 1675.94,1447.39C1671.42,1452.52 1660.97,1469.06 1654.27,1470.53C1657.92,1471.71 1661.56,1472.89 1665.21,1474.06C1667.78,1476.18 1663,1461.19 1662.89,1460.79C1661.07,1453.83 1659.25,1446.87 1657.44,1439.92C1655.94,1434.17 1637.8,1427.26 1640.03,1435.78Z" style="fill:rgb(203,53,119);fill-rule:nonzero;"/>
    </g>
    <g transform="matrix(1,0,0,1,-1443.84,-244.96)">
        <path d="M2150,391.88L2150,461.717C2150,475.658 2138.7,486.96 2124.76,486.96L1793.24,486.96C1779.3,486.96 1768,475.658 1768,461.717L1768,391.88C1768,376.72 1774.16,363 1784.08,353.04C1785.32,351.8 1786.6,350.64 1787.96,349.56C1797.44,341.68 1809.64,336.96 1822.92,336.96C1832.88,336.96 1842.44,334.68 1851,330.56C1854.72,328.76 1858.24,326.64 1861.56,324.2C1872.48,316.12 1880.84,304.64 1885,290.96C1889.24,277 1897.92,265.32 1909.16,257.2C1919.96,249.44 1933.12,244.96 1947.08,244.96L1970.92,244.96C1984.88,244.96 1998.04,249.44 2008.84,257.2C2020.08,265.32 2028.76,277 2033,290.96C2037.16,304.64 2045.52,316.12 2056.44,324.2C2059.76,326.64 2063.28,328.76 2067,330.56C2075.56,334.68 2085.12,336.96 2095.08,336.96C2108.36,336.96 2120.56,341.68 2130.04,349.56C2142.24,359.6 2150,374.84 2150,391.88ZM1992.89,301.954C1992.89,284.168 1977.72,269.75 1959.01,269.75C1940.29,269.75 1925.12,284.168 1925.12,301.954C1925.12,319.739 1940.29,334.157 1959.01,334.157C1977.72,334.157 1992.89,319.739 1992.89,301.954Z" style="fill:rgb(203,53,119);"/>
    </g>
    <g transform="matrix(1,0,0,1,-1443.84,-244.96)">
        <path d="M2181,440.28L2181,473.128C2181,494.022 2164.06,510.96 2143.17,510.96C2059.32,510.96 1858.68,510.96 1774.83,510.96C1753.94,510.96 1737,494.022 1737,473.128C1737,456.326 1737,440.28 1737,440.28L1768,440.28L1768,449.128C1768,459.161 1771.99,468.784 1779.08,475.879C1786.18,482.974 1795.8,486.96 1805.83,486.96C1878.98,486.96 2039.02,486.96 2112.17,486.96C2122.2,486.96 2131.82,482.974 2138.92,475.879C2146.01,468.784 2150,459.161 2150,449.128L2150,440.28L2181,440.28Z" style="fill:rgb(228,228,228);fill-rule:nonzero;"/>
    </g>
</svg>
