<?xml version="1.0" encoding="UTF-8" standalone="no"?>
<!DOCTYPE svg PUBLIC "-//W3C//DTD SVG 1.1//EN" "http://www.w3.org/Graphics/SVG/1.1/DTD/svg11.dtd">
<svg width="100%" height="100%" viewBox="0 0 2985 2124" version="1.1" xmlns="http://www.w3.org/2000/svg" xmlns:xlink="http://www.w3.org/1999/xlink" xml:space="preserve" xmlns:serif="http://www.serif.com/" style="fill-rule:evenodd;clip-rule:evenodd;stroke-linejoin:round;stroke-miterlimit:2;">
    <g transform="matrix(3.04809,0,0,3.04809,465.288,881.43)">
        <path d="M0,128.267L115.671,-113.673L374.848,-44.811L427.334,68.862L52.486,241.94L0,128.267Z" style="fill-rule:nonzero;"/>
    </g>
    <g transform="matrix(3.04809,0,0,3.04809,-22.2088,-498.218)">
        <g opacity="0.2">
            <g transform="matrix(1,0,0,1,854.858,766.604)">
                <path d="M0,-488.565L-368.158,-573.596L-453.189,-205.438L-427.437,-199.49L-455.012,-158.575L-694.922,-185.709L-569.914,85.031L-195.066,-88.047L-224.926,-152.717L-85.031,-120.407L0,-488.565Z" style="fill-rule:nonzero;"/>
            </g>
        </g>
    </g>
    <g transform="matrix(-2.96991,-0.685939,-0.685939,2.96991,1595.42,-54.045)">
        <rect x="-330.488" y="37.67" width="377.85" height="377.85" style="fill:white;"/>
    </g>
    <g transform="matrix(3.04809,0,0,3.04809,-22.2088,-498.218)">
        <g opacity="0.1">
            <g transform="matrix(1,0,0,1,573.462,452.419)">
                <path d="M0,59.513L-52.486,-54.16L-144.075,-78.495L-182.415,87.506L36.244,138.008L0,59.513Z" style="fill-rule:nonzero;"/>
            </g>
        </g>
    </g>
    <g transform="matrix(3.04809,0,0,3.04809,2177.5,577.242)">
        <path d="M0,-65.761C12.177,-62.823 15.139,-53.733 15.139,-53.733C15.139,-53.733 21.919,-60.473 34.097,-57.535C46.274,-54.598 52.885,-42.115 50.593,-32.617C48.302,-23.119 45.187,-16.687 23.949,-6.212C10.493,0.425 1.468,2.938 1.468,2.938C1.468,2.938 -5.419,-3.414 -14.369,-15.456C-28.495,-34.462 -28.335,-41.607 -26.043,-51.105C-23.752,-60.603 -12.177,-68.699 0,-65.761" style="fill:rgb(203,53,119);fill-rule:nonzero;"/>
    </g>
    <g transform="matrix(2.9699,0.68596,0.68596,-2.9699,1902.86,221.389)">
        <path d="M1.475,-8.305L22.716,12.937L72.861,12.937L51.62,-8.305L1.475,-8.305ZM-114.936,-8.306L-93.694,12.936L-43.549,12.936L-64.79,-8.306L-114.936,-8.306ZM-129.991,-73.506L-151.232,-94.749L-151.233,-44.603L-129.991,-23.361L-129.991,-73.506ZM117.885,-8.304L139.126,12.938L189.272,12.938L168.03,-8.304L117.885,-8.304ZM197.137,-212.019L175.896,-233.261L175.895,-183.116L197.137,-161.873L197.137,-212.019ZM175.894,-66.705L197.136,-45.463L197.137,-95.608L175.894,-116.851L175.894,-66.705ZM-129.989,-306.327L-151.231,-327.569L-151.232,-277.424L-129.989,-256.182L-129.989,-306.327ZM94.968,-314.189L73.726,-335.432L23.581,-335.432L44.822,-314.189L94.968,-314.189ZM175.896,-299.526L197.137,-278.284L197.138,-335.431L139.991,-335.431L161.232,-314.189L175.896,-314.189L175.896,-299.526ZM-21.443,-314.19L-42.684,-335.432L-92.83,-335.432L-71.588,-314.19L-21.443,-314.19ZM-129.99,-189.917L-151.231,-211.159L-151.232,-161.014L-129.99,-139.771L-129.99,-189.917Z" style="fill:rgb(227,139,190);"/>
    </g>
    <g transform="matrix(2.9699,0.68596,0.68596,-2.9699,2075.73,261.314)">
        <path d="M1.475,-8.305L22.716,12.937L72.861,12.937L51.62,-8.305L1.475,-8.305ZM-209.438,-36.543L-209.438,12.935L-159.96,12.936L-181.201,-8.307L-188.197,-8.307L-188.197,-15.301L-209.438,-36.543ZM-114.936,-8.306L-93.694,12.936L-43.549,12.936L-64.791,-8.306L-114.936,-8.306ZM117.689,-124.911L138.931,-103.669L138.932,-153.814L117.689,-175.056L117.689,-124.911ZM117.689,-8.501L138.93,12.742L138.931,-37.404L117.689,-58.646L117.689,-8.501ZM94.967,-314.19L73.726,-335.432L23.581,-335.432L44.822,-314.19L94.967,-314.19ZM-21.443,-314.19L-42.684,-335.433L-92.83,-335.433L-71.587,-314.19L-21.443,-314.19ZM138.932,-220.08L138.932,-270.225L117.69,-291.466L117.69,-241.322L138.932,-220.08ZM-188.196,-131.712L-209.437,-152.954L-209.438,-102.809L-188.196,-81.567L-188.196,-131.712Z" style="fill:rgb(127,87,187);"/>
    </g>
    <g transform="matrix(3.04809,0,0,3.04809,-22.2088,-498.218)">
        <path d="M138.694,570.275L191.18,683.947L566.027,510.869L513.541,397.196L254.364,328.335L138.694,570.275Z" style="fill:rgb(246,194,229);fill-rule:nonzero;"/>
    </g>
    <g transform="matrix(-2.94332,0.792276,0.792276,2.94332,438.389,935.64)">
        <rect x="-333.749" y="-44.134" width="303.903" height="269.839" style="fill:rgb(255,250,217);"/>
    </g>
    <g transform="matrix(3.04809,0,0,3.04809,652.624,971.57)">
        <path d="M0,-46.39C12.062,-49.771 19.084,-43.284 19.084,-43.284C19.084,-43.284 21.711,-52.476 33.773,-55.857C45.835,-59.239 57.698,-51.571 60.335,-42.164C62.973,-32.756 63.394,-25.622 49.973,-6.112C41.469,6.25 34.82,12.849 34.82,12.849C34.82,12.849 25.708,10.668 12.018,4.527C-9.588,-5.163 -12.937,-11.477 -15.574,-20.885C-18.211,-30.292 -12.062,-43.009 0,-46.39" style="fill:rgb(203,53,119);fill-rule:nonzero;"/>
    </g>
    <g transform="matrix(3.04809,0,0,3.04809,1924.15,1240.03)">
        <path d="M0,97.662L-374.848,270.74L-499.856,-0L-259.946,27.134L-125.009,-173.078L0,97.662Z" style="fill:rgb(203,53,119);fill-rule:nonzero;"/>
    </g>
    <g transform="matrix(3.04809,0,0,3.04809,1559.72,1933.42)">
        <path d="M0,-329.111C-1.512,-329.111 -2.958,-329.972 -3.634,-331.435L-9.922,-345.054C-10.848,-347.06 -9.973,-349.436 -7.967,-350.362C-5.962,-351.289 -3.585,-350.414 -2.659,-348.407L3.629,-334.789C4.555,-332.783 3.68,-330.406 1.674,-329.481C1.131,-329.23 0.561,-329.111 0,-329.111M-27.767,-320.541C-28.536,-320.541 -29.313,-320.762 -29.999,-321.224C-31.831,-322.459 -32.315,-324.945 -31.08,-326.777L-22.697,-339.215C-21.462,-341.048 -18.975,-341.531 -17.145,-340.297C-15.313,-339.063 -14.828,-336.577 -16.063,-334.745L-24.446,-322.306C-25.219,-321.159 -26.481,-320.541 -27.767,-320.541M16.768,-292.796C15.256,-292.796 13.809,-293.657 13.134,-295.12L6.846,-308.738C5.919,-310.743 6.794,-313.12 8.8,-314.046C10.806,-314.973 13.182,-314.097 14.108,-312.091L20.396,-298.473C21.323,-296.468 20.448,-294.091 18.442,-293.165C17.899,-292.914 17.329,-292.796 16.768,-292.796M-50.122,-287.371C-50.892,-287.371 -51.668,-287.592 -52.354,-288.055C-54.186,-289.289 -54.67,-291.776 -53.436,-293.608L-45.052,-306.046C-43.817,-307.878 -41.331,-308.361 -39.5,-307.127C-37.668,-305.893 -37.184,-303.406 -38.418,-301.575L-46.802,-289.136C-47.574,-287.99 -48.837,-287.371 -50.122,-287.371M33.536,-256.48C32.024,-256.48 30.577,-257.341 29.902,-258.804L23.614,-272.422C22.687,-274.427 23.562,-276.804 25.568,-277.73C27.574,-278.658 29.95,-277.781 30.876,-275.776L37.165,-262.157C38.091,-260.152 37.216,-257.775 35.21,-256.849C34.667,-256.598 34.097,-256.48 33.536,-256.48M-72.478,-254.201C-73.247,-254.201 -74.024,-254.423 -74.709,-254.885C-76.542,-256.119 -77.026,-258.606 -75.791,-260.437L-67.408,-272.876C-66.172,-274.708 -63.686,-275.192 -61.855,-273.957C-60.023,-272.723 -59.539,-270.236 -60.774,-268.405L-69.157,-255.966C-69.93,-254.82 -71.192,-254.201 -72.478,-254.201M-94.833,-221.031C-95.603,-221.031 -96.379,-221.253 -97.065,-221.715C-98.897,-222.949 -99.381,-225.436 -98.146,-227.267L-89.763,-239.706C-88.528,-241.539 -86.042,-242.024 -84.211,-240.788C-82.379,-239.553 -81.895,-237.067 -83.129,-235.236L-91.513,-222.797C-92.285,-221.65 -93.548,-221.031 -94.833,-221.031M50.304,-220.164C48.792,-220.164 47.345,-221.025 46.67,-222.488L40.381,-236.107C39.456,-238.112 40.331,-240.489 42.336,-241.415C44.342,-242.34 46.719,-241.465 47.645,-239.46L53.933,-225.841C54.859,-223.836 53.984,-221.459 51.978,-220.533C51.435,-220.282 50.865,-220.164 50.304,-220.164M-339.17,-190.073C-340.682,-190.073 -342.129,-190.935 -342.804,-192.398L-345.057,-197.275C-345.662,-198.587 -345.513,-200.123 -344.667,-201.294C-343.822,-202.465 -342.415,-203.091 -340.975,-202.926L-331.408,-201.844C-329.213,-201.596 -327.635,-199.615 -327.883,-197.42C-328.131,-195.225 -330.104,-193.656 -332.308,-193.895L-335.174,-194.22C-335.118,-192.656 -335.987,-191.14 -337.496,-190.443C-338.039,-190.193 -338.609,-190.073 -339.17,-190.073M-292.106,-189.374C-292.256,-189.374 -292.408,-189.382 -292.561,-189.4L-307.466,-191.085C-309.661,-191.333 -311.239,-193.314 -310.991,-195.509C-310.743,-197.704 -308.767,-199.286 -306.566,-199.034L-291.662,-197.349C-289.467,-197.101 -287.888,-195.12 -288.137,-192.925C-288.368,-190.882 -290.099,-189.374 -292.106,-189.374M-117.188,-187.862C-117.958,-187.862 -118.735,-188.083 -119.42,-188.545C-121.252,-189.78 -121.737,-192.266 -120.502,-194.098L-112.119,-206.536C-110.884,-208.369 -108.396,-208.853 -106.566,-207.618C-104.734,-206.383 -104.25,-203.897 -105.485,-202.066L-113.868,-189.627C-114.641,-188.481 -115.903,-187.862 -117.188,-187.862M-252.36,-184.879C-252.51,-184.879 -252.662,-184.887 -252.814,-184.904L-267.719,-186.59C-269.914,-186.838 -271.492,-188.819 -271.244,-191.014C-270.996,-193.209 -269.021,-194.788 -266.82,-194.539L-251.915,-192.854C-249.72,-192.606 -248.142,-190.625 -248.39,-188.43C-248.621,-186.387 -250.352,-184.879 -252.36,-184.879M67.072,-183.848C65.56,-183.848 64.113,-184.709 63.438,-186.172L57.15,-199.791C56.224,-201.797 57.099,-204.173 59.104,-205.099C61.111,-206.027 63.487,-205.15 64.413,-203.144L70.701,-189.526C71.627,-187.52 70.752,-185.144 68.746,-184.217C68.203,-183.967 67.633,-183.848 67.072,-183.848M-212.613,-180.383C-212.764,-180.383 -212.915,-180.391 -213.068,-180.408L-227.973,-182.095C-230.168,-182.343 -231.746,-184.324 -231.498,-186.52C-231.25,-188.715 -229.269,-190.297 -227.073,-190.044L-212.168,-188.358C-209.973,-188.11 -208.395,-186.128 -208.644,-183.933C-208.875,-181.891 -210.605,-180.383 -212.613,-180.383M-172.867,-175.888C-173.017,-175.888 -173.168,-175.896 -173.321,-175.913L-188.226,-177.599C-190.421,-177.847 -192,-179.827 -191.751,-182.023C-191.502,-184.218 -189.523,-185.799 -187.327,-185.548L-172.422,-183.862C-170.227,-183.614 -168.648,-181.634 -168.897,-179.439C-169.128,-177.396 -170.859,-175.888 -172.867,-175.888M-133.12,-171.393C-133.27,-171.393 -133.422,-171.401 -133.575,-171.418L-148.479,-173.104C-150.674,-173.352 -152.252,-175.332 -152.004,-177.528C-151.756,-179.723 -149.777,-181.301 -147.58,-181.053L-132.675,-179.367C-130.48,-179.119 -128.902,-177.139 -129.15,-174.944C-129.381,-172.901 -131.112,-171.393 -133.12,-171.393M-322.402,-153.758C-323.914,-153.758 -325.361,-154.619 -326.036,-156.082L-332.324,-169.7C-333.25,-171.706 -332.375,-174.082 -330.37,-175.009C-328.364,-175.933 -325.987,-175.06 -325.062,-173.054L-318.773,-159.436C-317.847,-157.43 -318.722,-155.054 -320.728,-154.127C-321.271,-153.877 -321.841,-153.758 -322.402,-153.758M83.84,-147.532C82.328,-147.532 80.881,-148.394 80.206,-149.857L73.918,-163.475C72.992,-165.481 73.867,-167.857 75.873,-168.783C77.879,-169.707 80.255,-168.834 81.181,-166.828L87.469,-153.21C88.395,-151.204 87.52,-148.828 85.514,-147.902C84.971,-147.652 84.401,-147.532 83.84,-147.532M-305.634,-117.443C-307.146,-117.443 -308.593,-118.304 -309.268,-119.767L-315.556,-133.385C-316.482,-135.391 -315.607,-137.767 -313.602,-138.694C-311.595,-139.617 -309.219,-138.744 -308.293,-136.738L-302.005,-123.12C-301.079,-121.114 -301.954,-118.738 -303.96,-117.812C-304.503,-117.562 -305.073,-117.443 -305.634,-117.443M-288.866,-81.126C-290.378,-81.126 -291.825,-81.987 -292.5,-83.45L-298.789,-97.069C-299.714,-99.075 -298.839,-101.452 -296.833,-102.378C-294.827,-103.302 -292.451,-102.429 -291.525,-100.423L-285.237,-86.804C-284.311,-84.798 -285.186,-82.421 -287.192,-81.495C-287.735,-81.245 -288.305,-81.126 -288.866,-81.126M-272.098,-44.811C-273.61,-44.811 -275.057,-45.672 -275.732,-47.135L-282.02,-60.753C-282.946,-62.759 -282.071,-65.135 -280.065,-66.062C-278.059,-66.985 -275.683,-66.112 -274.757,-64.107L-268.469,-50.488C-267.543,-48.483 -268.418,-46.107 -270.424,-45.18C-270.967,-44.93 -271.537,-44.811 -272.098,-44.811M-255.331,-8.495C-256.842,-8.495 -258.289,-9.357 -258.965,-10.819L-265.252,-24.438C-266.178,-26.444 -265.303,-28.819 -263.297,-29.746C-261.291,-30.671 -258.915,-29.797 -257.989,-27.791L-251.702,-14.173C-250.775,-12.167 -251.65,-9.791 -253.656,-8.864C-254.199,-8.614 -254.77,-8.495 -255.331,-8.495M-241.17,22.178C-241.637,22.178 -242.105,22.096 -242.552,21.931C-243.548,21.564 -244.357,20.817 -244.802,19.854L-248.484,11.878C-249.41,9.872 -248.535,7.495 -246.529,6.569C-244.523,5.645 -242.147,6.518 -241.221,8.524L-239.215,12.869L-237.205,11.94C-235.201,11.017 -232.822,11.889 -231.896,13.895C-230.97,15.901 -231.845,18.277 -233.851,19.204L-239.493,21.809C-240.024,22.055 -240.596,22.178 -241.17,22.178" style="fill:rgb(246,194,229);fill-rule:nonzero;"/>
    </g>
    <g transform="matrix(0.524548,-3.00262,-3.00262,-0.524548,1759.23,2203.88)">
        <path d="M-10.402,323.782L271.752,323.782C310.702,323.782 337.648,284.859 323.935,248.402L224.602,-15.688L-10.402,323.782Z" style="fill:white;fill-rule:nonzero;"/>
    </g>
    <g transform="matrix(3.04809,0,0,3.04809,1063.16,1878.88)">
        <path d="M0,-229.08C-1.636,-229.08 -3.195,-230.03 -3.894,-231.624C-4.835,-233.773 -3.856,-236.279 -1.707,-237.221C3.678,-239.58 9.364,-240.928 15.193,-241.23C17.546,-241.331 19.533,-239.547 19.655,-237.205C19.775,-234.862 17.974,-232.865 15.631,-232.743C10.83,-232.497 6.144,-231.384 1.703,-229.438C1.148,-229.195 0.569,-229.08 0,-229.08M54.389,-217.994C53.649,-217.994 52.899,-218.188 52.216,-218.596L38.537,-226.761C36.522,-227.963 35.863,-230.572 37.066,-232.586C38.268,-234.601 40.875,-235.26 42.891,-234.057L56.571,-225.892C58.586,-224.69 59.245,-222.081 58.041,-220.067C57.246,-218.734 55.836,-217.994 54.389,-217.994M-25.467,-197.189C-25.733,-197.189 -26.001,-197.214 -26.271,-197.266C-28.575,-197.707 -30.086,-199.933 -29.645,-202.237C-28.534,-208.044 -26.427,-213.495 -23.381,-218.44C-22.15,-220.438 -19.533,-221.059 -17.536,-219.83C-15.538,-218.599 -14.916,-215.982 -16.146,-213.985C-18.65,-209.92 -20.384,-205.431 -21.3,-200.641C-21.689,-198.606 -23.47,-197.189 -25.467,-197.189M90.868,-196.219C90.127,-196.219 89.376,-196.413 88.695,-196.82L75.015,-204.986C73,-206.188 72.341,-208.797 73.544,-210.811C74.746,-212.826 77.356,-213.485 79.369,-212.282L93.049,-204.116C95.064,-202.914 95.723,-200.305 94.52,-198.291C93.724,-196.958 92.314,-196.219 90.868,-196.219M127.347,-174.444C126.606,-174.444 125.855,-174.638 125.174,-175.045L111.494,-183.211C109.479,-184.413 108.82,-187.022 110.023,-189.036C111.226,-191.051 113.835,-191.71 115.848,-190.507L129.528,-182.341C131.543,-181.139 132.202,-178.53 130.999,-176.516C130.203,-175.183 128.794,-174.444 127.347,-174.444M-32.562,-155.303C-32.797,-155.303 -33.036,-155.323 -33.275,-155.364C-35.589,-155.756 -37.147,-157.948 -36.756,-160.261L-34.099,-175.969C-33.706,-178.282 -31.509,-179.838 -29.201,-179.45C-26.887,-179.058 -25.329,-176.866 -25.72,-174.553L-28.378,-158.844C-28.729,-156.771 -30.527,-155.303 -32.562,-155.303M163.825,-152.669C163.084,-152.669 162.333,-152.863 161.651,-153.27L147.972,-161.436C145.958,-162.639 145.299,-165.247 146.503,-167.262C147.705,-169.275 150.312,-169.935 152.329,-168.732L166.007,-160.566C168.021,-159.363 168.68,-156.755 167.477,-154.74C166.681,-153.408 165.272,-152.669 163.825,-152.669M200.304,-130.894C199.563,-130.894 198.812,-131.088 198.131,-131.496L184.451,-139.661C182.436,-140.864 181.778,-143.472 182.981,-145.486C184.183,-147.502 186.792,-148.16 188.806,-146.957L202.485,-138.791C204.5,-137.589 205.159,-134.981 203.956,-132.966C203.16,-131.634 201.751,-130.894 200.304,-130.894M-39.647,-113.415C-39.882,-113.415 -40.121,-113.435 -40.36,-113.475C-42.674,-113.867 -44.232,-116.06 -43.841,-118.373L-41.184,-134.081C-40.791,-136.394 -38.595,-137.95 -36.286,-137.562C-33.972,-137.17 -32.414,-134.977 -32.805,-132.665L-35.463,-116.956C-35.814,-114.883 -37.612,-113.415 -39.647,-113.415M236.783,-109.119C236.043,-109.119 235.292,-109.313 234.61,-109.721L220.931,-117.887C218.915,-119.089 218.257,-121.697 219.46,-123.711C220.662,-125.727 223.272,-126.385 225.285,-125.182L238.964,-117.016C240.98,-115.814 241.638,-113.206 240.435,-111.192C239.64,-109.859 238.23,-109.119 236.783,-109.119M-46.732,-71.526C-46.967,-71.526 -47.206,-71.546 -47.445,-71.586C-49.759,-71.978 -51.317,-74.171 -50.926,-76.484L-48.269,-92.192C-47.876,-94.505 -45.681,-96.062 -43.371,-95.673C-41.057,-95.281 -39.499,-93.088 -39.89,-90.775L-42.548,-75.067C-42.899,-72.994 -44.697,-71.526 -46.732,-71.526M-53.816,-29.638C-54.051,-29.638 -54.29,-29.658 -54.529,-29.698C-56.842,-30.09 -58.401,-32.282 -58.01,-34.596L-55.354,-50.304C-54.963,-52.617 -52.762,-54.175 -50.456,-53.785C-48.143,-53.394 -46.585,-51.201 -46.976,-48.887L-49.632,-33.179C-49.982,-31.106 -51.781,-29.638 -53.816,-29.638M-60.901,12.251C-61.136,12.251 -61.375,12.231 -61.615,12.191C-63.927,11.8 -65.486,9.607 -65.095,7.293L-62.439,-8.415C-62.048,-10.728 -59.849,-12.282 -57.541,-11.896C-55.229,-11.504 -53.67,-9.312 -54.061,-6.998L-56.717,8.71C-57.067,10.784 -58.866,12.251 -60.901,12.251" style="fill:rgb(127,87,187);fill-rule:nonzero;"/>
    </g>
    <g transform="matrix(-1.27777,-2.76734,-2.76734,1.27777,1070.7,1250.3)">
        <path d="M-17.828,-27.869C-28.673,-27.869 -37.466,-19.077 -37.465,-8.233C-37.466,2.613 -28.674,11.405 -17.828,11.405C-6.983,11.405 1.809,2.613 1.808,-8.232C1.809,-19.077 -6.984,-27.869 -17.828,-27.869" style="fill:rgb(253,245,191);fill-rule:nonzero;"/>
    </g>
    <g transform="matrix(1,0,0,0.972692,0,-380.353)">
        <rect x="0" y="383.838" width="2985" height="2182.8" style="fill:none;"/>
    </g>
</svg>
