<?xml version="1.0" encoding="UTF-8"?>
<svg xmlns="http://www.w3.org/2000/svg" version="1.1" xmlns:xlink="http://www.w3.org/1999/xlink" viewBox="0 0 1190.6 1190.6">
  <defs>
    <style>
      .cls-1 {
        fill: #50eb5d;
      }

      .cls-2 {
        fill: #fff;
      }

      .cls-3 {
        fill: none;
      }

      .cls-4 {
        clip-path: url(#clippath-1);
      }

      .cls-5 {
        fill: #005e3f;
      }

      .cls-6 {
        clip-path: url(#clippath);
      }
    </style>
    <clipPath id="clippath">
      <rect class="cls-3" y="0" width="1190.6" height="1190.6"/>
    </clipPath>
    <clipPath id="clippath-1">
      <rect class="cls-3" x="595.3" y="874.2" width="595.3" height="316.3"/>
    </clipPath>
  </defs>
  <!-- Generator: Adobe Illustrator 28.6.0, SVG Export Plug-In . SVG Version: 1.2.0 Build 709)  -->
  <g>
    <g id="Ebene_1">
      <g class="cls-6">
        <path class="cls-5" d="M595.3,0C924,0,1190.6,266.5,1190.6,595.3v595.3h-595.3C266.5,1190.5,0,924,0,595.3S266.5,0,595.3,0"/>
        <path class="cls-2" d="M845.1,487.1c-3.8,0-6.6,2.8-6.6,6.4s2.7,6.3,6.6,6.3,6.6-2.8,6.6-6.3-2.7-6.4-6.6-6.4M793.2,458.7v40.6h9.7v-21.8c0-7.4,4.5-11.3,9.8-11.3s7.8,3,7.8,8.5v24.6h9.7v-26.7c0-9.8-6-14.9-14.5-14.9s-10.6,3-13.1,7.1v-6.2h-9.4ZM760.7,458.7v40.6h9.7v-21.3c0-7.3,4.2-11,9.8-11s3.3.3,5,1l1.5-9c-1.9-.6-3.8-.9-5.6-.9-4.9,0-9.1,2.2-11,7v-6.4h-9.4ZM723.2,475c1-5.8,4.6-9.1,10.5-9.1s8.8,3.4,8.9,9.1h-19.4ZM752.2,482.1v-4.2c0-13.2-7-20.2-18-20.2s-20.6,9.5-20.6,21.5,8,20.6,20.5,20.6,12.7-2.8,17-7.8l-5.1-5.8c-2.5,3.1-6.1,5.3-11.1,5.3s-10.4-3.1-11.5-9.4h28.9ZM695.5,458.7v19.8c0,7-4.4,11.2-10.1,11.2s-8.6-3.3-8.6-9v-22h-9.6v23.8c0,10.6,7,15.8,15.4,15.8s10.6-2.6,12.9-7.1v7.4c0,7.1-4.6,10.9-10.8,10.9s-10-2.5-12.1-7.6l-8.1,4.3c3.4,7.9,10.6,12,19.9,12s20.6-7.3,20.6-20.7v-38.7h-9.6ZM619.1,478.8c0-6.9,4-12.5,11.3-12.5s11.7,5.1,11.7,12.5-4.7,12.5-11.6,12.5-11.4-5.1-11.4-12.5M651.7,486.7v-27.9h-9.4v6.1c-2.2-4.4-7-7-13.6-7-12.4,0-19.3,9.7-19.3,21.1s7.1,21,19.2,21,12.1-2.8,14.9-7.9c.8,5.1,5.1,7.9,10,7.9s5.4-.8,7.8-2.5l-2.2-7.1c-1,.6-2.1.9-3.1.9-2.2,0-4.2-1.3-4.2-4.5M571.6,467.4v-14.9h10.7c5.3,0,7.9,2.9,7.9,6.9s-3.1,8-8.6,8h-10.1ZM571.6,490.3v-15.2h12c5.8,0,8.9,3.4,8.9,7.5s-3.4,7.7-9.1,7.7h-11.8ZM584.6,443.4h-22.8v56h22.2c11.7,0,18.6-8.1,18.6-16.2s-3.6-11.4-11.6-13c6.3-1.9,9.4-7.4,9.4-12.9s-5.4-13.9-15.7-13.9M487.1,443.4v56h9.9v-16.4l7.4-7.9,17.7,24.3h12.6l-23-31.8,23.2-24.2h-13.4l-24.4,26.5v-26.5h-9.9ZM430,471.4c0-11.4,7.8-19.8,18.5-19.8s18.5,8.4,18.5,19.8-7.7,19.8-18.5,19.8-18.5-8.4-18.5-19.8M448.5,442.1c-16.4,0-28.6,12.6-28.6,29.3s12.2,29.3,28.6,29.3,28.6-12.6,28.6-29.3-12.2-29.3-28.6-29.3M382.4,477.3l7.8-20.8,7.8,20.8h-15.7ZM406.4,499.4h10.6l-22.1-56h-9.4l-22.1,56h10.6l4.9-12.8h22.6l4.9,12.8ZM319.1,458.7v40.6h9.7v-21.3c0-7.3,4.2-11,9.8-11s3.3.3,5,1l1.5-9c-1.9-.6-3.8-.9-5.6-.9-4.9,0-9.1,2.2-11,7v-6.4h-9.4ZM281.6,475c1-5.8,4.6-9.1,10.5-9.1s8.8,3.4,8.9,9.1h-19.4ZM310.6,482.1v-4.2c0-13.2-7-20.2-18-20.2s-20.6,9.5-20.6,21.5,8,20.6,20.5,20.6,12.7-2.8,17-7.8l-5.1-5.8c-2.5,3.1-6.1,5.3-11.1,5.3s-10.4-3.1-11.5-9.4h28.9ZM230.8,478.8c0-6.9,4.1-12.5,11.3-12.5s11.7,5.1,11.7,12.5-4.7,12.5-11.7,12.5-11.3-5.1-11.3-12.5M263.5,499.4v-56h-9.7v21c-2.2-4-7.1-6.6-13.4-6.6-12.4,0-19.3,9.8-19.3,21.1s6.9,21,19.2,21,11.4-2.6,13.9-6.8v6.3h9.2Z"/>
        <path class="cls-1" d="M1020.7,362.7v40.6h9.7v-21.8c0-7.4,4.5-11.3,9.8-11.3s7.8,3,7.8,8.5v24.6h9.7v-26.7c0-9.8-6-14.9-14.5-14.9s-10.6,3-13.1,7.1v-6.2h-9.4ZM983.2,379c1-5.8,4.6-9.1,10.5-9.1s8.8,3.4,8.9,9.1h-19.4ZM1012.2,386.1v-4.2c0-13.2-7-20.2-18-20.2s-20.6,9.5-20.6,21.5,8,20.6,20.5,20.6,12.7-2.8,17-7.8l-5.1-5.8c-2.5,3.1-6.1,5.3-11.1,5.3s-10.4-3.1-11.5-9.4h28.9ZM928,347.4v56h9.7v-21.8c0-7.4,4.5-11.2,9.8-11.2s7.8,3,7.8,8.5v24.6h9.7v-26.7c0-9.8-6-14.9-14.5-14.9s-10.5,2.9-12.9,6.9v-21.3h-9.7ZM921.1,393.6l-6.5-4.7c-2.3,3.9-6.3,6.2-10.6,6.2-7.2,0-11.6-5.6-11.6-12.5s3.9-12.2,11.1-12.2,7.2,1.8,9.5,5.2l6.9-5.7c-3.8-5.4-9.4-8.2-16.4-8.2-12.6,0-20.7,9.5-20.7,21.3s7.3,20.8,20.3,20.8,13.8-3.8,17.9-10.2M864.1,403.4h9.7v-40.6h-9.7v40.6ZM869,344.1c-3.8,0-6.6,2.7-6.6,6.3s2.7,6.2,6.6,6.2,6.5-2.7,6.5-6.2-2.6-6.3-6.5-6.3M826,379c1-5.8,4.6-9.1,10.5-9.1s8.8,3.4,8.9,9.1h-19.4ZM855,386.1v-4.2c0-13.2-7-20.2-18-20.2s-20.6,9.5-20.6,21.5,8,20.6,20.5,20.6,12.7-2.8,17-7.8l-5.1-5.8c-2.5,3.1-6.1,5.3-11.1,5.3s-10.4-3.1-11.5-9.4h28.9ZM788.1,394.7l21.7-23.8v-8.2h-34.1v8.6h21.2l-21.5,23.7v8.3h35.6v-8.6h-22.9ZM762.3,373.9l5-6.3c-3.8-3.8-9.5-5.8-15-5.8-8.1,0-15.3,4.2-15.3,12.8s8.9,11.2,15.4,12.5c5,1,7.5,1.8,7.5,4.6s-2.6,3.8-6.1,3.8-10.3-1.8-13.8-6l-5.4,6.7c4.6,5,11.4,7.7,18.2,7.7s16.6-5,16.6-13.4-8.2-10.4-14.6-11.7c-5.5-1-8.4-1.8-8.4-4.7s2.3-4.2,5.8-4.2,7.2,1.2,9.9,3.9M697.3,362.7v8.6h8.2v18.7c0,8.8,5.9,13.8,13.8,13.8s7.8-1.2,11.4-3.6l-2.6-7c-2.1,1.3-4.4,1.9-6.3,1.9-3.7,0-6.6-2.1-6.6-6.6v-17.1h12.1v-8.6h-12.1v-10.4h-9.7v10.4h-8.2ZM670.2,349.5c0,3.3,2.6,5.8,6.1,5.8s6.1-2.6,6.1-5.8-2.6-5.8-6.1-5.8-6.1,2.6-6.1,5.8M655.1,382.8c0-6.9,4-12.5,11.3-12.5s11.7,5.1,11.7,12.5-4.7,12.5-11.6,12.5-11.4-5.1-11.4-12.5M653.1,349.5c0,3.3,2.6,5.8,6.1,5.8s6.1-2.6,6.1-5.8-2.6-5.8-6.1-5.8-6.1,2.6-6.1,5.8M687.7,390.7v-27.9h-9.4v6.1c-2.2-4.4-7-7-13.6-7-12.4,0-19.3,9.7-19.3,21.1s7.1,21,19.2,21,12.1-2.8,14.9-7.9c.8,5.1,5.1,7.9,10,7.9s5.4-.8,7.8-2.5l-2.2-7.1c-1,.6-2.1.9-3.1.9-2.2,0-4.2-1.3-4.2-4.5M608.7,362.7v8.6h8.2v18.7c0,8.8,5.9,13.8,13.8,13.8s7.8-1.2,11.4-3.6l-2.6-7c-2.1,1.3-4.4,1.9-6.3,1.9-3.7,0-6.6-2.1-6.6-6.6v-17.1h12.1v-8.6h-12.1v-10.4h-9.7v10.4h-8.2ZM592.3,403.4h9.7v-40.6h-9.7v40.6ZM597.1,344.1c-3.8,0-6.6,2.7-6.6,6.3s2.7,6.2,6.6,6.2,6.5-2.7,6.5-6.2-2.6-6.3-6.5-6.3M585.1,401.4l-2.4-7.4c-1.4.8-2.9,1.1-4.2,1.1-3,0-5.2-2-5.2-5.8v-42h-9.7v43c0,8.7,5.6,13.4,12.6,13.4s5.9-.8,9-2.5M515,382.8c0-6.9,4-12.5,11.3-12.5s11.7,5.1,11.7,12.5-4.7,12.5-11.6,12.5-11.4-5.1-11.4-12.5M547.6,390.7v-27.9h-9.4v6.1c-2.2-4.4-7-7-13.6-7-12.4,0-19.3,9.7-19.3,21.1s7.1,21,19.2,21,12.1-2.8,14.9-7.9c.8,5.1,5.1,7.9,10,7.9s5.4-.8,7.8-2.5l-2.2-7.1c-1,.6-2.1.9-3.1.9-2.2,0-4.2-1.3-4.2-4.5M496.8,362.7h-9.7v21.3c0,7-4.1,11.2-9.8,11.2s-7.5-2.8-7.5-8.6v-23.8h-9.7v25.8c0,10.5,6.4,15.3,14.6,15.3s10.2-3,12.6-7.1v6.6h9.4v-40.6ZM403.8,375.4c0-11.4,7.8-19.8,18.5-19.8s18.5,8.4,18.5,19.8-7.7,19.8-18.5,19.8-18.5-8.4-18.5-19.8M422.3,346.1c-16.4,0-28.6,12.6-28.6,29.3s12.2,29.3,28.6,29.3,3.8-.2,5.6-.5c3,6.6,9.4,12.5,17.9,14.7l4.2-9c-6.4-1.8-10.6-5.2-12.6-9.4,8.2-5,13.5-14.2,13.5-25.2,0-16.7-12.2-29.3-28.6-29.3M361.7,373.9l5-6.3c-3.8-3.8-9.5-5.8-15-5.8-8.1,0-15.3,4.2-15.3,12.8s8.9,11.2,15.4,12.5c5,1,7.5,1.8,7.5,4.6s-2.6,3.8-6.1,3.8-10.3-1.8-13.8-6l-5.4,6.7c4.6,5,11.4,7.7,18.2,7.7s16.6-5,16.6-13.4-8.2-10.4-14.6-11.7c-5.5-1-8.4-1.8-8.4-4.7s2.3-4.2,5.8-4.2,7.2,1.2,9.9,3.9M288.3,382.8c0-6.9,4-12.5,11.3-12.5s11.7,5.1,11.7,12.5-4.7,12.5-11.6,12.5-11.4-5.1-11.4-12.5M321,390.7v-27.9h-9.4v6.1c-2.2-4.4-7-7-13.6-7-12.4,0-19.3,9.7-19.3,21.1s7.1,21,19.2,21,12.1-2.8,14.9-7.9c.8,5.1,5.1,7.9,10,7.9s5.4-.8,7.8-2.5l-2.2-7.1c-1,.6-2.1.9-3.1.9-2.2,0-4.2-1.3-4.2-4.5M234.3,393.9v-37.1h9.1c12.2,0,18.4,9.1,18.4,18.4s-6.2,18.7-18.6,18.7h-8.9ZM224.3,403.4h18.1c19.5,0,29.4-14.3,29.4-28.5s-9.4-27.5-28.4-27.5h-19v56Z"/>
        <path class="cls-1" d="M278,792.5h33.9c3.3-13.5,7.9-41.2.4-53.5-5.2-8.5-15.8-15.3-22.9-19.8-2.7-1.5-5.3-3.4-7.5-5.5-1.8-2.1-3.4-4.3-5.7-7.6-1.8-2.5-4.1-5.7-7.3-10.1-4.3-5.9-8.8-5.9-11.5-3.9-3.5,2.9-4,8-1.2,11.5,0,0,.1.1.2.2,7,10.2,18.5,27.2,18.5,27.2l-8.3,5.6s-11.5-17-18.5-27.2c-5.7-7.4-4.9-17.9,1.9-24.3-1.4-6.4-4.8-21.7-7.1-31-.5-4.3-4.4-7.3-8.6-6.8-.4,0-.8.1-1.2.2-2.1.5-5.9,1.4-4.5,15,2.1,21.3,6.7,56,10.9,64.6,4.7,8.3,10.7,15.7,17.9,21.9,4.5,4.1,8.6,8.5,12.3,13.4,5.9,8.9,8.9,19.4,8.6,30.1M319.5,802.6h-51.1l-.3-7.3c-.4-9.8-.7-18.3-6.8-27-3.3-4.3-7-8.3-11-11.9-8-7-14.8-15.3-19.9-24.6-6.3-12.9-11.3-62.4-11.9-68-.6-6.1-2.2-22.3,12.2-25.8,9.5-2.4,19.3,3.3,21.7,12.9,0,.3.2.7.2,1.1,2.1,8.5,5.1,22,6.7,29.2,7.1-.5,13.9,3,17.6,9,3.3,4.4,5.6,7.7,7.4,10.3,2.2,3.1,3.6,5.1,5.2,6.9,1.7,1.3,3.5,2.5,5.3,3.6,7.8,5,19.6,12.6,26,23,12.2,20,.2,63.2-.3,65.1l-1,3.6Z"/>
        <path class="cls-1" d="M354.5,792.5h33.9c-.3-10.7,2.7-21.2,8.6-30.1,3.7-4.8,7.8-9.3,12.3-13.4,7.2-6.2,13.2-13.6,17.9-21.9,4.2-8.5,8.8-43.3,10.9-64.6,1.3-13.6-2.5-14.6-4.5-15-4.1-1.2-8.4,1.2-9.6,5.4-.1.4-.2.8-.2,1.2-2.3,9.3-5.7,24.6-7.1,31,6.8,6.4,7.6,16.9,1.9,24.3-7,10.1-18.4,27.2-18.5,27.2l-8.3-5.6s11.5-17.1,18.5-27.2c3-3.4,2.6-8.6-.8-11.6,0,0-.1-.1-.2-.2-2.7-2-7.2-1.9-11.5,3.9-3.2,4.4-5.5,7.6-7.3,10.1-2.3,3.3-3.9,5.5-5.7,7.6-2.3,2.2-4.8,4-7.5,5.5-7,4.5-17.7,11.3-22.9,19.8-7.5,12.2-2.9,40,.4,53.5M398,802.6h-51.1l-1-3.6c-.5-1.8-12.5-45.1-.3-65.1,6.4-10.4,18.2-18,26-23,1.9-1.1,3.7-2.3,5.4-3.7,1.5-1.7,2.9-3.8,5.1-6.9,1.8-2.6,4.1-5.8,7.4-10.3,3.8-6,10.6-9.5,17.6-9,1.6-7.2,4.6-20.7,6.7-29.2,1.8-9.7,11.2-16,20.8-14.2.4,0,.7.1,1.1.2,14.4,3.4,12.8,19.7,12.2,25.8-.5,5.6-5.5,55.1-11.9,68-5.1,9.3-11.9,17.7-19.9,24.6-4,3.6-7.7,7.6-11,11.9-6.1,8.7-6.5,17.2-6.8,27l-.3,7.3Z"/>
        <path class="cls-1" d="M314.4,607c-6.8,0-12.3-5.5-12.3-12.3s5.5-12.3,12.3-12.3,12.3,5.5,12.3,12.3c0,6.8-5.5,12.3-12.3,12.3M314.4,572.3c-12.3,0-22.3,10-22.3,22.3s10,22.3,22.3,22.3c12.3,0,22.3-10,22.3-22.3,0-12.3-10-22.3-22.3-22.3"/>
        <path class="cls-1" d="M366.7,624.8c-4.3,0-7.8-3.5-7.8-7.8s3.5-7.8,7.8-7.8,7.8,3.5,7.8,7.8c0,4.3-3.5,7.8-7.8,7.8M366.7,599.1c-9.9,0-17.9,8-17.9,17.9s8,17.9,17.9,17.9c9.9,0,17.8-8,17.9-17.9,0-9.9-8-17.9-17.9-17.9"/>
        <path class="cls-1" d="M367.6,672.4h-1.8c-9.5,0-17.9-5.4-21.9-13.6,7.3-3.4,15.1-5.2,23-5.3,7.8,0,15.6,1.9,22.7,5.3-4.1,8.3-12.5,13.7-21.9,13.7M399.6,652.8c-10-6-21.3-9.2-33-9.4-11.6.1-23,3.4-32.9,9.4l-2,1.1.6,2.2c3.9,15.7,18.2,26.7,34.4,26.2,16.2.4,30.5-10.5,34.4-26.2l.6-2.2-2-1.1Z"/>
        <path class="cls-1" d="M327.5,670.7c-3.7,1.1-7.7,1.7-11.8,1.7h-2.6c-16.4,0-30.8-9.8-36.4-24.3,11.8-6,24.7-9.2,37.9-9.4,6.5,0,13.1.9,19.4,2.5,4.8-2.4,9.9-4.2,15.1-5.6-11-4.4-22.7-6.8-34.7-7-16.5.2-32.7,4.7-46.8,12.9l-2.9,1.6.8,3.1c5.5,21.7,25.8,36.7,48.8,36.1,6.8.2,13.4-1.1,19.5-3.4-2.4-2.5-4.6-5.3-6.4-8.3"/>
      </g>
      <g class="cls-4">
        <path class="cls-2" d="M839.2,988.6c-24.2,0-43.7,19.6-43.7,43.7s19.6,43.7,43.7,43.7,43.7-19.6,43.7-43.7-19.6-43.7-43.7-43.7M839.2,1062.4c-16.4,0-29.7-13.5-29.7-30s13.3-30,29.7-30,29.7,13.5,29.7,30-13.3,30-29.7,30M1032.9,973.8c-32.4,0-58.6,26.2-58.6,58.6s26.2,58.6,58.6,58.6,58.6-26.2,58.6-58.6-26.2-58.6-58.6-58.6M1032.9,1085c-29,0-52.6-23.6-52.6-52.6s23.6-52.6,52.6-52.6,52.6,23.6,52.6,52.6-23.6,52.6-52.6,52.6M766.2,991.5l-53.7,81.8h16.3l11.9-18.2h34.2v18.2h13.5v-81.8h-22.2ZM748.7,1042.9l26.2-40.2v40.2s-26.2,0-26.2,0ZM961.3,1073.3h-18.5l-27.2-35.9-11.6,12.9v23s-13.5,0-13.5,0v-81.8h13.5v38.8s34.8-38.8,34.8-38.8h17.9l-31.5,35.1,36.1,46.7ZM1073.3,1023.5c-12.1-3.2-17.2-5.5-23.1-2.1,0,0,0,0,0,0-5.5,3.2-7.8,9.7-6,15.5l-8.2,4.8v-19.5c5.9-1.3,10.4-6.6,10.4-13,0,0,0,0,0,0,0-6.8-4.5-10.1-13.4-19-8.9,8.9-13.4,12.1-13.4,19h0c0,6.4,4.5,11.7,10.4,13.1v19.6l-8.2-4.8c1.8-5.8-.6-12.3-6-15.5,0,0,0,0,0,0-5.9-3.4-11-1.1-23.1,2.1,3.3,12.2,3.8,17.7,9.7,21.1h0c5.5,3.2,12.2,2,16.4-2.4l11.3,6.5v10h-27.8v5.9h61.6s0-5.9,0-5.9h-27.8v-10l11.3-6.5c4.2,4.4,10.9,5.5,16.4,2.4h0c5.9-3.4,6.5-8.9,9.7-21.1M1025.4,1009c0-2.9,1.3-4.6,7.5-10.6,6.1,6,7.5,7.7,7.5,10.6,0,4.1-3.3,7.5-7.5,7.5s-7.5-3.3-7.5-7.5M1015.3,1036.7c-2.1,3.6-6.6,4.8-10.2,2.7-2.5-1.5-3.3-3.5-5.5-11.8,8.3-2.3,10.4-2.6,12.9-1.1,3.6,2.1,4.8,6.6,2.7,10.2M1060.6,1039.4c-3.6,2.1-8.1.8-10.2-2.7-2.1-3.6-.8-8.1,2.7-10.2,2.5-1.5,4.7-1.1,12.9,1.1-2.1,8.3-2.9,10.3-5.5,11.8"/>
      </g>
    </g>
  </g>
</svg>