<?xml version="1.0" encoding="UTF-8" standalone="no"?>
<!DOCTYPE svg PUBLIC "-//W3C//DTD SVG 1.1//EN" "http://www.w3.org/Graphics/SVG/1.1/DTD/svg11.dtd">
<svg width="100%" height="100%" viewBox="0 0 300 300" version="1.1" xmlns="http://www.w3.org/2000/svg" xmlns:xlink="http://www.w3.org/1999/xlink" xml:space="preserve" xmlns:serif="http://www.serif.com/" style="fill-rule:evenodd;clip-rule:evenodd;stroke-linejoin:round;stroke-miterlimit:2;">
    <g transform="matrix(7.30152,0,0,7.30152,-996.894,700.692)">
        <path d="M155.479,-74.113C157.034,-77.009 160.09,-78.977 163.606,-78.977C168.698,-78.977 172.826,-74.849 172.826,-69.756C172.826,-64.663 168.698,-60.535 163.606,-60.535L141.826,-60.535C141.55,-60.535 141.326,-60.759 141.326,-61.035L141.326,-68.384C141.326,-71.962 142.077,-75.518 143.665,-78.724C146.089,-83.616 150.767,-89.547 159.281,-90.3C160.53,-90.41 161.611,-89.413 161.611,-88.159L161.611,-83.567C161.611,-82.384 160.653,-81.426 159.471,-81.426L151.609,-81.426C153.093,-80.144 155.422,-77.585 155.479,-74.113ZM155.352,-69.573C155.296,-68.905 155.216,-68.3 155.103,-67.758C154.837,-66.488 154.385,-65.546 153.676,-64.912C152.958,-64.27 151.969,-63.928 150.589,-63.928C150.313,-63.928 150.089,-64.152 150.089,-64.428C150.089,-64.704 150.313,-64.928 150.589,-64.928C151.665,-64.928 152.449,-65.156 153.009,-65.658C153.579,-66.167 153.911,-66.941 154.124,-67.963C154.26,-68.614 154.345,-69.359 154.397,-70.199C154.401,-70.271 154.405,-70.343 154.41,-70.415C154.468,-71.462 154.48,-72.652 154.48,-73.983C154.48,-78.653 149.869,-81.502 149.869,-81.502C149.68,-81.62 149.591,-81.849 149.653,-82.064C149.714,-82.278 149.91,-82.426 150.133,-82.426L159.471,-82.426C160.101,-82.426 160.611,-82.937 160.611,-83.567L160.611,-88.159C160.611,-88.828 160.036,-89.362 159.369,-89.303C151.284,-88.589 146.863,-82.926 144.561,-78.28C143.041,-75.212 142.326,-71.808 142.326,-68.384L142.326,-61.535L163.606,-61.535C168.146,-61.535 171.826,-65.216 171.826,-69.756C171.826,-74.297 168.146,-77.977 163.606,-77.977C159.067,-77.977 155.387,-74.297 155.387,-69.756C155.387,-69.692 155.375,-69.63 155.352,-69.573Z" style="fill:rgb(204,53,119);"/>
    </g>
</svg>
