<?xml version="1.0" encoding="UTF-8" standalone="no"?>
<!DOCTYPE svg PUBLIC "-//W3C//DTD SVG 1.1//EN" "http://www.w3.org/Graphics/SVG/1.1/DTD/svg11.dtd">
<svg width="100%" height="100%" viewBox="0 0 300 300" version="1.1" xmlns="http://www.w3.org/2000/svg" xmlns:xlink="http://www.w3.org/1999/xlink" xml:space="preserve" xmlns:serif="http://www.serif.com/" style="fill-rule:evenodd;clip-rule:evenodd;stroke-linejoin:round;stroke-miterlimit:2;">
    <g transform="matrix(6.19693,0,0,6.19693,-444.746,616.481)">
        <path d="M82.718,-72.573C82.077,-72.993 81.522,-73.545 81.101,-74.217C81.085,-74.242 81.069,-74.267 81.053,-74.293C79.141,-74.343 77.882,-75.458 77.105,-76.586C76.334,-77.704 76.048,-78.823 76.048,-78.823C76.003,-78.994 76.053,-79.176 76.178,-79.301C77.181,-80.305 78.097,-81.829 78.259,-83.692C78.51,-86.584 80.097,-88.294 80.097,-88.294C79.963,-88.148 79.958,-88.12 80.079,-88.269C81.383,-89.871 83.369,-90.894 85.594,-90.894C87.798,-90.894 89.767,-89.891 91.071,-88.316L91.092,-88.294C91.092,-88.294 92.678,-86.584 92.929,-83.692C93.091,-81.829 93.523,-80.79 95.011,-79.301C95.136,-79.176 95.185,-78.994 95.141,-78.823C95.141,-78.823 94.854,-77.704 94.083,-76.586C93.32,-75.478 92.091,-74.382 90.234,-74.296C90.181,-74.214 90.126,-74.131 90.07,-74.048L90.07,-74.047C89.699,-73.5 89.237,-73.038 88.709,-72.673L88.709,-72.02C88.709,-71.23 89.147,-70.483 89.873,-70.172C92.77,-68.933 95.019,-66.469 95.974,-63.432C96.78,-65.998 98.509,-68.155 100.772,-69.511C98.944,-69.991 97.675,-71.203 97.102,-72.37C96.751,-73.084 96.659,-73.789 96.809,-74.339C97.205,-75.792 98.847,-81.716 99.019,-83.692C99.27,-86.584 100.857,-88.294 100.857,-88.294C100.722,-88.148 100.717,-88.12 100.839,-88.269C102.143,-89.871 104.129,-90.894 106.354,-90.894C108.557,-90.894 110.527,-89.891 111.831,-88.316L111.851,-88.294C111.851,-88.294 113.438,-86.584 113.689,-83.692C113.861,-81.716 115.503,-75.792 115.899,-74.339C116.047,-73.795 115.974,-73.089 115.656,-72.37C115.125,-71.167 113.908,-69.907 112.077,-69.421C115.173,-67.502 117.234,-64.068 117.234,-60.158C117.234,-59.883 117.01,-59.658 116.734,-59.658C116.458,-59.658 116.234,-59.883 116.234,-60.158C116.234,-64.151 113.868,-67.597 110.46,-69.155L106.783,-65.476C106.689,-65.382 106.562,-65.329 106.429,-65.329C106.297,-65.329 106.17,-65.382 106.076,-65.476L102.349,-69.205C98.888,-67.668 96.474,-64.195 96.474,-60.158C96.474,-59.883 96.25,-59.658 95.974,-59.658C95.698,-59.658 95.474,-59.883 95.474,-60.158C95.474,-64.134 93.128,-67.569 89.742,-69.136C89.73,-69.121 89.717,-69.107 89.703,-69.093L86.02,-65.473C85.826,-65.281 85.514,-65.281 85.319,-65.473L81.543,-69.184C78.106,-67.637 75.714,-64.177 75.714,-60.158C75.714,-59.883 75.49,-59.658 75.214,-59.658C74.938,-59.658 74.714,-59.883 74.714,-60.158C74.714,-64.732 77.528,-68.648 81.517,-70.261C82.263,-70.562 82.718,-71.321 82.718,-72.125L82.718,-72.573ZM82.484,-69.661L85.67,-66.53L88.833,-69.64C88.126,-70.203 87.709,-71.088 87.709,-72.02L87.709,-72.123C87.03,-71.839 86.29,-71.696 85.534,-71.711L85.533,-71.711C84.905,-71.725 84.293,-71.845 83.717,-72.064C83.699,-71.107 83.24,-70.207 82.484,-69.661ZM87.943,-73.367C87.944,-73.368 87.946,-73.369 87.947,-73.37C88.455,-73.681 88.897,-74.1 89.241,-74.608C89.706,-75.297 90.097,-75.983 90.296,-76.604C90.901,-78.571 90.946,-80.485 90.927,-81.357C89.138,-81.274 87.65,-81.547 86.437,-82.206C85.466,-82.733 84.664,-83.508 84.026,-84.56C83.79,-83.81 83.437,-83.201 82.972,-82.713C82.309,-82.017 81.412,-81.559 80.262,-81.311C80.286,-80.513 80.412,-78.641 81.022,-76.647C81.212,-76.035 81.541,-75.389 81.946,-74.751L81.948,-74.749C82.333,-74.133 82.859,-73.64 83.466,-73.286L83.469,-73.284C84.102,-72.924 84.816,-72.727 85.554,-72.711C86.408,-72.694 87.237,-72.924 87.943,-73.367ZM109.558,-69.668C108.872,-70.232 108.469,-71.103 108.469,-72.02L108.469,-72.123C107.789,-71.839 107.05,-71.696 106.294,-71.711L106.293,-71.711C105.665,-71.725 105.052,-71.845 104.477,-72.064C104.459,-71.122 104.014,-70.236 103.281,-69.688L106.429,-66.537L109.558,-69.668ZM114.934,-74.076C114.531,-75.556 112.868,-81.593 112.693,-83.606C112.475,-86.114 111.123,-87.608 111.115,-87.617L111.068,-87.669C109.948,-89.028 108.252,-89.894 106.354,-89.894C104.442,-89.894 102.735,-89.015 101.615,-87.638C101.6,-87.62 101.584,-87.603 101.567,-87.587C101.378,-87.365 100.216,-85.915 100.015,-83.606C99.84,-81.593 98.177,-75.556 97.774,-74.076C97.64,-73.586 97.859,-72.925 98.31,-72.295C99.053,-71.257 100.459,-70.33 102.363,-70.298C103.057,-70.621 103.478,-71.352 103.478,-72.125L103.478,-72.516C103.477,-72.517 103.476,-72.517 103.476,-72.518C102.848,-72.903 102.301,-73.419 101.876,-74.047L101.876,-74.048C101.352,-74.825 100.92,-75.603 100.697,-76.302L100.695,-76.307C99.814,-79.17 100.043,-81.93 100.043,-81.93C100.066,-82.205 100.307,-82.41 100.582,-82.387C102.378,-82.241 103.853,-82.444 105.031,-83.084C106.19,-83.713 107.05,-84.766 107.66,-86.282C107.745,-86.495 107.966,-86.623 108.193,-86.591C108.421,-86.559 108.598,-86.375 108.621,-86.147C108.745,-84.941 109.09,-84.04 109.698,-83.402C110.304,-82.766 111.163,-82.399 112.27,-82.217C112.509,-82.178 112.685,-81.974 112.689,-81.733C112.689,-81.733 112.738,-79.156 111.88,-76.353L111.88,-76.352C111.666,-75.663 111.3,-74.935 110.845,-74.217C110.478,-73.631 110.008,-73.135 109.469,-72.74L109.469,-72.02C109.469,-71.305 109.828,-70.625 110.434,-70.272C110.495,-70.264 110.556,-70.245 110.611,-70.215C112.463,-70.271 113.773,-71.208 114.454,-72.248C114.88,-72.898 115.069,-73.58 114.934,-74.076ZM90.869,-75.391C91.98,-75.656 92.747,-76.409 93.26,-77.153C93.711,-77.807 93.971,-78.46 94.091,-78.811C92.565,-80.397 92.11,-81.571 91.933,-83.606C91.716,-86.102 90.376,-87.594 90.356,-87.617L90.328,-87.647L90.309,-87.669C89.188,-89.028 87.492,-89.894 85.594,-89.894C83.682,-89.894 81.975,-89.015 80.855,-87.638C80.84,-87.62 80.824,-87.603 80.807,-87.587C80.618,-87.365 79.456,-85.915 79.255,-83.606C79.082,-81.612 78.155,-79.957 77.096,-78.814C77.216,-78.464 77.476,-77.809 77.928,-77.153C78.463,-76.377 79.273,-75.593 80.462,-75.36C80.301,-75.696 80.167,-76.028 80.066,-76.352L80.066,-76.353C79.208,-79.156 79.257,-81.733 79.257,-81.733C79.261,-81.974 79.437,-82.178 79.676,-82.217C80.783,-82.399 81.642,-82.766 82.248,-83.402C82.856,-84.04 83.201,-84.941 83.325,-86.147C83.348,-86.375 83.525,-86.559 83.753,-86.591C83.98,-86.623 84.201,-86.495 84.286,-86.282C84.896,-84.766 85.756,-83.713 86.915,-83.084C88.093,-82.444 89.568,-82.241 91.364,-82.387C91.639,-82.41 91.88,-82.205 91.903,-81.93C91.903,-81.93 92.132,-79.17 91.251,-76.307L91.249,-76.302C91.156,-76.01 91.026,-75.704 90.869,-75.391ZM108.334,-73.161C108.372,-73.209 108.42,-73.252 108.477,-73.284C109.085,-73.638 109.612,-74.132 109.998,-74.749L110,-74.751C110.405,-75.389 110.735,-76.035 110.924,-76.647C111.535,-78.641 111.66,-80.513 111.684,-81.311C110.534,-81.559 109.637,-82.017 108.974,-82.713C108.509,-83.201 108.156,-83.81 107.92,-84.56C107.282,-83.508 106.48,-82.733 105.509,-82.206C104.296,-81.547 102.808,-81.274 101.019,-81.357C101,-80.485 101.045,-78.571 101.65,-76.604C101.849,-75.983 102.24,-75.297 102.705,-74.608C103.049,-74.1 103.491,-73.681 103.999,-73.37C104.009,-73.363 104.02,-73.357 104.029,-73.349C104.098,-73.342 104.165,-73.321 104.226,-73.286C104.859,-72.924 105.574,-72.727 106.314,-72.711C107.023,-72.697 107.716,-72.853 108.334,-73.161Z" style="fill:rgb(204,53,119);"/>
    </g>
</svg>
