<?xml version="1.0" encoding="UTF-8" standalone="no"?>
<!DOCTYPE svg PUBLIC "-//W3C//DTD SVG 1.1//EN" "http://www.w3.org/Graphics/SVG/1.1/DTD/svg11.dtd">
<svg width="100%" height="100%" viewBox="0 0 300 300" version="1.1" xmlns="http://www.w3.org/2000/svg" xmlns:xlink="http://www.w3.org/1999/xlink" xml:space="preserve" xmlns:serif="http://www.serif.com/" style="fill-rule:evenodd;clip-rule:evenodd;stroke-linejoin:round;stroke-miterlimit:2;">
    <g transform="matrix(7.44697,0,0,7.44697,223.812,792.535)">
        <path d="M6.202,-94.27C6.202,-93.157 5.581,-91.122 4.691,-88.825C2.673,-83.619 -0.688,-77.001 -0.688,-77.001C-0.773,-76.833 -0.945,-76.727 -1.134,-76.728C-1.322,-76.728 -1.494,-76.834 -1.58,-77.002C-1.58,-77.002 -4.932,-83.624 -6.942,-88.833C-7.829,-91.131 -8.447,-93.167 -8.447,-94.28C-8.444,-98.326 -5.16,-101.608 -1.117,-101.605C2.925,-101.603 6.205,-98.316 6.202,-94.27ZM5.202,-94.27C5.205,-97.764 2.373,-100.603 -1.118,-100.605C-4.609,-100.608 -7.444,-97.773 -7.447,-94.279C-7.447,-93.238 -6.839,-91.342 -6.009,-89.193C-4.46,-85.177 -2.106,-80.316 -1.133,-78.347C-0.157,-80.315 2.203,-85.173 3.758,-89.186C4.591,-91.335 5.202,-93.229 5.202,-94.27ZM1.804,-94.47C1.803,-92.84 0.48,-91.519 -1.15,-91.52C-2.781,-91.521 -4.101,-92.844 -4.1,-94.474C-4.099,-96.105 -2.777,-97.426 -1.146,-97.424C0.484,-97.423 1.805,-96.101 1.804,-94.47ZM0.804,-94.471C0.805,-95.549 -0.069,-96.424 -1.147,-96.424C-2.225,-96.425 -3.1,-95.552 -3.1,-94.474C-3.101,-93.396 -2.228,-92.521 -1.149,-92.52C-0.071,-92.52 0.803,-93.393 0.804,-94.471ZM-19.159,-77.013C-19.159,-77.013 -22.511,-83.635 -24.521,-88.844C-25.409,-91.143 -26.026,-93.178 -26.026,-94.291C-26.023,-98.337 -22.739,-101.62 -18.696,-101.617C-14.654,-101.614 -11.374,-98.328 -11.377,-94.282C-11.378,-93.168 -11.998,-91.134 -12.888,-88.837C-14.906,-83.63 -18.267,-77.013 -18.267,-77.013C-18.352,-76.845 -18.524,-76.739 -18.713,-76.739C-18.901,-76.739 -19.073,-76.845 -19.159,-77.013ZM-18.712,-78.358C-17.736,-80.327 -15.376,-85.185 -13.821,-89.198C-12.988,-91.347 -12.377,-93.241 -12.377,-94.282C-12.374,-97.776 -15.206,-100.615 -18.697,-100.617C-22.188,-100.619 -25.023,-97.784 -25.026,-94.291C-25.026,-93.25 -24.418,-91.354 -23.589,-89.205C-22.039,-85.189 -19.685,-80.328 -18.712,-78.358ZM-14.206,-94.502C-14.207,-92.017 -16.221,-90.004 -18.704,-90.006C-21.187,-90.007 -23.198,-92.023 -23.196,-94.508C-23.195,-96.992 -21.181,-99.005 -18.698,-99.004C-16.216,-99.002 -14.204,-96.986 -14.206,-94.502ZM-15.206,-94.502C-15.205,-96.435 -16.768,-98.002 -18.699,-98.004C-20.629,-98.005 -22.195,-96.439 -22.196,-94.507C-22.198,-92.575 -20.634,-91.007 -18.703,-91.006C-16.773,-91.005 -15.207,-92.57 -15.206,-94.502ZM-3.166,-73.587C-2.944,-74.529 -2.11,-75.226 -1.122,-75.225C0.035,-75.224 0.978,-74.269 0.978,-73.084C0.977,-71.899 0.032,-70.945 -1.124,-70.946C-2.113,-70.947 -2.945,-71.644 -3.166,-72.587L-5.925,-72.589C-6.201,-72.589 -6.425,-72.813 -6.424,-73.089C-6.424,-73.365 -6.2,-73.589 -5.924,-73.589L-3.166,-73.587ZM-2.224,-73.086C-2.224,-72.46 -1.735,-71.946 -1.124,-71.946C-0.513,-71.945 -0.023,-72.459 -0.022,-73.085C-0.022,-73.711 -0.511,-74.225 -1.122,-74.225C-1.733,-74.226 -2.223,-73.712 -2.224,-73.086ZM-16.685,-73.596L-9.125,-73.591C-8.849,-73.591 -8.625,-73.367 -8.625,-73.091C-8.626,-72.815 -8.85,-72.591 -9.126,-72.591L-16.686,-72.596C-16.908,-71.654 -17.741,-70.957 -18.73,-70.958C-19.886,-70.959 -20.83,-71.914 -20.829,-73.099C-20.828,-74.284 -19.884,-75.238 -18.727,-75.237C-17.738,-75.236 -16.906,-74.539 -16.685,-73.596ZM-17.628,-73.097C-17.627,-73.723 -18.116,-74.237 -18.728,-74.237C-19.339,-74.238 -19.828,-73.724 -19.829,-73.098C-19.829,-72.472 -19.34,-71.958 -18.729,-71.958C-18.118,-71.957 -17.628,-72.471 -17.628,-73.097Z" style="fill:rgb(204,53,119);"/>
    </g>
</svg>
