<?xml version="1.0" encoding="UTF-8" standalone="no"?>
<!DOCTYPE svg PUBLIC "-//W3C//DTD SVG 1.1//EN" "http://www.w3.org/Graphics/SVG/1.1/DTD/svg11.dtd">
<svg width="100%" height="100%" viewBox="0 0 300 300" version="1.1" xmlns="http://www.w3.org/2000/svg" xmlns:xlink="http://www.w3.org/1999/xlink" xml:space="preserve" xmlns:serif="http://www.serif.com/" style="fill-rule:evenodd;clip-rule:evenodd;stroke-linejoin:round;stroke-miterlimit:2;">
    <g transform="matrix(6.88573,0,0,6.88573,-176.196,733.75)">
        <path d="M34.588,-85.398C35.326,-85.79 36.279,-85.694 36.91,-85.11L41.045,-81.61C41.684,-81.069 42.142,-80.345 42.357,-79.535L43.297,-75.99C43.753,-74.27 43.798,-72.466 43.431,-70.725C43.373,-70.455 43.108,-70.283 42.838,-70.34C42.568,-70.397 42.395,-70.662 42.452,-70.932C42.788,-72.52 42.746,-74.165 42.33,-75.733L41.39,-79.279C41.228,-79.891 40.882,-80.438 40.399,-80.847L36.255,-84.355C36.248,-84.36 36.242,-84.366 36.236,-84.372C35.855,-84.729 35.238,-84.729 34.858,-84.372C34.503,-84.039 34.503,-83.498 34.858,-83.165L38.194,-80.034C38.396,-79.845 38.406,-79.529 38.217,-79.327C38.028,-79.126 37.711,-79.116 37.51,-79.305L34.173,-82.436C33.753,-82.83 33.559,-83.355 33.588,-83.872L33.588,-92.462C33.588,-92.951 33.151,-93.331 32.63,-93.331C32.11,-93.331 31.672,-92.951 31.672,-92.462L31.672,-85.236C31.672,-83.459 32.181,-81.719 33.139,-80.222L37.358,-73.63C37.409,-73.549 37.436,-73.456 37.436,-73.36L37.436,-70.388C37.436,-70.112 37.212,-69.888 36.936,-69.888C36.66,-69.888 36.436,-70.112 36.436,-70.388L36.436,-73.214L32.297,-79.683C31.236,-81.341 30.672,-83.268 30.672,-85.236L30.672,-92.462C30.672,-93.485 31.541,-94.331 32.63,-94.331C33.719,-94.331 34.588,-93.485 34.588,-92.462L34.588,-85.398ZM60.157,-85.398L60.157,-92.462C60.157,-93.484 61.026,-94.331 62.116,-94.331C63.205,-94.331 64.074,-93.485 64.074,-92.462L64.074,-85.236C64.074,-83.268 63.51,-81.34 62.449,-79.683L58.309,-73.214L58.309,-70.388C58.309,-70.112 58.085,-69.888 57.809,-69.888C57.533,-69.888 57.309,-70.112 57.309,-70.388L57.309,-73.36C57.309,-73.456 57.337,-73.549 57.388,-73.63L61.607,-80.222C62.565,-81.719 63.074,-83.459 63.074,-85.236L63.074,-92.462C63.074,-92.951 62.636,-93.331 62.116,-93.331C61.595,-93.331 61.157,-92.951 61.157,-92.462L61.157,-83.873C61.188,-83.357 60.993,-82.83 60.572,-82.436L57.236,-79.305C57.034,-79.116 56.718,-79.126 56.529,-79.327C56.34,-79.529 56.35,-79.845 56.551,-80.034L59.888,-83.165C60.243,-83.498 60.243,-84.039 59.888,-84.372C59.508,-84.729 58.89,-84.729 58.51,-84.372C58.504,-84.366 58.497,-84.36 58.491,-84.355L54.346,-80.847C53.863,-80.438 53.518,-79.891 53.356,-79.279L52.416,-75.733C52,-74.165 51.958,-72.52 52.294,-70.932C52.351,-70.662 52.178,-70.397 51.908,-70.34C51.638,-70.283 51.372,-70.455 51.315,-70.725C50.947,-72.466 50.993,-74.27 51.449,-75.99L52.389,-79.535C52.603,-80.345 53.061,-81.069 53.7,-81.61L57.835,-85.109C58.466,-85.694 59.42,-85.79 60.157,-85.398ZM47.373,-97.205C49.528,-100.352 53.236,-100.182 55.149,-98.364C57.132,-96.48 57.231,-92.714 55.253,-88.95C53.917,-86.232 50.5,-83.499 47.64,-81.687C47.477,-81.584 47.269,-81.584 47.105,-81.687C44.247,-83.498 40.832,-86.229 39.496,-88.945C37.515,-92.713 37.614,-96.48 39.596,-98.364C41.509,-100.182 45.217,-100.352 47.373,-97.205ZM46.93,-96.003C45.266,-99.167 41.95,-99.221 40.285,-97.639C39.621,-97.008 39.232,-96.12 39.099,-95.084C38.887,-93.432 39.323,-91.42 40.383,-89.405L40.39,-89.393C41.614,-86.898 44.715,-84.419 47.373,-82.703C50.03,-84.419 53.131,-86.898 54.356,-89.393L54.363,-89.405C55.423,-91.42 55.859,-93.432 55.647,-95.084C55.514,-96.12 55.125,-97.008 54.461,-97.639C52.796,-99.221 49.48,-99.167 47.815,-96.003C47.729,-95.839 47.559,-95.736 47.373,-95.736C47.187,-95.736 47.017,-95.839 46.93,-96.003Z" style="fill:rgb(204,53,119);"/>
    </g>
</svg>
