<?xml version="1.0" encoding="UTF-8" standalone="no"?>
<!DOCTYPE svg PUBLIC "-//W3C//DTD SVG 1.1//EN" "http://www.w3.org/Graphics/SVG/1.1/DTD/svg11.dtd">
<svg width="100%" height="100%" viewBox="0 0 300 300" version="1.1" xmlns="http://www.w3.org/2000/svg" xmlns:xlink="http://www.w3.org/1999/xlink" xml:space="preserve" xmlns:serif="http://www.serif.com/" style="fill-rule:evenodd;clip-rule:evenodd;stroke-linejoin:round;stroke-miterlimit:2;">
    <g transform="matrix(5.84752,0,0,5.84752,426.394,642.239)">
        <path d="M-64.843,-88.158L-61.688,-96.636L-63.844,-96.636C-64.12,-96.636 -64.344,-96.86 -64.344,-97.136C-64.344,-97.412 -64.12,-97.636 -63.844,-97.636L-49.898,-97.636C-49.664,-98.864 -48.586,-99.792 -47.29,-99.792C-45.995,-99.792 -44.917,-98.864 -44.683,-97.636L-30.69,-97.636C-30.414,-97.636 -30.19,-97.412 -30.19,-97.136C-30.19,-96.86 -30.414,-96.636 -30.69,-96.636L-32.845,-96.636L-29.691,-88.158L-28.1,-88.158C-27.824,-88.158 -27.6,-87.934 -27.6,-87.658C-27.6,-84.414 -30.229,-81.785 -33.471,-81.785C-36.713,-81.785 -39.341,-84.414 -39.341,-87.658C-39.341,-87.934 -39.117,-88.158 -38.841,-88.158L-37.254,-88.158L-34.168,-96.636L-44.683,-96.636C-44.886,-95.57 -45.725,-94.73 -46.79,-94.527L-46.79,-74.754L-44.294,-74.754C-41.889,-74.754 -39.939,-72.804 -39.939,-70.397L-39.939,-69.066C-39.939,-68.79 -40.163,-68.566 -40.439,-68.566L-54.141,-68.566C-54.418,-68.566 -54.641,-68.79 -54.641,-69.066L-54.641,-70.397C-54.641,-72.804 -52.692,-74.754 -50.286,-74.754L-47.79,-74.754L-47.79,-94.527C-48.856,-94.73 -49.695,-95.57 -49.898,-96.636L-60.366,-96.636L-57.28,-88.158L-55.693,-88.158C-55.417,-88.158 -55.193,-87.934 -55.193,-87.658C-55.193,-84.414 -57.821,-81.785 -61.063,-81.785C-64.305,-81.785 -66.933,-84.414 -66.933,-87.658C-66.933,-87.934 -66.709,-88.158 -66.433,-88.158L-64.843,-88.158ZM-57.475,-87.158C-57.522,-87.144 -57.572,-87.136 -57.622,-87.136L-64.504,-87.136C-64.554,-87.136 -64.604,-87.144 -64.651,-87.158L-65.908,-87.158C-65.658,-84.702 -63.584,-82.785 -61.063,-82.785C-58.542,-82.785 -56.468,-84.702 -56.218,-87.158L-57.475,-87.158ZM-63.776,-88.158L-58.344,-88.158L-61.03,-95.537L-63.776,-88.158ZM-47.29,-95.48C-46.377,-95.48 -45.636,-96.221 -45.636,-97.136C-45.636,-98.05 -46.377,-98.792 -47.29,-98.792C-48.204,-98.792 -48.945,-98.05 -48.945,-97.136C-48.945,-96.221 -48.204,-95.48 -47.29,-95.48ZM-36.189,-88.158L-30.758,-88.158L-33.504,-95.537L-36.189,-88.158ZM-29.883,-87.158C-29.93,-87.144 -29.979,-87.136 -30.03,-87.136L-36.912,-87.136C-36.962,-87.136 -37.012,-87.144 -37.059,-87.158L-38.316,-87.158C-38.066,-84.702 -35.992,-82.785 -33.471,-82.785C-30.95,-82.785 -28.876,-84.702 -28.626,-87.158L-29.883,-87.158ZM-40.939,-69.566L-40.939,-70.397C-40.939,-72.251 -42.441,-73.754 -44.294,-73.754L-50.286,-73.754C-52.14,-73.754 -53.641,-72.251 -53.641,-70.397L-53.641,-69.566L-40.939,-69.566Z" style="fill:rgb(204,53,119);"/>
    </g>
</svg>
