<?xml version="1.0" encoding="UTF-8" standalone="no"?>
<!DOCTYPE svg PUBLIC "-//W3C//DTD SVG 1.1//EN" "http://www.w3.org/Graphics/SVG/1.1/DTD/svg11.dtd">
<svg width="100%" height="100%" viewBox="0 0 150 150" version="1.1" xmlns="http://www.w3.org/2000/svg" xmlns:xlink="http://www.w3.org/1999/xlink" xml:space="preserve" xmlns:serif="http://www.serif.com/" style="fill-rule:evenodd;clip-rule:evenodd;stroke-linejoin:round;stroke-miterlimit:2;">
    <g transform="matrix(0.793675,0,-3.00174e-14,0.793675,-1001.98,-1087.94)">
        <path d="M1406.21,1445.46C1407.78,1458.15 1415.71,1463.38 1419.55,1467.25C1422.23,1469.96 1423.22,1472.42 1422.21,1475.04C1421.49,1476.91 1419.64,1478.71 1417.26,1480.15C1414.88,1481.6 1411.98,1482.75 1409.76,1483.51C1412.58,1488.39 1412.6,1492.05 1411.73,1494.65C1410.99,1496.88 1409.5,1498.46 1408.06,1499.54C1408.67,1500.39 1409.05,1501.28 1409.28,1502.16C1409.77,1504.05 1409.49,1505.99 1408.84,1507.72C1408.12,1509.65 1406.93,1511.29 1406.17,1512.22C1405.79,1516.83 1402.81,1519.62 1398.33,1521.19C1392.6,1523.18 1384.1,1522.94 1377.28,1522.94C1374.03,1522.94 1372.15,1525.45 1370.88,1528.22C1368.53,1533.35 1368.3,1539.76 1368.3,1539.76C1368.25,1541.17 1367.09,1542.29 1365.68,1542.29L1320.34,1542.29C1319.54,1542.29 1318.78,1541.92 1318.28,1541.29C1317.79,1540.66 1317.6,1539.84 1317.79,1539.05C1319.65,1531.22 1319.01,1508.71 1304.63,1485.69C1290.11,1462.43 1291.2,1447.36 1291.41,1445.46C1291.5,1413.85 1317.18,1388.22 1348.81,1388.22C1380.44,1388.22 1406.12,1413.85 1406.21,1445.46ZM1296.63,1445.99C1296.63,1445.99 1294.84,1460.08 1309.09,1482.91C1322.86,1504.97 1324.64,1526.65 1323.44,1537.04L1363.27,1537.04C1363.59,1534.32 1364.35,1529.87 1366.11,1526.03C1368.24,1521.38 1371.82,1517.69 1377.28,1517.69C1383.53,1517.69 1391.35,1518.06 1396.6,1516.23C1399.11,1515.35 1400.96,1513.93 1400.96,1511.19C1400.96,1510.51 1401.23,1509.85 1401.71,1509.36C1401.71,1509.36 1402.66,1508.37 1403.43,1506.95C1403.99,1505.93 1404.54,1504.65 1404.17,1503.39C1403.94,1502.6 1403.31,1501.89 1402.22,1501.23C1401.33,1500.69 1400.85,1499.68 1400.99,1498.64C1401.12,1497.61 1401.86,1496.76 1402.86,1496.47C1402.86,1496.47 1405.86,1495.65 1406.75,1492.98C1407.46,1490.89 1406.76,1487.94 1403.53,1483.62C1403.01,1482.92 1402.87,1482 1403.16,1481.18C1403.45,1480.35 1404.13,1479.73 1404.98,1479.51C1404.98,1479.51 1409.13,1478.43 1412.83,1476.59C1413.97,1476.03 1415.07,1475.4 1415.95,1474.69C1416.57,1474.2 1417.09,1473.71 1417.32,1473.14C1417.39,1472.95 1417.29,1472.78 1417.19,1472.6C1417.05,1472.35 1416.86,1472.09 1416.63,1471.82C1415.94,1471 1414.99,1470.13 1413.91,1469.14C1409.22,1464.8 1402.48,1458.49 1400.98,1445.94L1400.98,1445.93C1400.97,1445.83 1400.96,1445.73 1400.96,1445.62C1400.96,1416.84 1377.59,1393.47 1348.81,1393.47C1320.03,1393.47 1296.66,1416.84 1296.66,1445.62C1296.66,1445.74 1296.65,1445.87 1296.63,1445.99ZM1348.81,1414.53C1365.97,1414.53 1379.9,1428.46 1379.9,1445.62C1379.9,1462.78 1365.97,1476.72 1348.81,1476.72C1331.65,1476.72 1317.72,1462.78 1317.72,1445.62C1317.72,1428.46 1331.65,1414.53 1348.81,1414.53ZM1348.81,1419.78C1334.55,1419.78 1322.97,1431.36 1322.97,1445.62C1322.97,1459.89 1334.55,1471.47 1348.81,1471.47C1363.07,1471.47 1374.65,1459.89 1374.65,1445.62C1374.65,1431.36 1363.07,1419.78 1348.81,1419.78ZM1339.41,1457.53C1339.41,1458.98 1338.24,1460.15 1336.79,1460.15C1335.34,1460.15 1334.16,1458.98 1334.16,1457.53C1334.16,1449.44 1340.73,1442.88 1348.81,1442.88C1356.9,1442.88 1363.46,1449.44 1363.46,1457.53C1363.46,1458.98 1362.28,1460.15 1360.84,1460.15C1359.39,1460.15 1358.21,1458.98 1358.21,1457.53C1358.21,1452.34 1354,1448.13 1348.81,1448.13C1343.62,1448.13 1339.41,1452.34 1339.41,1457.53ZM1336.9,1431.3C1338.6,1431.3 1339.98,1432.68 1339.98,1434.38C1339.98,1436.07 1338.6,1437.45 1336.9,1437.45C1335.21,1437.45 1333.83,1436.07 1333.83,1434.38C1333.83,1432.68 1335.21,1431.3 1336.9,1431.3ZM1360.72,1431.3C1362.41,1431.3 1363.79,1432.68 1363.79,1434.38C1363.79,1436.07 1362.41,1437.45 1360.72,1437.45C1359.02,1437.45 1357.64,1436.07 1357.64,1434.38C1357.64,1432.68 1359.02,1431.3 1360.72,1431.3Z"/>
    </g>
</svg>
