<?xml version="1.0" encoding="UTF-8" standalone="no"?>
<!DOCTYPE svg PUBLIC "-//W3C//DTD SVG 1.1//EN" "http://www.w3.org/Graphics/SVG/1.1/DTD/svg11.dtd">
<svg width="100%" height="100%" viewBox="0 0 150 150" version="1.1" xmlns="http://www.w3.org/2000/svg" xmlns:xlink="http://www.w3.org/1999/xlink" xml:space="preserve" xmlns:serif="http://www.serif.com/" style="fill-rule:evenodd;clip-rule:evenodd;stroke-linejoin:round;stroke-miterlimit:2;">
    <g transform="matrix(3.87243,0,0,3.87243,-533.266,367.064)">
        <path d="M155.513,-74.255C157.094,-77.095 160.126,-79.015 163.606,-79.015C168.719,-79.015 172.864,-74.87 172.864,-69.756C172.864,-64.642 168.719,-60.497 163.606,-60.497L141.826,-60.497C141.529,-60.497 141.288,-60.738 141.288,-61.035L141.288,-68.384C141.288,-71.968 142.04,-75.53 143.631,-78.741C146.06,-83.642 150.748,-89.584 159.278,-90.337C160.548,-90.45 161.649,-89.435 161.649,-88.159L161.649,-83.567C161.649,-82.363 160.674,-81.388 159.471,-81.388L151.71,-81.388C153.181,-80.098 155.398,-77.609 155.513,-74.255ZM155.389,-69.564C155.333,-68.896 155.253,-68.292 155.14,-67.751C154.873,-66.471 154.415,-65.522 153.701,-64.884C152.977,-64.236 151.98,-63.89 150.589,-63.89C150.292,-63.89 150.051,-64.131 150.051,-64.428C150.051,-64.725 150.292,-64.966 150.589,-64.966C151.654,-64.966 152.43,-65.19 152.984,-65.686C153.549,-66.191 153.875,-66.958 154.087,-67.97C154.222,-68.618 154.307,-69.36 154.359,-70.196C154.363,-70.271 154.368,-70.347 154.372,-70.423C154.43,-71.468 154.442,-72.655 154.442,-73.983C154.442,-78.633 149.849,-81.469 149.849,-81.469C149.645,-81.596 149.55,-81.843 149.616,-82.074C149.682,-82.305 149.893,-82.464 150.133,-82.464L159.471,-82.464C160.08,-82.464 160.573,-82.958 160.573,-83.567L160.573,-88.159C160.573,-88.806 160.017,-89.323 159.373,-89.266C151.303,-88.552 146.893,-82.899 144.595,-78.263C143.078,-75.201 142.364,-71.802 142.364,-68.384L142.364,-61.573L163.606,-61.573C168.125,-61.573 171.788,-65.237 171.788,-69.756C171.788,-74.276 168.125,-77.939 163.606,-77.939C159.088,-77.939 155.425,-74.276 155.425,-69.756C155.425,-69.688 155.412,-69.624 155.389,-69.564Z"/>
    </g>
</svg>
