<?xml version="1.0" encoding="UTF-8" standalone="no"?>
<!DOCTYPE svg PUBLIC "-//W3C//DTD SVG 1.1//EN" "http://www.w3.org/Graphics/SVG/1.1/DTD/svg11.dtd">
<svg width="100%" height="100%" viewBox="0 0 200 128" version="1.1" xmlns="http://www.w3.org/2000/svg" xmlns:xlink="http://www.w3.org/1999/xlink" xml:space="preserve" xmlns:serif="http://www.serif.com/" style="fill-rule:evenodd;clip-rule:evenodd;stroke-linejoin:round;stroke-miterlimit:2;">
    <g transform="matrix(0.22639,0,0,0.22639,-34.5667,-93.5745)">
        <path d="M1017.02,900.455C1017.02,916.338 1010.65,930.755 1000.36,941.317L673.938,705.507L1009.8,462.876C1014.39,471.233 1017.02,480.823 1017.02,491.016L1017.02,900.455ZM230.368,959.035C221.181,959.035 212.484,956.904 204.737,953.118L531.18,717.289L543.771,726.385C558.913,737.326 576.659,742.796 594.404,742.796C612.15,742.796 629.896,737.326 645.038,726.385L657.629,717.289L984.07,953.117C976.323,956.903 967.625,959.035 958.437,959.035L230.368,959.035ZM171.788,900.455L171.788,491.016C171.788,480.822 174.411,471.231 179.008,462.874L514.87,705.507L188.452,941.319C178.152,930.757 171.788,916.339 171.788,900.455ZM958.437,432.436C973.668,432.436 987.556,438.283 997.985,447.845L633.852,710.901C610.258,727.949 578.551,727.949 554.957,710.901L190.821,447.843C201.25,438.282 215.138,432.436 230.368,432.436L958.437,432.436ZM958.437,413.334L230.368,413.334C187.534,413.334 152.687,448.182 152.687,491.016L152.687,900.455C152.687,943.289 187.534,978.137 230.368,978.137L958.437,978.137C1001.27,978.137 1036.12,943.289 1036.12,900.455L1036.12,491.016C1036.12,448.182 1001.27,413.334 958.437,413.334Z" style="fill:rgb(204,53,119);fill-rule:nonzero;"/>
    </g>
</svg>
